<svg xmlns="http://www.w3.org/2000/svg" width="1400" height="880" viewBox="0 0 1400 880">
<rect x="0" y="0" width="100%" height="100%" fill="#ffffff"/>
<text x="700.0" y="33" text-anchor="middle" font-size="22" font-family="sans-serif">Equal-Train-Loss Comparison: Generalization and Implicit Regularization</text>
<rect x="65.0" y="65.0" width="600.0" height="332.5" fill="#fafafa" stroke="#dddddd"/>
<text x="365.0" y="55.0" text-anchor="middle" font-size="13" font-family="sans-serif">Test Loss @ Matched Train-Loss Anchor</text>
<line x1="65.0" y1="397.5" x2="65.0" y2="401.5" stroke="#666" stroke-width="1"/>
<text x="65.0" y="414.5" text-anchor="middle" font-size="10" font-family="sans-serif" fill="#555">2.5</text>
<line x1="215.0" y1="397.5" x2="215.0" y2="401.5" stroke="#666" stroke-width="1"/>
<text x="215.0" y="414.5" text-anchor="middle" font-size="10" font-family="sans-serif" fill="#555">20.2</text>
<line x1="365.0" y1="397.5" x2="365.0" y2="401.5" stroke="#666" stroke-width="1"/>
<text x="365.0" y="414.5" text-anchor="middle" font-size="10" font-family="sans-serif" fill="#555">37.9</text>
<line x1="515.0" y1="397.5" x2="515.0" y2="401.5" stroke="#666" stroke-width="1"/>
<text x="515.0" y="414.5" text-anchor="middle" font-size="10" font-family="sans-serif" fill="#555">55.6</text>
<line x1="665.0" y1="397.5" x2="665.0" y2="401.5" stroke="#666" stroke-width="1"/>
<text x="665.0" y="414.5" text-anchor="middle" font-size="10" font-family="sans-serif" fill="#555">73.3</text>
<line x1="61.0" y1="397.5" x2="65.0" y2="397.5" stroke="#666" stroke-width="1"/>
<text x="58.0" y="400.5" text-anchor="end" font-size="10" font-family="sans-serif" fill="#555">-3.0</text>
<line x1="61.0" y1="314.4" x2="65.0" y2="314.4" stroke="#666" stroke-width="1"/>
<text x="58.0" y="317.4" text-anchor="end" font-size="10" font-family="sans-serif" fill="#555">13.6</text>
<line x1="61.0" y1="231.2" x2="65.0" y2="231.2" stroke="#666" stroke-width="1"/>
<text x="58.0" y="234.2" text-anchor="end" font-size="10" font-family="sans-serif" fill="#555">30.3</text>
<line x1="61.0" y1="148.1" x2="65.0" y2="148.1" stroke="#666" stroke-width="1"/>
<text x="58.0" y="151.1" text-anchor="end" font-size="10" font-family="sans-serif" fill="#555">46.9</text>
<line x1="61.0" y1="65.0" x2="65.0" y2="65.0" stroke="#666" stroke-width="1"/>
<text x="58.0" y="68.0" text-anchor="end" font-size="10" font-family="sans-serif" fill="#555">63.6</text>
<polyline fill="none" stroke="#ff7f0e" stroke-width="2" points="65.0,369.7 165.0,307.3 265.0,297.2 365.0,240.3 465.0,128.9 565.0,114.0 665.0,92.7" />
<circle cx="65.0" cy="369.7" r="2.6" fill="#ff7f0e" stroke="#ffffff" stroke-width="0.8"/>
<circle cx="165.0" cy="307.3" r="2.6" fill="#ff7f0e" stroke="#ffffff" stroke-width="0.8"/>
<circle cx="265.0" cy="297.2" r="2.6" fill="#ff7f0e" stroke="#ffffff" stroke-width="0.8"/>
<circle cx="365.0" cy="240.3" r="2.6" fill="#ff7f0e" stroke="#ffffff" stroke-width="0.8"/>
<circle cx="465.0" cy="128.9" r="2.6" fill="#ff7f0e" stroke="#ffffff" stroke-width="0.8"/>
<circle cx="565.0" cy="114.0" r="2.6" fill="#ff7f0e" stroke="#ffffff" stroke-width="0.8"/>
<circle cx="665.0" cy="92.7" r="2.6" fill="#ff7f0e" stroke="#ffffff" stroke-width="0.8"/>
<polyline fill="none" stroke="#1f77b4" stroke-width="2" points="65.0,369.8 165.0,345.3 265.0,345.3 365.0,345.3 465.0,299.8 565.0,299.8 665.0,299.8" />
<circle cx="65.0" cy="369.8" r="2.6" fill="#1f77b4" stroke="#ffffff" stroke-width="0.8"/>
<circle cx="165.0" cy="345.3" r="2.6" fill="#1f77b4" stroke="#ffffff" stroke-width="0.8"/>
<circle cx="265.0" cy="345.3" r="2.6" fill="#1f77b4" stroke="#ffffff" stroke-width="0.8"/>
<circle cx="365.0" cy="345.3" r="2.6" fill="#1f77b4" stroke="#ffffff" stroke-width="0.8"/>
<circle cx="465.0" cy="299.8" r="2.6" fill="#1f77b4" stroke="#ffffff" stroke-width="0.8"/>
<circle cx="565.0" cy="299.8" r="2.6" fill="#1f77b4" stroke="#ffffff" stroke-width="0.8"/>
<circle cx="665.0" cy="299.8" r="2.6" fill="#1f77b4" stroke="#ffffff" stroke-width="0.8"/>
<polyline fill="none" stroke="#2ca02c" stroke-width="2" points="65.0,369.2 165.0,326.1 265.0,306.7 365.0,306.7 465.0,288.4 565.0,250.1 665.0,250.1" />
<circle cx="65.0" cy="369.2" r="2.6" fill="#2ca02c" stroke="#ffffff" stroke-width="0.8"/>
<circle cx="165.0" cy="326.1" r="2.6" fill="#2ca02c" stroke="#ffffff" stroke-width="0.8"/>
<circle cx="265.0" cy="306.7" r="2.6" fill="#2ca02c" stroke="#ffffff" stroke-width="0.8"/>
<circle cx="365.0" cy="306.7" r="2.6" fill="#2ca02c" stroke="#ffffff" stroke-width="0.8"/>
<circle cx="465.0" cy="288.4" r="2.6" fill="#2ca02c" stroke="#ffffff" stroke-width="0.8"/>
<circle cx="565.0" cy="250.1" r="2.6" fill="#2ca02c" stroke="#ffffff" stroke-width="0.8"/>
<circle cx="665.0" cy="250.1" r="2.6" fill="#2ca02c" stroke="#ffffff" stroke-width="0.8"/>
<polyline fill="none" stroke="#d62728" stroke-width="2" points="65.0,369.7 165.0,344.9 265.0,344.9 365.0,344.9 465.0,305.2 565.0,305.2 665.0,305.2" />
<circle cx="65.0" cy="369.7" r="2.6" fill="#d62728" stroke="#ffffff" stroke-width="0.8"/>
<circle cx="165.0" cy="344.9" r="2.6" fill="#d62728" stroke="#ffffff" stroke-width="0.8"/>
<circle cx="265.0" cy="344.9" r="2.6" fill="#d62728" stroke="#ffffff" stroke-width="0.8"/>
<circle cx="365.0" cy="344.9" r="2.6" fill="#d62728" stroke="#ffffff" stroke-width="0.8"/>
<circle cx="465.0" cy="305.2" r="2.6" fill="#d62728" stroke="#ffffff" stroke-width="0.8"/>
<circle cx="565.0" cy="305.2" r="2.6" fill="#d62728" stroke="#ffffff" stroke-width="0.8"/>
<circle cx="665.0" cy="305.2" r="2.6" fill="#d62728" stroke="#ffffff" stroke-width="0.8"/>
<text x="365.0" y="432.5" text-anchor="middle" font-size="11" font-family="sans-serif">Anchor Train Loss (higher -> earlier training)</text>
<rect x="735.0" y="65.0" width="600.0" height="332.5" fill="#fafafa" stroke="#dddddd"/>
<text x="1035.0" y="55.0" text-anchor="middle" font-size="13" font-family="sans-serif">ECE @ Matched Train-Loss Anchor</text>
<line x1="735.0" y1="397.5" x2="735.0" y2="401.5" stroke="#666" stroke-width="1"/>
<text x="735.0" y="414.5" text-anchor="middle" font-size="10" font-family="sans-serif" fill="#555">2.5</text>
<line x1="885.0" y1="397.5" x2="885.0" y2="401.5" stroke="#666" stroke-width="1"/>
<text x="885.0" y="414.5" text-anchor="middle" font-size="10" font-family="sans-serif" fill="#555">20.2</text>
<line x1="1035.0" y1="397.5" x2="1035.0" y2="401.5" stroke="#666" stroke-width="1"/>
<text x="1035.0" y="414.5" text-anchor="middle" font-size="10" font-family="sans-serif" fill="#555">37.9</text>
<line x1="1185.0" y1="397.5" x2="1185.0" y2="401.5" stroke="#666" stroke-width="1"/>
<text x="1185.0" y="414.5" text-anchor="middle" font-size="10" font-family="sans-serif" fill="#555">55.6</text>
<line x1="1335.0" y1="397.5" x2="1335.0" y2="401.5" stroke="#666" stroke-width="1"/>
<text x="1335.0" y="414.5" text-anchor="middle" font-size="10" font-family="sans-serif" fill="#555">73.3</text>
<line x1="731.0" y1="397.5" x2="735.0" y2="397.5" stroke="#666" stroke-width="1"/>
<text x="728.0" y="400.5" text-anchor="end" font-size="10" font-family="sans-serif" fill="#555">-0.06</text>
<line x1="731.0" y1="314.4" x2="735.0" y2="314.4" stroke="#666" stroke-width="1"/>
<text x="728.0" y="317.4" text-anchor="end" font-size="10" font-family="sans-serif" fill="#555">0.19</text>
<line x1="731.0" y1="231.2" x2="735.0" y2="231.2" stroke="#666" stroke-width="1"/>
<text x="728.0" y="234.2" text-anchor="end" font-size="10" font-family="sans-serif" fill="#555">0.45</text>
<line x1="731.0" y1="148.1" x2="735.0" y2="148.1" stroke="#666" stroke-width="1"/>
<text x="728.0" y="151.1" text-anchor="end" font-size="10" font-family="sans-serif" fill="#555">0.70</text>
<line x1="731.0" y1="65.0" x2="735.0" y2="65.0" stroke="#666" stroke-width="1"/>
<text x="728.0" y="68.0" text-anchor="end" font-size="10" font-family="sans-serif" fill="#555">0.96</text>
<polyline fill="none" stroke="#ff7f0e" stroke-width="2" points="735.0,357.4 835.0,235.8 935.0,167.8 1035.0,176.9 1135.0,109.0 1235.0,101.6 1335.0,97.6" />
<circle cx="735.0" cy="357.4" r="2.6" fill="#ff7f0e" stroke="#ffffff" stroke-width="0.8"/>
<circle cx="835.0" cy="235.8" r="2.6" fill="#ff7f0e" stroke="#ffffff" stroke-width="0.8"/>
<circle cx="935.0" cy="167.8" r="2.6" fill="#ff7f0e" stroke="#ffffff" stroke-width="0.8"/>
<circle cx="1035.0" cy="176.9" r="2.6" fill="#ff7f0e" stroke="#ffffff" stroke-width="0.8"/>
<circle cx="1135.0" cy="109.0" r="2.6" fill="#ff7f0e" stroke="#ffffff" stroke-width="0.8"/>
<circle cx="1235.0" cy="101.6" r="2.6" fill="#ff7f0e" stroke="#ffffff" stroke-width="0.8"/>
<circle cx="1335.0" cy="97.6" r="2.6" fill="#ff7f0e" stroke="#ffffff" stroke-width="0.8"/>
<polyline fill="none" stroke="#1f77b4" stroke-width="2" points="735.0,369.8 835.0,242.1 935.0,242.1 1035.0,242.1 1135.0,145.6 1235.0,145.6 1335.0,145.6" />
<circle cx="735.0" cy="369.8" r="2.6" fill="#1f77b4" stroke="#ffffff" stroke-width="0.8"/>
<circle cx="835.0" cy="242.1" r="2.6" fill="#1f77b4" stroke="#ffffff" stroke-width="0.8"/>
<circle cx="935.0" cy="242.1" r="2.6" fill="#1f77b4" stroke="#ffffff" stroke-width="0.8"/>
<circle cx="1035.0" cy="242.1" r="2.6" fill="#1f77b4" stroke="#ffffff" stroke-width="0.8"/>
<circle cx="1135.0" cy="145.6" r="2.6" fill="#1f77b4" stroke="#ffffff" stroke-width="0.8"/>
<circle cx="1235.0" cy="145.6" r="2.6" fill="#1f77b4" stroke="#ffffff" stroke-width="0.8"/>
<circle cx="1335.0" cy="145.6" r="2.6" fill="#1f77b4" stroke="#ffffff" stroke-width="0.8"/>
<polyline fill="none" stroke="#2ca02c" stroke-width="2" points="735.0,359.5 835.0,137.3 935.0,118.3 1035.0,118.3 1135.0,110.5 1235.0,92.7 1335.0,92.7" />
<circle cx="735.0" cy="359.5" r="2.6" fill="#2ca02c" stroke="#ffffff" stroke-width="0.8"/>
<circle cx="835.0" cy="137.3" r="2.6" fill="#2ca02c" stroke="#ffffff" stroke-width="0.8"/>
<circle cx="935.0" cy="118.3" r="2.6" fill="#2ca02c" stroke="#ffffff" stroke-width="0.8"/>
<circle cx="1035.0" cy="118.3" r="2.6" fill="#2ca02c" stroke="#ffffff" stroke-width="0.8"/>
<circle cx="1135.0" cy="110.5" r="2.6" fill="#2ca02c" stroke="#ffffff" stroke-width="0.8"/>
<circle cx="1235.0" cy="92.7" r="2.6" fill="#2ca02c" stroke="#ffffff" stroke-width="0.8"/>
<circle cx="1335.0" cy="92.7" r="2.6" fill="#2ca02c" stroke="#ffffff" stroke-width="0.8"/>
<polyline fill="none" stroke="#d62728" stroke-width="2" points="735.0,368.8 835.0,289.2 935.0,289.2 1035.0,289.2 1135.0,185.6 1235.0,185.6 1335.0,185.6" />
<circle cx="735.0" cy="368.8" r="2.6" fill="#d62728" stroke="#ffffff" stroke-width="0.8"/>
<circle cx="835.0" cy="289.2" r="2.6" fill="#d62728" stroke="#ffffff" stroke-width="0.8"/>
<circle cx="935.0" cy="289.2" r="2.6" fill="#d62728" stroke="#ffffff" stroke-width="0.8"/>
<circle cx="1035.0" cy="289.2" r="2.6" fill="#d62728" stroke="#ffffff" stroke-width="0.8"/>
<circle cx="1135.0" cy="185.6" r="2.6" fill="#d62728" stroke="#ffffff" stroke-width="0.8"/>
<circle cx="1235.0" cy="185.6" r="2.6" fill="#d62728" stroke="#ffffff" stroke-width="0.8"/>
<circle cx="1335.0" cy="185.6" r="2.6" fill="#d62728" stroke="#ffffff" stroke-width="0.8"/>
<text x="1035.0" y="432.5" text-anchor="middle" font-size="11" font-family="sans-serif">Anchor Train Loss (higher -> earlier training)</text>
<rect x="65.0" y="482.5" width="600.0" height="332.5" fill="#fafafa" stroke="#dddddd"/>
<text x="365.0" y="472.5" text-anchor="middle" font-size="13" font-family="sans-serif">Param Norm (L2) @ Anchor</text>
<line x1="65.0" y1="815.0" x2="65.0" y2="819.0" stroke="#666" stroke-width="1"/>
<text x="65.0" y="832.0" text-anchor="middle" font-size="10" font-family="sans-serif" fill="#555">2.5</text>
<line x1="215.0" y1="815.0" x2="215.0" y2="819.0" stroke="#666" stroke-width="1"/>
<text x="215.0" y="832.0" text-anchor="middle" font-size="10" font-family="sans-serif" fill="#555">20.2</text>
<line x1="365.0" y1="815.0" x2="365.0" y2="819.0" stroke="#666" stroke-width="1"/>
<text x="365.0" y="832.0" text-anchor="middle" font-size="10" font-family="sans-serif" fill="#555">37.9</text>
<line x1="515.0" y1="815.0" x2="515.0" y2="819.0" stroke="#666" stroke-width="1"/>
<text x="515.0" y="832.0" text-anchor="middle" font-size="10" font-family="sans-serif" fill="#555">55.6</text>
<line x1="665.0" y1="815.0" x2="665.0" y2="819.0" stroke="#666" stroke-width="1"/>
<text x="665.0" y="832.0" text-anchor="middle" font-size="10" font-family="sans-serif" fill="#555">73.3</text>
<line x1="61.0" y1="815.0" x2="65.0" y2="815.0" stroke="#666" stroke-width="1"/>
<text x="58.0" y="818.0" text-anchor="end" font-size="10" font-family="sans-serif" fill="#555">110</text>
<line x1="61.0" y1="731.9" x2="65.0" y2="731.9" stroke="#666" stroke-width="1"/>
<text x="58.0" y="734.9" text-anchor="end" font-size="10" font-family="sans-serif" fill="#555">289</text>
<line x1="61.0" y1="648.8" x2="65.0" y2="648.8" stroke="#666" stroke-width="1"/>
<text x="58.0" y="651.8" text-anchor="end" font-size="10" font-family="sans-serif" fill="#555">467</text>
<line x1="61.0" y1="565.6" x2="65.0" y2="565.6" stroke="#666" stroke-width="1"/>
<text x="58.0" y="568.6" text-anchor="end" font-size="10" font-family="sans-serif" fill="#555">646</text>
<line x1="61.0" y1="482.5" x2="65.0" y2="482.5" stroke="#666" stroke-width="1"/>
<text x="58.0" y="485.5" text-anchor="end" font-size="10" font-family="sans-serif" fill="#555">824</text>
<polyline fill="none" stroke="#ff7f0e" stroke-width="2" points="65.0,510.2 165.0,711.4 265.0,714.1 365.0,715.0 465.0,716.1 565.0,716.8 665.0,717.3" />
<circle cx="65.0" cy="510.2" r="2.6" fill="#ff7f0e" stroke="#ffffff" stroke-width="0.8"/>
<circle cx="165.0" cy="711.4" r="2.6" fill="#ff7f0e" stroke="#ffffff" stroke-width="0.8"/>
<circle cx="265.0" cy="714.1" r="2.6" fill="#ff7f0e" stroke="#ffffff" stroke-width="0.8"/>
<circle cx="365.0" cy="715.0" r="2.6" fill="#ff7f0e" stroke="#ffffff" stroke-width="0.8"/>
<circle cx="465.0" cy="716.1" r="2.6" fill="#ff7f0e" stroke="#ffffff" stroke-width="0.8"/>
<circle cx="565.0" cy="716.8" r="2.6" fill="#ff7f0e" stroke="#ffffff" stroke-width="0.8"/>
<circle cx="665.0" cy="717.3" r="2.6" fill="#ff7f0e" stroke="#ffffff" stroke-width="0.8"/>
<polyline fill="none" stroke="#1f77b4" stroke-width="2" points="65.0,718.4 165.0,718.2 265.0,718.2 365.0,718.2 465.0,718.3 565.0,718.3 665.0,718.3" />
<circle cx="65.0" cy="718.4" r="2.6" fill="#1f77b4" stroke="#ffffff" stroke-width="0.8"/>
<circle cx="165.0" cy="718.2" r="2.6" fill="#1f77b4" stroke="#ffffff" stroke-width="0.8"/>
<circle cx="265.0" cy="718.2" r="2.6" fill="#1f77b4" stroke="#ffffff" stroke-width="0.8"/>
<circle cx="365.0" cy="718.2" r="2.6" fill="#1f77b4" stroke="#ffffff" stroke-width="0.8"/>
<circle cx="465.0" cy="718.3" r="2.6" fill="#1f77b4" stroke="#ffffff" stroke-width="0.8"/>
<circle cx="565.0" cy="718.3" r="2.6" fill="#1f77b4" stroke="#ffffff" stroke-width="0.8"/>
<circle cx="665.0" cy="718.3" r="2.6" fill="#1f77b4" stroke="#ffffff" stroke-width="0.8"/>
<polyline fill="none" stroke="#2ca02c" stroke-width="2" points="65.0,731.1 165.0,719.5 265.0,719.2 365.0,719.2 465.0,719.1 565.0,718.9 665.0,718.9" />
<circle cx="65.0" cy="731.1" r="2.6" fill="#2ca02c" stroke="#ffffff" stroke-width="0.8"/>
<circle cx="165.0" cy="719.5" r="2.6" fill="#2ca02c" stroke="#ffffff" stroke-width="0.8"/>
<circle cx="265.0" cy="719.2" r="2.6" fill="#2ca02c" stroke="#ffffff" stroke-width="0.8"/>
<circle cx="365.0" cy="719.2" r="2.6" fill="#2ca02c" stroke="#ffffff" stroke-width="0.8"/>
<circle cx="465.0" cy="719.1" r="2.6" fill="#2ca02c" stroke="#ffffff" stroke-width="0.8"/>
<circle cx="565.0" cy="718.9" r="2.6" fill="#2ca02c" stroke="#ffffff" stroke-width="0.8"/>
<circle cx="665.0" cy="718.9" r="2.6" fill="#2ca02c" stroke="#ffffff" stroke-width="0.8"/>
<polyline fill="none" stroke="#d62728" stroke-width="2" points="65.0,787.3 165.0,720.2 265.0,720.2 365.0,720.2 465.0,719.0 565.0,719.0 665.0,719.0" />
<circle cx="65.0" cy="787.3" r="2.6" fill="#d62728" stroke="#ffffff" stroke-width="0.8"/>
<circle cx="165.0" cy="720.2" r="2.6" fill="#d62728" stroke="#ffffff" stroke-width="0.8"/>
<circle cx="265.0" cy="720.2" r="2.6" fill="#d62728" stroke="#ffffff" stroke-width="0.8"/>
<circle cx="365.0" cy="720.2" r="2.6" fill="#d62728" stroke="#ffffff" stroke-width="0.8"/>
<circle cx="465.0" cy="719.0" r="2.6" fill="#d62728" stroke="#ffffff" stroke-width="0.8"/>
<circle cx="565.0" cy="719.0" r="2.6" fill="#d62728" stroke="#ffffff" stroke-width="0.8"/>
<circle cx="665.0" cy="719.0" r="2.6" fill="#d62728" stroke="#ffffff" stroke-width="0.8"/>
<text x="365.0" y="850.0" text-anchor="middle" font-size="11" font-family="sans-serif">Anchor Train Loss (higher -> earlier training)</text>
<rect x="735.0" y="482.5" width="600.0" height="332.5" fill="#fafafa" stroke="#dddddd"/>
<text x="1035.0" y="472.5" text-anchor="middle" font-size="13" font-family="sans-serif">Train-Loss Matching Error (Abs)</text>
<line x1="735.0" y1="815.0" x2="735.0" y2="819.0" stroke="#666" stroke-width="1"/>
<text x="735.0" y="832.0" text-anchor="middle" font-size="10" font-family="sans-serif" fill="#555">2.5</text>
<line x1="885.0" y1="815.0" x2="885.0" y2="819.0" stroke="#666" stroke-width="1"/>
<text x="885.0" y="832.0" text-anchor="middle" font-size="10" font-family="sans-serif" fill="#555">20.2</text>
<line x1="1035.0" y1="815.0" x2="1035.0" y2="819.0" stroke="#666" stroke-width="1"/>
<text x="1035.0" y="832.0" text-anchor="middle" font-size="10" font-family="sans-serif" fill="#555">37.9</text>
<line x1="1185.0" y1="815.0" x2="1185.0" y2="819.0" stroke="#666" stroke-width="1"/>
<text x="1185.0" y="832.0" text-anchor="middle" font-size="10" font-family="sans-serif" fill="#555">55.6</text>
<line x1="1335.0" y1="815.0" x2="1335.0" y2="819.0" stroke="#666" stroke-width="1"/>
<text x="1335.0" y="832.0" text-anchor="middle" font-size="10" font-family="sans-serif" fill="#555">73.3</text>
<line x1="731.0" y1="815.0" x2="735.0" y2="815.0" stroke="#666" stroke-width="1"/>
<text x="728.0" y="818.0" text-anchor="end" font-size="10" font-family="sans-serif" fill="#555">-3.2</text>
<line x1="731.0" y1="731.9" x2="735.0" y2="731.9" stroke="#666" stroke-width="1"/>
<text x="728.0" y="734.9" text-anchor="end" font-size="10" font-family="sans-serif" fill="#555">6.4</text>
<line x1="731.0" y1="648.8" x2="735.0" y2="648.8" stroke="#666" stroke-width="1"/>
<text x="728.0" y="651.8" text-anchor="end" font-size="10" font-family="sans-serif" fill="#555">16.1</text>
<line x1="731.0" y1="565.6" x2="735.0" y2="565.6" stroke="#666" stroke-width="1"/>
<text x="728.0" y="568.6" text-anchor="end" font-size="10" font-family="sans-serif" fill="#555">25.7</text>
<line x1="731.0" y1="482.5" x2="735.0" y2="482.5" stroke="#666" stroke-width="1"/>
<text x="728.0" y="485.5" text-anchor="end" font-size="10" font-family="sans-serif" fill="#555">35.4</text>
<polyline fill="none" stroke="#ff7f0e" stroke-width="2" points="735.0,787.3 835.0,780.8 935.0,753.7 1035.0,759.0 1135.0,757.4 1235.0,733.1 1335.0,747.6" />
<circle cx="735.0" cy="787.3" r="2.6" fill="#ff7f0e" stroke="#ffffff" stroke-width="0.8"/>
<circle cx="835.0" cy="780.8" r="2.6" fill="#ff7f0e" stroke="#ffffff" stroke-width="0.8"/>
<circle cx="935.0" cy="753.7" r="2.6" fill="#ff7f0e" stroke="#ffffff" stroke-width="0.8"/>
<circle cx="1035.0" cy="759.0" r="2.6" fill="#ff7f0e" stroke="#ffffff" stroke-width="0.8"/>
<circle cx="1135.0" cy="757.4" r="2.6" fill="#ff7f0e" stroke="#ffffff" stroke-width="0.8"/>
<circle cx="1235.0" cy="733.1" r="2.6" fill="#ff7f0e" stroke="#ffffff" stroke-width="0.8"/>
<circle cx="1335.0" cy="747.6" r="2.6" fill="#ff7f0e" stroke="#ffffff" stroke-width="0.8"/>
<polyline fill="none" stroke="#1f77b4" stroke-width="2" points="735.0,787.3 835.0,760.9 935.0,659.3 1035.0,557.7 1135.0,575.2 1235.0,676.8 1335.0,772.4" />
<circle cx="735.0" cy="787.3" r="2.6" fill="#1f77b4" stroke="#ffffff" stroke-width="0.8"/>
<circle cx="835.0" cy="760.9" r="2.6" fill="#1f77b4" stroke="#ffffff" stroke-width="0.8"/>
<circle cx="935.0" cy="659.3" r="2.6" fill="#1f77b4" stroke="#ffffff" stroke-width="0.8"/>
<circle cx="1035.0" cy="557.7" r="2.6" fill="#1f77b4" stroke="#ffffff" stroke-width="0.8"/>
<circle cx="1135.0" cy="575.2" r="2.6" fill="#1f77b4" stroke="#ffffff" stroke-width="0.8"/>
<circle cx="1235.0" cy="676.8" r="2.6" fill="#1f77b4" stroke="#ffffff" stroke-width="0.8"/>
<circle cx="1335.0" cy="772.4" r="2.6" fill="#1f77b4" stroke="#ffffff" stroke-width="0.8"/>
<polyline fill="none" stroke="#2ca02c" stroke-width="2" points="735.0,787.2 835.0,779.2 935.0,741.8 1035.0,640.2 1135.0,540.0 1235.0,623.3 1335.0,724.9" />
<circle cx="735.0" cy="787.2" r="2.6" fill="#2ca02c" stroke="#ffffff" stroke-width="0.8"/>
<circle cx="835.0" cy="779.2" r="2.6" fill="#2ca02c" stroke="#ffffff" stroke-width="0.8"/>
<circle cx="935.0" cy="741.8" r="2.6" fill="#2ca02c" stroke="#ffffff" stroke-width="0.8"/>
<circle cx="1035.0" cy="640.2" r="2.6" fill="#2ca02c" stroke="#ffffff" stroke-width="0.8"/>
<circle cx="1135.0" cy="540.0" r="2.6" fill="#2ca02c" stroke="#ffffff" stroke-width="0.8"/>
<circle cx="1235.0" cy="623.3" r="2.6" fill="#2ca02c" stroke="#ffffff" stroke-width="0.8"/>
<circle cx="1335.0" cy="724.9" r="2.6" fill="#2ca02c" stroke="#ffffff" stroke-width="0.8"/>
<polyline fill="none" stroke="#d62728" stroke-width="2" points="735.0,787.3 835.0,759.5 935.0,657.9 1035.0,556.3 1135.0,510.2 1235.0,611.8 1335.0,713.4" />
<circle cx="735.0" cy="787.3" r="2.6" fill="#d62728" stroke="#ffffff" stroke-width="0.8"/>
<circle cx="835.0" cy="759.5" r="2.6" fill="#d62728" stroke="#ffffff" stroke-width="0.8"/>
<circle cx="935.0" cy="657.9" r="2.6" fill="#d62728" stroke="#ffffff" stroke-width="0.8"/>
<circle cx="1035.0" cy="556.3" r="2.6" fill="#d62728" stroke="#ffffff" stroke-width="0.8"/>
<circle cx="1135.0" cy="510.2" r="2.6" fill="#d62728" stroke="#ffffff" stroke-width="0.8"/>
<circle cx="1235.0" cy="611.8" r="2.6" fill="#d62728" stroke="#ffffff" stroke-width="0.8"/>
<circle cx="1335.0" cy="713.4" r="2.6" fill="#d62728" stroke="#ffffff" stroke-width="0.8"/>
<text x="1035.0" y="850.0" text-anchor="middle" font-size="11" font-family="sans-serif">Anchor Train Loss (higher -> earlier training)</text>
<line x1="1150" y1="42" x2="1174" y2="42" stroke="#ff7f0e" stroke-width="3"/>
<text x="1180" y="46" font-size="12" font-family="sans-serif">adafactor</text>
<line x1="1150" y1="63" x2="1174" y2="63" stroke="#1f77b4" stroke-width="3"/>
<text x="1180" y="67" font-size="12" font-family="sans-serif">adamw</text>
<line x1="1150" y1="84" x2="1174" y2="84" stroke="#2ca02c" stroke-width="3"/>
<text x="1180" y="88" font-size="12" font-family="sans-serif">rmsprop</text>
<line x1="1150" y1="105" x2="1174" y2="105" stroke="#d62728" stroke-width="3"/>
<text x="1180" y="109" font-size="12" font-family="sans-serif">sgd</text>
</svg>
