<svg xmlns="http://www.w3.org/2000/svg" width="1200" height="520" viewBox="0 0 1200 520">
<rect x="0" y="0" width="100%" height="100%" fill="#ffffff" />
<text x="600.0" y="30" text-anchor="middle" font-size="20" font-family="sans-serif">Optimizer Comparison</text>
<rect x="60" y="60" width="510.0" height="400" fill="#fafafa" stroke="#dddddd"/>
<text x="315.0" y="48" text-anchor="middle" font-size="14" font-family="sans-serif">Loss vs Step</text>
<rect x="630.0" y="60" width="510.0" height="400" fill="#fafafa" stroke="#dddddd"/>
<text x="885.0" y="48" text-anchor="middle" font-size="14" font-family="sans-serif">Step Time vs Step</text>
<line x1="60.0" y1="460.0" x2="60.0" y2="465.0" stroke="#666" stroke-width="1"/>
<text x="60.0" y="480.0" text-anchor="middle" font-size="11" font-family="sans-serif" fill="#555">10</text>
<line x1="162.0" y1="460.0" x2="162.0" y2="465.0" stroke="#666" stroke-width="1"/>
<text x="162.0" y="480.0" text-anchor="middle" font-size="11" font-family="sans-serif" fill="#555">208</text>
<line x1="264.0" y1="460.0" x2="264.0" y2="465.0" stroke="#666" stroke-width="1"/>
<text x="264.0" y="480.0" text-anchor="middle" font-size="11" font-family="sans-serif" fill="#555">406</text>
<line x1="366.0" y1="460.0" x2="366.0" y2="465.0" stroke="#666" stroke-width="1"/>
<text x="366.0" y="480.0" text-anchor="middle" font-size="11" font-family="sans-serif" fill="#555">604</text>
<line x1="468.0" y1="460.0" x2="468.0" y2="465.0" stroke="#666" stroke-width="1"/>
<text x="468.0" y="480.0" text-anchor="middle" font-size="11" font-family="sans-serif" fill="#555">802</text>
<line x1="570.0" y1="460.0" x2="570.0" y2="465.0" stroke="#666" stroke-width="1"/>
<text x="570.0" y="480.0" text-anchor="middle" font-size="11" font-family="sans-serif" fill="#555">1000</text>
<line x1="55.0" y1="460.0" x2="60.0" y2="460.0" stroke="#666" stroke-width="1"/>
<text x="50.0" y="464.0" text-anchor="end" font-size="11" font-family="sans-serif" fill="#555">1.9</text>
<line x1="55.0" y1="380.0" x2="60.0" y2="380.0" stroke="#666" stroke-width="1"/>
<text x="50.0" y="384.0" text-anchor="end" font-size="11" font-family="sans-serif" fill="#555">17.9</text>
<line x1="55.0" y1="300.0" x2="60.0" y2="300.0" stroke="#666" stroke-width="1"/>
<text x="50.0" y="304.0" text-anchor="end" font-size="11" font-family="sans-serif" fill="#555">33.9</text>
<line x1="55.0" y1="220.0" x2="60.0" y2="220.0" stroke="#666" stroke-width="1"/>
<text x="50.0" y="224.0" text-anchor="end" font-size="11" font-family="sans-serif" fill="#555">49.9</text>
<line x1="55.0" y1="140.0" x2="60.0" y2="140.0" stroke="#666" stroke-width="1"/>
<text x="50.0" y="144.0" text-anchor="end" font-size="11" font-family="sans-serif" fill="#555">66.0</text>
<line x1="55.0" y1="60.0" x2="60.0" y2="60.0" stroke="#666" stroke-width="1"/>
<text x="50.0" y="64.0" text-anchor="end" font-size="11" font-family="sans-serif" fill="#555">82.0</text>
<line x1="630.0" y1="460.0" x2="630.0" y2="465.0" stroke="#666" stroke-width="1"/>
<text x="630.0" y="480.0" text-anchor="middle" font-size="11" font-family="sans-serif" fill="#555">10</text>
<line x1="732.0" y1="460.0" x2="732.0" y2="465.0" stroke="#666" stroke-width="1"/>
<text x="732.0" y="480.0" text-anchor="middle" font-size="11" font-family="sans-serif" fill="#555">208</text>
<line x1="834.0" y1="460.0" x2="834.0" y2="465.0" stroke="#666" stroke-width="1"/>
<text x="834.0" y="480.0" text-anchor="middle" font-size="11" font-family="sans-serif" fill="#555">406</text>
<line x1="936.0" y1="460.0" x2="936.0" y2="465.0" stroke="#666" stroke-width="1"/>
<text x="936.0" y="480.0" text-anchor="middle" font-size="11" font-family="sans-serif" fill="#555">604</text>
<line x1="1038.0" y1="460.0" x2="1038.0" y2="465.0" stroke="#666" stroke-width="1"/>
<text x="1038.0" y="480.0" text-anchor="middle" font-size="11" font-family="sans-serif" fill="#555">802</text>
<line x1="1140.0" y1="460.0" x2="1140.0" y2="465.0" stroke="#666" stroke-width="1"/>
<text x="1140.0" y="480.0" text-anchor="middle" font-size="11" font-family="sans-serif" fill="#555">1000</text>
<line x1="625.0" y1="460.0" x2="630.0" y2="460.0" stroke="#666" stroke-width="1"/>
<text x="620.0" y="464.0" text-anchor="end" font-size="11" font-family="sans-serif" fill="#555">0.007</text>
<line x1="625.0" y1="380.0" x2="630.0" y2="380.0" stroke="#666" stroke-width="1"/>
<text x="620.0" y="384.0" text-anchor="end" font-size="11" font-family="sans-serif" fill="#555">0.023</text>
<line x1="625.0" y1="300.0" x2="630.0" y2="300.0" stroke="#666" stroke-width="1"/>
<text x="620.0" y="304.0" text-anchor="end" font-size="11" font-family="sans-serif" fill="#555">0.039</text>
<line x1="625.0" y1="220.0" x2="630.0" y2="220.0" stroke="#666" stroke-width="1"/>
<text x="620.0" y="224.0" text-anchor="end" font-size="11" font-family="sans-serif" fill="#555">0.055</text>
<line x1="625.0" y1="140.0" x2="630.0" y2="140.0" stroke="#666" stroke-width="1"/>
<text x="620.0" y="144.0" text-anchor="end" font-size="11" font-family="sans-serif" fill="#555">0.071</text>
<line x1="625.0" y1="60.0" x2="630.0" y2="60.0" stroke="#666" stroke-width="1"/>
<text x="620.0" y="64.0" text-anchor="end" font-size="11" font-family="sans-serif" fill="#555">0.087</text>
<polyline fill="none" stroke="#ff7f0e" stroke-width="2" points="60.0,118.3 65.2,216.1 70.3,291.1 75.5,340.9 80.6,373.2 85.8,391.3 90.9,412.8 96.1,417.1 101.2,418.5 106.4,428.2 111.5,432.7 116.7,435.8 121.8,439.8 127.0,442.9 132.1,444.6 137.3,448.0 142.4,449.4 147.6,450.5 152.7,451.5 157.9,452.5 163.0,452.7 168.2,453.5 173.3,453.8 178.5,454.3 183.6,454.3 188.8,454.5 193.9,454.9 199.1,455.0 204.2,455.2 209.4,455.3 214.5,455.5 219.7,455.6 224.8,455.7 230.0,456.0 235.2,456.0 240.3,455.9 245.5,456.1 250.6,456.1 255.8,456.2 260.9,456.3 266.1,456.4 271.2,456.4 276.4,456.5 281.5,456.6 286.7,456.6 291.8,456.7 297.0,456.7 302.1,456.8 307.3,456.8 312.4,456.9 317.6,456.8 322.7,456.9 327.9,457.0 333.0,457.0 338.2,457.0 343.3,457.1 348.5,457.0 353.6,457.1 358.8,457.1 363.9,457.1 369.1,457.1 374.2,457.1 379.4,457.1 384.5,457.2 389.7,457.2 394.8,457.2 400.0,457.3 405.2,457.3 410.3,457.4 415.5,457.3 420.6,457.3 425.8,457.3 430.9,457.3 436.1,457.4 441.2,457.3 446.4,457.4 451.5,457.3 456.7,457.4 461.8,457.4 467.0,457.4 472.1,457.3 477.3,457.4 482.4,457.4 487.6,457.4 492.7,457.5 497.9,457.4 503.0,457.5 508.2,457.5 513.3,457.5 518.5,457.5 523.6,457.4 528.8,457.4 533.9,457.5 539.1,457.5 544.2,457.5 549.4,457.5 554.5,457.4 559.7,457.5 564.8,457.5 570.0,457.5" />
<polyline fill="none" stroke="#ff7f0e" stroke-width="2" points="630.0,98.1 635.2,418.3 640.3,418.0 645.5,419.0 650.6,418.7 655.8,413.7 660.9,415.4 666.1,417.2 671.2,415.8 676.4,414.4 681.5,414.4 686.7,414.4 691.8,413.0 697.0,415.1 702.1,415.5 707.3,415.3 712.4,415.8 717.6,413.6 722.7,413.1 727.9,415.5 733.0,414.9 738.2,415.3 743.3,412.0 748.5,414.7 753.6,414.0 758.8,414.3 763.9,415.4 769.1,414.9 774.2,413.9 779.4,415.2 784.5,414.0 789.7,414.9 794.8,415.2 800.0,416.9 805.2,416.4 810.3,415.1 815.5,415.8 820.6,413.9 825.8,414.8 830.9,415.1 836.1,412.3 841.2,415.2 846.4,416.4 851.5,416.2 856.7,415.4 861.8,415.1 867.0,415.3 872.1,415.3 877.3,414.4 882.4,416.0 887.6,416.2 892.7,416.3 897.9,416.3 903.0,416.8 908.2,416.4 913.3,416.5 918.5,416.0 923.6,416.7 928.8,415.6 933.9,415.6 939.1,417.0 944.2,416.9 949.4,416.4 954.5,416.8 959.7,415.9 964.8,416.0 970.0,417.3 975.2,416.1 980.3,415.0 985.5,417.3 990.6,417.3 995.8,415.9 1000.9,414.9 1006.1,416.8 1011.2,417.0 1016.4,415.9 1021.5,416.5 1026.7,416.7 1031.8,416.7 1037.0,416.5 1042.1,416.9 1047.3,416.6 1052.4,415.4 1057.6,416.4 1062.7,416.9 1067.9,416.4 1073.0,416.7 1078.2,417.5 1083.3,416.1 1088.5,416.0 1093.6,415.3 1098.8,416.9 1103.9,416.2 1109.1,417.0 1114.2,417.7 1119.4,417.5 1124.5,416.8 1129.7,415.2 1134.8,416.9 1140.0,417.0" />
<polyline fill="none" stroke="#1f77b4" stroke-width="2" points="60.0,99.9 65.2,415.8 70.3,441.4 75.5,448.3 80.6,451.8 85.8,453.6 90.9,454.5 96.1,455.3 101.2,455.7 106.4,456.0 111.5,456.1 116.7,456.5 121.8,456.7 127.0,456.9 132.1,457.0 137.3,457.2 142.4,457.1 147.6,457.3 152.7,457.3 157.9,457.3 163.0,457.5 168.2,457.4 173.3,457.6 178.5,457.6 183.6,457.6 188.8,457.7 193.9,457.7 199.1,457.7 204.2,457.7 209.4,457.7 214.5,457.7 219.7,457.7 224.8,457.8 230.0,457.9 235.2,457.9 240.3,457.9 245.5,457.9 250.6,457.8 255.8,457.9 260.9,457.9 266.1,457.9 271.2,457.9 276.4,457.9 281.5,458.0 286.7,457.9 291.8,458.0 297.0,458.1 302.1,458.1 307.3,458.1 312.4,458.1 317.6,458.0 322.7,458.1 327.9,458.1 333.0,458.1 338.2,458.0 343.3,458.2 348.5,458.1 353.6,458.2 358.8,458.3 363.9,458.3 369.1,458.3 374.2,458.4 379.4,458.4 384.5,458.4 389.7,458.4 394.8,458.5 400.0,458.6 405.2,458.5 410.3,458.7 415.5,458.7 420.6,458.8 425.8,458.8 430.9,458.8 436.1,458.9 441.2,458.9 446.4,459.0 451.5,459.0 456.7,459.0 461.8,459.1 467.0,459.1 472.1,459.1 477.3,459.3 482.4,459.3 487.6,459.4 492.7,459.4 497.9,459.4 503.0,459.5 508.2,459.5 513.3,459.5 518.5,459.7 523.6,459.5 528.8,459.7 533.9,459.7 539.1,459.7 544.2,459.8 549.4,459.9 554.5,459.8 559.7,459.9 564.8,459.9 570.0,460.0" />
<polyline fill="none" stroke="#1f77b4" stroke-width="2" points="630.0,86.4 635.2,457.6 640.3,456.2 645.5,455.7 650.6,454.5 655.8,454.6 660.9,453.5 666.1,455.5 671.2,455.9 676.4,455.7 681.5,456.2 686.7,456.1 691.8,456.8 697.0,455.8 702.1,456.5 707.3,455.5 712.4,456.1 717.6,455.5 722.7,455.6 727.9,455.9 733.0,455.8 738.2,456.1 743.3,455.3 748.5,456.3 753.6,455.6 758.8,455.3 763.9,456.3 769.1,455.8 774.2,456.7 779.4,455.7 784.5,455.9 789.7,456.3 794.8,455.7 800.0,456.3 805.2,456.2 810.3,455.8 815.5,456.4 820.6,456.4 825.8,455.2 830.9,456.5 836.1,456.1 841.2,456.1 846.4,456.1 851.5,456.1 856.7,455.9 861.8,456.5 867.0,456.1 872.1,455.1 877.3,455.4 882.4,455.7 887.6,455.0 892.7,455.3 897.9,455.8 903.0,455.5 908.2,456.1 913.3,455.7 918.5,455.9 923.6,455.5 928.8,456.3 933.9,456.0 939.1,454.8 944.2,455.8 949.4,455.9 954.5,455.0 959.7,455.5 964.8,455.4 970.0,455.3 975.2,456.0 980.3,455.5 985.5,455.9 990.6,455.2 995.8,455.8 1000.9,455.1 1006.1,455.7 1011.2,456.0 1016.4,455.2 1021.5,455.5 1026.7,454.8 1031.8,455.7 1037.0,455.9 1042.1,455.5 1047.3,456.4 1052.4,456.1 1057.6,455.6 1062.7,455.1 1067.9,455.6 1073.0,456.4 1078.2,455.8 1083.3,455.7 1088.5,456.5 1093.6,455.9 1098.8,455.3 1103.9,454.1 1109.1,455.6 1114.2,455.5 1119.4,455.4 1124.5,454.9 1129.7,455.3 1134.8,456.0 1140.0,456.2" />
<polyline fill="none" stroke="#2ca02c" stroke-width="2" points="60.0,66.4 65.2,365.3 70.3,403.2 75.5,420.7 80.6,430.9 85.8,437.1 90.9,441.3 96.1,443.7 101.2,445.6 106.4,447.0 111.5,447.9 116.7,449.3 121.8,449.9 127.0,450.5 132.1,451.0 137.3,451.6 142.4,451.6 147.6,452.3 152.7,452.4 157.9,452.7 163.0,453.0 168.2,453.0 173.3,453.4 178.5,453.7 183.6,453.6 188.8,454.0 193.9,454.1 199.1,454.1 204.2,454.3 209.4,454.4 214.5,454.5 219.7,454.5 224.8,454.6 230.0,454.9 235.2,455.0 240.3,454.8 245.5,455.1 250.6,454.9 255.8,455.2 260.9,455.1 266.1,455.3 271.2,455.2 276.4,455.3 281.5,455.5 286.7,455.4 291.8,455.4 297.0,455.5 302.1,455.6 307.3,455.5 312.4,455.7 317.6,455.5 322.7,455.8 327.9,455.8 333.0,455.7 338.2,455.6 343.3,455.9 348.5,455.6 353.6,455.8 358.8,456.0 363.9,455.9 369.1,455.9 374.2,455.9 379.4,456.0 384.5,455.9 389.7,455.9 394.8,455.9 400.0,456.0 405.2,456.0 410.3,456.1 415.5,456.2 420.6,456.2 425.8,456.0 430.9,456.2 436.1,456.3 441.2,456.1 446.4,456.2 451.5,456.1 456.7,456.2 461.8,456.2 467.0,456.2 472.1,456.1 477.3,456.2 482.4,456.2 487.6,456.2 492.7,456.2 497.9,456.3 503.0,456.4 508.2,456.3 513.3,456.3 518.5,456.6 523.6,456.4 528.8,456.3 533.9,456.4 539.1,456.3 544.2,456.4 549.4,456.5 554.5,456.4 559.7,456.5 564.8,456.5 570.0,456.5" />
<polyline fill="none" stroke="#2ca02c" stroke-width="2" points="630.0,60.0 635.2,453.8 640.3,455.1 645.5,455.5 650.6,456.6 655.8,455.3 660.9,455.6 666.1,456.8 671.2,456.1 676.4,457.5 681.5,456.8 686.7,456.5 691.8,457.3 697.0,457.1 702.1,457.3 707.3,456.3 712.4,457.4 717.6,456.9 722.7,457.4 727.9,456.3 733.0,456.3 738.2,457.1 743.3,456.3 748.5,456.8 753.6,457.4 758.8,457.4 763.9,457.5 769.1,457.2 774.2,457.2 779.4,456.8 784.5,456.5 789.7,456.4 794.8,456.7 800.0,457.0 805.2,457.2 810.3,457.2 815.5,456.5 820.6,457.2 825.8,456.9 830.9,457.3 836.1,457.4 841.2,457.3 846.4,456.6 851.5,457.0 856.7,457.8 861.8,456.9 867.0,457.8 872.1,456.7 877.3,457.3 882.4,457.1 887.6,456.8 892.7,457.2 897.9,456.4 903.0,456.8 908.2,457.3 913.3,457.1 918.5,457.2 923.6,456.9 928.8,456.4 933.9,457.5 939.1,456.7 944.2,457.5 949.4,457.2 954.5,457.6 959.7,457.2 964.8,456.0 970.0,457.6 975.2,457.0 980.3,457.6 985.5,457.3 990.6,457.3 995.8,457.1 1000.9,456.5 1006.1,457.4 1011.2,456.7 1016.4,456.5 1021.5,457.4 1026.7,457.3 1031.8,456.2 1037.0,457.4 1042.1,457.0 1047.3,456.1 1052.4,456.9 1057.6,457.0 1062.7,456.4 1067.9,457.0 1073.0,456.9 1078.2,457.2 1083.3,457.2 1088.5,457.5 1093.6,457.4 1098.8,456.9 1103.9,456.6 1109.1,456.6 1114.2,457.3 1119.4,457.4 1124.5,456.7 1129.7,456.7 1134.8,457.5 1140.0,458.4" />
<polyline fill="none" stroke="#d62728" stroke-width="2" points="60.0,60.0 65.2,415.0 70.3,437.5 75.5,447.9 80.6,451.5 85.8,452.8 90.9,453.4 96.1,453.8 101.2,454.0 106.4,454.1 111.5,454.2 116.7,454.5 121.8,454.6 127.0,454.7 132.1,454.9 137.3,455.0 142.4,455.0 147.6,455.2 152.7,455.3 157.9,455.3 163.0,455.5 168.2,455.5 173.3,455.6 178.5,455.7 183.6,455.7 188.8,455.8 193.9,455.9 199.1,455.9 204.2,455.9 209.4,456.0 214.5,456.1 219.7,456.1 224.8,456.1 230.0,456.2 235.2,456.3 240.3,456.2 245.5,456.3 250.6,456.3 255.8,456.4 260.9,456.4 266.1,456.4 271.2,456.4 276.4,456.4 281.5,456.5 286.7,456.5 291.8,456.5 297.0,456.5 302.1,456.6 307.3,456.6 312.4,456.6 317.6,456.5 322.7,456.6 327.9,456.7 333.0,456.7 338.2,456.6 343.3,456.7 348.5,456.6 353.6,456.7 358.8,456.8 363.9,456.7 369.1,456.7 374.2,456.7 379.4,456.7 384.5,456.7 389.7,456.8 394.8,456.7 400.0,456.8 405.2,456.8 410.3,456.9 415.5,456.8 420.6,456.9 425.8,456.9 430.9,456.9 436.1,456.9 441.2,456.9 446.4,456.9 451.5,456.9 456.7,456.9 461.8,456.9 467.0,457.0 472.1,456.9 477.3,456.9 482.4,456.9 487.6,456.9 492.7,457.0 497.9,457.0 503.0,457.0 508.2,457.0 513.3,457.0 518.5,457.1 523.6,457.0 528.8,457.0 533.9,457.1 539.1,457.1 544.2,457.1 549.4,457.1 554.5,457.1 559.7,457.1 564.8,457.1 570.0,457.1" />
<polyline fill="none" stroke="#d62728" stroke-width="2" points="630.0,111.5 635.2,460.0 640.3,457.9 645.5,458.4 650.6,458.7 655.8,458.6 660.9,458.5 666.1,459.0 671.2,458.8 676.4,459.1 681.5,458.3 686.7,457.2 691.8,459.1 697.0,458.6 702.1,459.2 707.3,458.6 712.4,459.1 717.6,459.6 722.7,458.5 727.9,458.8 733.0,458.5 738.2,459.1 743.3,458.8 748.5,457.5 753.6,458.3 758.8,458.4 763.9,458.9 769.1,458.7 774.2,458.8 779.4,459.0 784.5,458.3 789.7,458.9 794.8,458.4 800.0,459.0 805.2,458.1 810.3,458.4 815.5,459.1 820.6,459.4 825.8,458.2 830.9,459.0 836.1,459.3 841.2,459.2 846.4,459.1 851.5,459.7 856.7,459.1 861.8,458.1 867.0,458.3 872.1,459.1 877.3,458.9 882.4,457.8 887.6,458.1 892.7,459.1 897.9,459.3 903.0,458.6 908.2,458.6 913.3,458.8 918.5,457.7 923.6,458.4 928.8,459.3 933.9,459.0 939.1,458.1 944.2,459.3 949.4,458.5 954.5,458.0 959.7,457.6 964.8,458.8 970.0,458.7 975.2,458.3 980.3,458.5 985.5,459.0 990.6,458.3 995.8,458.7 1000.9,459.0 1006.1,457.4 1011.2,459.2 1016.4,458.3 1021.5,458.0 1026.7,458.9 1031.8,458.8 1037.0,458.2 1042.1,458.4 1047.3,459.0 1052.4,457.8 1057.6,459.0 1062.7,457.9 1067.9,458.0 1073.0,458.4 1078.2,459.0 1083.3,459.1 1088.5,459.2 1093.6,458.4 1098.8,458.9 1103.9,459.0 1109.1,459.2 1114.2,459.0 1119.4,458.5 1124.5,458.7 1129.7,459.1 1134.8,458.8 1140.0,459.4" />
<line x1="990" y1="45" x2="1015" y2="45" stroke="#ff7f0e" stroke-width="3"/>
<text x="1022" y="49" font-size="13" font-family="sans-serif">adafactor</text>
<line x1="990" y1="67" x2="1015" y2="67" stroke="#1f77b4" stroke-width="3"/>
<text x="1022" y="71" font-size="13" font-family="sans-serif">adamw</text>
<line x1="990" y1="89" x2="1015" y2="89" stroke="#2ca02c" stroke-width="3"/>
<text x="1022" y="93" font-size="13" font-family="sans-serif">rmsprop</text>
<line x1="990" y1="111" x2="1015" y2="111" stroke="#d62728" stroke-width="3"/>
<text x="1022" y="115" font-size="13" font-family="sans-serif">sgd</text>
<text x="315.0" y="505" text-anchor="middle" font-size="12" font-family="sans-serif">step</text>
<text x="885.0" y="505" text-anchor="middle" font-size="12" font-family="sans-serif">step</text>
<text x="25" y="260.0" text-anchor="middle" font-size="12" font-family="sans-serif" transform="rotate(-90 25,260.0)">loss</text>
<text x="595.0" y="260.0" text-anchor="middle" font-size="12" font-family="sans-serif" transform="rotate(-90 595.0,260.0)">step_time (s)</text>
</svg>
