<svg xmlns="http://www.w3.org/2000/svg" width="1200" height="520" viewBox="0 0 1200 520">
<rect x="0" y="0" width="100%" height="100%" fill="#ffffff" />
<text x="600.0" y="30" text-anchor="middle" font-size="20" font-family="sans-serif">Optimizer Comparison</text>
<rect x="60" y="60" width="510.0" height="400" fill="#fafafa" stroke="#dddddd"/>
<text x="315.0" y="48" text-anchor="middle" font-size="14" font-family="sans-serif">Loss vs Step</text>
<rect x="630.0" y="60" width="510.0" height="400" fill="#fafafa" stroke="#dddddd"/>
<text x="885.0" y="48" text-anchor="middle" font-size="14" font-family="sans-serif">Step Time vs Step</text>
<line x1="60.0" y1="460.0" x2="60.0" y2="465.0" stroke="#666" stroke-width="1"/>
<text x="60.0" y="480.0" text-anchor="middle" font-size="11" font-family="sans-serif" fill="#555">10</text>
<line x1="162.0" y1="460.0" x2="162.0" y2="465.0" stroke="#666" stroke-width="1"/>
<text x="162.0" y="480.0" text-anchor="middle" font-size="11" font-family="sans-serif" fill="#555">208</text>
<line x1="264.0" y1="460.0" x2="264.0" y2="465.0" stroke="#666" stroke-width="1"/>
<text x="264.0" y="480.0" text-anchor="middle" font-size="11" font-family="sans-serif" fill="#555">406</text>
<line x1="366.0" y1="460.0" x2="366.0" y2="465.0" stroke="#666" stroke-width="1"/>
<text x="366.0" y="480.0" text-anchor="middle" font-size="11" font-family="sans-serif" fill="#555">604</text>
<line x1="468.0" y1="460.0" x2="468.0" y2="465.0" stroke="#666" stroke-width="1"/>
<text x="468.0" y="480.0" text-anchor="middle" font-size="11" font-family="sans-serif" fill="#555">802</text>
<line x1="570.0" y1="460.0" x2="570.0" y2="465.0" stroke="#666" stroke-width="1"/>
<text x="570.0" y="480.0" text-anchor="middle" font-size="11" font-family="sans-serif" fill="#555">1000</text>
<line x1="55.0" y1="460.0" x2="60.0" y2="460.0" stroke="#666" stroke-width="1"/>
<text x="50.0" y="464.0" text-anchor="end" font-size="11" font-family="sans-serif" fill="#555">1.9</text>
<line x1="55.0" y1="380.0" x2="60.0" y2="380.0" stroke="#666" stroke-width="1"/>
<text x="50.0" y="384.0" text-anchor="end" font-size="11" font-family="sans-serif" fill="#555">17.9</text>
<line x1="55.0" y1="300.0" x2="60.0" y2="300.0" stroke="#666" stroke-width="1"/>
<text x="50.0" y="304.0" text-anchor="end" font-size="11" font-family="sans-serif" fill="#555">33.9</text>
<line x1="55.0" y1="220.0" x2="60.0" y2="220.0" stroke="#666" stroke-width="1"/>
<text x="50.0" y="224.0" text-anchor="end" font-size="11" font-family="sans-serif" fill="#555">49.9</text>
<line x1="55.0" y1="140.0" x2="60.0" y2="140.0" stroke="#666" stroke-width="1"/>
<text x="50.0" y="144.0" text-anchor="end" font-size="11" font-family="sans-serif" fill="#555">65.8</text>
<line x1="55.0" y1="60.0" x2="60.0" y2="60.0" stroke="#666" stroke-width="1"/>
<text x="50.0" y="64.0" text-anchor="end" font-size="11" font-family="sans-serif" fill="#555">81.8</text>
<line x1="630.0" y1="460.0" x2="630.0" y2="465.0" stroke="#666" stroke-width="1"/>
<text x="630.0" y="480.0" text-anchor="middle" font-size="11" font-family="sans-serif" fill="#555">10</text>
<line x1="732.0" y1="460.0" x2="732.0" y2="465.0" stroke="#666" stroke-width="1"/>
<text x="732.0" y="480.0" text-anchor="middle" font-size="11" font-family="sans-serif" fill="#555">208</text>
<line x1="834.0" y1="460.0" x2="834.0" y2="465.0" stroke="#666" stroke-width="1"/>
<text x="834.0" y="480.0" text-anchor="middle" font-size="11" font-family="sans-serif" fill="#555">406</text>
<line x1="936.0" y1="460.0" x2="936.0" y2="465.0" stroke="#666" stroke-width="1"/>
<text x="936.0" y="480.0" text-anchor="middle" font-size="11" font-family="sans-serif" fill="#555">604</text>
<line x1="1038.0" y1="460.0" x2="1038.0" y2="465.0" stroke="#666" stroke-width="1"/>
<text x="1038.0" y="480.0" text-anchor="middle" font-size="11" font-family="sans-serif" fill="#555">802</text>
<line x1="1140.0" y1="460.0" x2="1140.0" y2="465.0" stroke="#666" stroke-width="1"/>
<text x="1140.0" y="480.0" text-anchor="middle" font-size="11" font-family="sans-serif" fill="#555">1000</text>
<line x1="625.0" y1="460.0" x2="630.0" y2="460.0" stroke="#666" stroke-width="1"/>
<text x="620.0" y="464.0" text-anchor="end" font-size="11" font-family="sans-serif" fill="#555">0.007</text>
<line x1="625.0" y1="380.0" x2="630.0" y2="380.0" stroke="#666" stroke-width="1"/>
<text x="620.0" y="384.0" text-anchor="end" font-size="11" font-family="sans-serif" fill="#555">0.024</text>
<line x1="625.0" y1="300.0" x2="630.0" y2="300.0" stroke="#666" stroke-width="1"/>
<text x="620.0" y="304.0" text-anchor="end" font-size="11" font-family="sans-serif" fill="#555">0.040</text>
<line x1="625.0" y1="220.0" x2="630.0" y2="220.0" stroke="#666" stroke-width="1"/>
<text x="620.0" y="224.0" text-anchor="end" font-size="11" font-family="sans-serif" fill="#555">0.057</text>
<line x1="625.0" y1="140.0" x2="630.0" y2="140.0" stroke="#666" stroke-width="1"/>
<text x="620.0" y="144.0" text-anchor="end" font-size="11" font-family="sans-serif" fill="#555">0.073</text>
<line x1="625.0" y1="60.0" x2="630.0" y2="60.0" stroke="#666" stroke-width="1"/>
<text x="620.0" y="64.0" text-anchor="end" font-size="11" font-family="sans-serif" fill="#555">0.090</text>
<polyline fill="none" stroke="#ff7f0e" stroke-width="2" points="60.0,126.0 65.2,203.9 70.3,287.6 75.5,352.2 80.6,377.3 85.8,388.9 90.9,400.7 96.1,408.2 101.2,417.2 106.4,421.5 111.5,430.1 116.7,430.3 121.8,436.7 127.0,439.2 132.1,443.0 137.3,445.0 142.4,446.4 147.6,448.8 152.7,450.6 157.9,451.4 163.0,452.3 168.2,453.2 173.3,453.4 178.5,454.2 183.6,454.4 188.8,454.7 193.9,454.8 199.1,455.2 204.2,455.2 209.4,455.4 214.5,455.5 219.7,455.7 224.8,455.9 230.0,455.9 235.2,455.9 240.3,456.1 245.5,456.0 250.6,456.3 255.8,456.3 260.9,456.3 266.1,456.4 271.2,456.4 276.4,456.5 281.5,456.5 286.7,456.5 291.8,456.7 297.0,456.7 302.1,456.7 307.3,456.8 312.4,456.8 317.6,456.8 322.7,456.8 327.9,456.9 333.0,456.9 338.2,456.9 343.3,457.0 348.5,457.0 353.6,457.0 358.8,457.1 363.9,457.1 369.1,457.0 374.2,457.0 379.4,457.1 384.5,457.1 389.7,457.0 394.8,457.1 400.0,457.2 405.2,457.2 410.3,457.2 415.5,457.3 420.6,457.2 425.8,457.3 430.9,457.3 436.1,457.3 441.2,457.4 446.4,457.4 451.5,457.4 456.7,457.4 461.8,457.4 467.0,457.3 472.1,457.4 477.3,457.4 482.4,457.4 487.6,457.4 492.7,457.4 497.9,457.4 503.0,457.4 508.2,457.5 513.3,457.5 518.5,457.5 523.6,457.6 528.8,457.5 533.9,457.6 539.1,457.5 544.2,457.5 549.4,457.5 554.5,457.6 559.7,457.5 564.8,457.6 570.0,457.5" />
<polyline fill="none" stroke="#ff7f0e" stroke-width="2" points="630.0,60.0 635.2,417.4 640.3,417.9 645.5,416.0 650.6,417.5 655.8,418.5 660.9,418.8 666.1,417.7 671.2,415.3 676.4,417.0 681.5,419.7 686.7,417.8 691.8,416.9 697.0,418.8 702.1,418.1 707.3,419.4 712.4,418.2 717.6,415.8 722.7,417.9 727.9,417.6 733.0,418.1 738.2,417.9 743.3,416.6 748.5,416.8 753.6,417.7 758.8,418.7 763.9,413.3 769.1,417.8 774.2,418.6 779.4,418.0 784.5,419.1 789.7,418.8 794.8,418.1 800.0,417.2 805.2,416.6 810.3,419.9 815.5,418.0 820.6,418.1 825.8,418.7 830.9,418.9 836.1,420.9 841.2,418.6 846.4,418.1 851.5,417.8 856.7,418.0 861.8,419.7 867.0,417.8 872.1,418.1 877.3,418.2 882.4,416.4 887.6,420.6 892.7,419.9 897.9,419.7 903.0,419.9 908.2,418.7 913.3,419.3 918.5,419.7 923.6,416.8 928.8,419.1 933.9,418.7 939.1,419.1 944.2,419.5 949.4,420.4 954.5,419.7 959.7,419.1 964.8,421.6 970.0,419.8 975.2,420.5 980.3,419.7 985.5,420.8 990.6,422.5 995.8,418.8 1000.9,419.5 1006.1,420.6 1011.2,421.0 1016.4,422.1 1021.5,419.1 1026.7,420.0 1031.8,417.7 1037.0,419.6 1042.1,421.1 1047.3,419.6 1052.4,419.8 1057.6,421.1 1062.7,420.5 1067.9,420.0 1073.0,419.1 1078.2,418.9 1083.3,420.0 1088.5,420.5 1093.6,420.7 1098.8,420.4 1103.9,420.9 1109.1,420.0 1114.2,420.2 1119.4,422.1 1124.5,419.1 1129.7,419.5 1134.8,419.5 1140.0,420.0" />
<polyline fill="none" stroke="#1f77b4" stroke-width="2" points="60.0,97.7 65.2,413.2 70.3,440.4 75.5,448.3 80.6,451.6 85.8,453.6 90.9,454.6 96.1,455.3 101.2,455.8 106.4,456.1 111.5,456.4 116.7,456.6 121.8,456.8 127.0,457.0 132.1,457.1 137.3,457.2 142.4,457.3 147.6,457.3 152.7,457.4 157.9,457.5 163.0,457.5 168.2,457.6 173.3,457.6 178.5,457.6 183.6,457.6 188.8,457.8 193.9,457.7 199.1,457.8 204.2,457.8 209.4,457.9 214.5,457.9 219.7,457.9 224.8,457.9 230.0,457.9 235.2,457.9 240.3,458.0 245.5,457.9 250.6,458.0 255.8,458.0 260.9,458.0 266.1,458.0 271.2,458.0 276.4,458.0 281.5,458.1 286.7,458.0 291.8,458.1 297.0,458.1 302.1,458.2 307.3,458.2 312.4,458.3 317.6,458.1 322.7,458.2 327.9,458.2 333.0,458.3 338.2,458.3 343.3,458.3 348.5,458.4 353.6,458.3 358.8,458.4 363.9,458.4 369.1,458.3 374.2,458.4 379.4,458.4 384.5,458.5 389.7,458.4 394.8,458.5 400.0,458.5 405.2,458.6 410.3,458.6 415.5,458.7 420.6,458.7 425.8,458.8 430.9,458.8 436.1,458.8 441.2,458.9 446.4,459.0 451.5,459.0 456.7,459.0 461.8,459.0 467.0,459.0 472.1,459.1 477.3,459.2 482.4,459.2 487.6,459.2 492.7,459.3 497.9,459.4 503.0,459.4 508.2,459.5 513.3,459.5 518.5,459.6 523.6,459.6 528.8,459.6 533.9,459.8 539.1,459.7 544.2,459.9 549.4,459.9 554.5,459.9 559.7,459.9 564.8,460.0 570.0,460.0" />
<polyline fill="none" stroke="#1f77b4" stroke-width="2" points="630.0,106.6 635.2,454.8 640.3,455.9 645.5,456.9 650.6,456.2 655.8,457.5 660.9,456.7 666.1,455.9 671.2,456.1 676.4,456.0 681.5,458.0 686.7,456.6 691.8,456.0 697.0,456.9 702.1,455.8 707.3,457.7 712.4,455.8 717.6,455.9 722.7,456.3 727.9,456.9 733.0,457.7 738.2,456.7 743.3,456.4 748.5,456.6 753.6,457.2 758.8,457.1 763.9,457.0 769.1,456.7 774.2,456.6 779.4,456.7 784.5,457.4 789.7,456.6 794.8,456.7 800.0,456.4 805.2,456.4 810.3,457.7 815.5,456.5 820.6,456.6 825.8,456.8 830.9,456.4 836.1,457.3 841.2,456.2 846.4,457.0 851.5,456.1 856.7,456.5 861.8,456.7 867.0,456.9 872.1,456.8 877.3,456.1 882.4,456.6 887.6,457.9 892.7,456.0 897.9,456.9 903.0,455.8 908.2,456.9 913.3,457.7 918.5,456.9 923.6,457.0 928.8,457.1 933.9,457.4 939.1,457.8 944.2,456.8 949.4,456.8 954.5,455.9 959.7,456.5 964.8,457.9 970.0,457.0 975.2,457.1 980.3,456.8 985.5,456.5 990.6,458.1 995.8,456.8 1000.9,456.2 1006.1,456.2 1011.2,456.6 1016.4,457.0 1021.5,456.7 1026.7,456.4 1031.8,456.4 1037.0,456.4 1042.1,457.7 1047.3,457.0 1052.4,456.7 1057.6,457.5 1062.7,456.3 1067.9,458.2 1073.0,456.6 1078.2,457.3 1083.3,456.1 1088.5,456.5 1093.6,458.0 1098.8,457.3 1103.9,457.2 1109.1,456.6 1114.2,457.2 1119.4,458.0 1124.5,456.5 1129.7,456.2 1134.8,456.7 1140.0,457.0" />
<polyline fill="none" stroke="#2ca02c" stroke-width="2" points="60.0,66.7 65.2,365.3 70.3,402.6 75.5,420.8 80.6,431.4 85.8,437.4 90.9,441.3 96.1,443.8 101.2,445.6 106.4,447.1 111.5,448.4 116.7,449.3 121.8,449.8 127.0,450.6 132.1,450.9 137.3,451.4 142.4,451.9 147.6,452.3 152.7,452.5 157.9,452.7 163.0,453.0 168.2,453.4 173.3,453.5 178.5,453.5 183.6,453.8 188.8,453.9 193.9,454.3 199.1,454.1 204.2,454.4 209.4,454.5 214.5,454.6 219.7,454.8 224.8,454.7 230.0,455.0 235.2,454.8 240.3,455.0 245.5,455.1 250.6,455.3 255.8,455.2 260.9,455.2 266.1,455.4 271.2,455.3 276.4,455.4 281.5,455.4 286.7,455.5 291.8,455.5 297.0,455.7 302.1,455.7 307.3,455.7 312.4,455.8 317.6,455.7 322.7,455.7 327.9,455.8 333.0,455.9 338.2,455.7 343.3,455.9 348.5,455.9 353.6,456.0 358.8,456.1 363.9,456.0 369.1,455.9 374.2,455.8 379.4,456.0 384.5,456.1 389.7,455.9 394.8,456.1 400.0,456.1 405.2,456.1 410.3,456.0 415.5,456.3 420.6,456.2 425.8,456.2 430.9,456.1 436.1,456.2 441.2,456.3 446.4,456.3 451.5,456.2 456.7,456.2 461.8,456.3 467.0,456.2 472.1,456.4 477.3,456.3 482.4,456.4 487.6,456.3 492.7,456.2 497.9,456.5 503.0,456.4 508.2,456.6 513.3,456.4 518.5,456.5 523.6,456.3 528.8,456.4 533.9,456.6 539.1,456.4 544.2,456.7 549.4,456.5 554.5,456.5 559.7,456.5 564.8,456.6 570.0,456.6" />
<polyline fill="none" stroke="#2ca02c" stroke-width="2" points="630.0,91.8 635.2,456.3 640.3,457.4 645.5,456.3 650.6,457.2 655.8,455.8 660.9,456.3 666.1,456.9 671.2,456.7 676.4,455.8 681.5,456.6 686.7,456.1 691.8,456.9 697.0,455.4 702.1,456.0 707.3,456.1 712.4,456.8 717.6,456.6 722.7,457.0 727.9,456.6 733.0,457.1 738.2,455.6 743.3,456.4 748.5,456.7 753.6,456.4 758.8,458.3 763.9,456.8 769.1,456.6 774.2,456.7 779.4,457.0 784.5,457.4 789.7,456.4 794.8,457.0 800.0,456.0 805.2,458.2 810.3,458.6 815.5,457.0 820.6,457.4 825.8,456.4 830.9,457.6 836.1,457.5 841.2,457.1 846.4,455.9 851.5,457.1 856.7,455.8 861.8,458.4 867.0,457.1 872.1,455.8 877.3,457.3 882.4,456.7 887.6,457.6 892.7,457.3 897.9,456.2 903.0,457.3 908.2,457.2 913.3,458.2 918.5,456.7 923.6,457.0 928.8,457.2 933.9,456.3 939.1,457.6 944.2,457.1 949.4,456.7 954.5,456.7 959.7,456.5 964.8,458.1 970.0,456.9 975.2,456.5 980.3,457.4 985.5,456.8 990.6,458.2 995.8,457.4 1000.9,456.8 1006.1,456.9 1011.2,457.3 1016.4,457.9 1021.5,456.6 1026.7,456.9 1031.8,456.8 1037.0,456.8 1042.1,457.4 1047.3,457.0 1052.4,457.2 1057.6,457.4 1062.7,457.1 1067.9,456.9 1073.0,457.4 1078.2,457.0 1083.3,457.1 1088.5,456.9 1093.6,458.4 1098.8,456.9 1103.9,457.2 1109.1,456.1 1114.2,457.3 1119.4,458.1 1124.5,456.9 1129.7,456.6 1134.8,456.8 1140.0,456.3" />
<polyline fill="none" stroke="#d62728" stroke-width="2" points="60.0,60.0 65.2,414.1 70.3,437.0 75.5,447.8 80.6,451.1 85.8,452.8 90.9,453.4 96.1,453.7 101.2,454.0 106.4,454.1 111.5,454.3 116.7,454.5 121.8,454.6 127.0,454.7 132.1,454.8 137.3,454.9 142.4,455.1 147.6,455.2 152.7,455.2 157.9,455.3 163.0,455.4 168.2,455.6 173.3,455.6 178.5,455.6 183.6,455.8 188.8,455.9 193.9,455.9 199.1,456.0 204.2,456.0 209.4,456.1 214.5,456.2 219.7,456.2 224.8,456.2 230.0,456.2 235.2,456.2 240.3,456.3 245.5,456.3 250.6,456.4 255.8,456.4 260.9,456.5 266.1,456.5 271.2,456.5 276.4,456.5 281.5,456.6 286.7,456.5 291.8,456.6 297.0,456.6 302.1,456.7 307.3,456.7 312.4,456.7 317.6,456.7 322.7,456.7 327.9,456.7 333.0,456.7 338.2,456.7 343.3,456.8 348.5,456.8 353.6,456.8 358.8,456.9 363.9,456.8 369.1,456.8 374.2,456.8 379.4,456.8 384.5,456.9 389.7,456.8 394.8,456.9 400.0,456.9 405.2,456.9 410.3,456.9 415.5,457.0 420.6,456.9 425.8,457.0 430.9,457.0 436.1,456.9 441.2,457.0 446.4,457.0 451.5,457.0 456.7,457.0 461.8,457.0 467.0,457.0 472.1,457.1 477.3,457.1 482.4,457.1 487.6,457.0 492.7,457.0 497.9,457.1 503.0,457.1 508.2,457.2 513.3,457.1 518.5,457.1 523.6,457.1 528.8,457.1 533.9,457.2 539.1,457.1 544.2,457.2 549.4,457.2 554.5,457.2 559.7,457.2 564.8,457.2 570.0,457.2" />
<polyline fill="none" stroke="#d62728" stroke-width="2" points="630.0,138.0 635.2,459.8 640.3,460.0 645.5,459.3 650.6,459.2 655.8,458.4 660.9,456.9 666.1,457.0 671.2,458.2 676.4,457.8 681.5,458.9 686.7,458.1 691.8,457.5 697.0,457.3 702.1,456.7 707.3,458.1 712.4,457.2 717.6,457.7 722.7,458.0 727.9,457.5 733.0,458.4 738.2,457.5 743.3,457.0 748.5,456.7 753.6,457.0 758.8,458.9 763.9,458.0 769.1,457.9 774.2,457.8 779.4,458.0 784.5,458.7 789.7,456.8 794.8,457.7 800.0,457.9 805.2,457.5 810.3,458.9 815.5,458.3 820.6,457.0 825.8,455.8 830.9,457.3 836.1,459.0 841.2,457.6 846.4,457.7 851.5,457.0 856.7,458.3 861.8,458.5 867.0,457.4 872.1,458.2 877.3,457.8 882.4,457.4 887.6,458.0 892.7,456.6 897.9,457.4 903.0,457.3 908.2,457.5 913.3,457.7 918.5,458.0 923.6,457.3 928.8,457.6 933.9,456.8 939.1,459.2 944.2,456.8 949.4,458.5 954.5,458.0 959.7,458.4 964.8,458.8 970.0,458.0 975.2,457.2 980.3,458.3 985.5,457.8 990.6,458.7 995.8,457.2 1000.9,458.3 1006.1,458.3 1011.2,457.5 1016.4,459.1 1021.5,457.9 1026.7,457.8 1031.8,458.0 1037.0,457.7 1042.1,459.1 1047.3,458.1 1052.4,457.7 1057.6,458.1 1062.7,457.4 1067.9,459.5 1073.0,457.6 1078.2,458.2 1083.3,458.2 1088.5,457.9 1093.6,459.2 1098.8,458.2 1103.9,457.2 1109.1,458.0 1114.2,458.3 1119.4,458.8 1124.5,457.0 1129.7,458.5 1134.8,458.6 1140.0,458.1" />
<line x1="990" y1="45" x2="1015" y2="45" stroke="#ff7f0e" stroke-width="3"/>
<text x="1022" y="49" font-size="13" font-family="sans-serif">adafactor</text>
<line x1="990" y1="67" x2="1015" y2="67" stroke="#1f77b4" stroke-width="3"/>
<text x="1022" y="71" font-size="13" font-family="sans-serif">adamw</text>
<line x1="990" y1="89" x2="1015" y2="89" stroke="#2ca02c" stroke-width="3"/>
<text x="1022" y="93" font-size="13" font-family="sans-serif">rmsprop</text>
<line x1="990" y1="111" x2="1015" y2="111" stroke="#d62728" stroke-width="3"/>
<text x="1022" y="115" font-size="13" font-family="sans-serif">sgd</text>
<text x="315.0" y="505" text-anchor="middle" font-size="12" font-family="sans-serif">step</text>
<text x="885.0" y="505" text-anchor="middle" font-size="12" font-family="sans-serif">step</text>
<text x="25" y="260.0" text-anchor="middle" font-size="12" font-family="sans-serif" transform="rotate(-90 25,260.0)">loss</text>
<text x="595.0" y="260.0" text-anchor="middle" font-size="12" font-family="sans-serif" transform="rotate(-90 595.0,260.0)">step_time (s)</text>
</svg>
