<svg xmlns="http://www.w3.org/2000/svg" width="1200" height="520" viewBox="0 0 1200 520">
<rect x="0" y="0" width="100%" height="100%" fill="#ffffff" />
<text x="600.0" y="30" text-anchor="middle" font-size="20" font-family="sans-serif">Optimizer Comparison</text>
<rect x="60" y="60" width="510.0" height="400" fill="#fafafa" stroke="#dddddd"/>
<text x="315.0" y="48" text-anchor="middle" font-size="14" font-family="sans-serif">Loss vs Step</text>
<rect x="630.0" y="60" width="510.0" height="400" fill="#fafafa" stroke="#dddddd"/>
<text x="885.0" y="48" text-anchor="middle" font-size="14" font-family="sans-serif">Step Time vs Step</text>
<line x1="60.0" y1="460.0" x2="60.0" y2="465.0" stroke="#666" stroke-width="1"/>
<text x="60.0" y="480.0" text-anchor="middle" font-size="11" font-family="sans-serif" fill="#555">10</text>
<line x1="162.0" y1="460.0" x2="162.0" y2="465.0" stroke="#666" stroke-width="1"/>
<text x="162.0" y="480.0" text-anchor="middle" font-size="11" font-family="sans-serif" fill="#555">208</text>
<line x1="264.0" y1="460.0" x2="264.0" y2="465.0" stroke="#666" stroke-width="1"/>
<text x="264.0" y="480.0" text-anchor="middle" font-size="11" font-family="sans-serif" fill="#555">406</text>
<line x1="366.0" y1="460.0" x2="366.0" y2="465.0" stroke="#666" stroke-width="1"/>
<text x="366.0" y="480.0" text-anchor="middle" font-size="11" font-family="sans-serif" fill="#555">604</text>
<line x1="468.0" y1="460.0" x2="468.0" y2="465.0" stroke="#666" stroke-width="1"/>
<text x="468.0" y="480.0" text-anchor="middle" font-size="11" font-family="sans-serif" fill="#555">802</text>
<line x1="570.0" y1="460.0" x2="570.0" y2="465.0" stroke="#666" stroke-width="1"/>
<text x="570.0" y="480.0" text-anchor="middle" font-size="11" font-family="sans-serif" fill="#555">1000</text>
<line x1="55.0" y1="460.0" x2="60.0" y2="460.0" stroke="#666" stroke-width="1"/>
<text x="50.0" y="464.0" text-anchor="end" font-size="11" font-family="sans-serif" fill="#555">1.9</text>
<line x1="55.0" y1="380.0" x2="60.0" y2="380.0" stroke="#666" stroke-width="1"/>
<text x="50.0" y="384.0" text-anchor="end" font-size="11" font-family="sans-serif" fill="#555">17.9</text>
<line x1="55.0" y1="300.0" x2="60.0" y2="300.0" stroke="#666" stroke-width="1"/>
<text x="50.0" y="304.0" text-anchor="end" font-size="11" font-family="sans-serif" fill="#555">33.9</text>
<line x1="55.0" y1="220.0" x2="60.0" y2="220.0" stroke="#666" stroke-width="1"/>
<text x="50.0" y="224.0" text-anchor="end" font-size="11" font-family="sans-serif" fill="#555">49.9</text>
<line x1="55.0" y1="140.0" x2="60.0" y2="140.0" stroke="#666" stroke-width="1"/>
<text x="50.0" y="144.0" text-anchor="end" font-size="11" font-family="sans-serif" fill="#555">66.0</text>
<line x1="55.0" y1="60.0" x2="60.0" y2="60.0" stroke="#666" stroke-width="1"/>
<text x="50.0" y="64.0" text-anchor="end" font-size="11" font-family="sans-serif" fill="#555">82.0</text>
<line x1="630.0" y1="460.0" x2="630.0" y2="465.0" stroke="#666" stroke-width="1"/>
<text x="630.0" y="480.0" text-anchor="middle" font-size="11" font-family="sans-serif" fill="#555">10</text>
<line x1="732.0" y1="460.0" x2="732.0" y2="465.0" stroke="#666" stroke-width="1"/>
<text x="732.0" y="480.0" text-anchor="middle" font-size="11" font-family="sans-serif" fill="#555">208</text>
<line x1="834.0" y1="460.0" x2="834.0" y2="465.0" stroke="#666" stroke-width="1"/>
<text x="834.0" y="480.0" text-anchor="middle" font-size="11" font-family="sans-serif" fill="#555">406</text>
<line x1="936.0" y1="460.0" x2="936.0" y2="465.0" stroke="#666" stroke-width="1"/>
<text x="936.0" y="480.0" text-anchor="middle" font-size="11" font-family="sans-serif" fill="#555">604</text>
<line x1="1038.0" y1="460.0" x2="1038.0" y2="465.0" stroke="#666" stroke-width="1"/>
<text x="1038.0" y="480.0" text-anchor="middle" font-size="11" font-family="sans-serif" fill="#555">802</text>
<line x1="1140.0" y1="460.0" x2="1140.0" y2="465.0" stroke="#666" stroke-width="1"/>
<text x="1140.0" y="480.0" text-anchor="middle" font-size="11" font-family="sans-serif" fill="#555">1000</text>
<line x1="625.0" y1="460.0" x2="630.0" y2="460.0" stroke="#666" stroke-width="1"/>
<text x="620.0" y="464.0" text-anchor="end" font-size="11" font-family="sans-serif" fill="#555">0.026</text>
<line x1="625.0" y1="380.0" x2="630.0" y2="380.0" stroke="#666" stroke-width="1"/>
<text x="620.0" y="384.0" text-anchor="end" font-size="11" font-family="sans-serif" fill="#555">0.032</text>
<line x1="625.0" y1="300.0" x2="630.0" y2="300.0" stroke="#666" stroke-width="1"/>
<text x="620.0" y="304.0" text-anchor="end" font-size="11" font-family="sans-serif" fill="#555">0.038</text>
<line x1="625.0" y1="220.0" x2="630.0" y2="220.0" stroke="#666" stroke-width="1"/>
<text x="620.0" y="224.0" text-anchor="end" font-size="11" font-family="sans-serif" fill="#555">0.043</text>
<line x1="625.0" y1="140.0" x2="630.0" y2="140.0" stroke="#666" stroke-width="1"/>
<text x="620.0" y="144.0" text-anchor="end" font-size="11" font-family="sans-serif" fill="#555">0.049</text>
<line x1="625.0" y1="60.0" x2="630.0" y2="60.0" stroke="#666" stroke-width="1"/>
<text x="620.0" y="64.0" text-anchor="end" font-size="11" font-family="sans-serif" fill="#555">0.055</text>
<polyline fill="none" stroke="#ff7f0e" stroke-width="2" points="60.0,117.6 65.2,193.2 70.3,285.2 75.5,339.6 80.6,375.8 85.8,393.0 90.9,402.4 96.1,415.0 101.2,424.1 106.4,426.9 111.5,430.4 116.7,435.2 121.8,440.9 127.0,443.5 132.1,445.7 137.3,448.3 142.4,449.3 147.6,450.5 152.7,452.0 157.9,452.5 163.0,452.9 168.2,453.3 173.3,454.1 178.5,454.5 183.6,454.6 188.8,455.0 193.9,455.0 199.1,455.2 204.2,455.4 209.4,455.4 214.5,455.6 219.7,455.7 224.8,455.9 230.0,456.0 235.2,456.1 240.3,456.1 245.5,456.2 250.6,456.1 255.8,456.2 260.9,456.3 266.1,456.4 271.2,456.4 276.4,456.4 281.5,456.6 286.7,456.6 291.8,456.7 297.0,456.8 302.1,456.8 307.3,456.8 312.4,456.8 317.6,456.8 322.7,457.0 327.9,456.9 333.0,456.9 338.2,456.9 343.3,457.0 348.5,456.9 353.6,457.0 358.8,457.0 363.9,457.0 369.1,457.1 374.2,457.1 379.4,457.1 384.5,457.1 389.7,457.2 394.8,457.1 400.0,457.3 405.2,457.2 410.3,457.3 415.5,457.2 420.6,457.3 425.8,457.3 430.9,457.3 436.1,457.3 441.2,457.2 446.4,457.3 451.5,457.2 456.7,457.3 461.8,457.3 467.0,457.3 472.1,457.3 477.3,457.4 482.4,457.3 487.6,457.3 492.7,457.4 497.9,457.4 503.0,457.5 508.2,457.4 513.3,457.4 518.5,457.5 523.6,457.4 528.8,457.4 533.9,457.5 539.1,457.4 544.2,457.5 549.4,457.5 554.5,457.4 559.7,457.5 564.8,457.5 570.0,457.5" />
<polyline fill="none" stroke="#ff7f0e" stroke-width="2" points="630.0,200.6 635.2,64.8 640.3,95.9 645.5,97.8 650.6,99.1 655.8,109.7 660.9,81.2 666.1,91.9 671.2,77.1 676.4,96.3 681.5,84.0 686.7,60.0 691.8,131.2 697.0,135.3 702.1,116.9 707.3,120.5 712.4,138.7 717.6,144.9 722.7,144.6 727.9,169.7 733.0,154.6 738.2,160.4 743.3,149.0 748.5,129.4 753.6,166.4 758.8,133.4 763.9,130.0 769.1,157.6 774.2,161.8 779.4,149.5 784.5,173.0 789.7,156.4 794.8,149.4 800.0,162.8 805.2,158.3 810.3,161.2 815.5,138.0 820.6,151.1 825.8,176.1 830.9,175.2 836.1,169.3 841.2,171.7 846.4,168.8 851.5,176.5 856.7,174.8 861.8,183.3 867.0,183.7 872.1,182.8 877.3,173.5 882.4,164.0 887.6,165.6 892.7,179.2 897.9,171.4 903.0,178.3 908.2,195.3 913.3,175.3 918.5,179.4 923.6,195.8 928.8,178.4 933.9,191.1 939.1,194.6 944.2,197.3 949.4,201.3 954.5,192.7 959.7,217.9 964.8,221.6 970.0,220.8 975.2,211.2 980.3,208.9 985.5,196.1 990.6,215.7 995.8,192.1 1000.9,226.6 1006.1,228.4 1011.2,225.4 1016.4,227.1 1021.5,227.6 1026.7,208.2 1031.8,242.6 1037.0,241.6 1042.1,238.0 1047.3,226.0 1052.4,237.4 1057.6,230.3 1062.7,234.4 1067.9,239.1 1073.0,245.4 1078.2,246.3 1083.3,236.0 1088.5,252.2 1093.6,226.9 1098.8,241.9 1103.9,224.0 1109.1,240.7 1114.2,256.5 1119.4,250.9 1124.5,252.9 1129.7,243.2 1134.8,268.2 1140.0,266.8" />
<polyline fill="none" stroke="#1f77b4" stroke-width="2" points="60.0,99.9 65.2,415.8 70.3,441.4 75.5,448.3 80.6,451.8 85.8,453.6 90.9,454.5 96.1,455.3 101.2,455.7 106.4,456.0 111.5,456.1 116.7,456.5 121.8,456.7 127.0,456.9 132.1,457.0 137.3,457.2 142.4,457.1 147.6,457.3 152.7,457.3 157.9,457.3 163.0,457.5 168.2,457.4 173.3,457.6 178.5,457.6 183.6,457.6 188.8,457.7 193.9,457.7 199.1,457.7 204.2,457.7 209.4,457.7 214.5,457.7 219.7,457.7 224.8,457.8 230.0,457.9 235.2,457.9 240.3,457.9 245.5,457.9 250.6,457.8 255.8,457.9 260.9,457.9 266.1,457.9 271.2,457.9 276.4,457.9 281.5,458.0 286.7,457.9 291.8,458.0 297.0,458.1 302.1,458.1 307.3,458.1 312.4,458.1 317.6,458.0 322.7,458.1 327.9,458.1 333.0,458.1 338.2,458.0 343.3,458.2 348.5,458.1 353.6,458.2 358.8,458.3 363.9,458.3 369.1,458.3 374.2,458.4 379.4,458.4 384.5,458.4 389.7,458.4 394.8,458.5 400.0,458.6 405.2,458.5 410.3,458.7 415.5,458.7 420.6,458.8 425.8,458.8 430.9,458.8 436.1,458.9 441.2,458.9 446.4,459.0 451.5,459.0 456.7,459.0 461.8,459.1 467.0,459.1 472.1,459.1 477.3,459.3 482.4,459.3 487.6,459.4 492.7,459.4 497.9,459.4 503.0,459.5 508.2,459.5 513.3,459.5 518.5,459.7 523.6,459.5 528.8,459.7 533.9,459.7 539.1,459.7 544.2,459.8 549.4,459.9 554.5,459.8 559.7,459.9 564.8,459.9 570.0,460.0" />
<polyline fill="none" stroke="#1f77b4" stroke-width="2" points="630.0,206.9 635.2,329.1 640.3,345.9 645.5,398.5 650.6,422.7 655.8,425.4 660.9,390.3 666.1,427.7 671.2,421.9 676.4,433.8 681.5,434.1 686.7,434.9 691.8,417.0 697.0,409.5 702.1,423.5 707.3,429.1 712.4,424.2 717.6,415.5 722.7,420.6 727.9,412.1 733.0,424.1 738.2,424.6 743.3,439.6 748.5,404.6 753.6,411.9 758.8,420.0 763.9,397.5 769.1,435.2 774.2,438.6 779.4,429.1 784.5,425.7 789.7,418.7 794.8,432.2 800.0,442.1 805.2,431.0 810.3,434.4 815.5,434.2 820.6,432.1 825.8,434.5 830.9,432.7 836.1,416.4 841.2,436.3 846.4,433.8 851.5,417.1 856.7,442.0 861.8,437.3 867.0,439.2 872.1,436.2 877.3,437.2 882.4,436.3 887.6,440.8 892.7,435.9 897.9,425.5 903.0,435.6 908.2,438.5 913.3,437.2 918.5,434.8 923.6,433.0 928.8,438.4 933.9,424.3 939.1,433.5 944.2,428.8 949.4,426.2 954.5,428.2 959.7,436.3 964.8,426.2 970.0,426.6 975.2,441.0 980.3,425.1 985.5,437.7 990.6,434.9 995.8,433.8 1000.9,431.9 1006.1,411.9 1011.2,440.4 1016.4,435.0 1021.5,429.8 1026.7,434.8 1031.8,429.6 1037.0,443.5 1042.1,433.3 1047.3,445.9 1052.4,424.5 1057.6,434.2 1062.7,438.3 1067.9,425.0 1073.0,423.9 1078.2,432.3 1083.3,430.3 1088.5,427.4 1093.6,413.5 1098.8,425.6 1103.9,422.9 1109.1,431.9 1114.2,427.8 1119.4,427.1 1124.5,424.8 1129.7,435.2 1134.8,432.7 1140.0,431.7" />
<polyline fill="none" stroke="#2ca02c" stroke-width="2" points="60.0,66.4 65.2,365.3 70.3,403.2 75.5,420.7 80.6,430.9 85.8,437.2 90.9,440.8 96.1,443.8 101.2,445.7 106.4,446.9 111.5,447.8 116.7,449.4 121.8,449.8 127.0,450.5 132.1,451.0 137.3,451.5 142.4,451.7 147.6,452.3 152.7,452.3 157.9,452.6 163.0,453.1 168.2,452.9 173.3,453.4 178.5,453.6 183.6,453.6 188.8,454.0 193.9,454.1 199.1,454.2 204.2,454.4 209.4,454.4 214.5,454.5 219.7,454.6 224.8,454.6 230.0,454.8 235.2,455.0 240.3,454.8 245.5,455.1 250.6,454.9 255.8,455.1 260.9,455.2 266.1,455.3 271.2,455.2 276.4,455.4 281.5,455.5 286.7,455.4 291.8,455.5 297.0,455.6 302.1,455.7 307.3,455.5 312.4,455.6 317.6,455.6 322.7,455.8 327.9,455.7 333.0,455.7 338.2,455.7 343.3,455.9 348.5,455.7 353.6,455.8 358.8,456.0 363.9,455.8 369.1,455.9 374.2,455.8 379.4,456.0 384.5,455.9 389.7,455.9 394.8,455.9 400.0,456.0 405.2,456.1 410.3,456.1 415.5,456.1 420.6,456.2 425.8,456.0 430.9,456.1 436.1,456.3 441.2,456.1 446.4,456.2 451.5,456.1 456.7,456.2 461.8,456.2 467.0,456.2 472.1,456.0 477.3,456.3 482.4,456.3 487.6,456.3 492.7,456.2 497.9,456.3 503.0,456.3 508.2,456.3 513.3,456.3 518.5,456.6 523.6,456.4 528.8,456.3 533.9,456.4 539.1,456.3 544.2,456.4 549.4,456.5 554.5,456.4 559.7,456.5 564.8,456.5 570.0,456.5" />
<polyline fill="none" stroke="#2ca02c" stroke-width="2" points="630.0,277.9 635.2,372.6 640.3,379.3 645.5,379.4 650.6,434.6 655.8,433.4 660.9,391.6 666.1,429.7 671.2,436.4 676.4,426.4 681.5,428.7 686.7,422.5 691.8,414.7 697.0,426.8 702.1,431.6 707.3,414.8 712.4,426.1 717.6,424.2 722.7,412.8 727.9,411.6 733.0,420.8 738.2,427.1 743.3,424.1 748.5,434.8 753.6,411.3 758.8,416.3 763.9,427.2 769.1,434.1 774.2,427.0 779.4,423.9 784.5,411.7 789.7,431.1 794.8,424.3 800.0,431.7 805.2,433.8 810.3,431.6 815.5,439.0 820.6,432.2 825.8,432.8 830.9,438.0 836.1,436.9 841.2,429.4 846.4,436.4 851.5,432.6 856.7,427.8 861.8,437.7 867.0,437.1 872.1,437.4 877.3,440.6 882.4,415.6 887.6,422.4 892.7,428.6 897.9,422.3 903.0,435.7 908.2,434.1 913.3,434.2 918.5,435.0 923.6,433.4 928.8,430.2 933.9,437.9 939.1,435.1 944.2,435.1 949.4,430.2 954.5,437.5 959.7,435.7 964.8,435.6 970.0,435.9 975.2,425.3 980.3,437.9 985.5,421.8 990.6,430.5 995.8,418.6 1000.9,431.0 1006.1,427.0 1011.2,429.2 1016.4,428.6 1021.5,429.1 1026.7,437.3 1031.8,434.4 1037.0,436.0 1042.1,437.4 1047.3,427.0 1052.4,426.0 1057.6,436.6 1062.7,432.0 1067.9,421.1 1073.0,433.4 1078.2,434.5 1083.3,437.1 1088.5,434.2 1093.6,434.9 1098.8,432.9 1103.9,428.4 1109.1,435.3 1114.2,429.9 1119.4,441.3 1124.5,439.6 1129.7,438.5 1134.8,435.5 1140.0,430.7" />
<polyline fill="none" stroke="#d62728" stroke-width="2" points="60.0,60.0 65.2,415.0 70.3,437.5 75.5,447.9 80.6,451.5 85.8,452.8 90.9,453.4 96.1,453.8 101.2,454.0 106.4,454.1 111.5,454.2 116.7,454.5 121.8,454.6 127.0,454.7 132.1,454.9 137.3,455.0 142.4,455.0 147.6,455.2 152.7,455.3 157.9,455.3 163.0,455.5 168.2,455.5 173.3,455.6 178.5,455.7 183.6,455.7 188.8,455.8 193.9,455.9 199.1,455.9 204.2,455.9 209.4,456.0 214.5,456.1 219.7,456.1 224.8,456.1 230.0,456.2 235.2,456.3 240.3,456.2 245.5,456.3 250.6,456.3 255.8,456.4 260.9,456.4 266.1,456.4 271.2,456.4 276.4,456.4 281.5,456.5 286.7,456.5 291.8,456.5 297.0,456.5 302.1,456.6 307.3,456.6 312.4,456.6 317.6,456.5 322.7,456.6 327.9,456.7 333.0,456.7 338.2,456.6 343.3,456.7 348.5,456.6 353.6,456.7 358.8,456.8 363.9,456.7 369.1,456.7 374.2,456.7 379.4,456.7 384.5,456.7 389.7,456.8 394.8,456.7 400.0,456.8 405.2,456.8 410.3,456.9 415.5,456.8 420.6,456.9 425.8,456.9 430.9,456.9 436.1,456.9 441.2,456.9 446.4,456.9 451.5,456.9 456.7,456.9 461.8,456.9 467.0,457.0 472.1,456.9 477.3,456.9 482.4,456.9 487.6,456.9 492.7,457.0 497.9,457.0 503.0,457.0 508.2,457.0 513.3,457.0 518.5,457.1 523.6,457.0 528.8,457.0 533.9,457.1 539.1,457.1 544.2,457.1 549.4,457.1 554.5,457.1 559.7,457.1 564.8,457.1 570.0,457.1" />
<polyline fill="none" stroke="#d62728" stroke-width="2" points="630.0,344.5 635.2,435.6 640.3,435.4 645.5,394.0 650.6,445.2 655.8,446.9 660.9,428.2 666.1,424.7 671.2,443.2 676.4,446.9 681.5,445.3 686.7,440.4 691.8,444.3 697.0,448.0 702.1,449.6 707.3,448.9 712.4,449.5 717.6,442.4 722.7,435.2 727.9,453.5 733.0,429.6 738.2,457.5 743.3,427.5 748.5,444.4 753.6,460.0 758.8,451.4 763.9,456.4 769.1,430.8 774.2,454.8 779.4,450.4 784.5,455.8 789.7,440.9 794.8,446.1 800.0,449.0 805.2,452.7 810.3,453.6 815.5,449.4 820.6,455.8 825.8,452.5 830.9,455.9 836.1,454.4 841.2,448.5 846.4,455.8 851.5,455.1 856.7,453.7 861.8,446.3 867.0,444.0 872.1,426.1 877.3,415.8 882.4,446.0 887.6,439.5 892.7,449.7 897.9,443.4 903.0,434.4 908.2,445.4 913.3,450.6 918.5,432.7 923.6,449.5 928.8,438.2 933.9,446.4 939.1,432.0 944.2,433.1 949.4,438.5 954.5,444.7 959.7,436.6 964.8,451.3 970.0,432.9 975.2,426.1 980.3,430.6 985.5,447.4 990.6,445.8 995.8,445.2 1000.9,438.7 1006.1,437.0 1011.2,452.4 1016.4,455.4 1021.5,441.7 1026.7,434.6 1031.8,451.1 1037.0,457.2 1042.1,447.8 1047.3,442.5 1052.4,445.1 1057.6,455.7 1062.7,456.3 1067.9,454.7 1073.0,445.2 1078.2,434.2 1083.3,456.3 1088.5,445.4 1093.6,457.5 1098.8,450.8 1103.9,451.8 1109.1,451.7 1114.2,452.6 1119.4,457.6 1124.5,437.1 1129.7,447.6 1134.8,441.9 1140.0,459.1" />
<line x1="990" y1="45" x2="1015" y2="45" stroke="#ff7f0e" stroke-width="3"/>
<text x="1022" y="49" font-size="13" font-family="sans-serif">adafactor</text>
<line x1="990" y1="67" x2="1015" y2="67" stroke="#1f77b4" stroke-width="3"/>
<text x="1022" y="71" font-size="13" font-family="sans-serif">adamw</text>
<line x1="990" y1="89" x2="1015" y2="89" stroke="#2ca02c" stroke-width="3"/>
<text x="1022" y="93" font-size="13" font-family="sans-serif">rmsprop</text>
<line x1="990" y1="111" x2="1015" y2="111" stroke="#d62728" stroke-width="3"/>
<text x="1022" y="115" font-size="13" font-family="sans-serif">sgd</text>
<text x="315.0" y="505" text-anchor="middle" font-size="12" font-family="sans-serif">step</text>
<text x="885.0" y="505" text-anchor="middle" font-size="12" font-family="sans-serif">step</text>
<text x="25" y="260.0" text-anchor="middle" font-size="12" font-family="sans-serif" transform="rotate(-90 25,260.0)">loss</text>
<text x="595.0" y="260.0" text-anchor="middle" font-size="12" font-family="sans-serif" transform="rotate(-90 595.0,260.0)">step_time (s)</text>
</svg>
