<svg xmlns="http://www.w3.org/2000/svg" width="1200" height="520" viewBox="0 0 1200 520">
<rect x="0" y="0" width="100%" height="100%" fill="#ffffff" />
<text x="600.0" y="30" text-anchor="middle" font-size="20" font-family="sans-serif">Optimizer Comparison</text>
<rect x="60" y="60" width="510.0" height="400" fill="#fafafa" stroke="#dddddd"/>
<text x="315.0" y="48" text-anchor="middle" font-size="14" font-family="sans-serif">Loss vs Step</text>
<rect x="630.0" y="60" width="510.0" height="400" fill="#fafafa" stroke="#dddddd"/>
<text x="885.0" y="48" text-anchor="middle" font-size="14" font-family="sans-serif">Step Time vs Step</text>
<line x1="60.0" y1="460.0" x2="60.0" y2="465.0" stroke="#666" stroke-width="1"/>
<text x="60.0" y="480.0" text-anchor="middle" font-size="11" font-family="sans-serif" fill="#555">10</text>
<line x1="162.0" y1="460.0" x2="162.0" y2="465.0" stroke="#666" stroke-width="1"/>
<text x="162.0" y="480.0" text-anchor="middle" font-size="11" font-family="sans-serif" fill="#555">68</text>
<line x1="264.0" y1="460.0" x2="264.0" y2="465.0" stroke="#666" stroke-width="1"/>
<text x="264.0" y="480.0" text-anchor="middle" font-size="11" font-family="sans-serif" fill="#555">126</text>
<line x1="366.0" y1="460.0" x2="366.0" y2="465.0" stroke="#666" stroke-width="1"/>
<text x="366.0" y="480.0" text-anchor="middle" font-size="11" font-family="sans-serif" fill="#555">184</text>
<line x1="468.0" y1="460.0" x2="468.0" y2="465.0" stroke="#666" stroke-width="1"/>
<text x="468.0" y="480.0" text-anchor="middle" font-size="11" font-family="sans-serif" fill="#555">242</text>
<line x1="570.0" y1="460.0" x2="570.0" y2="465.0" stroke="#666" stroke-width="1"/>
<text x="570.0" y="480.0" text-anchor="middle" font-size="11" font-family="sans-serif" fill="#555">300</text>
<line x1="55.0" y1="460.0" x2="60.0" y2="460.0" stroke="#666" stroke-width="1"/>
<text x="50.0" y="464.0" text-anchor="end" font-size="11" font-family="sans-serif" fill="#555">2.3</text>
<line x1="55.0" y1="380.0" x2="60.0" y2="380.0" stroke="#666" stroke-width="1"/>
<text x="50.0" y="384.0" text-anchor="end" font-size="11" font-family="sans-serif" fill="#555">35.3</text>
<line x1="55.0" y1="300.0" x2="60.0" y2="300.0" stroke="#666" stroke-width="1"/>
<text x="50.0" y="304.0" text-anchor="end" font-size="11" font-family="sans-serif" fill="#555">68.3</text>
<line x1="55.0" y1="220.0" x2="60.0" y2="220.0" stroke="#666" stroke-width="1"/>
<text x="50.0" y="224.0" text-anchor="end" font-size="11" font-family="sans-serif" fill="#555">101.2</text>
<line x1="55.0" y1="140.0" x2="60.0" y2="140.0" stroke="#666" stroke-width="1"/>
<text x="50.0" y="144.0" text-anchor="end" font-size="11" font-family="sans-serif" fill="#555">134.2</text>
<line x1="55.0" y1="60.0" x2="60.0" y2="60.0" stroke="#666" stroke-width="1"/>
<text x="50.0" y="64.0" text-anchor="end" font-size="11" font-family="sans-serif" fill="#555">167.1</text>
<line x1="630.0" y1="460.0" x2="630.0" y2="465.0" stroke="#666" stroke-width="1"/>
<text x="630.0" y="480.0" text-anchor="middle" font-size="11" font-family="sans-serif" fill="#555">10</text>
<line x1="732.0" y1="460.0" x2="732.0" y2="465.0" stroke="#666" stroke-width="1"/>
<text x="732.0" y="480.0" text-anchor="middle" font-size="11" font-family="sans-serif" fill="#555">68</text>
<line x1="834.0" y1="460.0" x2="834.0" y2="465.0" stroke="#666" stroke-width="1"/>
<text x="834.0" y="480.0" text-anchor="middle" font-size="11" font-family="sans-serif" fill="#555">126</text>
<line x1="936.0" y1="460.0" x2="936.0" y2="465.0" stroke="#666" stroke-width="1"/>
<text x="936.0" y="480.0" text-anchor="middle" font-size="11" font-family="sans-serif" fill="#555">184</text>
<line x1="1038.0" y1="460.0" x2="1038.0" y2="465.0" stroke="#666" stroke-width="1"/>
<text x="1038.0" y="480.0" text-anchor="middle" font-size="11" font-family="sans-serif" fill="#555">242</text>
<line x1="1140.0" y1="460.0" x2="1140.0" y2="465.0" stroke="#666" stroke-width="1"/>
<text x="1140.0" y="480.0" text-anchor="middle" font-size="11" font-family="sans-serif" fill="#555">300</text>
<line x1="625.0" y1="460.0" x2="630.0" y2="460.0" stroke="#666" stroke-width="1"/>
<text x="620.0" y="464.0" text-anchor="end" font-size="11" font-family="sans-serif" fill="#555">0.007</text>
<line x1="625.0" y1="380.0" x2="630.0" y2="380.0" stroke="#666" stroke-width="1"/>
<text x="620.0" y="384.0" text-anchor="end" font-size="11" font-family="sans-serif" fill="#555">0.022</text>
<line x1="625.0" y1="300.0" x2="630.0" y2="300.0" stroke="#666" stroke-width="1"/>
<text x="620.0" y="304.0" text-anchor="end" font-size="11" font-family="sans-serif" fill="#555">0.037</text>
<line x1="625.0" y1="220.0" x2="630.0" y2="220.0" stroke="#666" stroke-width="1"/>
<text x="620.0" y="224.0" text-anchor="end" font-size="11" font-family="sans-serif" fill="#555">0.052</text>
<line x1="625.0" y1="140.0" x2="630.0" y2="140.0" stroke="#666" stroke-width="1"/>
<text x="620.0" y="144.0" text-anchor="end" font-size="11" font-family="sans-serif" fill="#555">0.067</text>
<line x1="625.0" y1="60.0" x2="630.0" y2="60.0" stroke="#666" stroke-width="1"/>
<text x="620.0" y="64.0" text-anchor="end" font-size="11" font-family="sans-serif" fill="#555">0.082</text>
<polyline fill="none" stroke="#ff7f0e" stroke-width="2" points="60.0,292.4 77.6,412.7 95.2,429.0 112.8,434.0 130.3,440.5 147.9,444.7 165.5,446.0 183.1,447.0 200.7,448.5 218.3,449.9 235.9,450.8 253.4,450.4 271.0,451.5 288.6,452.5 306.2,452.7 323.8,452.8 341.4,453.7 359.0,453.3 376.6,454.5 394.1,454.4 411.7,454.8 429.3,455.4 446.9,455.6 464.5,455.1 482.1,455.9 499.7,455.4 517.2,455.6 534.8,455.8 552.4,456.0 570.0,456.6" />
<polyline fill="none" stroke="#ff7f0e" stroke-width="2" points="630.0,131.1 647.6,419.6 665.2,411.4 682.8,410.6 700.3,412.6 717.9,411.7 735.5,412.8 753.1,412.4 770.7,414.7 788.3,411.4 805.9,411.3 823.4,412.2 841.0,412.0 858.6,409.6 876.2,411.8 893.8,412.5 911.4,411.4 929.0,411.7 946.6,410.6 964.1,410.9 981.7,411.9 999.3,411.6 1016.9,412.1 1034.5,413.2 1052.1,410.3 1069.7,409.8 1087.2,412.6 1104.8,413.4 1122.4,412.3 1140.0,413.8" />
<polyline fill="none" stroke="#1f77b4" stroke-width="2" points="60.0,277.8 77.6,438.2 95.2,450.3 112.8,455.1 130.3,457.2 147.9,457.9 165.5,458.4 183.1,458.8 200.7,459.0 218.3,459.3 235.9,459.4 253.4,459.5 271.0,459.5 288.6,459.6 306.2,459.7 323.8,459.8 341.4,459.7 359.0,459.9 376.6,459.9 394.1,459.9 411.7,459.9 429.3,460.0 446.9,459.9 464.5,459.9 482.1,460.0 499.7,459.9 517.2,460.0 534.8,460.0 552.4,460.0 570.0,460.0" />
<polyline fill="none" stroke="#1f77b4" stroke-width="2" points="630.0,86.9 647.6,455.2 665.2,455.3 682.8,454.3 700.3,454.2 717.9,455.0 735.5,456.1 753.1,455.5 770.7,454.4 788.3,454.7 805.9,455.4 823.4,454.9 841.0,454.3 858.6,455.0 876.2,452.5 893.8,455.1 911.4,455.5 929.0,454.7 946.6,455.0 964.1,455.8 981.7,454.2 999.3,455.6 1016.9,455.5 1034.5,455.4 1052.1,455.2 1069.7,454.7 1087.2,449.6 1104.8,456.5 1122.4,455.8 1140.0,453.0" />
<polyline fill="none" stroke="#2ca02c" stroke-width="2" points="60.0,288.0 77.6,413.0 95.2,434.2 112.8,445.4 130.3,448.3 147.9,449.8 165.5,450.9 183.1,451.6 200.7,453.1 218.3,452.4 235.9,454.5 253.4,453.9 271.0,452.5 288.6,454.9 306.2,455.4 323.8,455.1 341.4,456.2 359.0,456.1 376.6,456.1 394.1,455.4 411.7,456.9 429.3,455.4 446.9,456.2 464.5,456.3 482.1,455.7 499.7,457.3 517.2,456.3 534.8,455.7 552.4,457.0 570.0,456.4" />
<polyline fill="none" stroke="#2ca02c" stroke-width="2" points="630.0,60.0 647.6,456.3 665.2,454.6 682.8,454.8 700.3,454.9 717.9,454.3 735.5,454.7 753.1,455.0 770.7,453.3 788.3,455.1 805.9,455.0 823.4,454.4 841.0,455.3 858.6,454.4 876.2,455.0 893.8,460.0 911.4,457.7 929.0,455.0 946.6,455.1 964.1,459.0 981.7,456.5 999.3,455.6 1016.9,456.0 1034.5,454.8 1052.1,454.4 1069.7,454.9 1087.2,454.8 1104.8,455.0 1122.4,455.1 1140.0,455.7" />
<polyline fill="none" stroke="#8c564b" stroke-width="2" points="60.0,284.0 77.6,423.0 95.2,435.5 112.8,439.0 130.3,443.7 147.9,446.6 165.5,448.0 183.1,450.3 200.7,451.1 218.3,452.4 235.9,453.4 253.4,453.9 271.0,454.5 288.6,454.9 306.2,454.9 323.8,455.6 341.4,455.5 359.0,456.1 376.6,456.1 394.1,456.1 411.7,456.5 429.3,456.5 446.9,456.8 464.5,457.1 482.1,457.0 499.7,457.0 517.2,457.1 534.8,457.1 552.4,457.2 570.0,457.4" />
<polyline fill="none" stroke="#8c564b" stroke-width="2" points="630.0,65.2 647.6,453.3 665.2,451.7 682.8,453.1 700.3,453.4 717.9,452.9 735.5,453.3 753.1,453.3 770.7,453.1 788.3,452.9 805.9,453.6 823.4,452.9 841.0,453.3 858.6,451.2 876.2,451.8 893.8,453.7 911.4,454.4 929.0,454.3 946.6,454.5 964.1,454.4 981.7,453.9 999.3,454.5 1016.9,453.5 1034.5,454.1 1052.1,454.6 1069.7,453.7 1087.2,452.9 1104.8,454.7 1122.4,451.5 1140.0,454.6" />
<polyline fill="none" stroke="#17becf" stroke-width="2" points="60.0,295.8 77.6,400.4 95.2,437.1 112.8,448.9 130.3,452.9 147.9,452.6 165.5,454.1 183.1,454.3 200.7,454.7 218.3,453.9 235.9,454.6 253.4,455.0 271.0,455.9 288.6,455.6 306.2,455.8 323.8,455.7 341.4,455.2 359.0,456.3 376.6,455.0 394.1,456.5 411.7,456.8 429.3,456.5 446.9,457.2 464.5,456.6 482.1,456.9 499.7,457.2 517.2,456.8 534.8,456.8 552.4,457.1 570.0,457.0" />
<polyline fill="none" stroke="#17becf" stroke-width="2" points="630.0,76.8 647.6,436.3 665.2,438.2 682.8,438.2 700.3,437.2 717.9,437.6 735.5,438.2 753.1,438.2 770.7,434.7 788.3,438.7 805.9,437.2 823.4,437.6 841.0,437.8 858.6,438.4 876.2,438.3 893.8,437.5 911.4,438.1 929.0,436.5 946.6,438.7 964.1,437.1 981.7,438.1 999.3,437.7 1016.9,437.8 1034.5,437.4 1052.1,438.1 1069.7,437.3 1087.2,435.1 1104.8,438.1 1122.4,437.5 1140.0,438.2" />
<polyline fill="none" stroke="#d62728" stroke-width="2" points="60.0,60.0 77.6,238.6 95.2,404.5 112.8,433.6 130.3,443.5 147.9,447.3 165.5,449.6 183.1,451.1 200.7,452.3 218.3,453.4 235.9,454.2 253.4,454.7 271.0,455.1 288.6,455.6 306.2,455.9 323.8,456.4 341.4,456.5 359.0,456.8 376.6,456.9 394.1,457.0 411.7,457.3 429.3,457.3 446.9,457.4 464.5,457.5 482.1,457.6 499.7,457.6 517.2,457.7 534.8,457.9 552.4,457.9 570.0,457.9" />
<polyline fill="none" stroke="#d62728" stroke-width="2" points="630.0,225.6 647.6,453.4 665.2,456.1 682.8,455.5 700.3,456.1 717.9,456.0 735.5,452.8 753.1,453.0 770.7,456.5 788.3,456.9 805.9,456.8 823.4,456.3 841.0,457.6 858.6,455.2 876.2,457.4 893.8,456.2 911.4,456.8 929.0,456.8 946.6,457.5 964.1,456.2 981.7,457.7 999.3,457.7 1016.9,456.9 1034.5,457.3 1052.1,457.4 1069.7,457.6 1087.2,455.2 1104.8,456.8 1122.4,456.6 1140.0,456.7" />
<line x1="990" y1="45" x2="1015" y2="45" stroke="#ff7f0e" stroke-width="3"/>
<text x="1022" y="49" font-size="13" font-family="sans-serif">adafactor</text>
<line x1="990" y1="67" x2="1015" y2="67" stroke="#1f77b4" stroke-width="3"/>
<text x="1022" y="71" font-size="13" font-family="sans-serif">adamw</text>
<line x1="990" y1="89" x2="1015" y2="89" stroke="#2ca02c" stroke-width="3"/>
<text x="1022" y="93" font-size="13" font-family="sans-serif">rmsprop</text>
<line x1="990" y1="111" x2="1015" y2="111" stroke="#8c564b" stroke-width="3"/>
<text x="1022" y="115" font-size="13" font-family="sans-serif">rmsprop_no_memory</text>
<line x1="990" y1="133" x2="1015" y2="133" stroke="#17becf" stroke-width="3"/>
<text x="1022" y="137" font-size="13" font-family="sans-serif">rmsprop_pnorm</text>
<line x1="990" y1="155" x2="1015" y2="155" stroke="#d62728" stroke-width="3"/>
<text x="1022" y="159" font-size="13" font-family="sans-serif">sgd</text>
<text x="315.0" y="505" text-anchor="middle" font-size="12" font-family="sans-serif">step</text>
<text x="885.0" y="505" text-anchor="middle" font-size="12" font-family="sans-serif">step</text>
<text x="25" y="260.0" text-anchor="middle" font-size="12" font-family="sans-serif" transform="rotate(-90 25,260.0)">loss</text>
<text x="595.0" y="260.0" text-anchor="middle" font-size="12" font-family="sans-serif" transform="rotate(-90 595.0,260.0)">step_time (s)</text>
</svg>
