<svg xmlns="http://www.w3.org/2000/svg" width="1400" height="920" viewBox="0 0 1400 920">
<rect x="0" y="0" width="100%" height="100%" fill="#ffffff" />
<text x="700.0" y="35" text-anchor="middle" font-size="22" font-family="sans-serif">Optimizer Dynamics Diagnostics</text>
<rect x="90.0" y="70.0" width="587.5" height="213.33333333333334" fill="#fafafa" stroke="#dddddd"/>
<text x="383.8" y="60.0" text-anchor="middle" font-size="13" font-family="sans-serif">Loss</text>
<line x1="90.0" y1="283.3" x2="90.0" y2="287.3" stroke="#666" stroke-width="1"/>
<text x="90.0" y="299.3" text-anchor="middle" font-size="10" font-family="sans-serif" fill="#555">10</text>
<line x1="236.9" y1="283.3" x2="236.9" y2="287.3" stroke="#666" stroke-width="1"/>
<text x="236.9" y="299.3" text-anchor="middle" font-size="10" font-family="sans-serif" fill="#555">258</text>
<line x1="383.8" y1="283.3" x2="383.8" y2="287.3" stroke="#666" stroke-width="1"/>
<text x="383.8" y="299.3" text-anchor="middle" font-size="10" font-family="sans-serif" fill="#555">505</text>
<line x1="530.6" y1="283.3" x2="530.6" y2="287.3" stroke="#666" stroke-width="1"/>
<text x="530.6" y="299.3" text-anchor="middle" font-size="10" font-family="sans-serif" fill="#555">752</text>
<line x1="677.5" y1="283.3" x2="677.5" y2="287.3" stroke="#666" stroke-width="1"/>
<text x="677.5" y="299.3" text-anchor="middle" font-size="10" font-family="sans-serif" fill="#555">1000</text>
<line x1="86.0" y1="283.3" x2="90.0" y2="283.3" stroke="#666" stroke-width="1"/>
<text x="82.0" y="286.3" text-anchor="end" font-size="10" font-family="sans-serif" fill="#555">-3.60</text>
<line x1="86.0" y1="230.0" x2="90.0" y2="230.0" stroke="#666" stroke-width="1"/>
<text x="82.0" y="233.0" text-anchor="end" font-size="10" font-family="sans-serif" fill="#555">17.98</text>
<line x1="86.0" y1="176.7" x2="90.0" y2="176.7" stroke="#666" stroke-width="1"/>
<text x="82.0" y="179.7" text-anchor="end" font-size="10" font-family="sans-serif" fill="#555">39.57</text>
<line x1="86.0" y1="123.3" x2="90.0" y2="123.3" stroke="#666" stroke-width="1"/>
<text x="82.0" y="126.3" text-anchor="end" font-size="10" font-family="sans-serif" fill="#555">61.16</text>
<line x1="86.0" y1="70.0" x2="90.0" y2="70.0" stroke="#666" stroke-width="1"/>
<text x="82.0" y="73.0" text-anchor="end" font-size="10" font-family="sans-serif" fill="#555">82.75</text>
<polyline fill="none" stroke="#ff7f0e" stroke-width="2" points="90.0,84.7 95.9,102.5 101.9,160.3 107.8,212.5 113.7,229.6 119.7,237.5 125.6,238.8 131.5,246.2 137.5,248.6 143.4,252.5 149.3,253.4 155.3,254.8 161.2,259.3 167.1,259.2 173.1,260.9 179.0,260.6 184.9,263.3 190.9,263.4 196.8,264.3 202.8,265.0 208.7,265.1 214.6,266.0 220.6,266.3 226.5,266.6 232.4,266.7 238.4,267.1 244.3,266.9 250.2,267.1 256.2,267.3 262.1,267.4 268.0,267.4 274.0,267.6 279.9,267.6 285.8,267.7 291.8,267.6 297.7,267.8 303.6,267.7 309.6,267.9 315.5,267.9 321.4,267.9 327.4,267.9 333.3,268.0 339.2,267.9 345.2,268.1 351.1,268.1 357.0,268.1 363.0,268.2 368.9,268.1 374.8,268.2 380.8,268.2 386.7,268.2 392.7,268.2 398.6,268.3 404.5,268.2 410.5,268.2 416.4,268.3 422.3,268.3 428.3,268.3 434.2,268.3 440.1,268.3 446.1,268.3 452.0,268.4 457.9,268.4 463.9,268.4 469.8,268.4 475.7,268.4 481.7,268.5 487.6,268.4 493.5,268.4 499.5,268.5 505.4,268.4 511.3,268.5 517.3,268.5 523.2,268.5 529.1,268.5 535.1,268.5 541.0,268.6 546.9,268.4 552.9,268.5 558.8,268.4 564.7,268.4 570.7,268.4 576.6,268.5 582.6,268.5 588.5,268.5 594.4,268.5 600.4,268.6 606.3,268.5 612.2,268.5 618.2,268.5 624.1,268.6 630.0,268.6 636.0,268.6 641.9,268.5 647.8,268.6 653.8,268.6 659.7,268.6 665.6,268.6 671.6,268.6 677.5,268.5" />
<text x="383.8" y="313.3" text-anchor="middle" font-size="10" font-family="sans-serif" fill="#666">step</text>
<rect x="722.5" y="70.0" width="587.5" height="213.33333333333334" fill="#fafafa" stroke="#dddddd"/>
<text x="1016.2" y="60.0" text-anchor="middle" font-size="13" font-family="sans-serif">Grad Norm (L2)</text>
<line x1="722.5" y1="283.3" x2="722.5" y2="287.3" stroke="#666" stroke-width="1"/>
<text x="722.5" y="299.3" text-anchor="middle" font-size="10" font-family="sans-serif" fill="#555">10</text>
<line x1="869.4" y1="283.3" x2="869.4" y2="287.3" stroke="#666" stroke-width="1"/>
<text x="869.4" y="299.3" text-anchor="middle" font-size="10" font-family="sans-serif" fill="#555">258</text>
<line x1="1016.2" y1="283.3" x2="1016.2" y2="287.3" stroke="#666" stroke-width="1"/>
<text x="1016.2" y="299.3" text-anchor="middle" font-size="10" font-family="sans-serif" fill="#555">505</text>
<line x1="1163.1" y1="283.3" x2="1163.1" y2="287.3" stroke="#666" stroke-width="1"/>
<text x="1163.1" y="299.3" text-anchor="middle" font-size="10" font-family="sans-serif" fill="#555">752</text>
<line x1="1310.0" y1="283.3" x2="1310.0" y2="287.3" stroke="#666" stroke-width="1"/>
<text x="1310.0" y="299.3" text-anchor="middle" font-size="10" font-family="sans-serif" fill="#555">1000</text>
<line x1="718.5" y1="283.3" x2="722.5" y2="283.3" stroke="#666" stroke-width="1"/>
<text x="714.5" y="286.3" text-anchor="end" font-size="10" font-family="sans-serif" fill="#555">-2.3e+00</text>
<line x1="718.5" y1="230.0" x2="722.5" y2="230.0" stroke="#666" stroke-width="1"/>
<text x="714.5" y="233.0" text-anchor="end" font-size="10" font-family="sans-serif" fill="#555">8.2e+00</text>
<line x1="718.5" y1="176.7" x2="722.5" y2="176.7" stroke="#666" stroke-width="1"/>
<text x="714.5" y="179.7" text-anchor="end" font-size="10" font-family="sans-serif" fill="#555">1.9e+01</text>
<line x1="718.5" y1="123.3" x2="722.5" y2="123.3" stroke="#666" stroke-width="1"/>
<text x="714.5" y="126.3" text-anchor="end" font-size="10" font-family="sans-serif" fill="#555">2.9e+01</text>
<line x1="718.5" y1="70.0" x2="722.5" y2="70.0" stroke="#666" stroke-width="1"/>
<text x="714.5" y="73.0" text-anchor="end" font-size="10" font-family="sans-serif" fill="#555">3.9e+01</text>
<polyline fill="none" stroke="#ff7f0e" stroke-width="2" points="722.5,84.7 728.4,88.5 734.4,202.4 740.3,194.2 746.2,185.7 752.2,208.5 758.1,215.1 764.0,208.9 770.0,238.3 775.9,231.2 781.8,207.3 787.8,232.2 793.7,237.7 799.6,241.1 805.6,249.0 811.5,221.0 817.4,243.3 823.4,238.7 829.3,251.8 835.3,247.6 841.2,256.5 847.1,254.7 853.1,253.9 859.0,248.8 864.9,256.1 870.9,258.1 876.8,257.9 882.7,259.2 888.7,259.4 894.6,255.7 900.5,257.8 906.5,259.7 912.4,257.4 918.3,260.8 924.3,257.5 930.2,259.9 936.1,262.0 942.1,263.4 948.0,261.0 953.9,258.7 959.9,264.2 965.8,264.1 971.7,262.8 977.7,264.3 983.6,262.7 989.5,264.2 995.5,262.5 1001.4,266.3 1007.3,264.2 1013.3,262.8 1019.2,263.1 1025.2,265.8 1031.1,263.1 1037.0,267.0 1043.0,261.9 1048.9,265.1 1054.8,264.5 1060.8,266.1 1066.7,265.6 1072.6,264.9 1078.6,265.0 1084.5,265.2 1090.4,266.2 1096.4,266.2 1102.3,265.6 1108.2,265.5 1114.2,266.6 1120.1,264.7 1126.0,266.1 1132.0,266.8 1137.9,266.1 1143.8,265.8 1149.8,266.7 1155.7,267.1 1161.6,266.1 1167.6,265.9 1173.5,266.7 1179.4,265.0 1185.4,267.8 1191.3,267.0 1197.2,267.2 1203.2,266.2 1209.1,266.5 1215.1,268.2 1221.0,259.1 1226.9,264.4 1232.9,267.2 1238.8,266.5 1244.7,268.3 1250.7,268.6 1256.6,268.1 1262.5,267.1 1268.5,267.3 1274.4,267.5 1280.3,264.9 1286.3,266.4 1292.2,266.7 1298.1,266.9 1304.1,268.0 1310.0,268.4" />
<text x="1016.2" y="313.3" text-anchor="middle" font-size="10" font-family="sans-serif" fill="#666">step</text>
<rect x="90.0" y="353.33333333333337" width="587.5" height="213.33333333333334" fill="#fafafa" stroke="#dddddd"/>
<text x="383.8" y="343.3" text-anchor="middle" font-size="13" font-family="sans-serif">Update Ratio</text>
<line x1="90.0" y1="566.7" x2="90.0" y2="570.7" stroke="#666" stroke-width="1"/>
<text x="90.0" y="582.7" text-anchor="middle" font-size="10" font-family="sans-serif" fill="#555">10</text>
<line x1="236.9" y1="566.7" x2="236.9" y2="570.7" stroke="#666" stroke-width="1"/>
<text x="236.9" y="582.7" text-anchor="middle" font-size="10" font-family="sans-serif" fill="#555">258</text>
<line x1="383.8" y1="566.7" x2="383.8" y2="570.7" stroke="#666" stroke-width="1"/>
<text x="383.8" y="582.7" text-anchor="middle" font-size="10" font-family="sans-serif" fill="#555">505</text>
<line x1="530.6" y1="566.7" x2="530.6" y2="570.7" stroke="#666" stroke-width="1"/>
<text x="530.6" y="582.7" text-anchor="middle" font-size="10" font-family="sans-serif" fill="#555">752</text>
<line x1="677.5" y1="566.7" x2="677.5" y2="570.7" stroke="#666" stroke-width="1"/>
<text x="677.5" y="582.7" text-anchor="middle" font-size="10" font-family="sans-serif" fill="#555">1000</text>
<line x1="86.0" y1="566.7" x2="90.0" y2="566.7" stroke="#666" stroke-width="1"/>
<text x="82.0" y="569.7" text-anchor="end" font-size="10" font-family="sans-serif" fill="#555">9.0e-03</text>
<line x1="86.0" y1="513.3" x2="90.0" y2="513.3" stroke="#666" stroke-width="1"/>
<text x="82.0" y="516.3" text-anchor="end" font-size="10" font-family="sans-serif" fill="#555">1.7e-02</text>
<line x1="86.0" y1="460.0" x2="90.0" y2="460.0" stroke="#666" stroke-width="1"/>
<text x="82.0" y="463.0" text-anchor="end" font-size="10" font-family="sans-serif" fill="#555">2.6e-02</text>
<line x1="86.0" y1="406.7" x2="90.0" y2="406.7" stroke="#666" stroke-width="1"/>
<text x="82.0" y="409.7" text-anchor="end" font-size="10" font-family="sans-serif" fill="#555">3.4e-02</text>
<line x1="86.0" y1="353.3" x2="90.0" y2="353.3" stroke="#666" stroke-width="1"/>
<text x="82.0" y="356.3" text-anchor="end" font-size="10" font-family="sans-serif" fill="#555">4.2e-02</text>
<polyline fill="none" stroke="#ff7f0e" stroke-width="2" points="90.0,368.0 95.9,370.2 101.9,372.1 107.8,373.9 113.7,375.6 119.7,377.2 125.6,379.4 131.5,381.8 137.5,383.5 143.4,386.7 149.3,386.9 155.3,391.3 161.2,392.4 167.1,393.7 173.1,399.6 179.0,396.6 184.9,399.9 190.9,405.3 196.8,409.9 202.8,410.0 208.7,412.9 214.6,418.1 220.6,421.2 226.5,424.7 232.4,432.3 238.4,437.1 244.3,442.9 250.2,449.6 256.2,450.4 262.1,456.8 268.0,459.4 274.0,466.8 279.9,467.4 285.8,472.0 291.8,475.5 297.7,483.9 303.6,483.6 309.6,491.3 315.5,494.9 321.4,494.5 327.4,502.4 333.3,500.8 339.2,502.1 345.2,505.1 351.1,507.5 357.0,510.9 363.0,513.2 368.9,521.0 374.8,517.8 380.8,519.1 386.7,518.4 392.7,522.4 398.6,523.6 404.5,523.8 410.5,524.1 416.4,526.4 422.3,527.1 428.3,530.3 434.2,533.1 440.1,531.1 446.1,532.4 452.0,533.6 457.9,536.5 463.9,534.2 469.8,537.1 475.7,536.7 481.7,537.5 487.6,536.1 493.5,540.5 499.5,539.2 505.4,540.1 511.3,539.6 517.3,542.5 523.2,542.8 529.1,542.6 535.1,544.3 541.0,543.9 546.9,541.9 552.9,546.1 558.8,546.0 564.7,545.7 570.7,546.1 576.6,545.9 582.6,548.2 588.5,546.0 594.4,545.3 600.4,547.3 606.3,547.0 612.2,548.4 618.2,548.8 624.1,550.2 630.0,549.2 636.0,547.5 641.9,548.8 647.8,545.9 653.8,548.7 659.7,549.1 665.6,548.7 671.6,548.9 677.5,552.0" />
<text x="383.8" y="596.7" text-anchor="middle" font-size="10" font-family="sans-serif" fill="#666">step</text>
<rect x="722.5" y="353.33333333333337" width="587.5" height="213.33333333333334" fill="#fafafa" stroke="#dddddd"/>
<text x="1016.2" y="343.3" text-anchor="middle" font-size="13" font-family="sans-serif">Grad-Update Cos</text>
<line x1="722.5" y1="566.7" x2="722.5" y2="570.7" stroke="#666" stroke-width="1"/>
<text x="722.5" y="582.7" text-anchor="middle" font-size="10" font-family="sans-serif" fill="#555">10</text>
<line x1="869.4" y1="566.7" x2="869.4" y2="570.7" stroke="#666" stroke-width="1"/>
<text x="869.4" y="582.7" text-anchor="middle" font-size="10" font-family="sans-serif" fill="#555">258</text>
<line x1="1016.2" y1="566.7" x2="1016.2" y2="570.7" stroke="#666" stroke-width="1"/>
<text x="1016.2" y="582.7" text-anchor="middle" font-size="10" font-family="sans-serif" fill="#555">505</text>
<line x1="1163.1" y1="566.7" x2="1163.1" y2="570.7" stroke="#666" stroke-width="1"/>
<text x="1163.1" y="582.7" text-anchor="middle" font-size="10" font-family="sans-serif" fill="#555">752</text>
<line x1="1310.0" y1="566.7" x2="1310.0" y2="570.7" stroke="#666" stroke-width="1"/>
<text x="1310.0" y="582.7" text-anchor="middle" font-size="10" font-family="sans-serif" fill="#555">1000</text>
<line x1="718.5" y1="566.7" x2="722.5" y2="566.7" stroke="#666" stroke-width="1"/>
<text x="714.5" y="569.7" text-anchor="end" font-size="10" font-family="sans-serif" fill="#555">-0.628</text>
<line x1="718.5" y1="513.3" x2="722.5" y2="513.3" stroke="#666" stroke-width="1"/>
<text x="714.5" y="516.3" text-anchor="end" font-size="10" font-family="sans-serif" fill="#555">-0.472</text>
<line x1="718.5" y1="460.0" x2="722.5" y2="460.0" stroke="#666" stroke-width="1"/>
<text x="714.5" y="463.0" text-anchor="end" font-size="10" font-family="sans-serif" fill="#555">-0.315</text>
<line x1="718.5" y1="406.7" x2="722.5" y2="406.7" stroke="#666" stroke-width="1"/>
<text x="714.5" y="409.7" text-anchor="end" font-size="10" font-family="sans-serif" fill="#555">-0.158</text>
<line x1="718.5" y1="353.3" x2="722.5" y2="353.3" stroke="#666" stroke-width="1"/>
<text x="714.5" y="356.3" text-anchor="end" font-size="10" font-family="sans-serif" fill="#555">-0.001</text>
<polyline fill="none" stroke="#ff7f0e" stroke-width="2" points="722.5,486.5 728.4,552.0 734.4,455.0 740.3,438.4 746.2,411.7 752.2,418.2 758.1,407.6 764.0,407.0 770.0,404.1 775.9,401.2 781.8,402.7 787.8,392.8 793.7,395.8 799.6,391.9 805.6,384.5 811.5,389.2 817.4,383.9 823.4,380.7 829.3,380.7 835.3,373.5 841.2,378.5 847.1,377.5 853.1,377.4 859.0,373.8 864.9,377.0 870.9,373.7 876.8,372.9 882.7,373.0 888.7,373.4 894.6,370.4 900.5,370.9 906.5,370.6 912.4,372.2 918.3,373.4 924.3,375.0 930.2,371.8 936.1,371.2 942.1,374.1 948.0,377.0 953.9,369.9 959.9,378.2 965.8,376.7 971.7,389.4 977.7,378.0 983.6,370.1 989.5,375.4 995.5,371.8 1001.4,375.6 1007.3,369.2 1013.3,378.9 1019.2,372.3 1025.2,372.2 1031.1,386.7 1037.0,376.5 1043.0,372.8 1048.9,371.6 1054.8,374.3 1060.8,370.1 1066.7,372.1 1072.6,370.8 1078.6,371.1 1084.5,376.1 1090.4,371.8 1096.4,376.7 1102.3,372.2 1108.2,371.3 1114.2,377.0 1120.1,373.3 1126.0,368.0 1132.0,374.2 1137.9,379.0 1143.8,368.6 1149.8,375.6 1155.7,371.3 1161.6,372.4 1167.6,382.4 1173.5,378.6 1179.4,381.7 1185.4,392.9 1191.3,405.0 1197.2,378.0 1203.2,370.9 1209.1,400.8 1215.1,376.3 1221.0,451.3 1226.9,379.2 1232.9,380.9 1238.8,399.4 1244.7,379.8 1250.7,393.2 1256.6,393.9 1262.5,371.5 1268.5,378.2 1274.4,377.2 1280.3,380.6 1286.3,377.9 1292.2,376.6 1298.1,375.5 1304.1,378.1 1310.0,382.0" />
<text x="1016.2" y="596.7" text-anchor="middle" font-size="10" font-family="sans-serif" fill="#666">step</text>
<rect x="90.0" y="636.6666666666667" width="587.5" height="213.33333333333334" fill="#fafafa" stroke="#dddddd"/>
<text x="383.8" y="626.7" text-anchor="middle" font-size="13" font-family="sans-serif">Top Hessian Eig (power iter)</text>
<line x1="90.0" y1="850.0" x2="90.0" y2="854.0" stroke="#666" stroke-width="1"/>
<text x="90.0" y="866.0" text-anchor="middle" font-size="10" font-family="sans-serif" fill="#555">10</text>
<line x1="236.9" y1="850.0" x2="236.9" y2="854.0" stroke="#666" stroke-width="1"/>
<text x="236.9" y="866.0" text-anchor="middle" font-size="10" font-family="sans-serif" fill="#555">258</text>
<line x1="383.8" y1="850.0" x2="383.8" y2="854.0" stroke="#666" stroke-width="1"/>
<text x="383.8" y="866.0" text-anchor="middle" font-size="10" font-family="sans-serif" fill="#555">505</text>
<line x1="530.6" y1="850.0" x2="530.6" y2="854.0" stroke="#666" stroke-width="1"/>
<text x="530.6" y="866.0" text-anchor="middle" font-size="10" font-family="sans-serif" fill="#555">752</text>
<line x1="677.5" y1="850.0" x2="677.5" y2="854.0" stroke="#666" stroke-width="1"/>
<text x="677.5" y="866.0" text-anchor="middle" font-size="10" font-family="sans-serif" fill="#555">1000</text>
<line x1="86.0" y1="850.0" x2="90.0" y2="850.0" stroke="#666" stroke-width="1"/>
<text x="82.0" y="853.0" text-anchor="end" font-size="10" font-family="sans-serif" fill="#555">-1.4e+03</text>
<line x1="86.0" y1="796.7" x2="90.0" y2="796.7" stroke="#666" stroke-width="1"/>
<text x="82.0" y="799.7" text-anchor="end" font-size="10" font-family="sans-serif" fill="#555">-7.4e+02</text>
<line x1="86.0" y1="743.3" x2="90.0" y2="743.3" stroke="#666" stroke-width="1"/>
<text x="82.0" y="746.3" text-anchor="end" font-size="10" font-family="sans-serif" fill="#555">-7.3e+01</text>
<line x1="86.0" y1="690.0" x2="90.0" y2="690.0" stroke="#666" stroke-width="1"/>
<text x="82.0" y="693.0" text-anchor="end" font-size="10" font-family="sans-serif" fill="#555">5.9e+02</text>
<line x1="86.0" y1="636.7" x2="90.0" y2="636.7" stroke="#666" stroke-width="1"/>
<text x="82.0" y="639.7" text-anchor="end" font-size="10" font-family="sans-serif" fill="#555">1.3e+03</text>
<polyline fill="none" stroke="#ff7f0e" stroke-width="2" points="113.7,760.8 143.4,727.1 173.1,728.0 202.8,749.4 232.4,734.7 262.1,801.3 291.8,734.2 321.4,679.9 351.1,744.4 380.8,746.0 410.5,727.0 440.1,734.0 469.8,728.3 499.5,651.4 529.1,742.9 558.8,723.0 588.5,737.8 618.2,835.3 647.8,740.7 677.5,666.3" />
<text x="383.8" y="880.0" text-anchor="middle" font-size="10" font-family="sans-serif" fill="#666">step</text>
<rect x="722.5" y="636.6666666666667" width="587.5" height="213.33333333333334" fill="#fafafa" stroke="#dddddd"/>
<text x="1016.2" y="626.7" text-anchor="middle" font-size="13" font-family="sans-serif">Step Time (s)</text>
<line x1="722.5" y1="850.0" x2="722.5" y2="854.0" stroke="#666" stroke-width="1"/>
<text x="722.5" y="866.0" text-anchor="middle" font-size="10" font-family="sans-serif" fill="#555">10</text>
<line x1="869.4" y1="850.0" x2="869.4" y2="854.0" stroke="#666" stroke-width="1"/>
<text x="869.4" y="866.0" text-anchor="middle" font-size="10" font-family="sans-serif" fill="#555">258</text>
<line x1="1016.2" y1="850.0" x2="1016.2" y2="854.0" stroke="#666" stroke-width="1"/>
<text x="1016.2" y="866.0" text-anchor="middle" font-size="10" font-family="sans-serif" fill="#555">505</text>
<line x1="1163.1" y1="850.0" x2="1163.1" y2="854.0" stroke="#666" stroke-width="1"/>
<text x="1163.1" y="866.0" text-anchor="middle" font-size="10" font-family="sans-serif" fill="#555">752</text>
<line x1="1310.0" y1="850.0" x2="1310.0" y2="854.0" stroke="#666" stroke-width="1"/>
<text x="1310.0" y="866.0" text-anchor="middle" font-size="10" font-family="sans-serif" fill="#555">1000</text>
<line x1="718.5" y1="850.0" x2="722.5" y2="850.0" stroke="#666" stroke-width="1"/>
<text x="714.5" y="853.0" text-anchor="end" font-size="10" font-family="sans-serif" fill="#555">0.0362</text>
<line x1="718.5" y1="796.7" x2="722.5" y2="796.7" stroke="#666" stroke-width="1"/>
<text x="714.5" y="799.7" text-anchor="end" font-size="10" font-family="sans-serif" fill="#555">0.0406</text>
<line x1="718.5" y1="743.3" x2="722.5" y2="743.3" stroke="#666" stroke-width="1"/>
<text x="714.5" y="746.3" text-anchor="end" font-size="10" font-family="sans-serif" fill="#555">0.0450</text>
<line x1="718.5" y1="690.0" x2="722.5" y2="690.0" stroke="#666" stroke-width="1"/>
<text x="714.5" y="693.0" text-anchor="end" font-size="10" font-family="sans-serif" fill="#555">0.0493</text>
<line x1="718.5" y1="636.7" x2="722.5" y2="636.7" stroke="#666" stroke-width="1"/>
<text x="714.5" y="639.7" text-anchor="end" font-size="10" font-family="sans-serif" fill="#555">0.0537</text>
<polyline fill="none" stroke="#ff7f0e" stroke-width="2" points="722.5,714.3 728.4,690.6 734.4,687.7 740.3,713.7 746.2,684.8 752.2,701.4 758.1,663.8 764.0,665.0 770.0,713.1 775.9,709.5 781.8,669.3 787.8,651.4 793.7,706.0 799.6,726.3 805.6,730.7 811.5,697.4 817.4,745.0 823.4,749.1 829.3,742.8 835.3,733.3 841.2,712.6 847.1,707.3 853.1,721.3 859.0,751.2 864.9,757.2 870.9,732.6 876.8,759.0 882.7,736.1 888.7,741.6 894.6,773.5 900.5,734.1 906.5,765.0 912.4,760.7 918.3,760.3 924.3,758.7 930.2,743.8 936.1,749.5 942.1,695.9 948.0,701.9 953.9,728.2 959.9,723.9 965.8,722.0 971.7,756.0 977.7,756.5 983.6,775.4 989.5,774.6 995.5,755.9 1001.4,757.4 1007.3,757.8 1013.3,748.3 1019.2,740.4 1025.2,775.2 1031.1,777.8 1037.0,748.6 1043.0,748.7 1048.9,734.4 1054.8,768.5 1060.8,726.9 1066.7,767.0 1072.6,740.8 1078.6,737.7 1084.5,758.9 1090.4,759.2 1096.4,753.8 1102.3,748.1 1108.2,728.4 1114.2,775.4 1120.1,782.9 1126.0,776.0 1132.0,780.3 1137.9,751.1 1143.8,787.0 1149.8,800.9 1155.7,807.3 1161.6,818.5 1167.6,821.6 1173.5,820.9 1179.4,808.9 1185.4,812.4 1191.3,806.6 1197.2,783.8 1203.2,813.5 1209.1,824.7 1215.1,808.8 1221.0,814.6 1226.9,809.2 1232.9,812.4 1238.8,804.1 1244.7,808.8 1250.7,810.4 1256.6,812.8 1262.5,832.4 1268.5,820.9 1274.4,830.7 1280.3,835.3 1286.3,820.8 1292.2,816.9 1298.1,824.7 1304.1,796.1 1310.0,817.4" />
<text x="1016.2" y="880.0" text-anchor="middle" font-size="10" font-family="sans-serif" fill="#666">step</text>
<line x1="1140" y1="40" x2="1164" y2="40" stroke="#ff7f0e" stroke-width="3"/>
<text x="1170" y="44" font-size="12" font-family="sans-serif">adafactor</text>
</svg>
