<svg xmlns="http://www.w3.org/2000/svg" width="1400" height="920" viewBox="0 0 1400 920">
<rect x="0" y="0" width="100%" height="100%" fill="#ffffff" />
<text x="700.0" y="35" text-anchor="middle" font-size="22" font-family="sans-serif">Optimizer Dynamics Diagnostics</text>
<rect x="90.0" y="70.0" width="587.5" height="213.33333333333334" fill="#fafafa" stroke="#dddddd"/>
<text x="383.8" y="60.0" text-anchor="middle" font-size="13" font-family="sans-serif">Loss</text>
<line x1="90.0" y1="283.3" x2="90.0" y2="287.3" stroke="#666" stroke-width="1"/>
<text x="90.0" y="299.3" text-anchor="middle" font-size="10" font-family="sans-serif" fill="#555">10</text>
<line x1="236.9" y1="283.3" x2="236.9" y2="287.3" stroke="#666" stroke-width="1"/>
<text x="236.9" y="299.3" text-anchor="middle" font-size="10" font-family="sans-serif" fill="#555">258</text>
<line x1="383.8" y1="283.3" x2="383.8" y2="287.3" stroke="#666" stroke-width="1"/>
<text x="383.8" y="299.3" text-anchor="middle" font-size="10" font-family="sans-serif" fill="#555">505</text>
<line x1="530.6" y1="283.3" x2="530.6" y2="287.3" stroke="#666" stroke-width="1"/>
<text x="530.6" y="299.3" text-anchor="middle" font-size="10" font-family="sans-serif" fill="#555">752</text>
<line x1="677.5" y1="283.3" x2="677.5" y2="287.3" stroke="#666" stroke-width="1"/>
<text x="677.5" y="299.3" text-anchor="middle" font-size="10" font-family="sans-serif" fill="#555">1000</text>
<line x1="86.0" y1="283.3" x2="90.0" y2="283.3" stroke="#666" stroke-width="1"/>
<text x="82.0" y="286.3" text-anchor="end" font-size="10" font-family="sans-serif" fill="#555">-6.67</text>
<line x1="86.0" y1="230.0" x2="90.0" y2="230.0" stroke="#666" stroke-width="1"/>
<text x="82.0" y="233.0" text-anchor="end" font-size="10" font-family="sans-serif" fill="#555">17.91</text>
<line x1="86.0" y1="176.7" x2="90.0" y2="176.7" stroke="#666" stroke-width="1"/>
<text x="82.0" y="179.7" text-anchor="end" font-size="10" font-family="sans-serif" fill="#555">42.48</text>
<line x1="86.0" y1="123.3" x2="90.0" y2="123.3" stroke="#666" stroke-width="1"/>
<text x="82.0" y="126.3" text-anchor="end" font-size="10" font-family="sans-serif" fill="#555">67.06</text>
<line x1="86.0" y1="70.0" x2="90.0" y2="70.0" stroke="#666" stroke-width="1"/>
<text x="82.0" y="73.0" text-anchor="end" font-size="10" font-family="sans-serif" fill="#555">91.64</text>
<polyline fill="none" stroke="#ff7f0e" stroke-width="2" points="90.0,102.2 95.9,117.8 101.9,168.6 107.8,214.5 113.7,229.5 119.7,236.4 125.6,237.6 131.5,244.0 137.5,246.1 143.4,249.6 149.3,250.3 155.3,251.6 161.2,255.5 167.1,255.5 173.1,257.0 179.0,256.7 184.9,259.1 190.9,259.2 196.8,259.9 202.8,260.5 208.7,260.7 214.6,261.5 220.6,261.7 226.5,262.0 232.4,262.0 238.4,262.4 244.3,262.3 250.2,262.5 256.2,262.6 262.1,262.7 268.0,262.7 274.0,262.9 279.9,262.9 285.8,262.9 291.8,262.9 297.7,263.1 303.6,263.0 309.6,263.1 315.5,263.1 321.4,263.1 327.4,263.2 333.3,263.2 339.2,263.1 345.2,263.3 351.1,263.3 357.0,263.3 363.0,263.3 368.9,263.3 374.8,263.4 380.8,263.4 386.7,263.4 392.7,263.4 398.6,263.4 404.5,263.4 410.5,263.4 416.4,263.5 422.3,263.5 428.3,263.4 434.2,263.5 440.1,263.5 446.1,263.5 452.0,263.5 457.9,263.6 463.9,263.6 469.8,263.5 475.7,263.6 481.7,263.6 487.6,263.6 493.5,263.6 499.5,263.6 505.4,263.6 511.3,263.6 517.3,263.6 523.2,263.6 529.1,263.7 535.1,263.7 541.0,263.7 546.9,263.6 552.9,263.6 558.8,263.6 564.7,263.6 570.7,263.6 576.6,263.6 582.6,263.6 588.5,263.7 594.4,263.7 600.4,263.7 606.3,263.6 612.2,263.7 618.2,263.7 624.1,263.7 630.0,263.7 636.0,263.7 641.9,263.7 647.8,263.7 653.8,263.8 659.7,263.7 665.6,263.7 671.6,263.7 677.5,263.7" />
<polyline fill="none" stroke="#1f77b4" stroke-width="2" points="90.0,105.3 95.9,242.3 101.9,256.1 107.8,259.8 113.7,261.7 119.7,262.5 125.6,262.8 131.5,263.1 137.5,263.3 143.4,263.4 149.3,263.6 155.3,263.6 161.2,263.7 167.1,263.7 173.1,263.8 179.0,263.8 184.9,263.8 190.9,263.9 196.8,263.9 202.8,263.9 208.7,263.9 214.6,263.9 220.6,264.0 226.5,264.0 232.4,264.0 238.4,264.0 244.3,264.1 250.2,264.1 256.2,264.2 262.1,264.1 268.0,264.1 274.0,264.2 279.9,264.2 285.8,264.2 291.8,264.2 297.7,264.3 303.6,264.3 309.6,264.3 315.5,264.3 321.4,264.4 327.4,264.4 333.3,264.4 339.2,264.5 345.2,264.5 351.1,264.5 357.0,264.6 363.0,264.6 368.9,264.7 374.8,264.7 380.8,264.8 386.7,264.8 392.7,264.9 398.6,264.9 404.5,265.0 410.5,265.1 416.4,265.2 422.3,265.3 428.3,265.3 434.2,265.4 440.1,265.5 446.1,265.7 452.0,265.7 457.9,265.9 463.9,265.9 469.8,266.1 475.7,266.2 481.7,266.3 487.6,266.5 493.5,266.6 499.5,266.7 505.4,266.8 511.3,267.0 517.3,267.1 523.2,267.2 529.1,267.4 535.1,267.5 541.0,267.6 546.9,267.6 552.9,267.7 558.8,267.9 564.7,268.0 570.7,268.0 576.6,268.1 582.6,268.1 588.5,268.2 594.4,268.2 600.4,268.3 606.3,268.4 612.2,268.4 618.2,268.4 624.1,268.4 630.0,268.5 636.0,268.5 641.9,268.5 647.8,268.6 653.8,268.6 659.7,268.6 665.6,268.6 671.6,268.6 677.5,268.6" />
<polyline fill="none" stroke="#d62728" stroke-width="2" points="90.0,84.7 95.9,245.6 101.9,256.0 107.8,260.1 113.7,261.2 119.7,261.9 125.6,262.0 131.5,262.1 137.5,262.3 143.4,262.3 149.3,262.4 155.3,262.5 161.2,262.5 167.1,262.6 173.1,262.7 179.0,262.7 184.9,262.8 190.9,262.7 196.8,262.8 202.8,262.8 208.7,262.9 214.6,262.9 220.6,262.9 226.5,263.0 232.4,263.0 238.4,263.0 244.3,263.0 250.2,263.0 256.2,263.0 262.1,263.1 268.0,263.0 274.0,263.1 279.9,263.1 285.8,263.1 291.8,263.1 297.7,263.2 303.6,263.2 309.6,263.2 315.5,263.2 321.4,263.2 327.4,263.2 333.3,263.3 339.2,263.2 345.2,263.3 351.1,263.3 357.0,263.3 363.0,263.4 368.9,263.3 374.8,263.3 380.8,263.4 386.7,263.3 392.7,263.3 398.6,263.3 404.5,263.4 410.5,263.3 416.4,263.4 422.3,263.4 428.3,263.4 434.2,263.4 440.1,263.4 446.1,263.4 452.0,263.4 457.9,263.4 463.9,263.4 469.8,263.4 475.7,263.4 481.7,263.5 487.6,263.5 493.5,263.4 499.5,263.4 505.4,263.4 511.3,263.4 517.3,263.4 523.2,263.5 529.1,263.5 535.1,263.5 541.0,263.5 546.9,263.5 552.9,263.5 558.8,263.5 564.7,263.4 570.7,263.4 576.6,263.5 582.6,263.5 588.5,263.5 594.4,263.5 600.4,263.6 606.3,263.5 612.2,263.5 618.2,263.5 624.1,263.5 630.0,263.5 636.0,263.5 641.9,263.5 647.8,263.6 653.8,263.6 659.7,263.6 665.6,263.6 671.6,263.6 677.5,263.5" />
<text x="383.8" y="313.3" text-anchor="middle" font-size="10" font-family="sans-serif" fill="#666">step</text>
<rect x="722.5" y="70.0" width="587.5" height="213.33333333333334" fill="#fafafa" stroke="#dddddd"/>
<text x="1016.2" y="60.0" text-anchor="middle" font-size="13" font-family="sans-serif">Grad Norm (L2)</text>
<line x1="722.5" y1="283.3" x2="722.5" y2="287.3" stroke="#666" stroke-width="1"/>
<text x="722.5" y="299.3" text-anchor="middle" font-size="10" font-family="sans-serif" fill="#555">10</text>
<line x1="869.4" y1="283.3" x2="869.4" y2="287.3" stroke="#666" stroke-width="1"/>
<text x="869.4" y="299.3" text-anchor="middle" font-size="10" font-family="sans-serif" fill="#555">258</text>
<line x1="1016.2" y1="283.3" x2="1016.2" y2="287.3" stroke="#666" stroke-width="1"/>
<text x="1016.2" y="299.3" text-anchor="middle" font-size="10" font-family="sans-serif" fill="#555">505</text>
<line x1="1163.1" y1="283.3" x2="1163.1" y2="287.3" stroke="#666" stroke-width="1"/>
<text x="1163.1" y="299.3" text-anchor="middle" font-size="10" font-family="sans-serif" fill="#555">752</text>
<line x1="1310.0" y1="283.3" x2="1310.0" y2="287.3" stroke="#666" stroke-width="1"/>
<text x="1310.0" y="299.3" text-anchor="middle" font-size="10" font-family="sans-serif" fill="#555">1000</text>
<line x1="718.5" y1="283.3" x2="722.5" y2="283.3" stroke="#666" stroke-width="1"/>
<text x="714.5" y="286.3" text-anchor="end" font-size="10" font-family="sans-serif" fill="#555">-2.7e+00</text>
<line x1="718.5" y1="230.0" x2="722.5" y2="230.0" stroke="#666" stroke-width="1"/>
<text x="714.5" y="233.0" text-anchor="end" font-size="10" font-family="sans-serif" fill="#555">7.9e+00</text>
<line x1="718.5" y1="176.7" x2="722.5" y2="176.7" stroke="#666" stroke-width="1"/>
<text x="714.5" y="179.7" text-anchor="end" font-size="10" font-family="sans-serif" fill="#555">1.8e+01</text>
<line x1="718.5" y1="123.3" x2="722.5" y2="123.3" stroke="#666" stroke-width="1"/>
<text x="714.5" y="126.3" text-anchor="end" font-size="10" font-family="sans-serif" fill="#555">2.9e+01</text>
<line x1="718.5" y1="70.0" x2="722.5" y2="70.0" stroke="#666" stroke-width="1"/>
<text x="714.5" y="73.0" text-anchor="end" font-size="10" font-family="sans-serif" fill="#555">3.9e+01</text>
<polyline fill="none" stroke="#ff7f0e" stroke-width="2" points="722.5,84.7 728.4,88.4 734.4,201.2 740.3,193.0 746.2,184.7 752.2,207.3 758.1,213.8 764.0,207.7 770.0,236.7 775.9,229.7 781.8,206.1 787.8,230.7 793.7,236.1 799.6,239.5 805.6,247.3 811.5,219.6 817.4,241.7 823.4,237.1 829.3,250.1 835.3,246.0 841.2,254.7 847.1,253.0 853.1,252.2 859.0,247.2 864.9,254.4 870.9,256.3 876.8,256.1 882.7,257.4 888.7,257.6 894.6,254.0 900.5,256.1 906.5,257.9 912.4,255.6 918.3,259.0 924.3,255.8 930.2,258.1 936.1,260.2 942.1,261.5 948.0,259.2 953.9,257.0 959.9,262.4 965.8,262.3 971.7,261.0 977.7,262.4 983.6,260.9 989.5,262.4 995.5,260.7 1001.4,264.5 1007.3,262.4 1013.3,261.0 1019.2,261.3 1025.2,263.9 1031.1,261.3 1037.0,265.1 1043.0,260.1 1048.9,263.3 1054.8,262.7 1060.8,264.3 1066.7,263.7 1072.6,263.1 1078.6,263.1 1084.5,263.4 1090.4,264.4 1096.4,264.3 1102.3,263.7 1108.2,263.6 1114.2,264.8 1120.1,262.9 1126.0,264.3 1132.0,264.9 1137.9,264.2 1143.8,264.0 1149.8,264.9 1155.7,265.3 1161.6,264.2 1167.6,264.0 1173.5,264.8 1179.4,263.1 1185.4,265.9 1191.3,265.2 1197.2,265.3 1203.2,264.3 1209.1,264.7 1215.1,266.3 1221.0,257.3 1226.9,262.6 1232.9,265.3 1238.8,264.6 1244.7,266.5 1250.7,266.8 1256.6,266.2 1262.5,265.2 1268.5,265.4 1274.4,265.7 1280.3,263.1 1286.3,264.6 1292.2,264.8 1298.1,265.1 1304.1,266.2 1310.0,266.6" />
<polyline fill="none" stroke="#1f77b4" stroke-width="2" points="722.5,130.9 728.4,174.9 734.4,211.7 740.3,215.7 746.2,243.2 752.2,249.5 758.1,255.1 764.0,256.4 770.0,256.5 775.9,257.9 781.8,259.5 787.8,263.4 793.7,263.2 799.6,264.5 805.6,263.6 811.5,259.7 817.4,254.3 823.4,263.4 829.3,261.7 835.3,260.8 841.2,255.0 847.1,258.3 853.1,260.8 859.0,256.1 864.9,254.9 870.9,256.6 876.8,262.3 882.7,259.5 888.7,260.2 894.6,256.8 900.5,261.3 906.5,258.1 912.4,253.5 918.3,252.0 924.3,257.2 930.2,257.9 936.1,257.4 942.1,255.8 948.0,259.0 953.9,254.7 959.9,256.0 965.8,255.4 971.7,254.6 977.7,246.3 983.6,253.1 989.5,258.6 995.5,256.0 1001.4,255.4 1007.3,259.5 1013.3,261.4 1019.2,259.1 1025.2,254.3 1031.1,260.2 1037.0,253.0 1043.0,247.4 1048.9,255.5 1054.8,253.0 1060.8,253.6 1066.7,254.1 1072.6,258.8 1078.6,255.4 1084.5,253.5 1090.4,258.0 1096.4,254.5 1102.3,260.3 1108.2,259.0 1114.2,256.6 1120.1,257.5 1126.0,258.6 1132.0,254.7 1137.9,256.4 1143.8,262.0 1149.8,256.7 1155.7,254.9 1161.6,260.5 1167.6,260.5 1173.5,256.5 1179.4,255.2 1185.4,257.7 1191.3,255.3 1197.2,259.2 1203.2,258.3 1209.1,260.0 1215.1,261.7 1221.0,261.8 1226.9,262.0 1232.9,262.0 1238.8,261.4 1244.7,264.0 1250.7,264.8 1256.6,262.1 1262.5,263.8 1268.5,265.5 1274.4,264.9 1280.3,263.0 1286.3,264.3 1292.2,266.2 1298.1,265.2 1304.1,265.3 1310.0,265.6" />
<polyline fill="none" stroke="#d62728" stroke-width="2" points="722.5,141.6 728.4,228.1 734.4,241.8 740.3,248.1 746.2,253.6 752.2,260.7 758.1,262.2 764.0,263.8 770.0,260.9 775.9,263.6 781.8,264.6 787.8,264.8 793.7,266.8 799.6,265.8 805.6,266.0 811.5,265.6 817.4,266.5 823.4,265.7 829.3,265.7 835.3,266.0 841.2,266.9 847.1,266.3 853.1,266.0 859.0,266.4 864.9,266.6 870.9,267.1 876.8,266.6 882.7,267.2 888.7,267.7 894.6,266.3 900.5,266.5 906.5,265.4 912.4,267.5 918.3,267.1 924.3,266.3 930.2,267.3 936.1,266.1 942.1,267.3 948.0,267.4 953.9,267.4 959.9,266.2 965.8,267.1 971.7,267.0 977.7,267.9 983.6,266.1 989.5,266.5 995.5,267.2 1001.4,267.6 1007.3,265.9 1013.3,267.3 1019.2,267.5 1025.2,267.7 1031.1,267.7 1037.0,267.6 1043.0,267.7 1048.9,267.3 1054.8,267.6 1060.8,268.1 1066.7,267.6 1072.6,266.8 1078.6,267.0 1084.5,268.6 1090.4,267.6 1096.4,268.1 1102.3,268.5 1108.2,267.9 1114.2,268.2 1120.1,266.2 1126.0,267.7 1132.0,268.0 1137.9,267.7 1143.8,267.9 1149.8,268.2 1155.7,268.3 1161.6,268.4 1167.6,268.5 1173.5,268.4 1179.4,267.8 1185.4,268.1 1191.3,268.2 1197.2,268.3 1203.2,268.2 1209.1,268.2 1215.1,268.1 1221.0,268.6 1226.9,267.9 1232.9,268.6 1238.8,268.5 1244.7,268.3 1250.7,268.2 1256.6,268.4 1262.5,268.2 1268.5,268.3 1274.4,268.1 1280.3,267.9 1286.3,268.6 1292.2,268.2 1298.1,267.9 1304.1,268.4 1310.0,268.4" />
<text x="1016.2" y="313.3" text-anchor="middle" font-size="10" font-family="sans-serif" fill="#666">step</text>
<rect x="90.0" y="353.33333333333337" width="587.5" height="213.33333333333334" fill="#fafafa" stroke="#dddddd"/>
<text x="383.8" y="343.3" text-anchor="middle" font-size="13" font-family="sans-serif">Update Ratio</text>
<line x1="90.0" y1="566.7" x2="90.0" y2="570.7" stroke="#666" stroke-width="1"/>
<text x="90.0" y="582.7" text-anchor="middle" font-size="10" font-family="sans-serif" fill="#555">10</text>
<line x1="236.9" y1="566.7" x2="236.9" y2="570.7" stroke="#666" stroke-width="1"/>
<text x="236.9" y="582.7" text-anchor="middle" font-size="10" font-family="sans-serif" fill="#555">258</text>
<line x1="383.8" y1="566.7" x2="383.8" y2="570.7" stroke="#666" stroke-width="1"/>
<text x="383.8" y="582.7" text-anchor="middle" font-size="10" font-family="sans-serif" fill="#555">505</text>
<line x1="530.6" y1="566.7" x2="530.6" y2="570.7" stroke="#666" stroke-width="1"/>
<text x="530.6" y="582.7" text-anchor="middle" font-size="10" font-family="sans-serif" fill="#555">752</text>
<line x1="677.5" y1="566.7" x2="677.5" y2="570.7" stroke="#666" stroke-width="1"/>
<text x="677.5" y="582.7" text-anchor="middle" font-size="10" font-family="sans-serif" fill="#555">1000</text>
<line x1="86.0" y1="566.7" x2="90.0" y2="566.7" stroke="#666" stroke-width="1"/>
<text x="82.0" y="569.7" text-anchor="end" font-size="10" font-family="sans-serif" fill="#555">-3.0e-03</text>
<line x1="86.0" y1="513.3" x2="90.0" y2="513.3" stroke="#666" stroke-width="1"/>
<text x="82.0" y="516.3" text-anchor="end" font-size="10" font-family="sans-serif" fill="#555">8.6e-03</text>
<line x1="86.0" y1="460.0" x2="90.0" y2="460.0" stroke="#666" stroke-width="1"/>
<text x="82.0" y="463.0" text-anchor="end" font-size="10" font-family="sans-serif" fill="#555">2.0e-02</text>
<line x1="86.0" y1="406.7" x2="90.0" y2="406.7" stroke="#666" stroke-width="1"/>
<text x="82.0" y="409.7" text-anchor="end" font-size="10" font-family="sans-serif" fill="#555">3.2e-02</text>
<line x1="86.0" y1="353.3" x2="90.0" y2="353.3" stroke="#666" stroke-width="1"/>
<text x="82.0" y="356.3" text-anchor="end" font-size="10" font-family="sans-serif" fill="#555">4.3e-02</text>
<polyline fill="none" stroke="#ff7f0e" stroke-width="2" points="90.0,368.0 95.9,369.6 101.9,370.9 107.8,372.3 113.7,373.5 119.7,374.7 125.6,376.3 131.5,378.0 137.5,379.2 143.4,381.5 149.3,381.7 155.3,384.8 161.2,385.6 167.1,386.6 173.1,390.9 179.0,388.7 184.9,391.1 190.9,394.9 196.8,398.2 202.8,398.3 208.7,400.5 214.6,404.2 220.6,406.4 226.5,409.0 232.4,414.5 238.4,417.9 244.3,422.1 250.2,426.9 256.2,427.5 262.1,432.1 268.0,434.0 274.0,439.3 279.9,439.8 285.8,443.1 291.8,445.6 297.7,451.7 303.6,451.5 309.6,457.0 315.5,459.7 321.4,459.3 327.4,465.0 333.3,463.9 339.2,464.9 345.2,467.0 351.1,468.8 357.0,471.2 363.0,472.9 368.9,478.4 374.8,476.2 380.8,477.1 386.7,476.6 392.7,479.5 398.6,480.3 404.5,480.5 410.5,480.7 416.4,482.4 422.3,482.8 428.3,485.2 434.2,487.2 440.1,485.8 446.1,486.7 452.0,487.6 457.9,489.7 463.9,488.0 469.8,490.1 475.7,489.8 481.7,490.4 487.6,489.4 493.5,492.6 499.5,491.6 505.4,492.3 511.3,491.9 517.3,494.0 523.2,494.2 529.1,494.1 535.1,495.3 541.0,495.0 546.9,493.6 552.9,496.6 558.8,496.5 564.7,496.3 570.7,496.6 576.6,496.4 582.6,498.1 588.5,496.5 594.4,496.0 600.4,497.4 606.3,497.2 612.2,498.2 618.2,498.6 624.1,499.6 630.0,498.8 636.0,497.6 641.9,498.5 647.8,496.5 653.8,498.4 659.7,498.7 665.6,498.5 671.6,498.6 677.5,500.8" />
<polyline fill="none" stroke="#1f77b4" stroke-width="2" points="90.0,544.3 95.9,548.0 101.9,550.0 107.8,550.7 113.7,551.0 119.7,551.4 125.6,551.6 131.5,551.7 137.5,551.8 143.4,551.8 149.3,551.9 155.3,551.9 161.2,551.9 167.1,551.9 173.1,551.9 179.0,551.9 184.9,552.0 190.9,551.9 196.8,551.9 202.8,551.8 208.7,551.8 214.6,551.8 220.6,551.8 226.5,551.7 232.4,551.7 238.4,551.6 244.3,551.6 250.2,551.7 256.2,551.5 262.1,551.5 268.0,551.5 274.0,551.3 279.9,551.4 285.8,551.4 291.8,551.2 297.7,551.2 303.6,551.1 309.6,551.2 315.5,551.2 321.4,551.1 327.4,551.0 333.3,551.1 339.2,551.0 345.2,550.9 351.1,550.9 357.0,550.9 363.0,550.7 368.9,550.8 374.8,550.8 380.8,550.8 386.7,550.7 392.7,550.6 398.6,550.6 404.5,550.5 410.5,550.6 416.4,550.4 422.3,550.4 428.3,550.4 434.2,550.2 440.1,550.3 446.1,550.2 452.0,550.0 457.9,550.0 463.9,550.1 469.8,550.0 475.7,550.1 481.7,549.9 487.6,550.0 493.5,549.9 499.5,550.0 505.4,549.9 511.3,549.8 517.3,550.0 523.2,549.9 529.1,550.1 535.1,550.1 541.0,549.8 546.9,550.0 552.9,550.0 558.8,550.0 564.7,549.9 570.7,550.0 576.6,550.1 582.6,550.3 588.5,550.3 594.4,550.2 600.4,550.3 606.3,550.4 612.2,550.5 618.2,550.5 624.1,550.5 630.0,550.7 636.0,550.8 641.9,550.8 647.8,550.7 653.8,550.7 659.7,550.9 665.6,550.8 671.6,550.8 677.5,550.8" />
<polyline fill="none" stroke="#d62728" stroke-width="2" points="90.0,536.7 95.9,544.7 101.9,547.2 107.8,547.8 113.7,547.9 119.7,548.0 125.6,548.0 131.5,548.0 137.5,548.0 143.4,548.0 149.3,548.0 155.3,548.0 161.2,548.0 167.1,548.0 173.1,548.0 179.0,548.0 184.9,548.0 190.9,548.0 196.8,548.0 202.8,548.0 208.7,548.0 214.6,548.0 220.6,548.0 226.5,548.0 232.4,548.0 238.4,548.0 244.3,548.0 250.2,548.0 256.2,548.0 262.1,548.0 268.0,548.0 274.0,548.0 279.9,548.0 285.8,548.0 291.8,548.0 297.7,548.0 303.6,548.0 309.6,548.0 315.5,548.0 321.4,548.0 327.4,548.0 333.3,548.0 339.2,548.0 345.2,548.0 351.1,548.0 357.0,548.0 363.0,548.0 368.9,548.0 374.8,548.0 380.8,548.0 386.7,548.0 392.7,548.0 398.6,548.0 404.5,548.0 410.5,548.0 416.4,548.0 422.3,548.0 428.3,548.0 434.2,548.0 440.1,548.0 446.1,548.0 452.0,548.0 457.9,548.0 463.9,548.0 469.8,548.0 475.7,548.0 481.7,548.0 487.6,548.0 493.5,548.0 499.5,548.0 505.4,548.0 511.3,548.0 517.3,548.0 523.2,548.0 529.1,548.0 535.1,548.0 541.0,548.0 546.9,548.0 552.9,548.0 558.8,548.0 564.7,548.0 570.7,548.0 576.6,548.0 582.6,548.0 588.5,548.0 594.4,548.0 600.4,548.0 606.3,548.0 612.2,548.0 618.2,548.0 624.1,548.0 630.0,548.0 636.0,548.0 641.9,548.0 647.8,548.0 653.8,548.0 659.7,548.0 665.6,548.0 671.6,548.0 677.5,548.0" />
<text x="383.8" y="596.7" text-anchor="middle" font-size="10" font-family="sans-serif" fill="#666">step</text>
<rect x="722.5" y="353.33333333333337" width="587.5" height="213.33333333333334" fill="#fafafa" stroke="#dddddd"/>
<text x="1016.2" y="343.3" text-anchor="middle" font-size="13" font-family="sans-serif">Grad-Update Cos</text>
<line x1="722.5" y1="566.7" x2="722.5" y2="570.7" stroke="#666" stroke-width="1"/>
<text x="722.5" y="582.7" text-anchor="middle" font-size="10" font-family="sans-serif" fill="#555">10</text>
<line x1="869.4" y1="566.7" x2="869.4" y2="570.7" stroke="#666" stroke-width="1"/>
<text x="869.4" y="582.7" text-anchor="middle" font-size="10" font-family="sans-serif" fill="#555">258</text>
<line x1="1016.2" y1="566.7" x2="1016.2" y2="570.7" stroke="#666" stroke-width="1"/>
<text x="1016.2" y="582.7" text-anchor="middle" font-size="10" font-family="sans-serif" fill="#555">505</text>
<line x1="1163.1" y1="566.7" x2="1163.1" y2="570.7" stroke="#666" stroke-width="1"/>
<text x="1163.1" y="582.7" text-anchor="middle" font-size="10" font-family="sans-serif" fill="#555">752</text>
<line x1="1310.0" y1="566.7" x2="1310.0" y2="570.7" stroke="#666" stroke-width="1"/>
<text x="1310.0" y="582.7" text-anchor="middle" font-size="10" font-family="sans-serif" fill="#555">1000</text>
<line x1="718.5" y1="566.7" x2="722.5" y2="566.7" stroke="#666" stroke-width="1"/>
<text x="714.5" y="569.7" text-anchor="end" font-size="10" font-family="sans-serif" fill="#555">-0.632</text>
<line x1="718.5" y1="513.3" x2="722.5" y2="513.3" stroke="#666" stroke-width="1"/>
<text x="714.5" y="516.3" text-anchor="end" font-size="10" font-family="sans-serif" fill="#555">-0.463</text>
<line x1="718.5" y1="460.0" x2="722.5" y2="460.0" stroke="#666" stroke-width="1"/>
<text x="714.5" y="463.0" text-anchor="end" font-size="10" font-family="sans-serif" fill="#555">-0.295</text>
<line x1="718.5" y1="406.7" x2="722.5" y2="406.7" stroke="#666" stroke-width="1"/>
<text x="714.5" y="409.7" text-anchor="end" font-size="10" font-family="sans-serif" fill="#555">-0.126</text>
<line x1="718.5" y1="353.3" x2="722.5" y2="353.3" stroke="#666" stroke-width="1"/>
<text x="714.5" y="356.3" text-anchor="end" font-size="10" font-family="sans-serif" fill="#555">0.042</text>
<polyline fill="none" stroke="#ff7f0e" stroke-width="2" points="722.5,491.0 728.4,552.0 734.4,461.7 740.3,446.2 746.2,421.3 752.2,427.4 758.1,417.5 764.0,416.9 770.0,414.2 775.9,411.5 781.8,413.0 787.8,403.7 793.7,406.5 799.6,402.9 805.6,396.0 811.5,400.4 817.4,395.4 823.4,392.4 829.3,392.5 835.3,385.7 841.2,390.4 847.1,389.5 853.1,389.4 859.0,386.0 864.9,389.0 870.9,386.0 876.8,385.2 882.7,385.3 888.7,385.6 894.6,382.9 900.5,383.4 906.5,383.0 912.4,384.5 918.3,385.7 924.3,387.2 930.2,384.2 936.1,383.6 942.1,386.3 948.0,389.0 953.9,382.4 959.9,390.2 965.8,388.7 971.7,400.5 977.7,390.0 983.6,382.6 989.5,387.5 995.5,384.2 1001.4,387.7 1007.3,381.8 1013.3,390.8 1019.2,384.6 1025.2,384.6 1031.1,398.0 1037.0,388.6 1043.0,385.1 1048.9,383.9 1054.8,386.5 1060.8,382.6 1066.7,384.4 1072.6,383.2 1078.6,383.5 1084.5,388.2 1090.4,384.1 1096.4,388.8 1102.3,384.5 1108.2,383.7 1114.2,389.1 1120.1,385.6 1126.0,380.7 1132.0,386.4 1137.9,390.9 1143.8,381.2 1149.8,387.8 1155.7,383.7 1161.6,384.7 1167.6,394.1 1173.5,390.6 1179.4,393.4 1185.4,403.8 1191.3,415.1 1197.2,389.9 1203.2,383.4 1209.1,411.1 1215.1,388.4 1221.0,458.2 1226.9,391.1 1232.9,392.6 1238.8,409.9 1244.7,391.6 1250.7,404.1 1256.6,404.7 1262.5,383.9 1268.5,390.2 1274.4,389.2 1280.3,392.3 1286.3,389.8 1292.2,388.7 1298.1,387.6 1304.1,390.0 1310.0,393.7" />
<polyline fill="none" stroke="#1f77b4" stroke-width="2" points="722.5,393.0 728.4,457.0 734.4,400.4 740.3,430.7 746.2,425.9 752.2,412.2 758.1,397.7 764.0,415.1 770.0,425.0 775.9,429.5 781.8,402.5 787.8,409.7 793.7,399.0 799.6,408.3 805.6,411.5 811.5,394.0 817.4,416.1 823.4,411.0 829.3,418.1 835.3,421.1 841.2,426.4 847.1,437.4 853.1,408.7 859.0,429.9 864.9,428.6 870.9,420.4 876.8,419.8 882.7,409.0 888.7,404.5 894.6,408.7 900.5,403.1 906.5,415.4 912.4,437.8 918.3,418.3 924.3,432.8 930.2,408.9 936.1,431.6 942.1,411.1 948.0,386.3 953.9,433.9 959.9,398.9 965.8,408.9 971.7,400.4 977.7,450.4 983.6,430.2 989.5,409.6 995.5,444.0 1001.4,436.5 1007.3,428.1 1013.3,416.9 1019.2,434.7 1025.2,433.5 1031.1,421.7 1037.0,436.3 1043.0,435.5 1048.9,413.2 1054.8,422.7 1060.8,418.9 1066.7,422.1 1072.6,435.2 1078.6,441.1 1084.5,437.7 1090.4,431.8 1096.4,418.9 1102.3,439.4 1108.2,430.9 1114.2,428.9 1120.1,440.1 1126.0,446.6 1132.0,428.5 1137.9,430.7 1143.8,446.0 1149.8,425.0 1155.7,447.1 1161.6,428.4 1167.6,418.4 1173.5,455.9 1179.4,404.6 1185.4,444.8 1191.3,438.9 1197.2,460.7 1203.2,425.4 1209.1,433.8 1215.1,453.8 1221.0,442.7 1226.9,447.4 1232.9,455.1 1238.8,432.5 1244.7,444.7 1250.7,444.7 1256.6,448.1 1262.5,444.9 1268.5,432.5 1274.4,447.2 1280.3,441.2 1286.3,458.1 1292.2,450.6 1298.1,437.9 1304.1,439.2 1310.0,465.2" />
<polyline fill="none" stroke="#d62728" stroke-width="2" points="722.5,426.5 728.4,422.2 734.4,443.5 740.3,401.3 746.2,377.4 752.2,389.0 758.1,382.8 764.0,375.9 770.0,385.2 775.9,376.1 781.8,373.9 787.8,376.0 793.7,376.7 799.6,373.2 805.6,375.6 811.5,379.2 817.4,376.4 823.4,375.2 829.3,369.9 835.3,378.0 841.2,380.0 847.1,374.9 853.1,376.2 859.0,374.8 864.9,373.2 870.9,374.5 876.8,374.3 882.7,372.4 888.7,376.6 894.6,376.4 900.5,372.8 906.5,376.4 912.4,378.1 918.3,374.6 924.3,369.4 930.2,376.0 936.1,375.2 942.1,372.8 948.0,368.0 953.9,376.6 959.9,375.2 965.8,381.0 971.7,376.2 977.7,374.9 983.6,377.5 989.5,374.5 995.5,375.0 1001.4,373.5 1007.3,373.0 1013.3,377.2 1019.2,374.7 1025.2,373.3 1031.1,370.4 1037.0,372.5 1043.0,372.3 1048.9,380.6 1054.8,370.4 1060.8,373.9 1066.7,371.2 1072.6,371.8 1078.6,378.0 1084.5,372.9 1090.4,376.6 1096.4,368.0 1102.3,369.5 1108.2,377.5 1114.2,374.8 1120.1,381.3 1126.0,369.9 1132.0,373.7 1137.9,382.8 1143.8,375.6 1149.8,371.7 1155.7,372.2 1161.6,372.5 1167.6,373.8 1173.5,371.4 1179.4,370.7 1185.4,376.6 1191.3,372.0 1197.2,369.2 1203.2,372.2 1209.1,374.6 1215.1,371.7 1221.0,373.4 1226.9,378.4 1232.9,370.9 1238.8,369.6 1244.7,368.9 1250.7,376.5 1256.6,373.9 1262.5,374.4 1268.5,369.4 1274.4,375.5 1280.3,376.8 1286.3,373.1 1292.2,377.5 1298.1,379.4 1304.1,378.3 1310.0,372.6" />
<text x="1016.2" y="596.7" text-anchor="middle" font-size="10" font-family="sans-serif" fill="#666">step</text>
<rect x="90.0" y="636.6666666666667" width="587.5" height="213.33333333333334" fill="#fafafa" stroke="#dddddd"/>
<text x="383.8" y="626.7" text-anchor="middle" font-size="13" font-family="sans-serif">Top Hessian Eig (power iter)</text>
<line x1="90.0" y1="850.0" x2="90.0" y2="854.0" stroke="#666" stroke-width="1"/>
<text x="90.0" y="866.0" text-anchor="middle" font-size="10" font-family="sans-serif" fill="#555">10</text>
<line x1="236.9" y1="850.0" x2="236.9" y2="854.0" stroke="#666" stroke-width="1"/>
<text x="236.9" y="866.0" text-anchor="middle" font-size="10" font-family="sans-serif" fill="#555">258</text>
<line x1="383.8" y1="850.0" x2="383.8" y2="854.0" stroke="#666" stroke-width="1"/>
<text x="383.8" y="866.0" text-anchor="middle" font-size="10" font-family="sans-serif" fill="#555">505</text>
<line x1="530.6" y1="850.0" x2="530.6" y2="854.0" stroke="#666" stroke-width="1"/>
<text x="530.6" y="866.0" text-anchor="middle" font-size="10" font-family="sans-serif" fill="#555">752</text>
<line x1="677.5" y1="850.0" x2="677.5" y2="854.0" stroke="#666" stroke-width="1"/>
<text x="677.5" y="866.0" text-anchor="middle" font-size="10" font-family="sans-serif" fill="#555">1000</text>
<line x1="86.0" y1="850.0" x2="90.0" y2="850.0" stroke="#666" stroke-width="1"/>
<text x="82.0" y="853.0" text-anchor="end" font-size="10" font-family="sans-serif" fill="#555">-1.4e+03</text>
<line x1="86.0" y1="796.7" x2="90.0" y2="796.7" stroke="#666" stroke-width="1"/>
<text x="82.0" y="799.7" text-anchor="end" font-size="10" font-family="sans-serif" fill="#555">-7.4e+02</text>
<line x1="86.0" y1="743.3" x2="90.0" y2="743.3" stroke="#666" stroke-width="1"/>
<text x="82.0" y="746.3" text-anchor="end" font-size="10" font-family="sans-serif" fill="#555">-7.3e+01</text>
<line x1="86.0" y1="690.0" x2="90.0" y2="690.0" stroke="#666" stroke-width="1"/>
<text x="82.0" y="693.0" text-anchor="end" font-size="10" font-family="sans-serif" fill="#555">5.9e+02</text>
<line x1="86.0" y1="636.7" x2="90.0" y2="636.7" stroke="#666" stroke-width="1"/>
<text x="82.0" y="639.7" text-anchor="end" font-size="10" font-family="sans-serif" fill="#555">1.3e+03</text>
<polyline fill="none" stroke="#ff7f0e" stroke-width="2" points="113.7,760.8 143.4,727.1 173.1,728.0 202.8,749.4 232.4,734.7 262.1,801.3 291.8,734.2 321.4,679.9 351.1,744.4 380.8,746.0 410.5,727.0 440.1,734.0 469.8,728.3 499.5,651.4 529.1,742.9 558.8,723.0 588.5,737.8 618.2,835.3 647.8,740.7 677.5,666.3" />
<polyline fill="none" stroke="#1f77b4" stroke-width="2" points="113.7,706.0 143.4,719.6 173.1,711.8 202.8,721.0 232.4,713.7 262.1,715.6 291.8,723.6 321.4,712.4 351.1,715.9 380.8,718.1 410.5,716.5 440.1,721.6 469.8,719.8 499.5,722.7 529.1,725.1 558.8,728.5 588.5,731.4 618.2,733.5 647.8,733.6 677.5,734.8" />
<polyline fill="none" stroke="#d62728" stroke-width="2" points="113.7,732.1 143.4,729.6 173.1,731.5 202.8,731.3 232.4,732.3 262.1,732.8 291.8,733.1 321.4,734.2 351.1,733.7 380.8,735.3 410.5,734.4 440.1,735.9 469.8,734.8 499.5,735.0 529.1,735.2 558.8,735.5 588.5,735.5 618.2,735.7 647.8,735.8 677.5,735.9" />
<text x="383.8" y="880.0" text-anchor="middle" font-size="10" font-family="sans-serif" fill="#666">step</text>
<rect x="722.5" y="636.6666666666667" width="587.5" height="213.33333333333334" fill="#fafafa" stroke="#dddddd"/>
<text x="1016.2" y="626.7" text-anchor="middle" font-size="13" font-family="sans-serif">Step Time (s)</text>
<line x1="722.5" y1="850.0" x2="722.5" y2="854.0" stroke="#666" stroke-width="1"/>
<text x="722.5" y="866.0" text-anchor="middle" font-size="10" font-family="sans-serif" fill="#555">10</text>
<line x1="869.4" y1="850.0" x2="869.4" y2="854.0" stroke="#666" stroke-width="1"/>
<text x="869.4" y="866.0" text-anchor="middle" font-size="10" font-family="sans-serif" fill="#555">258</text>
<line x1="1016.2" y1="850.0" x2="1016.2" y2="854.0" stroke="#666" stroke-width="1"/>
<text x="1016.2" y="866.0" text-anchor="middle" font-size="10" font-family="sans-serif" fill="#555">505</text>
<line x1="1163.1" y1="850.0" x2="1163.1" y2="854.0" stroke="#666" stroke-width="1"/>
<text x="1163.1" y="866.0" text-anchor="middle" font-size="10" font-family="sans-serif" fill="#555">752</text>
<line x1="1310.0" y1="850.0" x2="1310.0" y2="854.0" stroke="#666" stroke-width="1"/>
<text x="1310.0" y="866.0" text-anchor="middle" font-size="10" font-family="sans-serif" fill="#555">1000</text>
<line x1="718.5" y1="850.0" x2="722.5" y2="850.0" stroke="#666" stroke-width="1"/>
<text x="714.5" y="853.0" text-anchor="end" font-size="10" font-family="sans-serif" fill="#555">0.0012</text>
<line x1="718.5" y1="796.7" x2="722.5" y2="796.7" stroke="#666" stroke-width="1"/>
<text x="714.5" y="799.7" text-anchor="end" font-size="10" font-family="sans-serif" fill="#555">0.0244</text>
<line x1="718.5" y1="743.3" x2="722.5" y2="743.3" stroke="#666" stroke-width="1"/>
<text x="714.5" y="746.3" text-anchor="end" font-size="10" font-family="sans-serif" fill="#555">0.0475</text>
<line x1="718.5" y1="690.0" x2="722.5" y2="690.0" stroke="#666" stroke-width="1"/>
<text x="714.5" y="693.0" text-anchor="end" font-size="10" font-family="sans-serif" fill="#555">0.0706</text>
<line x1="718.5" y1="636.7" x2="722.5" y2="636.7" stroke="#666" stroke-width="1"/>
<text x="714.5" y="639.7" text-anchor="end" font-size="10" font-family="sans-serif" fill="#555">0.0937</text>
<polyline fill="none" stroke="#ff7f0e" stroke-width="2" points="722.5,743.7 728.4,739.2 734.4,738.7 740.3,743.6 746.2,738.1 752.2,741.3 758.1,734.2 764.0,734.4 770.0,743.5 775.9,742.8 781.8,735.2 787.8,731.8 793.7,742.1 799.6,746.0 805.6,746.8 811.5,740.5 817.4,749.5 823.4,750.3 829.3,749.1 835.3,747.3 841.2,743.4 847.1,742.4 853.1,745.0 859.0,750.7 864.9,751.8 870.9,747.1 876.8,752.1 882.7,747.8 888.7,748.9 894.6,754.9 900.5,747.4 906.5,753.3 912.4,752.5 918.3,752.4 924.3,752.1 930.2,749.3 936.1,750.3 942.1,740.2 948.0,741.4 953.9,746.3 959.9,745.5 965.8,745.2 971.7,751.6 977.7,751.7 983.6,755.2 989.5,755.1 995.5,751.6 1001.4,751.8 1007.3,751.9 1013.3,750.1 1019.2,748.6 1025.2,755.2 1031.1,755.7 1037.0,750.2 1043.0,750.2 1048.9,747.5 1054.8,753.9 1060.8,746.1 1066.7,753.6 1072.6,748.7 1078.6,748.1 1084.5,752.1 1090.4,752.2 1096.4,751.2 1102.3,750.1 1108.2,746.4 1114.2,755.2 1120.1,756.6 1126.0,755.3 1132.0,756.2 1137.9,750.7 1143.8,757.4 1149.8,760.0 1155.7,761.2 1161.6,763.4 1167.6,763.9 1173.5,763.8 1179.4,761.6 1185.4,762.2 1191.3,761.1 1197.2,756.8 1203.2,762.4 1209.1,764.5 1215.1,761.5 1221.0,762.6 1226.9,761.6 1232.9,762.2 1238.8,760.7 1244.7,761.5 1250.7,761.8 1256.6,762.3 1262.5,766.0 1268.5,763.8 1274.4,765.7 1280.3,766.5 1286.3,763.8 1292.2,763.1 1298.1,764.5 1304.1,759.1 1310.0,763.2" />
<polyline fill="none" stroke="#1f77b4" stroke-width="2" points="722.5,651.4 728.4,833.0 734.4,832.6 740.3,832.7 746.2,832.5 752.2,832.3 758.1,832.3 764.0,832.1 770.0,832.5 775.9,831.5 781.8,831.6 787.8,832.5 793.7,832.5 799.6,832.0 805.6,832.4 811.5,831.7 817.4,832.2 823.4,832.1 829.3,832.1 835.3,832.1 841.2,832.0 847.1,830.9 853.1,831.8 859.0,832.4 864.9,832.3 870.9,832.3 876.8,831.9 882.7,832.5 888.7,832.2 894.6,830.9 900.5,831.4 906.5,832.7 912.4,832.2 918.3,832.1 924.3,832.9 930.2,832.5 936.1,832.4 942.1,832.4 948.0,832.9 953.9,833.0 959.9,832.3 965.8,832.5 971.7,832.6 977.7,832.8 983.6,833.0 989.5,831.5 995.5,832.5 1001.4,832.5 1007.3,832.6 1013.3,831.9 1019.2,831.8 1025.2,832.6 1031.1,832.8 1037.0,832.8 1043.0,832.8 1048.9,831.8 1054.8,832.9 1060.8,831.0 1066.7,832.4 1072.6,832.8 1078.6,832.2 1084.5,832.6 1090.4,832.5 1096.4,832.1 1102.3,832.2 1108.2,831.6 1114.2,831.8 1120.1,832.3 1126.0,831.8 1132.0,831.8 1137.9,831.6 1143.8,832.3 1149.8,833.1 1155.7,835.1 1161.6,834.4 1167.6,834.9 1173.5,834.4 1179.4,835.1 1185.4,834.9 1191.3,834.8 1197.2,834.9 1203.2,835.0 1209.1,834.5 1215.1,835.0 1221.0,834.8 1226.9,834.8 1232.9,835.3 1238.8,835.0 1244.7,834.8 1250.7,834.7 1256.6,834.5 1262.5,835.1 1268.5,834.7 1274.4,833.8 1280.3,834.9 1286.3,835.2 1292.2,834.7 1298.1,835.1 1304.1,833.0 1310.0,834.8" />
<polyline fill="none" stroke="#d62728" stroke-width="2" points="722.5,770.3 728.4,793.1 734.4,791.9 740.3,792.1 746.2,792.4 752.2,786.0 758.1,788.5 764.0,788.7 770.0,788.8 775.9,789.4 781.8,778.2 787.8,777.5 793.7,785.3 799.6,784.0 805.6,792.3 811.5,789.6 817.4,792.1 823.4,787.1 829.3,792.8 835.3,792.8 841.2,789.8 847.1,793.2 853.1,788.3 859.0,791.2 864.9,792.9 870.9,784.9 876.8,788.7 882.7,789.6 888.7,790.9 894.6,789.3 900.5,786.2 906.5,785.2 912.4,788.6 918.3,782.5 924.3,788.2 930.2,788.7 936.1,790.2 942.1,789.0 948.0,790.2 953.9,788.5 959.9,787.2 965.8,784.8 971.7,789.9 977.7,788.4 983.6,789.4 989.5,786.6 995.5,790.2 1001.4,790.4 1007.3,791.0 1013.3,789.1 1019.2,782.4 1025.2,790.9 1031.1,788.5 1037.0,789.9 1043.0,785.3 1048.9,786.8 1054.8,788.3 1060.8,791.0 1066.7,785.3 1072.6,791.4 1078.6,785.7 1084.5,786.9 1090.4,789.3 1096.4,789.6 1102.3,790.9 1108.2,783.9 1114.2,791.0 1120.1,790.3 1126.0,790.1 1132.0,791.1 1137.9,788.5 1143.8,790.8 1149.8,787.8 1155.7,787.5 1161.6,790.2 1167.6,785.9 1173.5,791.5 1179.4,790.8 1185.4,789.5 1191.3,790.4 1197.2,786.3 1203.2,790.3 1209.1,790.1 1215.1,791.9 1221.0,793.1 1226.9,788.4 1232.9,791.8 1238.8,788.5 1244.7,786.9 1250.7,790.0 1256.6,783.8 1262.5,791.9 1268.5,788.9 1274.4,787.3 1280.3,790.7 1286.3,786.6 1292.2,789.3 1298.1,790.9 1304.1,790.6 1310.0,790.9" />
<text x="1016.2" y="880.0" text-anchor="middle" font-size="10" font-family="sans-serif" fill="#666">step</text>
<line x1="1140" y1="40" x2="1164" y2="40" stroke="#ff7f0e" stroke-width="3"/>
<text x="1170" y="44" font-size="12" font-family="sans-serif">adafactor</text>
<line x1="1140" y1="60" x2="1164" y2="60" stroke="#1f77b4" stroke-width="3"/>
<text x="1170" y="64" font-size="12" font-family="sans-serif">adamw</text>
<line x1="1140" y1="80" x2="1164" y2="80" stroke="#d62728" stroke-width="3"/>
<text x="1170" y="84" font-size="12" font-family="sans-serif">sgd</text>
</svg>
