<svg xmlns="http://www.w3.org/2000/svg" width="1400" height="920" viewBox="0 0 1400 920">
<rect x="0" y="0" width="100%" height="100%" fill="#ffffff" />
<text x="700.0" y="35" text-anchor="middle" font-size="22" font-family="sans-serif">Optimizer Dynamics Diagnostics</text>
<rect x="90.0" y="70.0" width="587.5" height="213.33333333333334" fill="#fafafa" stroke="#dddddd"/>
<text x="383.8" y="60.0" text-anchor="middle" font-size="13" font-family="sans-serif">Loss</text>
<line x1="90.0" y1="283.3" x2="90.0" y2="287.3" stroke="#666" stroke-width="1"/>
<text x="90.0" y="299.3" text-anchor="middle" font-size="10" font-family="sans-serif" fill="#555">10</text>
<line x1="236.9" y1="283.3" x2="236.9" y2="287.3" stroke="#666" stroke-width="1"/>
<text x="236.9" y="299.3" text-anchor="middle" font-size="10" font-family="sans-serif" fill="#555">258</text>
<line x1="383.8" y1="283.3" x2="383.8" y2="287.3" stroke="#666" stroke-width="1"/>
<text x="383.8" y="299.3" text-anchor="middle" font-size="10" font-family="sans-serif" fill="#555">505</text>
<line x1="530.6" y1="283.3" x2="530.6" y2="287.3" stroke="#666" stroke-width="1"/>
<text x="530.6" y="299.3" text-anchor="middle" font-size="10" font-family="sans-serif" fill="#555">752</text>
<line x1="677.5" y1="283.3" x2="677.5" y2="287.3" stroke="#666" stroke-width="1"/>
<text x="677.5" y="299.3" text-anchor="middle" font-size="10" font-family="sans-serif" fill="#555">1000</text>
<line x1="86.0" y1="283.3" x2="90.0" y2="283.3" stroke="#666" stroke-width="1"/>
<text x="82.0" y="286.3" text-anchor="end" font-size="10" font-family="sans-serif" fill="#555">-3.63</text>
<line x1="86.0" y1="230.0" x2="90.0" y2="230.0" stroke="#666" stroke-width="1"/>
<text x="82.0" y="233.0" text-anchor="end" font-size="10" font-family="sans-serif" fill="#555">17.98</text>
<line x1="86.0" y1="176.7" x2="90.0" y2="176.7" stroke="#666" stroke-width="1"/>
<text x="82.0" y="179.7" text-anchor="end" font-size="10" font-family="sans-serif" fill="#555">39.59</text>
<line x1="86.0" y1="123.3" x2="90.0" y2="123.3" stroke="#666" stroke-width="1"/>
<text x="82.0" y="126.3" text-anchor="end" font-size="10" font-family="sans-serif" fill="#555">61.20</text>
<line x1="86.0" y1="70.0" x2="90.0" y2="70.0" stroke="#666" stroke-width="1"/>
<text x="82.0" y="73.0" text-anchor="end" font-size="10" font-family="sans-serif" fill="#555">82.81</text>
<polyline fill="none" stroke="#ff7f0e" stroke-width="2" points="90.0,84.7 95.9,111.8 101.9,184.6 107.8,195.1 113.7,223.2 119.7,233.8 125.6,247.0 131.5,249.7 137.5,253.4 143.4,253.3 149.3,256.6 155.3,259.1 161.2,260.8 167.1,261.8 173.1,262.5 179.0,263.5 184.9,264.3 190.9,264.9 196.8,265.4 202.8,266.0 208.7,266.0 214.6,266.3 220.6,266.5 226.5,266.7 232.4,266.9 238.4,267.0 244.3,267.2 250.2,267.2 256.2,267.5 262.1,267.5 268.0,267.5 274.0,267.6 279.9,267.6 285.8,267.8 291.8,267.9 297.7,267.8 303.6,267.9 309.6,268.0 315.5,268.0 321.4,268.1 327.4,268.0 333.3,268.0 339.2,268.1 345.2,268.1 351.1,268.1 357.0,268.1 363.0,268.1 368.9,268.3 374.8,268.2 380.8,268.3 386.7,268.3 392.7,268.2 398.6,268.3 404.5,268.4 410.5,268.4 416.4,268.3 422.3,268.4 428.3,268.5 434.2,268.4 440.1,268.4 446.1,268.5 452.0,268.4 457.9,268.4 463.9,268.4 469.8,268.4 475.7,268.5 481.7,268.5 487.6,268.4 493.5,268.5 499.5,268.5 505.4,268.4 511.3,268.5 517.3,268.5 523.2,268.6 529.1,268.6 535.1,268.5 541.0,268.6 546.9,268.5 552.9,268.5 558.8,268.6 564.7,268.6 570.7,268.6 576.6,268.6 582.6,268.6 588.5,268.5 594.4,268.5 600.4,268.6 606.3,268.6 612.2,268.6 618.2,268.6 624.1,268.5 630.0,268.6 636.0,268.4 641.9,268.6 647.8,268.5 653.8,268.6 659.7,268.6 665.6,268.5 671.6,268.6 677.5,268.5" />
<text x="383.8" y="313.3" text-anchor="middle" font-size="10" font-family="sans-serif" fill="#666">step</text>
<rect x="722.5" y="70.0" width="587.5" height="213.33333333333334" fill="#fafafa" stroke="#dddddd"/>
<text x="1016.2" y="60.0" text-anchor="middle" font-size="13" font-family="sans-serif">Grad Norm (L2)</text>
<line x1="722.5" y1="283.3" x2="722.5" y2="287.3" stroke="#666" stroke-width="1"/>
<text x="722.5" y="299.3" text-anchor="middle" font-size="10" font-family="sans-serif" fill="#555">10</text>
<line x1="869.4" y1="283.3" x2="869.4" y2="287.3" stroke="#666" stroke-width="1"/>
<text x="869.4" y="299.3" text-anchor="middle" font-size="10" font-family="sans-serif" fill="#555">258</text>
<line x1="1016.2" y1="283.3" x2="1016.2" y2="287.3" stroke="#666" stroke-width="1"/>
<text x="1016.2" y="299.3" text-anchor="middle" font-size="10" font-family="sans-serif" fill="#555">505</text>
<line x1="1163.1" y1="283.3" x2="1163.1" y2="287.3" stroke="#666" stroke-width="1"/>
<text x="1163.1" y="299.3" text-anchor="middle" font-size="10" font-family="sans-serif" fill="#555">752</text>
<line x1="1310.0" y1="283.3" x2="1310.0" y2="287.3" stroke="#666" stroke-width="1"/>
<text x="1310.0" y="299.3" text-anchor="middle" font-size="10" font-family="sans-serif" fill="#555">1000</text>
<line x1="718.5" y1="283.3" x2="722.5" y2="283.3" stroke="#666" stroke-width="1"/>
<text x="714.5" y="286.3" text-anchor="end" font-size="10" font-family="sans-serif" fill="#555">-2.1e+00</text>
<line x1="718.5" y1="230.0" x2="722.5" y2="230.0" stroke="#666" stroke-width="1"/>
<text x="714.5" y="233.0" text-anchor="end" font-size="10" font-family="sans-serif" fill="#555">8.2e+00</text>
<line x1="718.5" y1="176.7" x2="722.5" y2="176.7" stroke="#666" stroke-width="1"/>
<text x="714.5" y="179.7" text-anchor="end" font-size="10" font-family="sans-serif" fill="#555">1.9e+01</text>
<line x1="718.5" y1="123.3" x2="722.5" y2="123.3" stroke="#666" stroke-width="1"/>
<text x="714.5" y="126.3" text-anchor="end" font-size="10" font-family="sans-serif" fill="#555">2.9e+01</text>
<line x1="718.5" y1="70.0" x2="722.5" y2="70.0" stroke="#666" stroke-width="1"/>
<text x="714.5" y="73.0" text-anchor="end" font-size="10" font-family="sans-serif" fill="#555">3.9e+01</text>
<polyline fill="none" stroke="#ff7f0e" stroke-width="2" points="722.5,84.7 728.4,172.5 734.4,138.4 740.3,189.8 746.2,186.4 752.2,222.8 758.1,220.9 764.0,220.8 770.0,205.4 775.9,228.5 781.8,213.2 787.8,218.4 793.7,241.7 799.6,249.0 805.6,239.2 811.5,240.7 817.4,250.0 823.4,241.5 829.3,256.7 835.3,259.5 841.2,251.2 847.1,252.4 853.1,255.3 859.0,257.3 864.9,250.6 870.9,259.3 876.8,257.5 882.7,259.3 888.7,262.4 894.6,259.6 900.5,256.2 906.5,259.1 912.4,259.8 918.3,261.9 924.3,263.0 930.2,258.6 936.1,262.7 942.1,263.0 948.0,260.4 953.9,260.7 959.9,261.8 965.8,258.8 971.7,263.2 977.7,264.5 983.6,260.1 989.5,255.6 995.5,263.1 1001.4,265.4 1007.3,263.5 1013.3,263.7 1019.2,266.7 1025.2,265.2 1031.1,265.3 1037.0,265.3 1043.0,266.0 1048.9,267.5 1054.8,264.9 1060.8,266.1 1066.7,265.5 1072.6,265.9 1078.6,266.2 1084.5,266.8 1090.4,267.4 1096.4,267.0 1102.3,267.3 1108.2,266.4 1114.2,266.7 1120.1,267.6 1126.0,267.5 1132.0,268.2 1137.9,266.9 1143.8,267.1 1149.8,267.8 1155.7,267.4 1161.6,267.1 1167.6,266.7 1173.5,268.6 1179.4,268.6 1185.4,266.8 1191.3,268.0 1197.2,266.9 1203.2,266.7 1209.1,266.9 1215.1,267.7 1221.0,267.5 1226.9,268.6 1232.9,268.1 1238.8,268.4 1244.7,268.1 1250.7,268.2 1256.6,267.5 1262.5,268.2 1268.5,268.6 1274.4,267.9 1280.3,267.8 1286.3,261.1 1292.2,266.7 1298.1,268.3 1304.1,268.3 1310.0,267.4" />
<text x="1016.2" y="313.3" text-anchor="middle" font-size="10" font-family="sans-serif" fill="#666">step</text>
<rect x="90.0" y="353.33333333333337" width="587.5" height="213.33333333333334" fill="#fafafa" stroke="#dddddd"/>
<text x="383.8" y="343.3" text-anchor="middle" font-size="13" font-family="sans-serif">Update Ratio</text>
<line x1="90.0" y1="566.7" x2="90.0" y2="570.7" stroke="#666" stroke-width="1"/>
<text x="90.0" y="582.7" text-anchor="middle" font-size="10" font-family="sans-serif" fill="#555">10</text>
<line x1="236.9" y1="566.7" x2="236.9" y2="570.7" stroke="#666" stroke-width="1"/>
<text x="236.9" y="582.7" text-anchor="middle" font-size="10" font-family="sans-serif" fill="#555">258</text>
<line x1="383.8" y1="566.7" x2="383.8" y2="570.7" stroke="#666" stroke-width="1"/>
<text x="383.8" y="582.7" text-anchor="middle" font-size="10" font-family="sans-serif" fill="#555">505</text>
<line x1="530.6" y1="566.7" x2="530.6" y2="570.7" stroke="#666" stroke-width="1"/>
<text x="530.6" y="582.7" text-anchor="middle" font-size="10" font-family="sans-serif" fill="#555">752</text>
<line x1="677.5" y1="566.7" x2="677.5" y2="570.7" stroke="#666" stroke-width="1"/>
<text x="677.5" y="582.7" text-anchor="middle" font-size="10" font-family="sans-serif" fill="#555">1000</text>
<line x1="86.0" y1="566.7" x2="90.0" y2="566.7" stroke="#666" stroke-width="1"/>
<text x="82.0" y="569.7" text-anchor="end" font-size="10" font-family="sans-serif" fill="#555">9.5e-03</text>
<line x1="86.0" y1="513.3" x2="90.0" y2="513.3" stroke="#666" stroke-width="1"/>
<text x="82.0" y="516.3" text-anchor="end" font-size="10" font-family="sans-serif" fill="#555">1.8e-02</text>
<line x1="86.0" y1="460.0" x2="90.0" y2="460.0" stroke="#666" stroke-width="1"/>
<text x="82.0" y="463.0" text-anchor="end" font-size="10" font-family="sans-serif" fill="#555">2.6e-02</text>
<line x1="86.0" y1="406.7" x2="90.0" y2="406.7" stroke="#666" stroke-width="1"/>
<text x="82.0" y="409.7" text-anchor="end" font-size="10" font-family="sans-serif" fill="#555">3.4e-02</text>
<line x1="86.0" y1="353.3" x2="90.0" y2="353.3" stroke="#666" stroke-width="1"/>
<text x="82.0" y="356.3" text-anchor="end" font-size="10" font-family="sans-serif" fill="#555">4.2e-02</text>
<polyline fill="none" stroke="#ff7f0e" stroke-width="2" points="90.0,368.0 95.9,370.0 101.9,371.8 107.8,373.9 113.7,375.9 119.7,378.1 125.6,380.3 131.5,382.3 137.5,384.3 143.4,387.3 149.3,390.4 155.3,391.0 161.2,395.9 167.1,400.1 173.1,401.9 179.0,403.3 184.9,406.2 190.9,413.1 196.8,418.2 202.8,425.6 208.7,424.0 214.6,431.5 220.6,437.6 226.5,438.3 232.4,443.0 238.4,450.2 244.3,453.8 250.2,461.1 256.2,462.9 262.1,466.9 268.0,470.5 274.0,476.4 279.9,479.6 285.8,482.9 291.8,488.5 297.7,489.5 303.6,494.7 309.6,498.5 315.5,502.7 321.4,501.7 327.4,507.9 333.3,505.5 339.2,510.3 345.2,515.8 351.1,512.2 357.0,512.2 363.0,516.6 368.9,520.1 374.8,520.2 380.8,523.2 386.7,527.4 392.7,525.5 398.6,528.1 404.5,527.4 410.5,529.9 416.4,534.2 422.3,531.4 428.3,532.2 434.2,533.8 440.1,538.6 446.1,537.0 452.0,539.4 457.9,539.8 463.9,539.8 469.8,541.5 475.7,539.2 481.7,541.1 487.6,542.4 493.5,543.2 499.5,545.2 505.4,542.6 511.3,543.4 517.3,546.0 523.2,545.8 529.1,542.7 535.1,543.7 541.0,546.3 546.9,545.6 552.9,546.3 558.8,546.8 564.7,544.2 570.7,546.0 576.6,546.4 582.6,547.1 588.5,548.3 594.4,549.4 600.4,549.1 606.3,548.9 612.2,549.7 618.2,549.5 624.1,541.4 630.0,551.0 636.0,551.3 641.9,550.3 647.8,543.4 653.8,550.5 659.7,551.5 665.6,551.2 671.6,549.9 677.5,552.0" />
<text x="383.8" y="596.7" text-anchor="middle" font-size="10" font-family="sans-serif" fill="#666">step</text>
<rect x="722.5" y="353.33333333333337" width="587.5" height="213.33333333333334" fill="#fafafa" stroke="#dddddd"/>
<text x="1016.2" y="343.3" text-anchor="middle" font-size="13" font-family="sans-serif">Grad-Update Cos</text>
<line x1="722.5" y1="566.7" x2="722.5" y2="570.7" stroke="#666" stroke-width="1"/>
<text x="722.5" y="582.7" text-anchor="middle" font-size="10" font-family="sans-serif" fill="#555">10</text>
<line x1="869.4" y1="566.7" x2="869.4" y2="570.7" stroke="#666" stroke-width="1"/>
<text x="869.4" y="582.7" text-anchor="middle" font-size="10" font-family="sans-serif" fill="#555">258</text>
<line x1="1016.2" y1="566.7" x2="1016.2" y2="570.7" stroke="#666" stroke-width="1"/>
<text x="1016.2" y="582.7" text-anchor="middle" font-size="10" font-family="sans-serif" fill="#555">505</text>
<line x1="1163.1" y1="566.7" x2="1163.1" y2="570.7" stroke="#666" stroke-width="1"/>
<text x="1163.1" y="582.7" text-anchor="middle" font-size="10" font-family="sans-serif" fill="#555">752</text>
<line x1="1310.0" y1="566.7" x2="1310.0" y2="570.7" stroke="#666" stroke-width="1"/>
<text x="1310.0" y="582.7" text-anchor="middle" font-size="10" font-family="sans-serif" fill="#555">1000</text>
<line x1="718.5" y1="566.7" x2="722.5" y2="566.7" stroke="#666" stroke-width="1"/>
<text x="714.5" y="569.7" text-anchor="end" font-size="10" font-family="sans-serif" fill="#555">-0.532</text>
<line x1="718.5" y1="513.3" x2="722.5" y2="513.3" stroke="#666" stroke-width="1"/>
<text x="714.5" y="516.3" text-anchor="end" font-size="10" font-family="sans-serif" fill="#555">-0.401</text>
<line x1="718.5" y1="460.0" x2="722.5" y2="460.0" stroke="#666" stroke-width="1"/>
<text x="714.5" y="463.0" text-anchor="end" font-size="10" font-family="sans-serif" fill="#555">-0.270</text>
<line x1="718.5" y1="406.7" x2="722.5" y2="406.7" stroke="#666" stroke-width="1"/>
<text x="714.5" y="409.7" text-anchor="end" font-size="10" font-family="sans-serif" fill="#555">-0.139</text>
<line x1="718.5" y1="353.3" x2="722.5" y2="353.3" stroke="#666" stroke-width="1"/>
<text x="714.5" y="356.3" text-anchor="end" font-size="10" font-family="sans-serif" fill="#555">-0.009</text>
<polyline fill="none" stroke="#ff7f0e" stroke-width="2" points="722.5,509.4 728.4,552.0 734.4,485.6 740.3,448.8 746.2,440.5 752.2,414.5 758.1,408.9 764.0,401.7 770.0,414.8 775.9,397.1 781.8,391.7 787.8,397.8 793.7,391.8 799.6,385.6 805.6,392.5 811.5,383.5 817.4,382.4 823.4,380.8 829.3,382.2 835.3,379.9 841.2,378.9 847.1,374.4 853.1,372.0 859.0,376.1 864.9,369.4 870.9,376.5 876.8,374.9 882.7,374.5 888.7,373.2 894.6,374.4 900.5,370.4 906.5,371.5 912.4,369.7 918.3,373.1 924.3,372.2 930.2,372.3 936.1,372.7 942.1,370.3 948.0,368.5 953.9,370.8 959.9,382.8 965.8,368.5 971.7,373.9 977.7,376.8 983.6,370.9 989.5,368.5 995.5,371.3 1001.4,376.2 1007.3,368.0 1013.3,373.0 1019.2,374.1 1025.2,374.8 1031.1,373.9 1037.0,375.4 1043.0,394.7 1048.9,373.6 1054.8,369.5 1060.8,374.1 1066.7,370.4 1072.6,378.3 1078.6,375.8 1084.5,372.8 1090.4,377.9 1096.4,380.8 1102.3,378.8 1108.2,370.8 1114.2,376.1 1120.1,388.1 1126.0,380.9 1132.0,386.3 1137.9,378.4 1143.8,372.0 1149.8,381.8 1155.7,375.1 1161.6,391.1 1167.6,383.1 1173.5,374.2 1179.4,377.5 1185.4,434.8 1191.3,385.7 1197.2,383.9 1203.2,385.5 1209.1,370.7 1215.1,406.7 1221.0,374.2 1226.9,395.2 1232.9,379.7 1238.8,389.0 1244.7,374.9 1250.7,405.7 1256.6,388.7 1262.5,383.6 1268.5,394.5 1274.4,393.5 1280.3,388.7 1286.3,458.2 1292.2,383.7 1298.1,375.3 1304.1,383.2 1310.0,372.9" />
<text x="1016.2" y="596.7" text-anchor="middle" font-size="10" font-family="sans-serif" fill="#666">step</text>
<rect x="90.0" y="636.6666666666667" width="587.5" height="213.33333333333334" fill="#fafafa" stroke="#dddddd"/>
<text x="383.8" y="626.7" text-anchor="middle" font-size="13" font-family="sans-serif">Top Hessian Eig (power iter)</text>
<line x1="90.0" y1="850.0" x2="90.0" y2="854.0" stroke="#666" stroke-width="1"/>
<text x="90.0" y="866.0" text-anchor="middle" font-size="10" font-family="sans-serif" fill="#555">10</text>
<line x1="236.9" y1="850.0" x2="236.9" y2="854.0" stroke="#666" stroke-width="1"/>
<text x="236.9" y="866.0" text-anchor="middle" font-size="10" font-family="sans-serif" fill="#555">258</text>
<line x1="383.8" y1="850.0" x2="383.8" y2="854.0" stroke="#666" stroke-width="1"/>
<text x="383.8" y="866.0" text-anchor="middle" font-size="10" font-family="sans-serif" fill="#555">505</text>
<line x1="530.6" y1="850.0" x2="530.6" y2="854.0" stroke="#666" stroke-width="1"/>
<text x="530.6" y="866.0" text-anchor="middle" font-size="10" font-family="sans-serif" fill="#555">752</text>
<line x1="677.5" y1="850.0" x2="677.5" y2="854.0" stroke="#666" stroke-width="1"/>
<text x="677.5" y="866.0" text-anchor="middle" font-size="10" font-family="sans-serif" fill="#555">1000</text>
<line x1="86.0" y1="850.0" x2="90.0" y2="850.0" stroke="#666" stroke-width="1"/>
<text x="82.0" y="853.0" text-anchor="end" font-size="10" font-family="sans-serif" fill="#555">-8.7e+02</text>
<line x1="86.0" y1="796.7" x2="90.0" y2="796.7" stroke="#666" stroke-width="1"/>
<text x="82.0" y="799.7" text-anchor="end" font-size="10" font-family="sans-serif" fill="#555">-5.4e+02</text>
<line x1="86.0" y1="743.3" x2="90.0" y2="743.3" stroke="#666" stroke-width="1"/>
<text x="82.0" y="746.3" text-anchor="end" font-size="10" font-family="sans-serif" fill="#555">-2.1e+02</text>
<line x1="86.0" y1="690.0" x2="90.0" y2="690.0" stroke="#666" stroke-width="1"/>
<text x="82.0" y="693.0" text-anchor="end" font-size="10" font-family="sans-serif" fill="#555">1.2e+02</text>
<line x1="86.0" y1="636.7" x2="90.0" y2="636.7" stroke="#666" stroke-width="1"/>
<text x="82.0" y="639.7" text-anchor="end" font-size="10" font-family="sans-serif" fill="#555">4.5e+02</text>
<polyline fill="none" stroke="#ff7f0e" stroke-width="2" points="113.7,667.0 143.4,732.8 173.1,693.8 202.8,698.3 232.4,704.1 262.1,702.5 291.8,704.0 321.4,705.9 351.1,651.4 380.8,716.4 410.5,729.4 440.1,721.8 469.8,707.5 499.5,835.3 529.1,716.1 558.8,704.1 588.5,735.8 618.2,743.1 647.8,736.2 677.5,673.7" />
<text x="383.8" y="880.0" text-anchor="middle" font-size="10" font-family="sans-serif" fill="#666">step</text>
<rect x="722.5" y="636.6666666666667" width="587.5" height="213.33333333333334" fill="#fafafa" stroke="#dddddd"/>
<text x="1016.2" y="626.7" text-anchor="middle" font-size="13" font-family="sans-serif">Step Time (s)</text>
<line x1="722.5" y1="850.0" x2="722.5" y2="854.0" stroke="#666" stroke-width="1"/>
<text x="722.5" y="866.0" text-anchor="middle" font-size="10" font-family="sans-serif" fill="#555">10</text>
<line x1="869.4" y1="850.0" x2="869.4" y2="854.0" stroke="#666" stroke-width="1"/>
<text x="869.4" y="866.0" text-anchor="middle" font-size="10" font-family="sans-serif" fill="#555">258</text>
<line x1="1016.2" y1="850.0" x2="1016.2" y2="854.0" stroke="#666" stroke-width="1"/>
<text x="1016.2" y="866.0" text-anchor="middle" font-size="10" font-family="sans-serif" fill="#555">505</text>
<line x1="1163.1" y1="850.0" x2="1163.1" y2="854.0" stroke="#666" stroke-width="1"/>
<text x="1163.1" y="866.0" text-anchor="middle" font-size="10" font-family="sans-serif" fill="#555">752</text>
<line x1="1310.0" y1="850.0" x2="1310.0" y2="854.0" stroke="#666" stroke-width="1"/>
<text x="1310.0" y="866.0" text-anchor="middle" font-size="10" font-family="sans-serif" fill="#555">1000</text>
<line x1="718.5" y1="850.0" x2="722.5" y2="850.0" stroke="#666" stroke-width="1"/>
<text x="714.5" y="853.0" text-anchor="end" font-size="10" font-family="sans-serif" fill="#555">0.0099</text>
<line x1="718.5" y1="796.7" x2="722.5" y2="796.7" stroke="#666" stroke-width="1"/>
<text x="714.5" y="799.7" text-anchor="end" font-size="10" font-family="sans-serif" fill="#555">0.0312</text>
<line x1="718.5" y1="743.3" x2="722.5" y2="743.3" stroke="#666" stroke-width="1"/>
<text x="714.5" y="746.3" text-anchor="end" font-size="10" font-family="sans-serif" fill="#555">0.0525</text>
<line x1="718.5" y1="690.0" x2="722.5" y2="690.0" stroke="#666" stroke-width="1"/>
<text x="714.5" y="693.0" text-anchor="end" font-size="10" font-family="sans-serif" fill="#555">0.0738</text>
<line x1="718.5" y1="636.7" x2="722.5" y2="636.7" stroke="#666" stroke-width="1"/>
<text x="714.5" y="639.7" text-anchor="end" font-size="10" font-family="sans-serif" fill="#555">0.0951</text>
<polyline fill="none" stroke="#ff7f0e" stroke-width="2" points="722.5,651.4 728.4,835.0 734.4,833.1 740.3,833.7 746.2,832.2 752.2,834.8 758.1,834.5 764.0,834.0 770.0,834.5 775.9,832.8 781.8,833.9 787.8,833.1 793.7,833.9 799.6,832.3 805.6,833.0 811.5,833.7 817.4,834.0 823.4,834.4 829.3,832.3 835.3,833.9 841.2,833.9 847.1,834.0 853.1,834.2 859.0,834.8 864.9,833.8 870.9,833.5 876.8,834.9 882.7,834.2 888.7,834.4 894.6,832.7 900.5,834.1 906.5,834.3 912.4,834.1 918.3,833.9 924.3,834.0 930.2,833.8 936.1,834.1 942.1,834.3 948.0,834.5 953.9,830.8 959.9,834.1 965.8,834.8 971.7,834.5 977.7,834.3 983.6,834.6 989.5,833.9 995.5,834.8 1001.4,835.0 1007.3,834.8 1013.3,833.1 1019.2,833.9 1025.2,834.3 1031.1,834.7 1037.0,834.4 1043.0,834.0 1048.9,834.3 1054.8,833.9 1060.8,833.6 1066.7,835.0 1072.6,834.4 1078.6,833.7 1084.5,833.9 1090.4,834.3 1096.4,834.1 1102.3,834.2 1108.2,834.3 1114.2,834.2 1120.1,834.4 1126.0,834.6 1132.0,834.1 1137.9,833.9 1143.8,833.5 1149.8,834.8 1155.7,834.7 1161.6,834.7 1167.6,833.7 1173.5,834.5 1179.4,834.7 1185.4,834.0 1191.3,835.1 1197.2,832.6 1203.2,835.3 1209.1,834.3 1215.1,835.2 1221.0,834.7 1226.9,833.8 1232.9,834.1 1238.8,834.4 1244.7,834.2 1250.7,834.4 1256.6,833.6 1262.5,834.3 1268.5,834.5 1274.4,834.1 1280.3,834.9 1286.3,833.9 1292.2,834.5 1298.1,833.4 1304.1,834.3 1310.0,833.3" />
<text x="1016.2" y="880.0" text-anchor="middle" font-size="10" font-family="sans-serif" fill="#666">step</text>
<line x1="1140" y1="40" x2="1164" y2="40" stroke="#ff7f0e" stroke-width="3"/>
<text x="1170" y="44" font-size="12" font-family="sans-serif">adafactor</text>
</svg>
