<svg xmlns="http://www.w3.org/2000/svg" width="1400" height="920" viewBox="0 0 1400 920">
<rect x="0" y="0" width="100%" height="100%" fill="#ffffff" />
<text x="700.0" y="35" text-anchor="middle" font-size="22" font-family="sans-serif">Optimizer Dynamics Diagnostics</text>
<rect x="90.0" y="70.0" width="587.5" height="213.33333333333334" fill="#fafafa" stroke="#dddddd"/>
<text x="383.8" y="60.0" text-anchor="middle" font-size="13" font-family="sans-serif">Loss</text>
<line x1="90.0" y1="283.3" x2="90.0" y2="287.3" stroke="#666" stroke-width="1"/>
<text x="90.0" y="299.3" text-anchor="middle" font-size="10" font-family="sans-serif" fill="#555">10</text>
<line x1="236.9" y1="283.3" x2="236.9" y2="287.3" stroke="#666" stroke-width="1"/>
<text x="236.9" y="299.3" text-anchor="middle" font-size="10" font-family="sans-serif" fill="#555">258</text>
<line x1="383.8" y1="283.3" x2="383.8" y2="287.3" stroke="#666" stroke-width="1"/>
<text x="383.8" y="299.3" text-anchor="middle" font-size="10" font-family="sans-serif" fill="#555">505</text>
<line x1="530.6" y1="283.3" x2="530.6" y2="287.3" stroke="#666" stroke-width="1"/>
<text x="530.6" y="299.3" text-anchor="middle" font-size="10" font-family="sans-serif" fill="#555">752</text>
<line x1="677.5" y1="283.3" x2="677.5" y2="287.3" stroke="#666" stroke-width="1"/>
<text x="677.5" y="299.3" text-anchor="middle" font-size="10" font-family="sans-serif" fill="#555">1000</text>
<line x1="86.0" y1="283.3" x2="90.0" y2="283.3" stroke="#666" stroke-width="1"/>
<text x="82.0" y="286.3" text-anchor="end" font-size="10" font-family="sans-serif" fill="#555">-4.17</text>
<line x1="86.0" y1="230.0" x2="90.0" y2="230.0" stroke="#666" stroke-width="1"/>
<text x="82.0" y="233.0" text-anchor="end" font-size="10" font-family="sans-serif" fill="#555">19.74</text>
<line x1="86.0" y1="176.7" x2="90.0" y2="176.7" stroke="#666" stroke-width="1"/>
<text x="82.0" y="179.7" text-anchor="end" font-size="10" font-family="sans-serif" fill="#555">43.64</text>
<line x1="86.0" y1="123.3" x2="90.0" y2="123.3" stroke="#666" stroke-width="1"/>
<text x="82.0" y="126.3" text-anchor="end" font-size="10" font-family="sans-serif" fill="#555">67.55</text>
<line x1="86.0" y1="70.0" x2="90.0" y2="70.0" stroke="#666" stroke-width="1"/>
<text x="82.0" y="73.0" text-anchor="end" font-size="10" font-family="sans-serif" fill="#555">91.45</text>
<polyline fill="none" stroke="#d62728" stroke-width="2" points="90.0,84.7 95.9,250.1 101.9,260.8 107.8,265.0 113.7,266.2 119.7,266.8 125.6,267.0 131.5,267.1 137.5,267.2 143.4,267.4 149.3,267.4 155.3,267.5 161.2,267.5 167.1,267.6 173.1,267.6 179.0,267.7 184.9,267.7 190.9,267.8 196.8,267.8 202.8,267.8 208.7,267.9 214.6,267.9 220.6,267.9 226.5,268.0 232.4,268.0 238.4,268.0 244.3,268.0 250.2,268.0 256.2,268.1 262.1,268.1 268.0,268.1 274.0,268.1 279.9,268.1 285.8,268.2 291.8,268.2 297.7,268.2 303.6,268.2 309.6,268.3 315.5,268.3 321.4,268.3 327.4,268.2 333.3,268.3 339.2,268.3 345.2,268.3 351.1,268.3 357.0,268.3 363.0,268.3 368.9,268.4 374.8,268.3 380.8,268.4 386.7,268.3 392.7,268.3 398.6,268.4 404.5,268.4 410.5,268.4 416.4,268.4 422.3,268.4 428.3,268.5 434.2,268.4 440.1,268.4 446.1,268.4 452.0,268.4 457.9,268.4 463.9,268.4 469.8,268.4 475.7,268.5 481.7,268.5 487.6,268.4 493.5,268.4 499.5,268.5 505.4,268.5 511.3,268.5 517.3,268.5 523.2,268.5 529.1,268.5 535.1,268.5 541.0,268.5 546.9,268.4 552.9,268.5 558.8,268.5 564.7,268.5 570.7,268.5 576.6,268.5 582.6,268.6 588.5,268.5 594.4,268.5 600.4,268.6 606.3,268.5 612.2,268.5 618.2,268.5 624.1,268.5 630.0,268.6 636.0,268.5 641.9,268.6 647.8,268.6 653.8,268.6 659.7,268.6 665.6,268.5 671.6,268.6 677.5,268.5" />
<text x="383.8" y="313.3" text-anchor="middle" font-size="10" font-family="sans-serif" fill="#666">step</text>
<rect x="722.5" y="70.0" width="587.5" height="213.33333333333334" fill="#fafafa" stroke="#dddddd"/>
<text x="1016.2" y="60.0" text-anchor="middle" font-size="13" font-family="sans-serif">Grad Norm (L2)</text>
<line x1="722.5" y1="283.3" x2="722.5" y2="287.3" stroke="#666" stroke-width="1"/>
<text x="722.5" y="299.3" text-anchor="middle" font-size="10" font-family="sans-serif" fill="#555">10</text>
<line x1="869.4" y1="283.3" x2="869.4" y2="287.3" stroke="#666" stroke-width="1"/>
<text x="869.4" y="299.3" text-anchor="middle" font-size="10" font-family="sans-serif" fill="#555">258</text>
<line x1="1016.2" y1="283.3" x2="1016.2" y2="287.3" stroke="#666" stroke-width="1"/>
<text x="1016.2" y="299.3" text-anchor="middle" font-size="10" font-family="sans-serif" fill="#555">505</text>
<line x1="1163.1" y1="283.3" x2="1163.1" y2="287.3" stroke="#666" stroke-width="1"/>
<text x="1163.1" y="299.3" text-anchor="middle" font-size="10" font-family="sans-serif" fill="#555">752</text>
<line x1="1310.0" y1="283.3" x2="1310.0" y2="287.3" stroke="#666" stroke-width="1"/>
<text x="1310.0" y="299.3" text-anchor="middle" font-size="10" font-family="sans-serif" fill="#555">1000</text>
<line x1="718.5" y1="283.3" x2="722.5" y2="283.3" stroke="#666" stroke-width="1"/>
<text x="714.5" y="286.3" text-anchor="end" font-size="10" font-family="sans-serif" fill="#555">-1.8e+00</text>
<line x1="718.5" y1="230.0" x2="722.5" y2="230.0" stroke="#666" stroke-width="1"/>
<text x="714.5" y="233.0" text-anchor="end" font-size="10" font-family="sans-serif" fill="#555">5.5e+00</text>
<line x1="718.5" y1="176.7" x2="722.5" y2="176.7" stroke="#666" stroke-width="1"/>
<text x="714.5" y="179.7" text-anchor="end" font-size="10" font-family="sans-serif" fill="#555">1.3e+01</text>
<line x1="718.5" y1="123.3" x2="722.5" y2="123.3" stroke="#666" stroke-width="1"/>
<text x="714.5" y="126.3" text-anchor="end" font-size="10" font-family="sans-serif" fill="#555">2.0e+01</text>
<line x1="718.5" y1="70.0" x2="722.5" y2="70.0" stroke="#666" stroke-width="1"/>
<text x="714.5" y="73.0" text-anchor="end" font-size="10" font-family="sans-serif" fill="#555">2.7e+01</text>
<polyline fill="none" stroke="#d62728" stroke-width="2" points="722.5,84.7 728.4,209.8 734.4,229.8 740.3,238.8 746.2,246.8 752.2,255.2 758.1,260.1 764.0,261.6 770.0,263.0 775.9,261.2 781.8,261.4 787.8,260.7 793.7,259.8 799.6,264.4 805.6,263.4 811.5,263.8 817.4,266.1 823.4,264.9 829.3,265.4 835.3,264.6 841.2,266.1 847.1,266.2 853.1,265.4 859.0,264.9 864.9,263.1 870.9,265.6 876.8,266.5 882.7,267.2 888.7,266.3 894.6,266.9 900.5,265.6 906.5,265.3 912.4,267.0 918.3,265.0 924.3,265.7 930.2,265.8 936.1,266.8 942.1,267.3 948.0,266.5 953.9,267.2 959.9,263.5 965.8,267.3 971.7,266.5 977.7,266.6 983.6,267.2 989.5,267.0 995.5,267.2 1001.4,268.1 1007.3,268.0 1013.3,266.9 1019.2,266.7 1025.2,266.1 1031.1,267.9 1037.0,267.4 1043.0,266.4 1048.9,267.2 1054.8,267.0 1060.8,267.4 1066.7,267.1 1072.6,267.2 1078.6,267.8 1084.5,267.6 1090.4,267.5 1096.4,267.6 1102.3,267.7 1108.2,266.9 1114.2,267.5 1120.1,267.8 1126.0,267.4 1132.0,267.6 1137.9,267.0 1143.8,267.9 1149.8,267.8 1155.7,267.9 1161.6,267.9 1167.6,267.8 1173.5,267.1 1179.4,267.5 1185.4,267.6 1191.3,266.7 1197.2,267.7 1203.2,267.1 1209.1,267.6 1215.1,268.2 1221.0,267.8 1226.9,267.2 1232.9,268.3 1238.8,268.1 1244.7,267.8 1250.7,267.3 1256.6,267.9 1262.5,268.6 1268.5,268.0 1274.4,268.1 1280.3,267.6 1286.3,268.0 1292.2,268.1 1298.1,268.1 1304.1,268.0 1310.0,268.1" />
<text x="1016.2" y="313.3" text-anchor="middle" font-size="10" font-family="sans-serif" fill="#666">step</text>
<rect x="90.0" y="353.33333333333337" width="587.5" height="213.33333333333334" fill="#fafafa" stroke="#dddddd"/>
<text x="383.8" y="343.3" text-anchor="middle" font-size="13" font-family="sans-serif">Update Ratio</text>
<line x1="90.0" y1="566.7" x2="90.0" y2="570.7" stroke="#666" stroke-width="1"/>
<text x="90.0" y="582.7" text-anchor="middle" font-size="10" font-family="sans-serif" fill="#555">10</text>
<line x1="236.9" y1="566.7" x2="236.9" y2="570.7" stroke="#666" stroke-width="1"/>
<text x="236.9" y="582.7" text-anchor="middle" font-size="10" font-family="sans-serif" fill="#555">258</text>
<line x1="383.8" y1="566.7" x2="383.8" y2="570.7" stroke="#666" stroke-width="1"/>
<text x="383.8" y="582.7" text-anchor="middle" font-size="10" font-family="sans-serif" fill="#555">505</text>
<line x1="530.6" y1="566.7" x2="530.6" y2="570.7" stroke="#666" stroke-width="1"/>
<text x="530.6" y="582.7" text-anchor="middle" font-size="10" font-family="sans-serif" fill="#555">752</text>
<line x1="677.5" y1="566.7" x2="677.5" y2="570.7" stroke="#666" stroke-width="1"/>
<text x="677.5" y="582.7" text-anchor="middle" font-size="10" font-family="sans-serif" fill="#555">1000</text>
<line x1="86.0" y1="566.7" x2="90.0" y2="566.7" stroke="#666" stroke-width="1"/>
<text x="82.0" y="569.7" text-anchor="end" font-size="10" font-family="sans-serif" fill="#555">8.1e-04</text>
<line x1="86.0" y1="513.3" x2="90.0" y2="513.3" stroke="#666" stroke-width="1"/>
<text x="82.0" y="516.3" text-anchor="end" font-size="10" font-family="sans-serif" fill="#555">1.5e-03</text>
<line x1="86.0" y1="460.0" x2="90.0" y2="460.0" stroke="#666" stroke-width="1"/>
<text x="82.0" y="463.0" text-anchor="end" font-size="10" font-family="sans-serif" fill="#555">2.2e-03</text>
<line x1="86.0" y1="406.7" x2="90.0" y2="406.7" stroke="#666" stroke-width="1"/>
<text x="82.0" y="409.7" text-anchor="end" font-size="10" font-family="sans-serif" fill="#555">3.0e-03</text>
<line x1="86.0" y1="353.3" x2="90.0" y2="353.3" stroke="#666" stroke-width="1"/>
<text x="82.0" y="356.3" text-anchor="end" font-size="10" font-family="sans-serif" fill="#555">3.7e-03</text>
<polyline fill="none" stroke="#d62728" stroke-width="2" points="90.0,368.0 95.9,498.0 101.9,539.1 107.8,548.3 113.7,550.7 119.7,551.3 125.6,551.4 131.5,551.5 137.5,551.6 143.4,551.7 149.3,551.7 155.3,551.7 161.2,551.6 167.1,551.7 173.1,551.6 179.0,551.7 184.9,551.7 190.9,551.8 196.8,551.7 202.8,551.8 208.7,551.8 214.6,551.8 220.6,551.8 226.5,551.8 232.4,551.8 238.4,551.8 244.3,551.8 250.2,551.8 256.2,551.8 262.1,551.8 268.0,551.8 274.0,551.8 279.9,551.8 285.8,551.8 291.8,551.8 297.7,551.8 303.6,551.8 309.6,551.8 315.5,551.8 321.4,551.8 327.4,551.8 333.3,551.8 339.2,551.8 345.2,551.8 351.1,551.8 357.0,551.8 363.0,551.8 368.9,551.8 374.8,551.8 380.8,551.8 386.7,551.8 392.7,551.8 398.6,551.9 404.5,551.9 410.5,551.9 416.4,551.8 422.3,551.9 428.3,551.9 434.2,551.9 440.1,551.8 446.1,551.8 452.0,551.8 457.9,551.9 463.9,551.8 469.8,551.9 475.7,551.9 481.7,551.8 487.6,551.9 493.5,551.9 499.5,551.9 505.4,551.9 511.3,551.9 517.3,551.9 523.2,551.9 529.1,551.9 535.1,551.9 541.0,551.9 546.9,551.8 552.9,551.9 558.8,551.9 564.7,551.9 570.7,551.8 576.6,551.9 582.6,551.9 588.5,551.9 594.4,551.9 600.4,551.9 606.3,551.9 612.2,551.9 618.2,551.9 624.1,551.9 630.0,551.9 636.0,551.9 641.9,551.9 647.8,551.9 653.8,551.9 659.7,552.0 665.6,551.9 671.6,551.9 677.5,551.9" />
<text x="383.8" y="596.7" text-anchor="middle" font-size="10" font-family="sans-serif" fill="#666">step</text>
<rect x="722.5" y="353.33333333333337" width="587.5" height="213.33333333333334" fill="#fafafa" stroke="#dddddd"/>
<text x="1016.2" y="343.3" text-anchor="middle" font-size="13" font-family="sans-serif">Grad-Update Cos</text>
<line x1="722.5" y1="566.7" x2="722.5" y2="570.7" stroke="#666" stroke-width="1"/>
<text x="722.5" y="582.7" text-anchor="middle" font-size="10" font-family="sans-serif" fill="#555">10</text>
<line x1="869.4" y1="566.7" x2="869.4" y2="570.7" stroke="#666" stroke-width="1"/>
<text x="869.4" y="582.7" text-anchor="middle" font-size="10" font-family="sans-serif" fill="#555">258</text>
<line x1="1016.2" y1="566.7" x2="1016.2" y2="570.7" stroke="#666" stroke-width="1"/>
<text x="1016.2" y="582.7" text-anchor="middle" font-size="10" font-family="sans-serif" fill="#555">505</text>
<line x1="1163.1" y1="566.7" x2="1163.1" y2="570.7" stroke="#666" stroke-width="1"/>
<text x="1163.1" y="582.7" text-anchor="middle" font-size="10" font-family="sans-serif" fill="#555">752</text>
<line x1="1310.0" y1="566.7" x2="1310.0" y2="570.7" stroke="#666" stroke-width="1"/>
<text x="1310.0" y="582.7" text-anchor="middle" font-size="10" font-family="sans-serif" fill="#555">1000</text>
<line x1="718.5" y1="566.7" x2="722.5" y2="566.7" stroke="#666" stroke-width="1"/>
<text x="714.5" y="569.7" text-anchor="end" font-size="10" font-family="sans-serif" fill="#555">-1.080</text>
<line x1="718.5" y1="513.3" x2="722.5" y2="513.3" stroke="#666" stroke-width="1"/>
<text x="714.5" y="516.3" text-anchor="end" font-size="10" font-family="sans-serif" fill="#555">-0.790</text>
<line x1="718.5" y1="460.0" x2="722.5" y2="460.0" stroke="#666" stroke-width="1"/>
<text x="714.5" y="463.0" text-anchor="end" font-size="10" font-family="sans-serif" fill="#555">-0.500</text>
<line x1="718.5" y1="406.7" x2="722.5" y2="406.7" stroke="#666" stroke-width="1"/>
<text x="714.5" y="409.7" text-anchor="end" font-size="10" font-family="sans-serif" fill="#555">-0.210</text>
<line x1="718.5" y1="353.3" x2="722.5" y2="353.3" stroke="#666" stroke-width="1"/>
<text x="714.5" y="356.3" text-anchor="end" font-size="10" font-family="sans-serif" fill="#555">0.080</text>
<line x1="722.5" y1="368.0" x2="1310.0" y2="368.0" stroke="#666666" stroke-width="1.5" stroke-dasharray="6,4"/>
<text x="1304.0" y="364.0" text-anchor="end" font-size="10" font-family="sans-serif" fill="#666666">0</text>
<line x1="722.5" y1="552.0" x2="1310.0" y2="552.0" stroke="#999999" stroke-width="1.5" stroke-dasharray="6,4"/>
<text x="1304.0" y="548.0" text-anchor="end" font-size="10" font-family="sans-serif" fill="#999999">-1</text>
<polyline fill="none" stroke="#d62728" stroke-width="2" points="722.5,402.8 728.4,400.3 734.4,412.7 740.3,388.2 746.2,374.3 752.2,382.6 758.1,377.8 764.0,376.4 770.0,374.0 775.9,373.1 781.8,372.6 787.8,372.4 793.7,378.9 799.6,372.5 805.6,377.4 811.5,372.6 817.4,371.1 823.4,371.3 829.3,376.0 835.3,371.1 841.2,373.9 847.1,373.4 853.1,373.9 859.0,374.2 864.9,374.1 870.9,372.0 876.8,373.8 882.7,369.8 888.7,374.0 894.6,373.6 900.5,373.9 906.5,373.7 912.4,371.2 918.3,371.3 924.3,371.8 930.2,372.2 936.1,368.4 942.1,371.3 948.0,373.0 953.9,373.0 959.9,376.3 965.8,369.8 971.7,371.3 977.7,373.7 983.6,372.2 989.5,373.7 995.5,369.5 1001.4,370.5 1007.3,369.6 1013.3,371.7 1019.2,370.6 1025.2,374.0 1031.1,370.5 1037.0,371.8 1043.0,372.7 1048.9,373.8 1054.8,371.7 1060.8,372.0 1066.7,373.7 1072.6,372.8 1078.6,371.8 1084.5,368.5 1090.4,371.6 1096.4,374.8 1102.3,372.8 1108.2,374.9 1114.2,374.9 1120.1,374.1 1126.0,371.8 1132.0,372.9 1137.9,372.1 1143.8,372.7 1149.8,373.3 1155.7,372.8 1161.6,370.5 1167.6,373.4 1173.5,374.7 1179.4,375.1 1185.4,369.8 1191.3,373.1 1197.2,371.1 1203.2,375.5 1209.1,373.9 1215.1,375.2 1221.0,374.4 1226.9,371.4 1232.9,370.0 1238.8,375.8 1244.7,374.7 1250.7,375.1 1256.6,373.3 1262.5,371.7 1268.5,373.6 1274.4,373.2 1280.3,375.7 1286.3,371.8 1292.2,373.5 1298.1,370.6 1304.1,374.1 1310.0,372.0" />
<text x="1016.2" y="596.7" text-anchor="middle" font-size="10" font-family="sans-serif" fill="#666">step</text>
<rect x="90.0" y="636.6666666666667" width="587.5" height="213.33333333333334" fill="#fafafa" stroke="#dddddd"/>
<text x="383.8" y="626.7" text-anchor="middle" font-size="13" font-family="sans-serif">Hessian 2-Norm (power iter)</text>
<line x1="90.0" y1="850.0" x2="90.0" y2="854.0" stroke="#666" stroke-width="1"/>
<text x="90.0" y="866.0" text-anchor="middle" font-size="10" font-family="sans-serif" fill="#555">10</text>
<line x1="236.9" y1="850.0" x2="236.9" y2="854.0" stroke="#666" stroke-width="1"/>
<text x="236.9" y="866.0" text-anchor="middle" font-size="10" font-family="sans-serif" fill="#555">258</text>
<line x1="383.8" y1="850.0" x2="383.8" y2="854.0" stroke="#666" stroke-width="1"/>
<text x="383.8" y="866.0" text-anchor="middle" font-size="10" font-family="sans-serif" fill="#555">505</text>
<line x1="530.6" y1="850.0" x2="530.6" y2="854.0" stroke="#666" stroke-width="1"/>
<text x="530.6" y="866.0" text-anchor="middle" font-size="10" font-family="sans-serif" fill="#555">752</text>
<line x1="677.5" y1="850.0" x2="677.5" y2="854.0" stroke="#666" stroke-width="1"/>
<text x="677.5" y="866.0" text-anchor="middle" font-size="10" font-family="sans-serif" fill="#555">1000</text>
<line x1="86.0" y1="850.0" x2="90.0" y2="850.0" stroke="#666" stroke-width="1"/>
<text x="82.0" y="853.0" text-anchor="end" font-size="10" font-family="sans-serif" fill="#555">-6.3e+00</text>
<line x1="86.0" y1="796.7" x2="90.0" y2="796.7" stroke="#666" stroke-width="1"/>
<text x="82.0" y="799.7" text-anchor="end" font-size="10" font-family="sans-serif" fill="#555">1.7e+01</text>
<line x1="86.0" y1="743.3" x2="90.0" y2="743.3" stroke="#666" stroke-width="1"/>
<text x="82.0" y="746.3" text-anchor="end" font-size="10" font-family="sans-serif" fill="#555">4.0e+01</text>
<line x1="86.0" y1="690.0" x2="90.0" y2="690.0" stroke="#666" stroke-width="1"/>
<text x="82.0" y="693.0" text-anchor="end" font-size="10" font-family="sans-serif" fill="#555">6.3e+01</text>
<line x1="86.0" y1="636.7" x2="90.0" y2="636.7" stroke="#666" stroke-width="1"/>
<text x="82.0" y="639.7" text-anchor="end" font-size="10" font-family="sans-serif" fill="#555">8.6e+01</text>
<line x1="90.0" y1="835.3" x2="677.5" y2="835.3" stroke="#666666" stroke-width="1.5" stroke-dasharray="6,4"/>
<text x="671.5" y="831.3" text-anchor="end" font-size="10" font-family="sans-serif" fill="#666666">0</text>
<polyline fill="none" stroke="#d62728" stroke-width="2" points="113.7,651.4 143.4,723.1 173.1,670.2 202.8,669.9 232.4,685.7 262.1,701.3 291.8,716.9 321.4,713.2 351.1,726.7 380.8,737.2 410.5,736.8 440.1,746.6 469.8,759.1 499.5,760.9 529.1,773.0 558.8,773.4 588.5,780.5 618.2,780.5 647.8,794.3 677.5,789.3" />
<text x="383.8" y="880.0" text-anchor="middle" font-size="10" font-family="sans-serif" fill="#666">step</text>
<rect x="722.5" y="636.6666666666667" width="587.5" height="213.33333333333334" fill="#fafafa" stroke="#dddddd"/>
<text x="1016.2" y="626.7" text-anchor="middle" font-size="13" font-family="sans-serif">Step Time (s)</text>
<line x1="722.5" y1="850.0" x2="722.5" y2="854.0" stroke="#666" stroke-width="1"/>
<text x="722.5" y="866.0" text-anchor="middle" font-size="10" font-family="sans-serif" fill="#555">10</text>
<line x1="869.4" y1="850.0" x2="869.4" y2="854.0" stroke="#666" stroke-width="1"/>
<text x="869.4" y="866.0" text-anchor="middle" font-size="10" font-family="sans-serif" fill="#555">258</text>
<line x1="1016.2" y1="850.0" x2="1016.2" y2="854.0" stroke="#666" stroke-width="1"/>
<text x="1016.2" y="866.0" text-anchor="middle" font-size="10" font-family="sans-serif" fill="#555">505</text>
<line x1="1163.1" y1="850.0" x2="1163.1" y2="854.0" stroke="#666" stroke-width="1"/>
<text x="1163.1" y="866.0" text-anchor="middle" font-size="10" font-family="sans-serif" fill="#555">752</text>
<line x1="1310.0" y1="850.0" x2="1310.0" y2="854.0" stroke="#666" stroke-width="1"/>
<text x="1310.0" y="866.0" text-anchor="middle" font-size="10" font-family="sans-serif" fill="#555">1000</text>
<line x1="718.5" y1="850.0" x2="722.5" y2="850.0" stroke="#666" stroke-width="1"/>
<text x="714.5" y="853.0" text-anchor="end" font-size="10" font-family="sans-serif" fill="#555">0.0019</text>
<line x1="718.5" y1="796.7" x2="722.5" y2="796.7" stroke="#666" stroke-width="1"/>
<text x="714.5" y="799.7" text-anchor="end" font-size="10" font-family="sans-serif" fill="#555">0.0216</text>
<line x1="718.5" y1="743.3" x2="722.5" y2="743.3" stroke="#666" stroke-width="1"/>
<text x="714.5" y="746.3" text-anchor="end" font-size="10" font-family="sans-serif" fill="#555">0.0413</text>
<line x1="718.5" y1="690.0" x2="722.5" y2="690.0" stroke="#666" stroke-width="1"/>
<text x="714.5" y="693.0" text-anchor="end" font-size="10" font-family="sans-serif" fill="#555">0.0610</text>
<line x1="718.5" y1="636.7" x2="722.5" y2="636.7" stroke="#666" stroke-width="1"/>
<text x="714.5" y="639.7" text-anchor="end" font-size="10" font-family="sans-serif" fill="#555">0.0807</text>
<polyline fill="none" stroke="#d62728" stroke-width="2" points="722.5,651.4 728.4,834.5 734.4,833.3 740.3,834.2 746.2,833.2 752.2,832.9 758.1,834.2 764.0,833.5 770.0,833.5 775.9,833.9 781.8,834.1 787.8,832.1 793.7,834.0 799.6,834.2 805.6,834.4 811.5,833.5 817.4,833.8 823.4,833.6 829.3,832.1 835.3,834.3 841.2,834.2 847.1,834.4 853.1,834.0 859.0,834.0 864.9,834.5 870.9,834.2 876.8,833.5 882.7,834.0 888.7,834.2 894.6,834.0 900.5,834.0 906.5,834.2 912.4,834.1 918.3,834.3 924.3,832.9 930.2,834.1 936.1,834.5 942.1,833.3 948.0,834.1 953.9,834.4 959.9,834.5 965.8,834.9 971.7,834.2 977.7,834.0 983.6,833.8 989.5,834.0 995.5,833.2 1001.4,833.3 1007.3,834.0 1013.3,833.4 1019.2,834.7 1025.2,834.1 1031.1,834.1 1037.0,834.6 1043.0,834.3 1048.9,834.6 1054.8,834.0 1060.8,834.4 1066.7,834.2 1072.6,834.4 1078.6,834.3 1084.5,834.3 1090.4,834.2 1096.4,834.8 1102.3,834.4 1108.2,834.1 1114.2,835.3 1120.1,835.0 1126.0,834.7 1132.0,834.1 1137.9,834.3 1143.8,834.6 1149.8,834.2 1155.7,834.8 1161.6,834.5 1167.6,834.3 1173.5,834.2 1179.4,834.5 1185.4,834.5 1191.3,834.8 1197.2,834.5 1203.2,834.5 1209.1,834.6 1215.1,833.9 1221.0,833.9 1226.9,834.0 1232.9,834.6 1238.8,834.3 1244.7,834.8 1250.7,833.9 1256.6,834.5 1262.5,834.6 1268.5,834.9 1274.4,833.8 1280.3,834.6 1286.3,834.4 1292.2,833.1 1298.1,834.6 1304.1,834.7 1310.0,834.6" />
<text x="1016.2" y="880.0" text-anchor="middle" font-size="10" font-family="sans-serif" fill="#666">step</text>
<line x1="1140" y1="40" x2="1164" y2="40" stroke="#d62728" stroke-width="3"/>
<text x="1170" y="44" font-size="12" font-family="sans-serif">sgd</text>
</svg>
