<svg xmlns="http://www.w3.org/2000/svg" width="1400" height="920" viewBox="0 0 1400 920">
<rect x="0" y="0" width="100%" height="100%" fill="#ffffff" />
<text x="700.0" y="35" text-anchor="middle" font-size="22" font-family="sans-serif">Optimizer Dynamics Diagnostics</text>
<rect x="90.0" y="70.0" width="587.5" height="213.33333333333334" fill="#fafafa" stroke="#dddddd"/>
<text x="383.8" y="60.0" text-anchor="middle" font-size="13" font-family="sans-serif">Loss</text>
<line x1="90.0" y1="283.3" x2="90.0" y2="287.3" stroke="#666" stroke-width="1"/>
<text x="90.0" y="299.3" text-anchor="middle" font-size="10" font-family="sans-serif" fill="#555">10</text>
<line x1="236.9" y1="283.3" x2="236.9" y2="287.3" stroke="#666" stroke-width="1"/>
<text x="236.9" y="299.3" text-anchor="middle" font-size="10" font-family="sans-serif" fill="#555">258</text>
<line x1="383.8" y1="283.3" x2="383.8" y2="287.3" stroke="#666" stroke-width="1"/>
<text x="383.8" y="299.3" text-anchor="middle" font-size="10" font-family="sans-serif" fill="#555">505</text>
<line x1="530.6" y1="283.3" x2="530.6" y2="287.3" stroke="#666" stroke-width="1"/>
<text x="530.6" y="299.3" text-anchor="middle" font-size="10" font-family="sans-serif" fill="#555">752</text>
<line x1="677.5" y1="283.3" x2="677.5" y2="287.3" stroke="#666" stroke-width="1"/>
<text x="677.5" y="299.3" text-anchor="middle" font-size="10" font-family="sans-serif" fill="#555">1000</text>
<line x1="86.0" y1="283.3" x2="90.0" y2="283.3" stroke="#666" stroke-width="1"/>
<text x="82.0" y="286.3" text-anchor="end" font-size="10" font-family="sans-serif" fill="#555">-4.70</text>
<line x1="86.0" y1="230.0" x2="90.0" y2="230.0" stroke="#666" stroke-width="1"/>
<text x="82.0" y="233.0" text-anchor="end" font-size="10" font-family="sans-serif" fill="#555">19.35</text>
<line x1="86.0" y1="176.7" x2="90.0" y2="176.7" stroke="#666" stroke-width="1"/>
<text x="82.0" y="179.7" text-anchor="end" font-size="10" font-family="sans-serif" fill="#555">43.40</text>
<line x1="86.0" y1="123.3" x2="90.0" y2="123.3" stroke="#666" stroke-width="1"/>
<text x="82.0" y="126.3" text-anchor="end" font-size="10" font-family="sans-serif" fill="#555">67.44</text>
<line x1="86.0" y1="70.0" x2="90.0" y2="70.0" stroke="#666" stroke-width="1"/>
<text x="82.0" y="73.0" text-anchor="end" font-size="10" font-family="sans-serif" fill="#555">91.49</text>
<polyline fill="none" stroke="#ff7f0e" stroke-width="2" points="90.0,102.5 95.9,126.9 101.9,192.3 107.8,201.7 113.7,227.0 119.7,236.5 125.6,248.3 131.5,250.7 137.5,254.0 143.4,254.0 149.3,256.9 155.3,259.2 161.2,260.7 167.1,261.6 173.1,262.2 179.0,263.2 184.9,263.9 190.9,264.4 196.8,264.8 202.8,265.3 208.7,265.4 214.6,265.6 220.6,265.8 226.5,266.0 232.4,266.2 238.4,266.2 244.3,266.4 250.2,266.5 256.2,266.7 262.1,266.8 268.0,266.7 274.0,266.8 279.9,266.9 285.8,267.0 291.8,267.0 297.7,267.0 303.6,267.1 309.6,267.2 315.5,267.2 321.4,267.2 327.4,267.1 333.3,267.2 339.2,267.3 345.2,267.2 351.1,267.2 357.0,267.2 363.0,267.3 368.9,267.4 374.8,267.3 380.8,267.4 386.7,267.4 392.7,267.4 398.6,267.4 404.5,267.5 410.5,267.5 416.4,267.5 422.3,267.5 428.3,267.6 434.2,267.5 440.1,267.5 446.1,267.6 452.0,267.5 457.9,267.5 463.9,267.5 469.8,267.5 475.7,267.6 481.7,267.6 487.6,267.6 493.5,267.6 499.5,267.6 505.4,267.6 511.3,267.7 517.3,267.6 523.2,267.7 529.1,267.7 535.1,267.7 541.0,267.7 546.9,267.6 552.9,267.6 558.8,267.7 564.7,267.7 570.7,267.7 576.6,267.7 582.6,267.7 588.5,267.6 594.4,267.6 600.4,267.7 606.3,267.7 612.2,267.7 618.2,267.7 624.1,267.6 630.0,267.7 636.0,267.6 641.9,267.7 647.8,267.6 653.8,267.7 659.7,267.7 665.6,267.6 671.6,267.7 677.5,267.6" />
<polyline fill="none" stroke="#1f77b4" stroke-width="2" points="90.0,101.3 95.9,247.8 101.9,258.8 107.8,263.3 113.7,265.1 119.7,265.8 125.6,266.3 131.5,266.6 137.5,266.8 143.4,267.1 149.3,267.2 155.3,267.3 161.2,267.3 167.1,267.4 173.1,267.5 179.0,267.6 184.9,267.5 190.9,267.6 196.8,267.6 202.8,267.7 208.7,267.7 214.6,267.7 220.6,267.6 226.5,267.7 232.4,267.7 238.4,267.7 244.3,267.7 250.2,267.7 256.2,267.7 262.1,267.7 268.0,267.8 274.0,267.8 279.9,267.8 285.8,267.8 291.8,267.8 297.7,267.8 303.6,267.8 309.6,267.9 315.5,267.9 321.4,267.8 327.4,267.8 333.3,267.8 339.2,267.8 345.2,267.8 351.1,267.8 357.0,267.9 363.0,267.8 368.9,267.9 374.8,267.8 380.8,267.9 386.7,267.9 392.7,267.9 398.6,267.8 404.5,267.9 410.5,267.9 416.4,267.9 422.3,267.9 428.3,268.0 434.2,267.9 440.1,268.0 446.1,268.0 452.0,267.9 457.9,267.9 463.9,267.9 469.8,267.9 475.7,268.0 481.7,268.0 487.6,268.0 493.5,268.0 499.5,268.1 505.4,268.0 511.3,268.1 517.3,268.0 523.2,268.1 529.1,268.1 535.1,268.1 541.0,268.2 546.9,268.1 552.9,268.2 558.8,268.2 564.7,268.2 570.7,268.3 576.6,268.3 582.6,268.4 588.5,268.3 594.4,268.3 600.4,268.4 606.3,268.3 612.2,268.3 618.2,268.4 624.1,268.4 630.0,268.4 636.0,268.5 641.9,268.5 647.8,268.5 653.8,268.6 659.7,268.6 665.6,268.6 671.6,268.6 677.5,268.5" />
<polyline fill="none" stroke="#d62728" stroke-width="2" points="90.0,84.7 95.9,249.1 101.9,259.8 107.8,263.9 113.7,265.1 119.7,265.7 125.6,265.9 131.5,266.0 137.5,266.1 143.4,266.3 149.3,266.3 155.3,266.4 161.2,266.4 167.1,266.5 173.1,266.6 179.0,266.6 184.9,266.6 190.9,266.7 196.8,266.7 202.8,266.7 208.7,266.8 214.6,266.8 220.6,266.8 226.5,266.9 232.4,266.9 238.4,266.9 244.3,266.9 250.2,266.9 256.2,267.0 262.1,267.0 268.0,267.0 274.0,267.0 279.9,267.1 285.8,267.1 291.8,267.1 297.7,267.1 303.6,267.1 309.6,267.2 315.5,267.2 321.4,267.2 327.4,267.1 333.3,267.2 339.2,267.2 345.2,267.2 351.1,267.2 357.0,267.2 363.0,267.2 368.9,267.3 374.8,267.3 380.8,267.3 386.7,267.2 392.7,267.2 398.6,267.3 404.5,267.3 410.5,267.3 416.4,267.3 422.3,267.3 428.3,267.4 434.2,267.3 440.1,267.3 446.1,267.4 452.0,267.3 457.9,267.3 463.9,267.3 469.8,267.3 475.7,267.4 481.7,267.4 487.6,267.3 493.5,267.3 499.5,267.4 505.4,267.4 511.3,267.4 517.3,267.4 523.2,267.4 529.1,267.4 535.1,267.4 541.0,267.4 546.9,267.3 552.9,267.4 558.8,267.4 564.7,267.4 570.7,267.4 576.6,267.4 582.6,267.5 588.5,267.4 594.4,267.4 600.4,267.5 606.3,267.4 612.2,267.4 618.2,267.4 624.1,267.5 630.0,267.5 636.0,267.4 641.9,267.5 647.8,267.5 653.8,267.5 659.7,267.5 665.6,267.4 671.6,267.5 677.5,267.4" />
<text x="383.8" y="313.3" text-anchor="middle" font-size="10" font-family="sans-serif" fill="#666">step</text>
<rect x="722.5" y="70.0" width="587.5" height="213.33333333333334" fill="#fafafa" stroke="#dddddd"/>
<text x="1016.2" y="60.0" text-anchor="middle" font-size="13" font-family="sans-serif">Grad Norm (L2)</text>
<line x1="722.5" y1="283.3" x2="722.5" y2="287.3" stroke="#666" stroke-width="1"/>
<text x="722.5" y="299.3" text-anchor="middle" font-size="10" font-family="sans-serif" fill="#555">10</text>
<line x1="869.4" y1="283.3" x2="869.4" y2="287.3" stroke="#666" stroke-width="1"/>
<text x="869.4" y="299.3" text-anchor="middle" font-size="10" font-family="sans-serif" fill="#555">258</text>
<line x1="1016.2" y1="283.3" x2="1016.2" y2="287.3" stroke="#666" stroke-width="1"/>
<text x="1016.2" y="299.3" text-anchor="middle" font-size="10" font-family="sans-serif" fill="#555">505</text>
<line x1="1163.1" y1="283.3" x2="1163.1" y2="287.3" stroke="#666" stroke-width="1"/>
<text x="1163.1" y="299.3" text-anchor="middle" font-size="10" font-family="sans-serif" fill="#555">752</text>
<line x1="1310.0" y1="283.3" x2="1310.0" y2="287.3" stroke="#666" stroke-width="1"/>
<text x="1310.0" y="299.3" text-anchor="middle" font-size="10" font-family="sans-serif" fill="#555">1000</text>
<line x1="718.5" y1="283.3" x2="722.5" y2="283.3" stroke="#666" stroke-width="1"/>
<text x="714.5" y="286.3" text-anchor="end" font-size="10" font-family="sans-serif" fill="#555">-2.7e+00</text>
<line x1="718.5" y1="230.0" x2="722.5" y2="230.0" stroke="#666" stroke-width="1"/>
<text x="714.5" y="233.0" text-anchor="end" font-size="10" font-family="sans-serif" fill="#555">7.8e+00</text>
<line x1="718.5" y1="176.7" x2="722.5" y2="176.7" stroke="#666" stroke-width="1"/>
<text x="714.5" y="179.7" text-anchor="end" font-size="10" font-family="sans-serif" fill="#555">1.8e+01</text>
<line x1="718.5" y1="123.3" x2="722.5" y2="123.3" stroke="#666" stroke-width="1"/>
<text x="714.5" y="126.3" text-anchor="end" font-size="10" font-family="sans-serif" fill="#555">2.9e+01</text>
<line x1="718.5" y1="70.0" x2="722.5" y2="70.0" stroke="#666" stroke-width="1"/>
<text x="714.5" y="73.0" text-anchor="end" font-size="10" font-family="sans-serif" fill="#555">3.9e+01</text>
<polyline fill="none" stroke="#ff7f0e" stroke-width="2" points="722.5,84.7 728.4,171.3 734.4,137.7 740.3,188.4 746.2,185.0 752.2,220.9 758.1,219.0 764.0,218.9 770.0,203.7 775.9,226.5 781.8,211.4 787.8,216.6 793.7,239.5 799.6,246.7 805.6,237.1 811.5,238.6 817.4,247.8 823.4,239.3 829.3,254.3 835.3,257.1 841.2,248.9 847.1,250.1 853.1,252.9 859.0,255.0 864.9,248.3 870.9,256.9 876.8,255.1 882.7,256.9 888.7,260.0 894.6,257.2 900.5,253.8 906.5,256.7 912.4,257.4 918.3,259.4 924.3,260.5 930.2,256.2 936.1,260.2 942.1,260.6 948.0,258.0 953.9,258.2 959.9,259.4 965.8,256.4 971.7,260.7 977.7,262.0 983.6,257.7 989.5,253.2 995.5,260.6 1001.4,262.9 1007.3,261.0 1013.3,261.3 1019.2,264.2 1025.2,262.7 1031.1,262.8 1037.0,262.8 1043.0,263.5 1048.9,265.0 1054.8,262.4 1060.8,263.6 1066.7,263.0 1072.6,263.4 1078.6,263.7 1084.5,264.3 1090.4,264.9 1096.4,264.5 1102.3,264.7 1108.2,263.9 1114.2,264.2 1120.1,265.1 1126.0,265.0 1132.0,265.6 1137.9,264.4 1143.8,264.6 1149.8,265.3 1155.7,264.9 1161.6,264.6 1167.6,264.2 1173.5,266.1 1179.4,266.1 1185.4,264.3 1191.3,265.5 1197.2,264.4 1203.2,264.2 1209.1,264.4 1215.1,265.2 1221.0,265.0 1226.9,266.1 1232.9,265.5 1238.8,265.8 1244.7,265.6 1250.7,265.7 1256.6,264.9 1262.5,265.7 1268.5,266.1 1274.4,265.4 1280.3,265.2 1286.3,258.7 1292.2,264.2 1298.1,265.7 1304.1,265.8 1310.0,264.8" />
<polyline fill="none" stroke="#1f77b4" stroke-width="2" points="722.5,168.2 728.4,191.9 734.4,205.4 740.3,233.2 746.2,248.3 752.2,249.1 758.1,259.2 764.0,262.3 770.0,259.8 775.9,254.3 781.8,250.8 787.8,255.2 793.7,261.8 799.6,253.9 805.6,258.8 811.5,257.1 817.4,259.3 823.4,258.8 829.3,259.1 835.3,255.3 841.2,260.3 847.1,257.8 853.1,257.9 859.0,254.2 864.9,246.2 870.9,252.8 876.8,251.5 882.7,253.4 888.7,250.0 894.6,262.5 900.5,259.2 906.5,257.0 912.4,258.6 918.3,252.8 924.3,257.9 930.2,258.5 936.1,256.0 942.1,257.6 948.0,257.2 953.9,255.1 959.9,255.8 965.8,254.1 971.7,252.9 977.7,240.4 983.6,258.7 989.5,250.5 995.5,252.4 1001.4,254.6 1007.3,257.7 1013.3,255.0 1019.2,258.3 1025.2,247.9 1031.1,256.2 1037.0,251.5 1043.0,254.8 1048.9,257.6 1054.8,258.7 1060.8,254.9 1066.7,259.3 1072.6,255.4 1078.6,256.7 1084.5,242.9 1090.4,254.4 1096.4,257.7 1102.3,251.4 1108.2,258.2 1114.2,259.8 1120.1,251.6 1126.0,256.4 1132.0,255.6 1137.9,252.7 1143.8,253.4 1149.8,254.8 1155.7,257.7 1161.6,255.0 1167.6,251.4 1173.5,246.6 1179.4,258.9 1185.4,252.2 1191.3,257.0 1197.2,255.5 1203.2,260.6 1209.1,259.7 1215.1,259.9 1221.0,259.2 1226.9,259.1 1232.9,258.1 1238.8,252.4 1244.7,258.2 1250.7,251.0 1256.6,256.5 1262.5,258.2 1268.5,262.1 1274.4,257.7 1280.3,260.0 1286.3,262.0 1292.2,262.9 1298.1,256.4 1304.1,254.4 1310.0,259.6" />
<polyline fill="none" stroke="#d62728" stroke-width="2" points="722.5,141.4 728.4,227.9 734.4,241.7 740.3,248.0 746.2,253.5 752.2,259.3 758.1,262.7 764.0,263.8 770.0,264.7 775.9,263.5 781.8,263.6 787.8,263.2 793.7,262.5 799.6,265.7 805.6,265.0 811.5,265.3 817.4,266.9 823.4,266.0 829.3,266.4 835.3,265.8 841.2,266.9 847.1,266.9 853.1,266.4 859.0,266.0 864.9,264.8 870.9,266.6 876.8,267.1 882.7,267.6 888.7,267.0 894.6,267.4 900.5,266.5 906.5,266.3 912.4,267.5 918.3,266.1 924.3,266.6 930.2,266.7 936.1,267.4 942.1,267.7 948.0,267.2 953.9,267.6 959.9,265.1 965.8,267.7 971.7,267.2 977.7,267.2 983.6,267.6 989.5,267.5 995.5,267.6 1001.4,268.3 1007.3,268.2 1013.3,267.5 1019.2,267.3 1025.2,266.9 1031.1,268.1 1037.0,267.8 1043.0,267.1 1048.9,267.6 1054.8,267.5 1060.8,267.8 1066.7,267.6 1072.6,267.7 1078.6,268.0 1084.5,267.9 1090.4,267.8 1096.4,267.9 1102.3,268.0 1108.2,267.4 1114.2,267.8 1120.1,268.1 1126.0,267.8 1132.0,267.9 1137.9,267.5 1143.8,268.2 1149.8,268.1 1155.7,268.1 1161.6,268.1 1167.6,268.1 1173.5,267.6 1179.4,267.9 1185.4,267.9 1191.3,267.3 1197.2,268.0 1203.2,267.6 1209.1,267.9 1215.1,268.4 1221.0,268.1 1226.9,267.6 1232.9,268.4 1238.8,268.3 1244.7,268.1 1250.7,267.7 1256.6,268.2 1262.5,268.6 1268.5,268.2 1274.4,268.3 1280.3,267.9 1286.3,268.2 1292.2,268.2 1298.1,268.3 1304.1,268.2 1310.0,268.3" />
<text x="1016.2" y="313.3" text-anchor="middle" font-size="10" font-family="sans-serif" fill="#666">step</text>
<rect x="90.0" y="353.33333333333337" width="587.5" height="213.33333333333334" fill="#fafafa" stroke="#dddddd"/>
<text x="383.8" y="343.3" text-anchor="middle" font-size="13" font-family="sans-serif">Update Ratio</text>
<line x1="90.0" y1="566.7" x2="90.0" y2="570.7" stroke="#666" stroke-width="1"/>
<text x="90.0" y="582.7" text-anchor="middle" font-size="10" font-family="sans-serif" fill="#555">10</text>
<line x1="236.9" y1="566.7" x2="236.9" y2="570.7" stroke="#666" stroke-width="1"/>
<text x="236.9" y="582.7" text-anchor="middle" font-size="10" font-family="sans-serif" fill="#555">258</text>
<line x1="383.8" y1="566.7" x2="383.8" y2="570.7" stroke="#666" stroke-width="1"/>
<text x="383.8" y="582.7" text-anchor="middle" font-size="10" font-family="sans-serif" fill="#555">505</text>
<line x1="530.6" y1="566.7" x2="530.6" y2="570.7" stroke="#666" stroke-width="1"/>
<text x="530.6" y="582.7" text-anchor="middle" font-size="10" font-family="sans-serif" fill="#555">752</text>
<line x1="677.5" y1="566.7" x2="677.5" y2="570.7" stroke="#666" stroke-width="1"/>
<text x="677.5" y="582.7" text-anchor="middle" font-size="10" font-family="sans-serif" fill="#555">1000</text>
<line x1="86.0" y1="566.7" x2="90.0" y2="566.7" stroke="#666" stroke-width="1"/>
<text x="82.0" y="569.7" text-anchor="end" font-size="10" font-family="sans-serif" fill="#555">-3.0e-03</text>
<line x1="86.0" y1="513.3" x2="90.0" y2="513.3" stroke="#666" stroke-width="1"/>
<text x="82.0" y="516.3" text-anchor="end" font-size="10" font-family="sans-serif" fill="#555">8.6e-03</text>
<line x1="86.0" y1="460.0" x2="90.0" y2="460.0" stroke="#666" stroke-width="1"/>
<text x="82.0" y="463.0" text-anchor="end" font-size="10" font-family="sans-serif" fill="#555">2.0e-02</text>
<line x1="86.0" y1="406.7" x2="90.0" y2="406.7" stroke="#666" stroke-width="1"/>
<text x="82.0" y="409.7" text-anchor="end" font-size="10" font-family="sans-serif" fill="#555">3.2e-02</text>
<line x1="86.0" y1="353.3" x2="90.0" y2="353.3" stroke="#666" stroke-width="1"/>
<text x="82.0" y="356.3" text-anchor="end" font-size="10" font-family="sans-serif" fill="#555">4.3e-02</text>
<polyline fill="none" stroke="#ff7f0e" stroke-width="2" points="90.0,368.0 95.9,369.4 101.9,370.7 107.8,372.2 113.7,373.6 119.7,375.2 125.6,376.8 131.5,378.1 137.5,379.6 143.4,381.7 149.3,383.9 155.3,384.4 161.2,387.8 167.1,390.8 173.1,392.1 179.0,393.1 184.9,395.2 190.9,400.0 196.8,403.6 202.8,408.9 208.7,407.8 214.6,413.1 220.6,417.5 226.5,417.9 232.4,421.3 238.4,426.4 244.3,429.0 250.2,434.1 256.2,435.5 262.1,438.3 268.0,440.8 274.0,445.0 279.9,447.3 285.8,449.6 291.8,453.6 297.7,454.3 303.6,458.0 309.6,460.7 315.5,463.7 321.4,463.0 327.4,467.4 333.3,465.7 339.2,469.1 345.2,473.0 351.1,470.5 357.0,470.5 363.0,473.6 368.9,476.1 374.8,476.1 380.8,478.2 386.7,481.3 392.7,479.9 398.6,481.7 404.5,481.3 410.5,483.0 416.4,486.0 422.3,484.1 428.3,484.6 434.2,485.8 440.1,489.2 446.1,488.1 452.0,489.8 457.9,490.0 463.9,490.0 469.8,491.2 475.7,489.6 481.7,491.0 487.6,491.9 493.5,492.4 499.5,493.9 505.4,492.0 511.3,492.6 517.3,494.4 523.2,494.3 529.1,492.1 535.1,492.8 541.0,494.7 546.9,494.2 552.9,494.7 558.8,495.0 564.7,493.2 570.7,494.4 576.6,494.8 582.6,495.3 588.5,496.1 594.4,496.9 600.4,496.7 606.3,496.5 612.2,497.1 618.2,496.9 624.1,491.2 630.0,498.0 636.0,498.2 641.9,497.5 647.8,492.6 653.8,497.6 659.7,498.3 665.6,498.2 671.6,497.2 677.5,498.7" />
<polyline fill="none" stroke="#1f77b4" stroke-width="2" points="90.0,543.9 95.9,548.1 101.9,549.8 107.8,550.5 113.7,551.0 119.7,551.3 125.6,551.4 131.5,551.5 137.5,551.6 143.4,551.7 149.3,551.8 155.3,551.8 161.2,551.8 167.1,551.9 173.1,551.9 179.0,551.9 184.9,551.9 190.9,551.9 196.8,551.9 202.8,551.9 208.7,551.9 214.6,552.0 220.6,552.0 226.5,551.8 232.4,551.9 238.4,551.8 244.3,551.8 250.2,551.9 256.2,551.9 262.1,551.9 268.0,551.9 274.0,551.9 279.9,551.7 285.8,551.9 291.8,551.8 297.7,551.8 303.6,551.8 309.6,551.8 315.5,551.8 321.4,551.7 327.4,551.7 333.3,551.7 339.2,551.7 345.2,551.5 351.1,551.7 357.0,551.6 363.0,551.5 368.9,551.5 374.8,551.7 380.8,551.7 386.7,551.7 392.7,551.5 398.6,551.6 404.5,551.6 410.5,551.5 416.4,551.5 422.3,551.6 428.3,551.6 434.2,551.6 440.1,551.5 446.1,551.4 452.0,551.4 457.9,551.5 463.9,551.4 469.8,551.3 475.7,551.4 481.7,551.3 487.6,551.3 493.5,551.3 499.5,551.3 505.4,551.2 511.3,551.3 517.3,551.3 523.2,551.3 529.1,551.2 535.1,551.3 541.0,551.2 546.9,551.3 552.9,551.2 558.8,551.1 564.7,551.0 570.7,551.1 576.6,551.1 582.6,551.1 588.5,551.1 594.4,551.1 600.4,551.1 606.3,551.0 612.2,551.0 618.2,551.0 624.1,551.0 630.0,551.0 636.0,551.1 641.9,551.0 647.8,551.0 653.8,551.1 659.7,551.0 665.6,550.8 671.6,551.0 677.5,550.9" />
<polyline fill="none" stroke="#d62728" stroke-width="2" points="90.0,536.7 95.9,544.7 101.9,547.3 107.8,547.9 113.7,548.0 119.7,548.0 125.6,548.0 131.5,548.1 137.5,548.1 143.4,548.1 149.3,548.1 155.3,548.1 161.2,548.1 167.1,548.1 173.1,548.1 179.0,548.1 184.9,548.1 190.9,548.1 196.8,548.1 202.8,548.1 208.7,548.1 214.6,548.1 220.6,548.1 226.5,548.1 232.4,548.1 238.4,548.1 244.3,548.1 250.2,548.1 256.2,548.1 262.1,548.1 268.0,548.1 274.0,548.1 279.9,548.1 285.8,548.1 291.8,548.1 297.7,548.1 303.6,548.1 309.6,548.1 315.5,548.1 321.4,548.1 327.4,548.1 333.3,548.1 339.2,548.1 345.2,548.1 351.1,548.1 357.0,548.1 363.0,548.1 368.9,548.1 374.8,548.1 380.8,548.1 386.7,548.1 392.7,548.1 398.6,548.1 404.5,548.1 410.5,548.1 416.4,548.1 422.3,548.1 428.3,548.1 434.2,548.1 440.1,548.1 446.1,548.1 452.0,548.1 457.9,548.1 463.9,548.1 469.8,548.1 475.7,548.1 481.7,548.1 487.6,548.1 493.5,548.1 499.5,548.1 505.4,548.1 511.3,548.1 517.3,548.1 523.2,548.1 529.1,548.1 535.1,548.1 541.0,548.1 546.9,548.1 552.9,548.1 558.8,548.1 564.7,548.1 570.7,548.1 576.6,548.1 582.6,548.1 588.5,548.1 594.4,548.1 600.4,548.1 606.3,548.1 612.2,548.1 618.2,548.1 624.1,548.1 630.0,548.1 636.0,548.1 641.9,548.1 647.8,548.1 653.8,548.1 659.7,548.1 665.6,548.1 671.6,548.1 677.5,548.1" />
<text x="383.8" y="596.7" text-anchor="middle" font-size="10" font-family="sans-serif" fill="#666">step</text>
<rect x="722.5" y="353.33333333333337" width="587.5" height="213.33333333333334" fill="#fafafa" stroke="#dddddd"/>
<text x="1016.2" y="343.3" text-anchor="middle" font-size="13" font-family="sans-serif">Grad-Update Cos</text>
<line x1="722.5" y1="566.7" x2="722.5" y2="570.7" stroke="#666" stroke-width="1"/>
<text x="722.5" y="582.7" text-anchor="middle" font-size="10" font-family="sans-serif" fill="#555">10</text>
<line x1="869.4" y1="566.7" x2="869.4" y2="570.7" stroke="#666" stroke-width="1"/>
<text x="869.4" y="582.7" text-anchor="middle" font-size="10" font-family="sans-serif" fill="#555">258</text>
<line x1="1016.2" y1="566.7" x2="1016.2" y2="570.7" stroke="#666" stroke-width="1"/>
<text x="1016.2" y="582.7" text-anchor="middle" font-size="10" font-family="sans-serif" fill="#555">505</text>
<line x1="1163.1" y1="566.7" x2="1163.1" y2="570.7" stroke="#666" stroke-width="1"/>
<text x="1163.1" y="582.7" text-anchor="middle" font-size="10" font-family="sans-serif" fill="#555">752</text>
<line x1="1310.0" y1="566.7" x2="1310.0" y2="570.7" stroke="#666" stroke-width="1"/>
<text x="1310.0" y="582.7" text-anchor="middle" font-size="10" font-family="sans-serif" fill="#555">1000</text>
<line x1="718.5" y1="566.7" x2="722.5" y2="566.7" stroke="#666" stroke-width="1"/>
<text x="714.5" y="569.7" text-anchor="end" font-size="10" font-family="sans-serif" fill="#555">-1.081</text>
<line x1="718.5" y1="513.3" x2="722.5" y2="513.3" stroke="#666" stroke-width="1"/>
<text x="714.5" y="516.3" text-anchor="end" font-size="10" font-family="sans-serif" fill="#555">-0.786</text>
<line x1="718.5" y1="460.0" x2="722.5" y2="460.0" stroke="#666" stroke-width="1"/>
<text x="714.5" y="463.0" text-anchor="end" font-size="10" font-family="sans-serif" fill="#555">-0.491</text>
<line x1="718.5" y1="406.7" x2="722.5" y2="406.7" stroke="#666" stroke-width="1"/>
<text x="714.5" y="409.7" text-anchor="end" font-size="10" font-family="sans-serif" fill="#555">-0.196</text>
<line x1="718.5" y1="353.3" x2="722.5" y2="353.3" stroke="#666" stroke-width="1"/>
<text x="714.5" y="356.3" text-anchor="end" font-size="10" font-family="sans-serif" fill="#555">0.099</text>
<line x1="722.5" y1="371.2" x2="1310.0" y2="371.2" stroke="#666666" stroke-width="1.5" stroke-dasharray="6,4"/>
<text x="1304.0" y="367.2" text-anchor="end" font-size="10" font-family="sans-serif" fill="#666666">0</text>
<line x1="722.5" y1="552.0" x2="1310.0" y2="552.0" stroke="#999999" stroke-width="1.5" stroke-dasharray="6,4"/>
<text x="1304.0" y="548.0" text-anchor="end" font-size="10" font-family="sans-serif" fill="#999999">-1</text>
<polyline fill="none" stroke="#ff7f0e" stroke-width="2" points="722.5,442.0 728.4,460.8 734.4,431.4 740.3,415.1 746.2,411.4 752.2,399.9 758.1,397.4 764.0,394.2 770.0,400.0 775.9,392.2 781.8,389.8 787.8,392.5 793.7,389.9 799.6,387.1 805.6,390.1 811.5,386.2 817.4,385.7 823.4,385.0 829.3,385.6 835.3,384.6 841.2,384.1 847.1,382.1 853.1,381.0 859.0,382.9 864.9,379.9 870.9,383.1 876.8,382.4 882.7,382.2 888.7,381.6 894.6,382.1 900.5,380.3 906.5,380.9 912.4,380.0 918.3,381.6 924.3,381.2 930.2,381.2 936.1,381.4 942.1,380.3 948.0,379.5 953.9,380.5 959.9,385.8 965.8,379.5 971.7,381.9 977.7,383.2 983.6,380.6 989.5,379.5 995.5,380.7 1001.4,382.9 1007.3,379.3 1013.3,381.5 1019.2,382.0 1025.2,382.3 1031.1,381.9 1037.0,382.6 1043.0,391.1 1048.9,381.8 1054.8,379.9 1060.8,382.0 1066.7,380.3 1072.6,383.8 1078.6,382.7 1084.5,381.4 1090.4,383.7 1096.4,385.0 1102.3,384.1 1108.2,380.5 1114.2,382.9 1120.1,388.2 1126.0,385.0 1132.0,387.4 1137.9,383.9 1143.8,381.0 1149.8,385.4 1155.7,382.5 1161.6,389.5 1167.6,386.0 1173.5,382.0 1179.4,383.5 1185.4,408.9 1191.3,387.1 1197.2,386.3 1203.2,387.0 1209.1,380.5 1215.1,396.5 1221.0,382.0 1226.9,391.3 1232.9,384.5 1238.8,388.6 1244.7,382.4 1250.7,396.0 1256.6,388.5 1262.5,386.2 1268.5,391.0 1274.4,390.6 1280.3,388.4 1286.3,419.3 1292.2,386.2 1298.1,382.5 1304.1,386.0 1310.0,381.4" />
<polyline fill="none" stroke="#1f77b4" stroke-width="2" points="722.5,403.9 728.4,398.1 734.4,368.0 740.3,414.3 746.2,375.8 752.2,391.3 758.1,401.1 764.0,392.3 770.0,400.1 775.9,397.0 781.8,400.3 787.8,404.6 793.7,396.3 799.6,395.7 805.6,392.2 811.5,405.0 817.4,407.0 823.4,422.0 829.3,408.6 835.3,405.4 841.2,423.3 847.1,402.9 853.1,379.3 859.0,439.0 864.9,413.1 870.9,421.3 876.8,428.0 882.7,421.4 888.7,404.2 894.6,404.3 900.5,408.6 906.5,410.9 912.4,429.1 918.3,386.9 924.3,408.4 930.2,399.3 936.1,408.7 942.1,414.2 948.0,407.2 953.9,430.0 959.9,412.7 965.8,433.5 971.7,420.4 977.7,446.0 983.6,393.7 989.5,434.8 995.5,441.4 1001.4,434.3 1007.3,429.4 1013.3,392.7 1019.2,405.0 1025.2,433.1 1031.1,406.1 1037.0,405.2 1043.0,425.0 1048.9,420.1 1054.8,390.6 1060.8,403.4 1066.7,411.4 1072.6,411.0 1078.6,387.2 1084.5,415.6 1090.4,399.2 1096.4,386.2 1102.3,410.6 1108.2,391.2 1114.2,385.7 1120.1,420.6 1126.0,396.0 1132.0,410.2 1137.9,418.3 1143.8,401.7 1149.8,403.1 1155.7,382.8 1161.6,411.1 1167.6,408.6 1173.5,407.3 1179.4,400.0 1185.4,403.0 1191.3,424.1 1197.2,415.8 1203.2,410.5 1209.1,406.1 1215.1,405.9 1221.0,408.8 1226.9,410.2 1232.9,409.4 1238.8,410.7 1244.7,393.9 1250.7,418.0 1256.6,401.4 1262.5,409.0 1268.5,408.2 1274.4,407.6 1280.3,392.9 1286.3,398.5 1292.2,393.7 1298.1,409.4 1304.1,389.3 1310.0,406.6" />
<polyline fill="none" stroke="#d62728" stroke-width="2" points="722.5,405.3 728.4,402.9 734.4,415.1 740.3,391.0 746.2,377.4 752.2,385.5 758.1,380.8 764.0,379.5 770.0,377.1 775.9,376.2 781.8,375.7 787.8,375.5 793.7,381.9 799.6,375.6 805.6,380.4 811.5,375.7 817.4,374.2 823.4,374.4 829.3,379.1 835.3,374.2 841.2,377.0 847.1,376.5 853.1,377.0 859.0,377.3 864.9,377.2 870.9,375.1 876.8,376.9 882.7,373.0 888.7,377.1 894.6,376.7 900.5,377.0 906.5,376.8 912.4,374.3 918.3,374.4 924.3,375.0 930.2,375.3 936.1,371.5 942.1,374.4 948.0,376.1 953.9,376.1 959.9,379.3 965.8,373.0 971.7,374.5 977.7,376.8 983.6,375.4 989.5,376.8 995.5,372.7 1001.4,373.6 1007.3,372.7 1013.3,374.8 1019.2,373.7 1025.2,377.1 1031.1,373.7 1037.0,374.9 1043.0,375.8 1048.9,376.9 1054.8,374.8 1060.8,375.1 1066.7,376.8 1072.6,375.9 1078.6,375.0 1084.5,371.7 1090.4,374.8 1096.4,377.8 1102.3,375.9 1108.2,377.9 1114.2,377.9 1120.1,377.2 1126.0,374.9 1132.0,376.0 1137.9,375.2 1143.8,375.8 1149.8,376.4 1155.7,375.9 1161.6,373.6 1167.6,376.5 1173.5,377.8 1179.4,378.2 1185.4,372.9 1191.3,376.2 1197.2,374.2 1203.2,378.5 1209.1,377.0 1215.1,378.2 1221.0,377.5 1226.9,374.5 1232.9,373.1 1238.8,378.9 1244.7,377.8 1250.7,378.2 1256.6,376.4 1262.5,374.8 1268.5,376.7 1274.4,376.3 1280.3,378.8 1286.3,374.9 1292.2,376.6 1298.1,373.7 1304.1,377.2 1310.0,375.1" />
<text x="1016.2" y="596.7" text-anchor="middle" font-size="10" font-family="sans-serif" fill="#666">step</text>
<rect x="90.0" y="636.6666666666667" width="587.5" height="213.33333333333334" fill="#fafafa" stroke="#dddddd"/>
<text x="383.8" y="626.7" text-anchor="middle" font-size="13" font-family="sans-serif">Hessian 2-Norm (power iter)</text>
<line x1="90.0" y1="850.0" x2="90.0" y2="854.0" stroke="#666" stroke-width="1"/>
<text x="90.0" y="866.0" text-anchor="middle" font-size="10" font-family="sans-serif" fill="#555">10</text>
<line x1="236.9" y1="850.0" x2="236.9" y2="854.0" stroke="#666" stroke-width="1"/>
<text x="236.9" y="866.0" text-anchor="middle" font-size="10" font-family="sans-serif" fill="#555">258</text>
<line x1="383.8" y1="850.0" x2="383.8" y2="854.0" stroke="#666" stroke-width="1"/>
<text x="383.8" y="866.0" text-anchor="middle" font-size="10" font-family="sans-serif" fill="#555">505</text>
<line x1="530.6" y1="850.0" x2="530.6" y2="854.0" stroke="#666" stroke-width="1"/>
<text x="530.6" y="866.0" text-anchor="middle" font-size="10" font-family="sans-serif" fill="#555">752</text>
<line x1="677.5" y1="850.0" x2="677.5" y2="854.0" stroke="#666" stroke-width="1"/>
<text x="677.5" y="866.0" text-anchor="middle" font-size="10" font-family="sans-serif" fill="#555">1000</text>
<line x1="86.0" y1="850.0" x2="90.0" y2="850.0" stroke="#666" stroke-width="1"/>
<text x="82.0" y="853.0" text-anchor="end" font-size="10" font-family="sans-serif" fill="#555">-6.2e+01</text>
<line x1="86.0" y1="796.7" x2="90.0" y2="796.7" stroke="#666" stroke-width="1"/>
<text x="82.0" y="799.7" text-anchor="end" font-size="10" font-family="sans-serif" fill="#555">1.6e+02</text>
<line x1="86.0" y1="743.3" x2="90.0" y2="743.3" stroke="#666" stroke-width="1"/>
<text x="82.0" y="746.3" text-anchor="end" font-size="10" font-family="sans-serif" fill="#555">3.9e+02</text>
<line x1="86.0" y1="690.0" x2="90.0" y2="690.0" stroke="#666" stroke-width="1"/>
<text x="82.0" y="693.0" text-anchor="end" font-size="10" font-family="sans-serif" fill="#555">6.1e+02</text>
<line x1="86.0" y1="636.7" x2="90.0" y2="636.7" stroke="#666" stroke-width="1"/>
<text x="82.0" y="639.7" text-anchor="end" font-size="10" font-family="sans-serif" fill="#555">8.4e+02</text>
<line x1="90.0" y1="835.3" x2="677.5" y2="835.3" stroke="#666666" stroke-width="1.5" stroke-dasharray="6,4"/>
<text x="671.5" y="831.3" text-anchor="end" font-size="10" font-family="sans-serif" fill="#666666">0</text>
<polyline fill="none" stroke="#ff7f0e" stroke-width="2" points="113.7,772.7 143.4,800.9 173.1,812.0 202.8,817.5 232.4,826.3 262.1,824.7 291.8,827.0 321.4,829.7 351.1,749.9 380.8,824.4 410.5,806.5 440.1,813.7 469.8,832.0 499.5,651.4 529.1,824.8 558.8,827.1 588.5,797.0 618.2,786.4 647.8,796.4 677.5,782.4" />
<polyline fill="none" stroke="#1f77b4" stroke-width="2" points="113.7,753.0 143.4,768.3 173.1,770.5 202.8,788.9 232.4,761.0 262.1,777.8 291.8,768.4 321.4,769.3 351.1,777.9 380.8,790.8 410.5,785.9 440.1,761.2 469.8,788.3 499.5,771.7 529.1,788.4 558.8,788.0 588.5,780.0 618.2,785.1 647.8,791.6 677.5,783.1" />
<polyline fill="none" stroke="#d62728" stroke-width="2" points="113.7,816.5 143.4,823.8 173.1,818.4 202.8,818.4 232.4,820.0 262.1,821.6 291.8,823.2 321.4,822.8 351.1,824.2 380.8,825.3 410.5,825.2 440.1,826.2 469.8,827.5 499.5,827.7 529.1,828.9 558.8,829.0 588.5,829.7 618.2,829.7 647.8,831.1 677.5,830.6" />
<text x="383.8" y="880.0" text-anchor="middle" font-size="10" font-family="sans-serif" fill="#666">step</text>
<rect x="722.5" y="636.6666666666667" width="587.5" height="213.33333333333334" fill="#fafafa" stroke="#dddddd"/>
<text x="1016.2" y="626.7" text-anchor="middle" font-size="13" font-family="sans-serif">Step Time (s)</text>
<line x1="722.5" y1="850.0" x2="722.5" y2="854.0" stroke="#666" stroke-width="1"/>
<text x="722.5" y="866.0" text-anchor="middle" font-size="10" font-family="sans-serif" fill="#555">10</text>
<line x1="869.4" y1="850.0" x2="869.4" y2="854.0" stroke="#666" stroke-width="1"/>
<text x="869.4" y="866.0" text-anchor="middle" font-size="10" font-family="sans-serif" fill="#555">258</text>
<line x1="1016.2" y1="850.0" x2="1016.2" y2="854.0" stroke="#666" stroke-width="1"/>
<text x="1016.2" y="866.0" text-anchor="middle" font-size="10" font-family="sans-serif" fill="#555">505</text>
<line x1="1163.1" y1="850.0" x2="1163.1" y2="854.0" stroke="#666" stroke-width="1"/>
<text x="1163.1" y="866.0" text-anchor="middle" font-size="10" font-family="sans-serif" fill="#555">752</text>
<line x1="1310.0" y1="850.0" x2="1310.0" y2="854.0" stroke="#666" stroke-width="1"/>
<text x="1310.0" y="866.0" text-anchor="middle" font-size="10" font-family="sans-serif" fill="#555">1000</text>
<line x1="718.5" y1="850.0" x2="722.5" y2="850.0" stroke="#666" stroke-width="1"/>
<text x="714.5" y="853.0" text-anchor="end" font-size="10" font-family="sans-serif" fill="#555">0.0002</text>
<line x1="718.5" y1="796.7" x2="722.5" y2="796.7" stroke="#666" stroke-width="1"/>
<text x="714.5" y="799.7" text-anchor="end" font-size="10" font-family="sans-serif" fill="#555">0.0260</text>
<line x1="718.5" y1="743.3" x2="722.5" y2="743.3" stroke="#666" stroke-width="1"/>
<text x="714.5" y="746.3" text-anchor="end" font-size="10" font-family="sans-serif" fill="#555">0.0518</text>
<line x1="718.5" y1="690.0" x2="722.5" y2="690.0" stroke="#666" stroke-width="1"/>
<text x="714.5" y="693.0" text-anchor="end" font-size="10" font-family="sans-serif" fill="#555">0.0775</text>
<line x1="718.5" y1="636.7" x2="722.5" y2="636.7" stroke="#666" stroke-width="1"/>
<text x="714.5" y="639.7" text-anchor="end" font-size="10" font-family="sans-serif" fill="#555">0.1033</text>
<polyline fill="none" stroke="#ff7f0e" stroke-width="2" points="722.5,651.4 728.4,815.7 734.4,816.9 740.3,816.2 746.2,817.1 752.2,816.2 758.1,816.7 764.0,816.7 770.0,815.7 775.9,817.2 781.8,817.2 787.8,817.2 793.7,815.7 799.6,816.4 805.6,816.4 811.5,816.3 817.4,816.9 823.4,815.9 829.3,816.1 835.3,817.1 841.2,816.2 847.1,816.4 853.1,816.8 859.0,816.9 864.9,816.4 870.9,814.7 876.8,816.5 882.7,817.2 888.7,816.9 894.6,816.8 900.5,816.2 906.5,816.3 912.4,816.4 918.3,816.4 924.3,815.3 930.2,815.7 936.1,816.2 942.1,816.2 948.0,815.0 953.9,817.0 959.9,815.1 965.8,817.5 971.7,816.7 977.7,817.5 983.6,816.7 989.5,816.9 995.5,817.3 1001.4,816.4 1007.3,817.6 1013.3,816.6 1019.2,816.3 1025.2,817.4 1031.1,816.0 1037.0,817.3 1043.0,816.8 1048.9,816.7 1054.8,815.7 1060.8,817.0 1066.7,817.3 1072.6,816.4 1078.6,816.5 1084.5,816.9 1090.4,817.0 1096.4,817.0 1102.3,817.0 1108.2,816.5 1114.2,817.1 1120.1,816.8 1126.0,816.9 1132.0,817.2 1137.9,816.7 1143.8,816.3 1149.8,817.1 1155.7,816.8 1161.6,817.2 1167.6,816.6 1173.5,817.2 1179.4,816.2 1185.4,817.4 1191.3,816.2 1197.2,816.0 1203.2,816.8 1209.1,816.9 1215.1,817.0 1221.0,816.9 1226.9,816.8 1232.9,817.0 1238.8,817.2 1244.7,816.8 1250.7,816.6 1256.6,816.6 1262.5,817.2 1268.5,817.1 1274.4,816.6 1280.3,816.4 1286.3,816.3 1292.2,818.0 1298.1,816.8 1304.1,817.3 1310.0,815.6" />
<polyline fill="none" stroke="#1f77b4" stroke-width="2" points="722.5,668.5 728.4,834.3 734.4,832.8 740.3,833.0 746.2,832.8 752.2,833.4 758.1,833.7 764.0,833.6 770.0,833.3 775.9,832.9 781.8,834.0 787.8,833.7 793.7,834.0 799.6,833.6 805.6,833.6 811.5,833.1 817.4,834.1 823.4,833.9 829.3,834.0 835.3,832.6 841.2,833.2 847.1,834.0 853.1,833.9 859.0,833.6 864.9,833.8 870.9,833.3 876.8,833.2 882.7,834.0 888.7,834.0 894.6,832.8 900.5,833.7 906.5,833.5 912.4,832.6 918.3,833.7 924.3,833.4 930.2,833.3 936.1,833.5 942.1,833.6 948.0,833.5 953.9,833.8 959.9,833.5 965.8,833.8 971.7,833.4 977.7,832.9 983.6,833.8 989.5,833.3 995.5,833.4 1001.4,833.3 1007.3,833.7 1013.3,833.7 1019.2,833.8 1025.2,833.7 1031.1,833.8 1037.0,833.7 1043.0,833.8 1048.9,833.5 1054.8,833.9 1060.8,833.6 1066.7,833.3 1072.6,833.2 1078.6,833.1 1084.5,833.5 1090.4,833.6 1096.4,833.4 1102.3,833.7 1108.2,833.1 1114.2,833.6 1120.1,834.0 1126.0,833.4 1132.0,833.7 1137.9,833.2 1143.8,833.5 1149.8,833.4 1155.7,833.4 1161.6,833.8 1167.6,832.8 1173.5,833.6 1179.4,833.8 1185.4,833.6 1191.3,833.8 1197.2,833.6 1203.2,833.3 1209.1,833.6 1215.1,833.7 1221.0,833.7 1226.9,833.6 1232.9,833.0 1238.8,833.1 1244.7,833.5 1250.7,833.6 1256.6,833.3 1262.5,833.7 1268.5,833.4 1274.4,833.5 1280.3,833.5 1286.3,833.4 1292.2,833.5 1298.1,833.7 1304.1,833.4 1310.0,833.8" />
<polyline fill="none" stroke="#d62728" stroke-width="2" points="722.5,694.7 728.4,834.7 734.4,833.8 740.3,834.4 746.2,833.7 752.2,833.5 758.1,834.4 764.0,833.9 770.0,833.9 775.9,834.2 781.8,834.4 787.8,832.8 793.7,834.3 799.6,834.5 805.6,834.6 811.5,833.9 817.4,834.1 823.4,834.0 829.3,832.9 835.3,834.5 841.2,834.5 847.1,834.6 853.1,834.3 859.0,834.3 864.9,834.7 870.9,834.4 876.8,833.9 882.7,834.3 888.7,834.4 894.6,834.3 900.5,834.3 906.5,834.4 912.4,834.4 918.3,834.6 924.3,833.4 930.2,834.4 936.1,834.7 942.1,833.8 948.0,834.4 953.9,834.6 959.9,834.7 965.8,835.0 971.7,834.4 977.7,834.3 983.6,834.2 989.5,834.3 995.5,833.7 1001.4,833.8 1007.3,834.3 1013.3,833.8 1019.2,834.8 1025.2,834.4 1031.1,834.4 1037.0,834.8 1043.0,834.5 1048.9,834.8 1054.8,834.3 1060.8,834.6 1066.7,834.5 1072.6,834.6 1078.6,834.5 1084.5,834.6 1090.4,834.5 1096.4,834.9 1102.3,834.6 1108.2,834.4 1114.2,835.3 1120.1,835.1 1126.0,834.8 1132.0,834.4 1137.9,834.5 1143.8,834.7 1149.8,834.5 1155.7,834.9 1161.6,834.7 1167.6,834.5 1173.5,834.4 1179.4,834.7 1185.4,834.6 1191.3,834.9 1197.2,834.7 1203.2,834.7 1209.1,834.8 1215.1,834.3 1221.0,834.3 1226.9,834.3 1232.9,834.7 1238.8,834.5 1244.7,834.9 1250.7,834.2 1256.6,834.7 1262.5,834.7 1268.5,835.0 1274.4,834.2 1280.3,834.7 1286.3,834.6 1292.2,833.6 1298.1,834.8 1304.1,834.9 1310.0,834.7" />
<text x="1016.2" y="880.0" text-anchor="middle" font-size="10" font-family="sans-serif" fill="#666">step</text>
<line x1="1140" y1="40" x2="1164" y2="40" stroke="#ff7f0e" stroke-width="3"/>
<text x="1170" y="44" font-size="12" font-family="sans-serif">adafactor</text>
<line x1="1140" y1="60" x2="1164" y2="60" stroke="#1f77b4" stroke-width="3"/>
<text x="1170" y="64" font-size="12" font-family="sans-serif">adamw</text>
<line x1="1140" y1="80" x2="1164" y2="80" stroke="#d62728" stroke-width="3"/>
<text x="1170" y="84" font-size="12" font-family="sans-serif">sgd</text>
</svg>
