<svg xmlns="http://www.w3.org/2000/svg" width="1400" height="920" viewBox="0 0 1400 920">
<rect x="0" y="0" width="100%" height="100%" fill="#ffffff" />
<text x="700.0" y="35" text-anchor="middle" font-size="22" font-family="sans-serif">Optimizer Dynamics Diagnostics</text>
<rect x="90.0" y="70.0" width="587.5" height="213.33333333333334" fill="#fafafa" stroke="#dddddd"/>
<text x="383.8" y="60.0" text-anchor="middle" font-size="13" font-family="sans-serif">Loss</text>
<line x1="90.0" y1="283.3" x2="90.0" y2="287.3" stroke="#666" stroke-width="1"/>
<text x="90.0" y="299.3" text-anchor="middle" font-size="10" font-family="sans-serif" fill="#555">10</text>
<line x1="236.9" y1="283.3" x2="236.9" y2="287.3" stroke="#666" stroke-width="1"/>
<text x="236.9" y="299.3" text-anchor="middle" font-size="10" font-family="sans-serif" fill="#555">258</text>
<line x1="383.8" y1="283.3" x2="383.8" y2="287.3" stroke="#666" stroke-width="1"/>
<text x="383.8" y="299.3" text-anchor="middle" font-size="10" font-family="sans-serif" fill="#555">505</text>
<line x1="530.6" y1="283.3" x2="530.6" y2="287.3" stroke="#666" stroke-width="1"/>
<text x="530.6" y="299.3" text-anchor="middle" font-size="10" font-family="sans-serif" fill="#555">752</text>
<line x1="677.5" y1="283.3" x2="677.5" y2="287.3" stroke="#666" stroke-width="1"/>
<text x="677.5" y="299.3" text-anchor="middle" font-size="10" font-family="sans-serif" fill="#555">1000</text>
<line x1="86.0" y1="283.3" x2="90.0" y2="283.3" stroke="#666" stroke-width="1"/>
<text x="82.0" y="286.3" text-anchor="end" font-size="10" font-family="sans-serif" fill="#555">-4.11</text>
<line x1="86.0" y1="230.0" x2="90.0" y2="230.0" stroke="#666" stroke-width="1"/>
<text x="82.0" y="233.0" text-anchor="end" font-size="10" font-family="sans-serif" fill="#555">17.78</text>
<line x1="86.0" y1="176.7" x2="90.0" y2="176.7" stroke="#666" stroke-width="1"/>
<text x="82.0" y="179.7" text-anchor="end" font-size="10" font-family="sans-serif" fill="#555">39.66</text>
<line x1="86.0" y1="123.3" x2="90.0" y2="123.3" stroke="#666" stroke-width="1"/>
<text x="82.0" y="126.3" text-anchor="end" font-size="10" font-family="sans-serif" fill="#555">61.55</text>
<line x1="86.0" y1="70.0" x2="90.0" y2="70.0" stroke="#666" stroke-width="1"/>
<text x="82.0" y="73.0" text-anchor="end" font-size="10" font-family="sans-serif" fill="#555">83.43</text>
<polyline fill="none" stroke="#1f77b4" stroke-width="2" points="90.0,84.7 95.9,245.7 101.9,257.9 107.8,262.8 113.7,264.8 119.7,265.5 125.6,266.1 131.5,266.4 137.5,266.7 143.4,266.9 149.3,267.0 155.3,267.1 161.2,267.2 167.1,267.3 173.1,267.4 179.0,267.4 184.9,267.4 190.9,267.5 196.8,267.5 202.8,267.6 208.7,267.6 214.6,267.6 220.6,267.5 226.5,267.6 232.4,267.6 238.4,267.6 244.3,267.6 250.2,267.6 256.2,267.7 262.1,267.7 268.0,267.7 274.0,267.7 279.9,267.7 285.8,267.7 291.8,267.8 297.7,267.7 303.6,267.7 309.6,267.8 315.5,267.8 321.4,267.8 327.4,267.7 333.3,267.7 339.2,267.8 345.2,267.7 351.1,267.7 357.0,267.8 363.0,267.7 368.9,267.8 374.8,267.7 380.8,267.8 386.7,267.8 392.7,267.8 398.6,267.8 404.5,267.8 410.5,267.8 416.4,267.8 422.3,267.9 428.3,267.9 434.2,267.8 440.1,267.9 446.1,267.9 452.0,267.8 457.9,267.9 463.9,267.9 469.8,267.8 475.7,268.0 481.7,268.0 487.6,267.9 493.5,267.9 499.5,268.0 505.4,268.0 511.3,268.0 517.3,268.0 523.2,268.1 529.1,268.1 535.1,268.1 541.0,268.1 546.9,268.1 552.9,268.1 558.8,268.2 564.7,268.2 570.7,268.2 576.6,268.2 582.6,268.3 588.5,268.2 594.4,268.3 600.4,268.4 606.3,268.3 612.2,268.3 618.2,268.3 624.1,268.4 630.0,268.4 636.0,268.4 641.9,268.5 647.8,268.5 653.8,268.6 659.7,268.5 665.6,268.6 671.6,268.6 677.5,268.5" />
<text x="383.8" y="313.3" text-anchor="middle" font-size="10" font-family="sans-serif" fill="#666">step</text>
<rect x="722.5" y="70.0" width="587.5" height="213.33333333333334" fill="#fafafa" stroke="#dddddd"/>
<text x="1016.2" y="60.0" text-anchor="middle" font-size="13" font-family="sans-serif">Grad Norm (L2)</text>
<line x1="722.5" y1="283.3" x2="722.5" y2="287.3" stroke="#666" stroke-width="1"/>
<text x="722.5" y="299.3" text-anchor="middle" font-size="10" font-family="sans-serif" fill="#555">10</text>
<line x1="869.4" y1="283.3" x2="869.4" y2="287.3" stroke="#666" stroke-width="1"/>
<text x="869.4" y="299.3" text-anchor="middle" font-size="10" font-family="sans-serif" fill="#555">258</text>
<line x1="1016.2" y1="283.3" x2="1016.2" y2="287.3" stroke="#666" stroke-width="1"/>
<text x="1016.2" y="299.3" text-anchor="middle" font-size="10" font-family="sans-serif" fill="#555">505</text>
<line x1="1163.1" y1="283.3" x2="1163.1" y2="287.3" stroke="#666" stroke-width="1"/>
<text x="1163.1" y="299.3" text-anchor="middle" font-size="10" font-family="sans-serif" fill="#555">752</text>
<line x1="1310.0" y1="283.3" x2="1310.0" y2="287.3" stroke="#666" stroke-width="1"/>
<text x="1310.0" y="299.3" text-anchor="middle" font-size="10" font-family="sans-serif" fill="#555">1000</text>
<line x1="718.5" y1="283.3" x2="722.5" y2="283.3" stroke="#666" stroke-width="1"/>
<text x="714.5" y="286.3" text-anchor="end" font-size="10" font-family="sans-serif" fill="#555">-1.3e-01</text>
<line x1="718.5" y1="230.0" x2="722.5" y2="230.0" stroke="#666" stroke-width="1"/>
<text x="714.5" y="233.0" text-anchor="end" font-size="10" font-family="sans-serif" fill="#555">5.3e+00</text>
<line x1="718.5" y1="176.7" x2="722.5" y2="176.7" stroke="#666" stroke-width="1"/>
<text x="714.5" y="179.7" text-anchor="end" font-size="10" font-family="sans-serif" fill="#555">1.1e+01</text>
<line x1="718.5" y1="123.3" x2="722.5" y2="123.3" stroke="#666" stroke-width="1"/>
<text x="714.5" y="126.3" text-anchor="end" font-size="10" font-family="sans-serif" fill="#555">1.6e+01</text>
<line x1="718.5" y1="70.0" x2="722.5" y2="70.0" stroke="#666" stroke-width="1"/>
<text x="714.5" y="73.0" text-anchor="end" font-size="10" font-family="sans-serif" fill="#555">2.2e+01</text>
<polyline fill="none" stroke="#1f77b4" stroke-width="2" points="722.5,84.7 728.4,130.6 734.4,157.0 740.3,210.9 746.2,240.3 752.2,241.9 758.1,261.4 764.0,267.5 770.0,262.7 775.9,252.0 781.8,245.2 787.8,253.7 793.7,266.4 799.6,251.1 805.6,260.7 811.5,257.4 817.4,261.7 823.4,260.6 829.3,261.2 835.3,253.8 841.2,263.5 847.1,258.7 853.1,258.9 859.0,251.7 864.9,236.1 870.9,249.0 876.8,246.5 882.7,250.2 888.7,243.6 894.6,267.8 900.5,261.5 906.5,257.2 912.4,260.2 918.3,249.1 924.3,258.9 930.2,260.2 936.1,255.3 942.1,258.4 948.0,257.5 953.9,253.4 959.9,254.9 965.8,251.6 971.7,249.3 977.7,224.9 983.6,260.6 989.5,244.5 995.5,248.3 1001.4,252.5 1007.3,258.5 1013.3,253.2 1019.2,259.7 1025.2,239.5 1031.1,255.6 1037.0,246.5 1043.0,253.0 1048.9,258.3 1054.8,260.5 1060.8,253.1 1066.7,261.6 1072.6,254.0 1078.6,256.6 1084.5,229.9 1090.4,252.2 1096.4,258.5 1102.3,246.4 1108.2,259.6 1114.2,262.6 1120.1,246.8 1126.0,256.0 1132.0,254.5 1137.9,248.8 1143.8,250.1 1149.8,253.0 1155.7,258.6 1161.6,253.2 1167.6,246.3 1173.5,237.0 1179.4,261.0 1185.4,247.9 1191.3,257.2 1197.2,254.2 1203.2,264.3 1209.1,262.4 1215.1,262.8 1221.0,261.4 1226.9,261.2 1232.9,259.4 1238.8,248.3 1244.7,259.6 1250.7,245.5 1256.6,256.2 1262.5,259.5 1268.5,267.2 1274.4,258.6 1280.3,263.1 1286.3,266.9 1292.2,268.6 1298.1,256.0 1304.1,252.1 1310.0,262.2" />
<text x="1016.2" y="313.3" text-anchor="middle" font-size="10" font-family="sans-serif" fill="#666">step</text>
<rect x="90.0" y="353.33333333333337" width="587.5" height="213.33333333333334" fill="#fafafa" stroke="#dddddd"/>
<text x="383.8" y="343.3" text-anchor="middle" font-size="13" font-family="sans-serif">Update Ratio</text>
<line x1="90.0" y1="566.7" x2="90.0" y2="570.7" stroke="#666" stroke-width="1"/>
<text x="90.0" y="582.7" text-anchor="middle" font-size="10" font-family="sans-serif" fill="#555">10</text>
<line x1="236.9" y1="566.7" x2="236.9" y2="570.7" stroke="#666" stroke-width="1"/>
<text x="236.9" y="582.7" text-anchor="middle" font-size="10" font-family="sans-serif" fill="#555">258</text>
<line x1="383.8" y1="566.7" x2="383.8" y2="570.7" stroke="#666" stroke-width="1"/>
<text x="383.8" y="582.7" text-anchor="middle" font-size="10" font-family="sans-serif" fill="#555">505</text>
<line x1="530.6" y1="566.7" x2="530.6" y2="570.7" stroke="#666" stroke-width="1"/>
<text x="530.6" y="582.7" text-anchor="middle" font-size="10" font-family="sans-serif" fill="#555">752</text>
<line x1="677.5" y1="566.7" x2="677.5" y2="570.7" stroke="#666" stroke-width="1"/>
<text x="677.5" y="582.7" text-anchor="middle" font-size="10" font-family="sans-serif" fill="#555">1000</text>
<line x1="86.0" y1="566.7" x2="90.0" y2="566.7" stroke="#666" stroke-width="1"/>
<text x="82.0" y="569.7" text-anchor="end" font-size="10" font-family="sans-serif" fill="#555">2.5e-05</text>
<line x1="86.0" y1="513.3" x2="90.0" y2="513.3" stroke="#666" stroke-width="1"/>
<text x="82.0" y="516.3" text-anchor="end" font-size="10" font-family="sans-serif" fill="#555">5.4e-04</text>
<line x1="86.0" y1="460.0" x2="90.0" y2="460.0" stroke="#666" stroke-width="1"/>
<text x="82.0" y="463.0" text-anchor="end" font-size="10" font-family="sans-serif" fill="#555">1.0e-03</text>
<line x1="86.0" y1="406.7" x2="90.0" y2="406.7" stroke="#666" stroke-width="1"/>
<text x="82.0" y="409.7" text-anchor="end" font-size="10" font-family="sans-serif" fill="#555">1.6e-03</text>
<line x1="86.0" y1="353.3" x2="90.0" y2="353.3" stroke="#666" stroke-width="1"/>
<text x="82.0" y="356.3" text-anchor="end" font-size="10" font-family="sans-serif" fill="#555">2.1e-03</text>
<polyline fill="none" stroke="#1f77b4" stroke-width="2" points="90.0,368.0 95.9,464.1 101.9,504.0 107.8,518.5 113.7,529.2 119.7,536.2 125.6,540.3 131.5,541.9 137.5,542.9 143.4,546.4 149.3,548.0 155.3,548.2 161.2,548.5 167.1,550.0 173.1,550.3 179.0,550.2 184.9,550.9 190.9,551.4 196.8,550.6 202.8,551.6 208.7,550.9 214.6,551.9 220.6,552.0 226.5,548.3 232.4,550.9 238.4,548.9 244.3,549.2 250.2,549.7 256.2,551.8 262.1,550.8 268.0,549.9 274.0,549.6 279.9,547.1 285.8,550.6 291.8,548.2 297.7,549.0 303.6,549.5 309.6,549.3 315.5,548.3 321.4,546.9 327.4,547.1 333.3,546.3 339.2,545.1 345.2,542.4 351.1,546.7 357.0,544.6 363.0,542.1 368.9,542.0 374.8,545.3 380.8,546.7 386.7,546.6 392.7,541.6 398.6,543.2 404.5,544.6 410.5,540.9 416.4,542.6 422.3,543.1 428.3,543.6 434.2,542.8 440.1,542.7 446.1,540.2 452.0,539.7 457.9,541.8 463.9,540.3 469.8,537.2 475.7,540.0 481.7,538.1 487.6,536.0 493.5,538.2 499.5,536.8 505.4,535.9 511.3,537.8 517.3,537.4 523.2,537.6 529.1,535.6 535.1,536.2 541.0,535.7 546.9,536.0 552.9,534.6 558.8,532.5 564.7,529.8 570.7,532.0 576.6,532.3 582.6,533.6 588.5,532.1 594.4,532.8 600.4,532.5 606.3,531.2 612.2,531.3 618.2,530.7 624.1,530.1 630.0,530.3 636.0,532.5 641.9,531.1 647.8,530.8 653.8,532.0 659.7,531.3 665.6,526.7 671.6,529.2 677.5,527.4" />
<text x="383.8" y="596.7" text-anchor="middle" font-size="10" font-family="sans-serif" fill="#666">step</text>
<rect x="722.5" y="353.33333333333337" width="587.5" height="213.33333333333334" fill="#fafafa" stroke="#dddddd"/>
<text x="1016.2" y="343.3" text-anchor="middle" font-size="13" font-family="sans-serif">Grad-Update Cos</text>
<line x1="722.5" y1="566.7" x2="722.5" y2="570.7" stroke="#666" stroke-width="1"/>
<text x="722.5" y="582.7" text-anchor="middle" font-size="10" font-family="sans-serif" fill="#555">10</text>
<line x1="869.4" y1="566.7" x2="869.4" y2="570.7" stroke="#666" stroke-width="1"/>
<text x="869.4" y="582.7" text-anchor="middle" font-size="10" font-family="sans-serif" fill="#555">258</text>
<line x1="1016.2" y1="566.7" x2="1016.2" y2="570.7" stroke="#666" stroke-width="1"/>
<text x="1016.2" y="582.7" text-anchor="middle" font-size="10" font-family="sans-serif" fill="#555">505</text>
<line x1="1163.1" y1="566.7" x2="1163.1" y2="570.7" stroke="#666" stroke-width="1"/>
<text x="1163.1" y="582.7" text-anchor="middle" font-size="10" font-family="sans-serif" fill="#555">752</text>
<line x1="1310.0" y1="566.7" x2="1310.0" y2="570.7" stroke="#666" stroke-width="1"/>
<text x="1310.0" y="582.7" text-anchor="middle" font-size="10" font-family="sans-serif" fill="#555">1000</text>
<line x1="718.5" y1="566.7" x2="722.5" y2="566.7" stroke="#666" stroke-width="1"/>
<text x="714.5" y="569.7" text-anchor="end" font-size="10" font-family="sans-serif" fill="#555">-0.448</text>
<line x1="718.5" y1="513.3" x2="722.5" y2="513.3" stroke="#666" stroke-width="1"/>
<text x="714.5" y="516.3" text-anchor="end" font-size="10" font-family="sans-serif" fill="#555">-0.323</text>
<line x1="718.5" y1="460.0" x2="722.5" y2="460.0" stroke="#666" stroke-width="1"/>
<text x="714.5" y="463.0" text-anchor="end" font-size="10" font-family="sans-serif" fill="#555">-0.198</text>
<line x1="718.5" y1="406.7" x2="722.5" y2="406.7" stroke="#666" stroke-width="1"/>
<text x="714.5" y="409.7" text-anchor="end" font-size="10" font-family="sans-serif" fill="#555">-0.073</text>
<line x1="718.5" y1="353.3" x2="722.5" y2="353.3" stroke="#666" stroke-width="1"/>
<text x="714.5" y="356.3" text-anchor="end" font-size="10" font-family="sans-serif" fill="#555">0.052</text>
<polyline fill="none" stroke="#1f77b4" stroke-width="2" points="722.5,452.5 728.4,438.9 734.4,368.0 740.3,477.2 746.2,386.3 752.2,422.9 758.1,445.9 764.0,425.2 770.0,443.6 775.9,436.4 781.8,444.2 787.8,454.3 793.7,434.6 799.6,433.3 805.6,425.1 811.5,455.1 817.4,460.0 823.4,495.3 829.3,463.6 835.3,456.3 841.2,498.4 847.1,450.2 853.1,394.5 859.0,535.4 864.9,474.4 870.9,493.8 876.8,509.5 882.7,493.8 888.7,453.3 894.6,453.5 900.5,463.7 906.5,469.1 912.4,512.1 918.3,412.4 924.3,463.4 930.2,441.7 936.1,464.0 942.1,476.9 948.0,460.4 953.9,514.1 959.9,473.5 965.8,522.4 971.7,491.5 977.7,552.0 983.6,428.6 989.5,525.4 995.5,541.1 1001.4,524.5 1007.3,512.8 1013.3,426.2 1019.2,455.3 1025.2,521.5 1031.1,457.7 1037.0,455.7 1043.0,502.4 1048.9,490.9 1054.8,421.2 1060.8,451.5 1066.7,470.2 1072.6,469.3 1078.6,413.3 1084.5,480.2 1090.4,441.5 1096.4,410.9 1102.3,468.4 1108.2,422.7 1114.2,409.8 1120.1,492.1 1126.0,434.0 1132.0,467.4 1137.9,486.7 1143.8,447.4 1149.8,450.7 1155.7,402.8 1161.6,469.5 1167.6,463.7 1173.5,460.7 1179.4,443.5 1185.4,450.6 1191.3,500.3 1197.2,480.8 1203.2,468.3 1209.1,457.8 1215.1,457.3 1221.0,464.2 1226.9,467.5 1232.9,465.7 1238.8,468.7 1244.7,428.9 1250.7,485.9 1256.6,446.7 1262.5,464.6 1268.5,462.8 1274.4,461.4 1280.3,426.8 1286.3,439.8 1292.2,428.5 1298.1,465.7 1304.1,418.1 1310.0,459.0" />
<text x="1016.2" y="596.7" text-anchor="middle" font-size="10" font-family="sans-serif" fill="#666">step</text>
<rect x="90.0" y="636.6666666666667" width="587.5" height="213.33333333333334" fill="#fafafa" stroke="#dddddd"/>
<text x="383.8" y="626.7" text-anchor="middle" font-size="13" font-family="sans-serif">Top Hessian Eig (power iter)</text>
<line x1="90.0" y1="850.0" x2="90.0" y2="854.0" stroke="#666" stroke-width="1"/>
<text x="90.0" y="866.0" text-anchor="middle" font-size="10" font-family="sans-serif" fill="#555">10</text>
<line x1="236.9" y1="850.0" x2="236.9" y2="854.0" stroke="#666" stroke-width="1"/>
<text x="236.9" y="866.0" text-anchor="middle" font-size="10" font-family="sans-serif" fill="#555">258</text>
<line x1="383.8" y1="850.0" x2="383.8" y2="854.0" stroke="#666" stroke-width="1"/>
<text x="383.8" y="866.0" text-anchor="middle" font-size="10" font-family="sans-serif" fill="#555">505</text>
<line x1="530.6" y1="850.0" x2="530.6" y2="854.0" stroke="#666" stroke-width="1"/>
<text x="530.6" y="866.0" text-anchor="middle" font-size="10" font-family="sans-serif" fill="#555">752</text>
<line x1="677.5" y1="850.0" x2="677.5" y2="854.0" stroke="#666" stroke-width="1"/>
<text x="677.5" y="866.0" text-anchor="middle" font-size="10" font-family="sans-serif" fill="#555">1000</text>
<line x1="86.0" y1="850.0" x2="90.0" y2="850.0" stroke="#666" stroke-width="1"/>
<text x="82.0" y="853.0" text-anchor="end" font-size="10" font-family="sans-serif" fill="#555">1.7e+02</text>
<line x1="86.0" y1="796.7" x2="90.0" y2="796.7" stroke="#666" stroke-width="1"/>
<text x="82.0" y="799.7" text-anchor="end" font-size="10" font-family="sans-serif" fill="#555">2.2e+02</text>
<line x1="86.0" y1="743.3" x2="90.0" y2="743.3" stroke="#666" stroke-width="1"/>
<text x="82.0" y="746.3" text-anchor="end" font-size="10" font-family="sans-serif" fill="#555">2.6e+02</text>
<line x1="86.0" y1="690.0" x2="90.0" y2="690.0" stroke="#666" stroke-width="1"/>
<text x="82.0" y="693.0" text-anchor="end" font-size="10" font-family="sans-serif" fill="#555">3.1e+02</text>
<line x1="86.0" y1="636.7" x2="90.0" y2="636.7" stroke="#666" stroke-width="1"/>
<text x="82.0" y="639.7" text-anchor="end" font-size="10" font-family="sans-serif" fill="#555">3.6e+02</text>
<polyline fill="none" stroke="#1f77b4" stroke-width="2" points="113.7,651.4 143.4,725.7 173.1,733.5 202.8,823.4 232.4,688.9 262.1,768.3 291.8,730.6 321.4,727.7 351.1,768.1 380.8,829.4 410.5,807.6 440.1,690.2 469.8,818.1 499.5,739.3 529.1,818.5 558.8,817.6 588.5,781.7 618.2,802.8 647.8,835.3 677.5,792.4" />
<text x="383.8" y="880.0" text-anchor="middle" font-size="10" font-family="sans-serif" fill="#666">step</text>
<rect x="722.5" y="636.6666666666667" width="587.5" height="213.33333333333334" fill="#fafafa" stroke="#dddddd"/>
<text x="1016.2" y="626.7" text-anchor="middle" font-size="13" font-family="sans-serif">Step Time (s)</text>
<line x1="722.5" y1="850.0" x2="722.5" y2="854.0" stroke="#666" stroke-width="1"/>
<text x="722.5" y="866.0" text-anchor="middle" font-size="10" font-family="sans-serif" fill="#555">10</text>
<line x1="869.4" y1="850.0" x2="869.4" y2="854.0" stroke="#666" stroke-width="1"/>
<text x="869.4" y="866.0" text-anchor="middle" font-size="10" font-family="sans-serif" fill="#555">258</text>
<line x1="1016.2" y1="850.0" x2="1016.2" y2="854.0" stroke="#666" stroke-width="1"/>
<text x="1016.2" y="866.0" text-anchor="middle" font-size="10" font-family="sans-serif" fill="#555">505</text>
<line x1="1163.1" y1="850.0" x2="1163.1" y2="854.0" stroke="#666" stroke-width="1"/>
<text x="1163.1" y="866.0" text-anchor="middle" font-size="10" font-family="sans-serif" fill="#555">752</text>
<line x1="1310.0" y1="850.0" x2="1310.0" y2="854.0" stroke="#666" stroke-width="1"/>
<text x="1310.0" y="866.0" text-anchor="middle" font-size="10" font-family="sans-serif" fill="#555">1000</text>
<line x1="718.5" y1="850.0" x2="722.5" y2="850.0" stroke="#666" stroke-width="1"/>
<text x="714.5" y="853.0" text-anchor="end" font-size="10" font-family="sans-serif" fill="#555">0.0019</text>
<line x1="718.5" y1="796.7" x2="722.5" y2="796.7" stroke="#666" stroke-width="1"/>
<text x="714.5" y="799.7" text-anchor="end" font-size="10" font-family="sans-serif" fill="#555">0.0235</text>
<line x1="718.5" y1="743.3" x2="722.5" y2="743.3" stroke="#666" stroke-width="1"/>
<text x="714.5" y="746.3" text-anchor="end" font-size="10" font-family="sans-serif" fill="#555">0.0452</text>
<line x1="718.5" y1="690.0" x2="722.5" y2="690.0" stroke="#666" stroke-width="1"/>
<text x="714.5" y="693.0" text-anchor="end" font-size="10" font-family="sans-serif" fill="#555">0.0668</text>
<line x1="718.5" y1="636.7" x2="722.5" y2="636.7" stroke="#666" stroke-width="1"/>
<text x="714.5" y="639.7" text-anchor="end" font-size="10" font-family="sans-serif" fill="#555">0.0885</text>
<polyline fill="none" stroke="#1f77b4" stroke-width="2" points="722.5,651.4 728.4,833.9 734.4,833.8 740.3,834.1 746.2,833.6 752.2,834.3 758.1,834.8 764.0,834.7 770.0,835.0 775.9,832.5 781.8,834.4 787.8,834.6 793.7,834.8 799.6,834.7 805.6,834.4 811.5,834.5 817.4,833.0 823.4,834.3 829.3,834.5 835.3,834.4 841.2,834.3 847.1,834.2 853.1,834.3 859.0,833.3 864.9,834.8 870.9,834.5 876.8,834.4 882.7,834.2 888.7,834.8 894.6,834.3 900.5,834.4 906.5,835.0 912.4,834.7 918.3,834.4 924.3,834.6 930.2,834.1 936.1,834.9 942.1,834.4 948.0,834.6 953.9,835.1 959.9,833.6 965.8,834.3 971.7,834.4 977.7,834.6 983.6,834.6 989.5,832.7 995.5,833.2 1001.4,834.0 1007.3,834.0 1013.3,834.2 1019.2,832.8 1025.2,834.1 1031.1,834.0 1037.0,833.9 1043.0,834.3 1048.9,833.5 1054.8,833.9 1060.8,834.2 1066.7,834.9 1072.6,834.4 1078.6,834.5 1084.5,835.3 1090.4,834.7 1096.4,834.5 1102.3,834.4 1108.2,834.7 1114.2,834.5 1120.1,835.0 1126.0,835.1 1132.0,833.6 1137.9,834.4 1143.8,834.2 1149.8,832.5 1155.7,834.6 1161.6,834.4 1167.6,834.2 1173.5,834.5 1179.4,834.7 1185.4,834.8 1191.3,833.3 1197.2,834.4 1203.2,834.3 1209.1,834.9 1215.1,834.8 1221.0,835.0 1226.9,833.8 1232.9,834.8 1238.8,834.9 1244.7,834.5 1250.7,834.9 1256.6,834.5 1262.5,835.0 1268.5,834.9 1274.4,834.4 1280.3,834.3 1286.3,834.9 1292.2,834.3 1298.1,835.1 1304.1,834.5 1310.0,834.9" />
<text x="1016.2" y="880.0" text-anchor="middle" font-size="10" font-family="sans-serif" fill="#666">step</text>
<line x1="1140" y1="40" x2="1164" y2="40" stroke="#1f77b4" stroke-width="3"/>
<text x="1170" y="44" font-size="12" font-family="sans-serif">adamw</text>
</svg>
