<svg xmlns="http://www.w3.org/2000/svg" width="1400" height="920" viewBox="0 0 1400 920">
<rect x="0" y="0" width="100%" height="100%" fill="#ffffff" />
<text x="700.0" y="35" text-anchor="middle" font-size="22" font-family="sans-serif">Optimizer Dynamics Diagnostics</text>
<rect x="90.0" y="70.0" width="587.5" height="213.33333333333334" fill="#fafafa" stroke="#dddddd"/>
<text x="383.8" y="60.0" text-anchor="middle" font-size="13" font-family="sans-serif">Loss</text>
<line x1="90.0" y1="283.3" x2="90.0" y2="287.3" stroke="#666" stroke-width="1"/>
<text x="90.0" y="299.3" text-anchor="middle" font-size="10" font-family="sans-serif" fill="#555">10</text>
<line x1="236.9" y1="283.3" x2="236.9" y2="287.3" stroke="#666" stroke-width="1"/>
<text x="236.9" y="299.3" text-anchor="middle" font-size="10" font-family="sans-serif" fill="#555">258</text>
<line x1="383.8" y1="283.3" x2="383.8" y2="287.3" stroke="#666" stroke-width="1"/>
<text x="383.8" y="299.3" text-anchor="middle" font-size="10" font-family="sans-serif" fill="#555">505</text>
<line x1="530.6" y1="283.3" x2="530.6" y2="287.3" stroke="#666" stroke-width="1"/>
<text x="530.6" y="299.3" text-anchor="middle" font-size="10" font-family="sans-serif" fill="#555">752</text>
<line x1="677.5" y1="283.3" x2="677.5" y2="287.3" stroke="#666" stroke-width="1"/>
<text x="677.5" y="299.3" text-anchor="middle" font-size="10" font-family="sans-serif" fill="#555">1000</text>
<line x1="86.0" y1="283.3" x2="90.0" y2="283.3" stroke="#666" stroke-width="1"/>
<text x="82.0" y="286.3" text-anchor="end" font-size="10" font-family="sans-serif" fill="#555">-4.11</text>
<line x1="86.0" y1="230.0" x2="90.0" y2="230.0" stroke="#666" stroke-width="1"/>
<text x="82.0" y="233.0" text-anchor="end" font-size="10" font-family="sans-serif" fill="#555">17.78</text>
<line x1="86.0" y1="176.7" x2="90.0" y2="176.7" stroke="#666" stroke-width="1"/>
<text x="82.0" y="179.7" text-anchor="end" font-size="10" font-family="sans-serif" fill="#555">39.66</text>
<line x1="86.0" y1="123.3" x2="90.0" y2="123.3" stroke="#666" stroke-width="1"/>
<text x="82.0" y="126.3" text-anchor="end" font-size="10" font-family="sans-serif" fill="#555">61.55</text>
<line x1="86.0" y1="70.0" x2="90.0" y2="70.0" stroke="#666" stroke-width="1"/>
<text x="82.0" y="73.0" text-anchor="end" font-size="10" font-family="sans-serif" fill="#555">83.43</text>
<polyline fill="none" stroke="#1f77b4" stroke-width="2" points="90.0,84.7 95.9,245.7 101.9,257.9 107.8,262.8 113.7,264.8 119.7,265.5 125.6,266.1 131.5,266.4 137.5,266.7 143.4,266.9 149.3,267.0 155.3,267.1 161.2,267.2 167.1,267.3 173.1,267.4 179.0,267.4 184.9,267.4 190.9,267.5 196.8,267.5 202.8,267.6 208.7,267.6 214.6,267.6 220.6,267.5 226.5,267.6 232.4,267.6 238.4,267.6 244.3,267.6 250.2,267.6 256.2,267.7 262.1,267.7 268.0,267.7 274.0,267.7 279.9,267.7 285.8,267.7 291.8,267.8 297.7,267.7 303.6,267.7 309.6,267.8 315.5,267.8 321.4,267.8 327.4,267.7 333.3,267.7 339.2,267.8 345.2,267.7 351.1,267.7 357.0,267.8 363.0,267.7 368.9,267.8 374.8,267.7 380.8,267.8 386.7,267.8 392.7,267.8 398.6,267.8 404.5,267.8 410.5,267.8 416.4,267.8 422.3,267.9 428.3,267.9 434.2,267.8 440.1,267.9 446.1,267.9 452.0,267.8 457.9,267.9 463.9,267.9 469.8,267.8 475.7,268.0 481.7,268.0 487.6,267.9 493.5,267.9 499.5,268.0 505.4,268.0 511.3,268.0 517.3,268.0 523.2,268.1 529.1,268.1 535.1,268.1 541.0,268.1 546.9,268.1 552.9,268.1 558.8,268.2 564.7,268.2 570.7,268.2 576.6,268.2 582.6,268.3 588.5,268.2 594.4,268.3 600.4,268.4 606.3,268.3 612.2,268.3 618.2,268.3 624.1,268.4 630.0,268.4 636.0,268.4 641.9,268.5 647.8,268.5 653.8,268.6 659.7,268.5 665.6,268.6 671.6,268.6 677.5,268.5" />
<text x="383.8" y="313.3" text-anchor="middle" font-size="10" font-family="sans-serif" fill="#666">step</text>
<rect x="722.5" y="70.0" width="587.5" height="213.33333333333334" fill="#fafafa" stroke="#dddddd"/>
<text x="1016.2" y="60.0" text-anchor="middle" font-size="13" font-family="sans-serif">Grad Norm (L2)</text>
<line x1="722.5" y1="283.3" x2="722.5" y2="287.3" stroke="#666" stroke-width="1"/>
<text x="722.5" y="299.3" text-anchor="middle" font-size="10" font-family="sans-serif" fill="#555">10</text>
<line x1="869.4" y1="283.3" x2="869.4" y2="287.3" stroke="#666" stroke-width="1"/>
<text x="869.4" y="299.3" text-anchor="middle" font-size="10" font-family="sans-serif" fill="#555">258</text>
<line x1="1016.2" y1="283.3" x2="1016.2" y2="287.3" stroke="#666" stroke-width="1"/>
<text x="1016.2" y="299.3" text-anchor="middle" font-size="10" font-family="sans-serif" fill="#555">505</text>
<line x1="1163.1" y1="283.3" x2="1163.1" y2="287.3" stroke="#666" stroke-width="1"/>
<text x="1163.1" y="299.3" text-anchor="middle" font-size="10" font-family="sans-serif" fill="#555">752</text>
<line x1="1310.0" y1="283.3" x2="1310.0" y2="287.3" stroke="#666" stroke-width="1"/>
<text x="1310.0" y="299.3" text-anchor="middle" font-size="10" font-family="sans-serif" fill="#555">1000</text>
<line x1="718.5" y1="283.3" x2="722.5" y2="283.3" stroke="#666" stroke-width="1"/>
<text x="714.5" y="286.3" text-anchor="end" font-size="10" font-family="sans-serif" fill="#555">-1.3e-01</text>
<line x1="718.5" y1="230.0" x2="722.5" y2="230.0" stroke="#666" stroke-width="1"/>
<text x="714.5" y="233.0" text-anchor="end" font-size="10" font-family="sans-serif" fill="#555">5.3e+00</text>
<line x1="718.5" y1="176.7" x2="722.5" y2="176.7" stroke="#666" stroke-width="1"/>
<text x="714.5" y="179.7" text-anchor="end" font-size="10" font-family="sans-serif" fill="#555">1.1e+01</text>
<line x1="718.5" y1="123.3" x2="722.5" y2="123.3" stroke="#666" stroke-width="1"/>
<text x="714.5" y="126.3" text-anchor="end" font-size="10" font-family="sans-serif" fill="#555">1.6e+01</text>
<line x1="718.5" y1="70.0" x2="722.5" y2="70.0" stroke="#666" stroke-width="1"/>
<text x="714.5" y="73.0" text-anchor="end" font-size="10" font-family="sans-serif" fill="#555">2.2e+01</text>
<polyline fill="none" stroke="#1f77b4" stroke-width="2" points="722.5,84.7 728.4,130.6 734.4,157.0 740.3,210.9 746.2,240.3 752.2,241.9 758.1,261.4 764.0,267.5 770.0,262.7 775.9,252.0 781.8,245.2 787.8,253.7 793.7,266.4 799.6,251.1 805.6,260.7 811.5,257.4 817.4,261.7 823.4,260.6 829.3,261.2 835.3,253.8 841.2,263.5 847.1,258.7 853.1,258.9 859.0,251.7 864.9,236.1 870.9,249.0 876.8,246.5 882.7,250.2 888.7,243.6 894.6,267.8 900.5,261.5 906.5,257.2 912.4,260.2 918.3,249.1 924.3,258.9 930.2,260.2 936.1,255.3 942.1,258.4 948.0,257.5 953.9,253.4 959.9,254.9 965.8,251.6 971.7,249.3 977.7,224.9 983.6,260.6 989.5,244.5 995.5,248.3 1001.4,252.5 1007.3,258.5 1013.3,253.2 1019.2,259.7 1025.2,239.5 1031.1,255.6 1037.0,246.5 1043.0,253.0 1048.9,258.3 1054.8,260.5 1060.8,253.1 1066.7,261.6 1072.6,254.0 1078.6,256.6 1084.5,229.9 1090.4,252.2 1096.4,258.5 1102.3,246.4 1108.2,259.6 1114.2,262.6 1120.1,246.8 1126.0,256.0 1132.0,254.5 1137.9,248.8 1143.8,250.1 1149.8,253.0 1155.7,258.6 1161.6,253.2 1167.6,246.3 1173.5,237.0 1179.4,261.0 1185.4,247.9 1191.3,257.2 1197.2,254.2 1203.2,264.3 1209.1,262.4 1215.1,262.8 1221.0,261.4 1226.9,261.2 1232.9,259.4 1238.8,248.3 1244.7,259.6 1250.7,245.5 1256.6,256.2 1262.5,259.5 1268.5,267.2 1274.4,258.6 1280.3,263.1 1286.3,266.9 1292.2,268.6 1298.1,256.0 1304.1,252.1 1310.0,262.2" />
<text x="1016.2" y="313.3" text-anchor="middle" font-size="10" font-family="sans-serif" fill="#666">step</text>
<rect x="90.0" y="353.33333333333337" width="587.5" height="213.33333333333334" fill="#fafafa" stroke="#dddddd"/>
<text x="383.8" y="343.3" text-anchor="middle" font-size="13" font-family="sans-serif">Update Ratio</text>
<line x1="90.0" y1="566.7" x2="90.0" y2="570.7" stroke="#666" stroke-width="1"/>
<text x="90.0" y="582.7" text-anchor="middle" font-size="10" font-family="sans-serif" fill="#555">10</text>
<line x1="236.9" y1="566.7" x2="236.9" y2="570.7" stroke="#666" stroke-width="1"/>
<text x="236.9" y="582.7" text-anchor="middle" font-size="10" font-family="sans-serif" fill="#555">258</text>
<line x1="383.8" y1="566.7" x2="383.8" y2="570.7" stroke="#666" stroke-width="1"/>
<text x="383.8" y="582.7" text-anchor="middle" font-size="10" font-family="sans-serif" fill="#555">505</text>
<line x1="530.6" y1="566.7" x2="530.6" y2="570.7" stroke="#666" stroke-width="1"/>
<text x="530.6" y="582.7" text-anchor="middle" font-size="10" font-family="sans-serif" fill="#555">752</text>
<line x1="677.5" y1="566.7" x2="677.5" y2="570.7" stroke="#666" stroke-width="1"/>
<text x="677.5" y="582.7" text-anchor="middle" font-size="10" font-family="sans-serif" fill="#555">1000</text>
<line x1="86.0" y1="566.7" x2="90.0" y2="566.7" stroke="#666" stroke-width="1"/>
<text x="82.0" y="569.7" text-anchor="end" font-size="10" font-family="sans-serif" fill="#555">2.5e-05</text>
<line x1="86.0" y1="513.3" x2="90.0" y2="513.3" stroke="#666" stroke-width="1"/>
<text x="82.0" y="516.3" text-anchor="end" font-size="10" font-family="sans-serif" fill="#555">5.4e-04</text>
<line x1="86.0" y1="460.0" x2="90.0" y2="460.0" stroke="#666" stroke-width="1"/>
<text x="82.0" y="463.0" text-anchor="end" font-size="10" font-family="sans-serif" fill="#555">1.0e-03</text>
<line x1="86.0" y1="406.7" x2="90.0" y2="406.7" stroke="#666" stroke-width="1"/>
<text x="82.0" y="409.7" text-anchor="end" font-size="10" font-family="sans-serif" fill="#555">1.6e-03</text>
<line x1="86.0" y1="353.3" x2="90.0" y2="353.3" stroke="#666" stroke-width="1"/>
<text x="82.0" y="356.3" text-anchor="end" font-size="10" font-family="sans-serif" fill="#555">2.1e-03</text>
<polyline fill="none" stroke="#1f77b4" stroke-width="2" points="90.0,368.0 95.9,464.1 101.9,504.0 107.8,518.5 113.7,529.2 119.7,536.2 125.6,540.3 131.5,541.9 137.5,542.9 143.4,546.4 149.3,548.0 155.3,548.2 161.2,548.5 167.1,550.0 173.1,550.3 179.0,550.2 184.9,550.9 190.9,551.4 196.8,550.6 202.8,551.6 208.7,550.9 214.6,551.9 220.6,552.0 226.5,548.3 232.4,550.9 238.4,548.9 244.3,549.2 250.2,549.7 256.2,551.8 262.1,550.8 268.0,549.9 274.0,549.6 279.9,547.1 285.8,550.6 291.8,548.2 297.7,549.0 303.6,549.5 309.6,549.3 315.5,548.3 321.4,546.9 327.4,547.1 333.3,546.3 339.2,545.1 345.2,542.4 351.1,546.7 357.0,544.6 363.0,542.1 368.9,542.0 374.8,545.3 380.8,546.7 386.7,546.6 392.7,541.6 398.6,543.2 404.5,544.6 410.5,540.9 416.4,542.6 422.3,543.1 428.3,543.6 434.2,542.8 440.1,542.7 446.1,540.2 452.0,539.7 457.9,541.8 463.9,540.3 469.8,537.2 475.7,540.0 481.7,538.1 487.6,536.0 493.5,538.2 499.5,536.8 505.4,535.9 511.3,537.8 517.3,537.4 523.2,537.6 529.1,535.6 535.1,536.2 541.0,535.7 546.9,536.0 552.9,534.6 558.8,532.5 564.7,529.8 570.7,532.0 576.6,532.3 582.6,533.6 588.5,532.1 594.4,532.8 600.4,532.5 606.3,531.2 612.2,531.3 618.2,530.7 624.1,530.1 630.0,530.3 636.0,532.5 641.9,531.1 647.8,530.8 653.8,532.0 659.7,531.3 665.6,526.7 671.6,529.2 677.5,527.4" />
<text x="383.8" y="596.7" text-anchor="middle" font-size="10" font-family="sans-serif" fill="#666">step</text>
<rect x="722.5" y="353.33333333333337" width="587.5" height="213.33333333333334" fill="#fafafa" stroke="#dddddd"/>
<text x="1016.2" y="343.3" text-anchor="middle" font-size="13" font-family="sans-serif">Grad-Update Cos</text>
<line x1="722.5" y1="566.7" x2="722.5" y2="570.7" stroke="#666" stroke-width="1"/>
<text x="722.5" y="582.7" text-anchor="middle" font-size="10" font-family="sans-serif" fill="#555">10</text>
<line x1="869.4" y1="566.7" x2="869.4" y2="570.7" stroke="#666" stroke-width="1"/>
<text x="869.4" y="582.7" text-anchor="middle" font-size="10" font-family="sans-serif" fill="#555">258</text>
<line x1="1016.2" y1="566.7" x2="1016.2" y2="570.7" stroke="#666" stroke-width="1"/>
<text x="1016.2" y="582.7" text-anchor="middle" font-size="10" font-family="sans-serif" fill="#555">505</text>
<line x1="1163.1" y1="566.7" x2="1163.1" y2="570.7" stroke="#666" stroke-width="1"/>
<text x="1163.1" y="582.7" text-anchor="middle" font-size="10" font-family="sans-serif" fill="#555">752</text>
<line x1="1310.0" y1="566.7" x2="1310.0" y2="570.7" stroke="#666" stroke-width="1"/>
<text x="1310.0" y="582.7" text-anchor="middle" font-size="10" font-family="sans-serif" fill="#555">1000</text>
<line x1="718.5" y1="566.7" x2="722.5" y2="566.7" stroke="#666" stroke-width="1"/>
<text x="714.5" y="569.7" text-anchor="end" font-size="10" font-family="sans-serif" fill="#555">-1.081</text>
<line x1="718.5" y1="513.3" x2="722.5" y2="513.3" stroke="#666" stroke-width="1"/>
<text x="714.5" y="516.3" text-anchor="end" font-size="10" font-family="sans-serif" fill="#555">-0.786</text>
<line x1="718.5" y1="460.0" x2="722.5" y2="460.0" stroke="#666" stroke-width="1"/>
<text x="714.5" y="463.0" text-anchor="end" font-size="10" font-family="sans-serif" fill="#555">-0.491</text>
<line x1="718.5" y1="406.7" x2="722.5" y2="406.7" stroke="#666" stroke-width="1"/>
<text x="714.5" y="409.7" text-anchor="end" font-size="10" font-family="sans-serif" fill="#555">-0.196</text>
<line x1="718.5" y1="353.3" x2="722.5" y2="353.3" stroke="#666" stroke-width="1"/>
<text x="714.5" y="356.3" text-anchor="end" font-size="10" font-family="sans-serif" fill="#555">0.099</text>
<line x1="722.5" y1="371.2" x2="1310.0" y2="371.2" stroke="#666666" stroke-width="1.5" stroke-dasharray="6,4"/>
<text x="1304.0" y="367.2" text-anchor="end" font-size="10" font-family="sans-serif" fill="#666666">0</text>
<line x1="722.5" y1="552.0" x2="1310.0" y2="552.0" stroke="#999999" stroke-width="1.5" stroke-dasharray="6,4"/>
<text x="1304.0" y="548.0" text-anchor="end" font-size="10" font-family="sans-serif" fill="#999999">-1</text>
<polyline fill="none" stroke="#1f77b4" stroke-width="2" points="722.5,403.9 728.4,398.1 734.4,368.0 740.3,414.3 746.2,375.8 752.2,391.3 758.1,401.1 764.0,392.3 770.0,400.1 775.9,397.0 781.8,400.3 787.8,404.6 793.7,396.3 799.6,395.7 805.6,392.2 811.5,405.0 817.4,407.0 823.4,422.0 829.3,408.6 835.3,405.4 841.2,423.3 847.1,402.9 853.1,379.3 859.0,439.0 864.9,413.1 870.9,421.3 876.8,428.0 882.7,421.4 888.7,404.2 894.6,404.3 900.5,408.6 906.5,410.9 912.4,429.1 918.3,386.9 924.3,408.4 930.2,399.3 936.1,408.7 942.1,414.2 948.0,407.2 953.9,430.0 959.9,412.7 965.8,433.5 971.7,420.4 977.7,446.0 983.6,393.7 989.5,434.8 995.5,441.4 1001.4,434.3 1007.3,429.4 1013.3,392.7 1019.2,405.0 1025.2,433.1 1031.1,406.1 1037.0,405.2 1043.0,425.0 1048.9,420.1 1054.8,390.6 1060.8,403.4 1066.7,411.4 1072.6,411.0 1078.6,387.2 1084.5,415.6 1090.4,399.2 1096.4,386.2 1102.3,410.6 1108.2,391.2 1114.2,385.7 1120.1,420.6 1126.0,396.0 1132.0,410.2 1137.9,418.3 1143.8,401.7 1149.8,403.1 1155.7,382.8 1161.6,411.1 1167.6,408.6 1173.5,407.3 1179.4,400.0 1185.4,403.0 1191.3,424.1 1197.2,415.8 1203.2,410.5 1209.1,406.1 1215.1,405.9 1221.0,408.8 1226.9,410.2 1232.9,409.4 1238.8,410.7 1244.7,393.9 1250.7,418.0 1256.6,401.4 1262.5,409.0 1268.5,408.2 1274.4,407.6 1280.3,392.9 1286.3,398.5 1292.2,393.7 1298.1,409.4 1304.1,389.3 1310.0,406.6" />
<text x="1016.2" y="596.7" text-anchor="middle" font-size="10" font-family="sans-serif" fill="#666">step</text>
<rect x="90.0" y="636.6666666666667" width="587.5" height="213.33333333333334" fill="#fafafa" stroke="#dddddd"/>
<text x="383.8" y="626.7" text-anchor="middle" font-size="13" font-family="sans-serif">Hessian 2-Norm (power iter)</text>
<line x1="90.0" y1="850.0" x2="90.0" y2="854.0" stroke="#666" stroke-width="1"/>
<text x="90.0" y="866.0" text-anchor="middle" font-size="10" font-family="sans-serif" fill="#555">10</text>
<line x1="236.9" y1="850.0" x2="236.9" y2="854.0" stroke="#666" stroke-width="1"/>
<text x="236.9" y="866.0" text-anchor="middle" font-size="10" font-family="sans-serif" fill="#555">258</text>
<line x1="383.8" y1="850.0" x2="383.8" y2="854.0" stroke="#666" stroke-width="1"/>
<text x="383.8" y="866.0" text-anchor="middle" font-size="10" font-family="sans-serif" fill="#555">505</text>
<line x1="530.6" y1="850.0" x2="530.6" y2="854.0" stroke="#666" stroke-width="1"/>
<text x="530.6" y="866.0" text-anchor="middle" font-size="10" font-family="sans-serif" fill="#555">752</text>
<line x1="677.5" y1="850.0" x2="677.5" y2="854.0" stroke="#666" stroke-width="1"/>
<text x="677.5" y="866.0" text-anchor="middle" font-size="10" font-family="sans-serif" fill="#555">1000</text>
<line x1="86.0" y1="850.0" x2="90.0" y2="850.0" stroke="#666" stroke-width="1"/>
<text x="82.0" y="853.0" text-anchor="end" font-size="10" font-family="sans-serif" fill="#555">-2.8e+01</text>
<line x1="86.0" y1="796.7" x2="90.0" y2="796.7" stroke="#666" stroke-width="1"/>
<text x="82.0" y="799.7" text-anchor="end" font-size="10" font-family="sans-serif" fill="#555">7.3e+01</text>
<line x1="86.0" y1="743.3" x2="90.0" y2="743.3" stroke="#666" stroke-width="1"/>
<text x="82.0" y="746.3" text-anchor="end" font-size="10" font-family="sans-serif" fill="#555">1.7e+02</text>
<line x1="86.0" y1="690.0" x2="90.0" y2="690.0" stroke="#666" stroke-width="1"/>
<text x="82.0" y="693.0" text-anchor="end" font-size="10" font-family="sans-serif" fill="#555">2.7e+02</text>
<line x1="86.0" y1="636.7" x2="90.0" y2="636.7" stroke="#666" stroke-width="1"/>
<text x="82.0" y="639.7" text-anchor="end" font-size="10" font-family="sans-serif" fill="#555">3.7e+02</text>
<line x1="90.0" y1="835.3" x2="677.5" y2="835.3" stroke="#666666" stroke-width="1.5" stroke-dasharray="6,4"/>
<text x="671.5" y="831.3" text-anchor="end" font-size="10" font-family="sans-serif" fill="#666666">0</text>
<polyline fill="none" stroke="#1f77b4" stroke-width="2" points="113.7,651.4 143.4,685.7 173.1,690.5 202.8,731.7 232.4,669.3 262.1,706.9 291.8,685.8 321.4,687.9 351.1,707.1 380.8,736.0 410.5,725.0 440.1,669.8 469.8,730.2 499.5,693.2 529.1,730.5 558.8,729.6 588.5,711.7 618.2,723.2 647.8,737.8 677.5,718.7" />
<text x="383.8" y="880.0" text-anchor="middle" font-size="10" font-family="sans-serif" fill="#666">step</text>
<rect x="722.5" y="636.6666666666667" width="587.5" height="213.33333333333334" fill="#fafafa" stroke="#dddddd"/>
<text x="1016.2" y="626.7" text-anchor="middle" font-size="13" font-family="sans-serif">Step Time (s)</text>
<line x1="722.5" y1="850.0" x2="722.5" y2="854.0" stroke="#666" stroke-width="1"/>
<text x="722.5" y="866.0" text-anchor="middle" font-size="10" font-family="sans-serif" fill="#555">10</text>
<line x1="869.4" y1="850.0" x2="869.4" y2="854.0" stroke="#666" stroke-width="1"/>
<text x="869.4" y="866.0" text-anchor="middle" font-size="10" font-family="sans-serif" fill="#555">258</text>
<line x1="1016.2" y1="850.0" x2="1016.2" y2="854.0" stroke="#666" stroke-width="1"/>
<text x="1016.2" y="866.0" text-anchor="middle" font-size="10" font-family="sans-serif" fill="#555">505</text>
<line x1="1163.1" y1="850.0" x2="1163.1" y2="854.0" stroke="#666" stroke-width="1"/>
<text x="1163.1" y="866.0" text-anchor="middle" font-size="10" font-family="sans-serif" fill="#555">752</text>
<line x1="1310.0" y1="850.0" x2="1310.0" y2="854.0" stroke="#666" stroke-width="1"/>
<text x="1310.0" y="866.0" text-anchor="middle" font-size="10" font-family="sans-serif" fill="#555">1000</text>
<line x1="718.5" y1="850.0" x2="722.5" y2="850.0" stroke="#666" stroke-width="1"/>
<text x="714.5" y="853.0" text-anchor="end" font-size="10" font-family="sans-serif" fill="#555">0.0014</text>
<line x1="718.5" y1="796.7" x2="722.5" y2="796.7" stroke="#666" stroke-width="1"/>
<text x="714.5" y="799.7" text-anchor="end" font-size="10" font-family="sans-serif" fill="#555">0.0246</text>
<line x1="718.5" y1="743.3" x2="722.5" y2="743.3" stroke="#666" stroke-width="1"/>
<text x="714.5" y="746.3" text-anchor="end" font-size="10" font-family="sans-serif" fill="#555">0.0479</text>
<line x1="718.5" y1="690.0" x2="722.5" y2="690.0" stroke="#666" stroke-width="1"/>
<text x="714.5" y="693.0" text-anchor="end" font-size="10" font-family="sans-serif" fill="#555">0.0711</text>
<line x1="718.5" y1="636.7" x2="722.5" y2="636.7" stroke="#666" stroke-width="1"/>
<text x="714.5" y="639.7" text-anchor="end" font-size="10" font-family="sans-serif" fill="#555">0.0944</text>
<polyline fill="none" stroke="#1f77b4" stroke-width="2" points="722.5,651.4 728.4,835.3 734.4,833.6 740.3,833.8 746.2,833.6 752.2,834.2 758.1,834.6 764.0,834.5 770.0,834.1 775.9,833.6 781.8,834.9 787.8,834.6 793.7,834.9 799.6,834.4 805.6,834.4 811.5,833.9 817.4,835.0 823.4,834.8 829.3,834.9 835.3,833.3 841.2,834.0 847.1,834.9 853.1,834.8 859.0,834.4 864.9,834.7 870.9,834.2 876.8,834.0 882.7,834.9 888.7,834.9 894.6,833.5 900.5,834.6 906.5,834.3 912.4,833.4 918.3,834.6 924.3,834.3 930.2,834.1 936.1,834.3 942.1,834.4 948.0,834.4 953.9,834.7 959.9,834.3 965.8,834.7 971.7,834.3 977.7,833.6 983.6,834.7 989.5,834.1 995.5,834.3 1001.4,834.2 1007.3,834.6 1013.3,834.6 1019.2,834.6 1025.2,834.6 1031.1,834.7 1037.0,834.5 1043.0,834.6 1048.9,834.3 1054.8,834.8 1060.8,834.5 1066.7,834.1 1072.6,834.0 1078.6,834.0 1084.5,834.4 1090.4,834.5 1096.4,834.2 1102.3,834.6 1108.2,833.9 1114.2,834.5 1120.1,834.9 1126.0,834.3 1132.0,834.6 1137.9,834.1 1143.8,834.3 1149.8,834.2 1155.7,834.2 1161.6,834.7 1167.6,833.6 1173.5,834.4 1179.4,834.6 1185.4,834.5 1191.3,834.7 1197.2,834.5 1203.2,834.1 1209.1,834.5 1215.1,834.6 1221.0,834.6 1226.9,834.5 1232.9,833.9 1238.8,833.9 1244.7,834.3 1250.7,834.5 1256.6,834.1 1262.5,834.5 1268.5,834.3 1274.4,834.4 1280.3,834.4 1286.3,834.2 1292.2,834.3 1298.1,834.5 1304.1,834.3 1310.0,834.7" />
<text x="1016.2" y="880.0" text-anchor="middle" font-size="10" font-family="sans-serif" fill="#666">step</text>
<line x1="1140" y1="40" x2="1164" y2="40" stroke="#1f77b4" stroke-width="3"/>
<text x="1170" y="44" font-size="12" font-family="sans-serif">adamw</text>
</svg>
