<svg xmlns="http://www.w3.org/2000/svg" width="1200" height="520" viewBox="0 0 1200 520">
<rect x="0" y="0" width="100%" height="100%" fill="#ffffff" />
<text x="600.0" y="30" text-anchor="middle" font-size="20" font-family="sans-serif">Optimizer Comparison</text>
<rect x="60" y="60" width="510.0" height="400" fill="#fafafa" stroke="#dddddd"/>
<text x="315.0" y="48" text-anchor="middle" font-size="14" font-family="sans-serif">Loss vs Step</text>
<rect x="630.0" y="60" width="510.0" height="400" fill="#fafafa" stroke="#dddddd"/>
<text x="885.0" y="48" text-anchor="middle" font-size="14" font-family="sans-serif">Step Time vs Step</text>
<line x1="60.0" y1="460.0" x2="60.0" y2="465.0" stroke="#666" stroke-width="1"/>
<text x="60.0" y="480.0" text-anchor="middle" font-size="11" font-family="sans-serif" fill="#555">10</text>
<line x1="162.0" y1="460.0" x2="162.0" y2="465.0" stroke="#666" stroke-width="1"/>
<text x="162.0" y="480.0" text-anchor="middle" font-size="11" font-family="sans-serif" fill="#555">208</text>
<line x1="264.0" y1="460.0" x2="264.0" y2="465.0" stroke="#666" stroke-width="1"/>
<text x="264.0" y="480.0" text-anchor="middle" font-size="11" font-family="sans-serif" fill="#555">406</text>
<line x1="366.0" y1="460.0" x2="366.0" y2="465.0" stroke="#666" stroke-width="1"/>
<text x="366.0" y="480.0" text-anchor="middle" font-size="11" font-family="sans-serif" fill="#555">604</text>
<line x1="468.0" y1="460.0" x2="468.0" y2="465.0" stroke="#666" stroke-width="1"/>
<text x="468.0" y="480.0" text-anchor="middle" font-size="11" font-family="sans-serif" fill="#555">802</text>
<line x1="570.0" y1="460.0" x2="570.0" y2="465.0" stroke="#666" stroke-width="1"/>
<text x="570.0" y="480.0" text-anchor="middle" font-size="11" font-family="sans-serif" fill="#555">1000</text>
<line x1="55.0" y1="460.0" x2="60.0" y2="460.0" stroke="#666" stroke-width="1"/>
<text x="50.0" y="464.0" text-anchor="end" font-size="11" font-family="sans-serif" fill="#555">10.4</text>
<line x1="55.0" y1="380.0" x2="60.0" y2="380.0" stroke="#666" stroke-width="1"/>
<text x="50.0" y="384.0" text-anchor="end" font-size="11" font-family="sans-serif" fill="#555">43.1</text>
<line x1="55.0" y1="300.0" x2="60.0" y2="300.0" stroke="#666" stroke-width="1"/>
<text x="50.0" y="304.0" text-anchor="end" font-size="11" font-family="sans-serif" fill="#555">75.8</text>
<line x1="55.0" y1="220.0" x2="60.0" y2="220.0" stroke="#666" stroke-width="1"/>
<text x="50.0" y="224.0" text-anchor="end" font-size="11" font-family="sans-serif" fill="#555">108.5</text>
<line x1="55.0" y1="140.0" x2="60.0" y2="140.0" stroke="#666" stroke-width="1"/>
<text x="50.0" y="144.0" text-anchor="end" font-size="11" font-family="sans-serif" fill="#555">141.2</text>
<line x1="55.0" y1="60.0" x2="60.0" y2="60.0" stroke="#666" stroke-width="1"/>
<text x="50.0" y="64.0" text-anchor="end" font-size="11" font-family="sans-serif" fill="#555">173.9</text>
<line x1="630.0" y1="460.0" x2="630.0" y2="465.0" stroke="#666" stroke-width="1"/>
<text x="630.0" y="480.0" text-anchor="middle" font-size="11" font-family="sans-serif" fill="#555">10</text>
<line x1="732.0" y1="460.0" x2="732.0" y2="465.0" stroke="#666" stroke-width="1"/>
<text x="732.0" y="480.0" text-anchor="middle" font-size="11" font-family="sans-serif" fill="#555">208</text>
<line x1="834.0" y1="460.0" x2="834.0" y2="465.0" stroke="#666" stroke-width="1"/>
<text x="834.0" y="480.0" text-anchor="middle" font-size="11" font-family="sans-serif" fill="#555">406</text>
<line x1="936.0" y1="460.0" x2="936.0" y2="465.0" stroke="#666" stroke-width="1"/>
<text x="936.0" y="480.0" text-anchor="middle" font-size="11" font-family="sans-serif" fill="#555">604</text>
<line x1="1038.0" y1="460.0" x2="1038.0" y2="465.0" stroke="#666" stroke-width="1"/>
<text x="1038.0" y="480.0" text-anchor="middle" font-size="11" font-family="sans-serif" fill="#555">802</text>
<line x1="1140.0" y1="460.0" x2="1140.0" y2="465.0" stroke="#666" stroke-width="1"/>
<text x="1140.0" y="480.0" text-anchor="middle" font-size="11" font-family="sans-serif" fill="#555">1000</text>
<line x1="625.0" y1="460.0" x2="630.0" y2="460.0" stroke="#666" stroke-width="1"/>
<text x="620.0" y="464.0" text-anchor="end" font-size="11" font-family="sans-serif" fill="#555">0.006</text>
<line x1="625.0" y1="380.0" x2="630.0" y2="380.0" stroke="#666" stroke-width="1"/>
<text x="620.0" y="384.0" text-anchor="end" font-size="11" font-family="sans-serif" fill="#555">0.023</text>
<line x1="625.0" y1="300.0" x2="630.0" y2="300.0" stroke="#666" stroke-width="1"/>
<text x="620.0" y="304.0" text-anchor="end" font-size="11" font-family="sans-serif" fill="#555">0.039</text>
<line x1="625.0" y1="220.0" x2="630.0" y2="220.0" stroke="#666" stroke-width="1"/>
<text x="620.0" y="224.0" text-anchor="end" font-size="11" font-family="sans-serif" fill="#555">0.055</text>
<line x1="625.0" y1="140.0" x2="630.0" y2="140.0" stroke="#666" stroke-width="1"/>
<text x="620.0" y="144.0" text-anchor="end" font-size="11" font-family="sans-serif" fill="#555">0.072</text>
<line x1="625.0" y1="60.0" x2="630.0" y2="60.0" stroke="#666" stroke-width="1"/>
<text x="620.0" y="64.0" text-anchor="end" font-size="11" font-family="sans-serif" fill="#555">0.088</text>
<line x1="60.0" y1="460.0" x2="570.0" y2="460.0" stroke="#666666" stroke-width="2" stroke-dasharray="8,6" />
<text x="70.0" y="454.0" font-size="12" font-family="sans-serif" fill="#444444">theoretical floor: ln(V)=10.3735</text>
<polyline fill="none" stroke="#ff7f0e" stroke-width="2" points="60.0,240.9 65.2,364.0 70.3,376.4 75.5,386.2 80.6,394.4 85.8,400.7 90.9,406.4 96.1,411.5 101.2,416.2 106.4,420.6 111.5,424.4 116.7,428.0 121.8,431.1 127.0,433.8 132.1,436.8 137.3,438.7 142.4,440.9 147.6,442.7 152.7,444.5 157.9,446.3 163.0,447.6 168.2,449.0 173.3,450.4 178.5,451.7 183.6,452.8 188.8,453.9 193.9,455.0 199.1,456.0 204.2,457.0 209.4,458.0 214.5,458.6 219.7,459.0 224.8,459.3 230.0,459.5 235.2,459.6 240.3,459.6 245.5,459.7 250.6,459.7 255.8,459.7 260.9,459.7 266.1,459.7 271.2,459.7 276.4,459.7 281.5,459.8 286.7,459.8 291.8,459.8 297.0,459.8 302.1,459.8 307.3,459.8 312.4,459.8 317.6,459.8 322.7,459.8 327.9,459.8 333.0,459.8 338.2,459.8 343.3,459.8 348.5,459.8 353.6,459.8 358.8,459.8 363.9,459.8 369.1,459.8 374.2,459.8 379.4,459.8 384.5,459.8 389.7,459.8 394.8,459.8 400.0,459.8 405.2,459.8 410.3,459.8 415.5,459.8 420.6,459.8 425.8,459.8 430.9,459.9 436.1,459.8 441.2,459.9 446.4,459.9 451.5,459.9 456.7,459.9 461.8,459.9 467.0,459.9 472.1,459.9 477.3,459.9 482.4,459.9 487.6,459.9 492.7,459.9 497.9,459.9 503.0,459.9 508.2,459.9 513.3,459.9 518.5,459.9 523.6,459.9 528.8,459.9 533.9,459.9 539.1,459.9 544.2,459.9 549.4,459.9 554.5,459.9 559.7,459.9 564.8,459.9 570.0,459.9" />
<polyline fill="none" stroke="#ff7f0e" stroke-width="2" points="630.0,147.7 635.2,402.3 640.3,395.8 645.5,396.3 650.6,395.9 655.8,396.2 660.9,393.4 666.1,394.9 671.2,394.5 676.4,393.9 681.5,394.0 686.7,394.9 691.8,394.5 697.0,394.0 702.1,394.2 707.3,394.7 712.4,394.5 717.6,394.1 722.7,394.2 727.9,394.8 733.0,395.1 738.2,394.8 743.3,393.0 748.5,395.3 753.6,394.5 758.8,394.8 763.9,394.5 769.1,394.8 774.2,394.3 779.4,394.3 784.5,394.6 789.7,394.8 794.8,394.9 800.0,394.7 805.2,394.2 810.3,394.9 815.5,394.2 820.6,394.9 825.8,394.9 830.9,394.4 836.1,394.7 841.2,394.5 846.4,394.5 851.5,395.0 856.7,394.8 861.8,395.3 867.0,394.6 872.1,393.7 877.3,394.2 882.4,395.4 887.6,394.5 892.7,394.7 897.9,393.7 903.0,394.9 908.2,394.5 913.3,394.4 918.5,395.0 923.6,395.1 928.8,394.9 933.9,394.8 939.1,394.7 944.2,395.1 949.4,393.2 954.5,394.6 959.7,394.8 964.8,395.0 970.0,394.3 975.2,394.5 980.3,395.4 985.5,394.2 990.6,395.3 995.8,395.7 1000.9,394.4 1006.1,392.6 1011.2,394.9 1016.4,393.1 1021.5,395.1 1026.7,394.8 1031.8,394.6 1037.0,394.6 1042.1,395.0 1047.3,393.7 1052.4,394.9 1057.6,394.1 1062.7,394.9 1067.9,394.4 1073.0,394.7 1078.2,394.9 1083.3,393.8 1088.5,394.0 1093.6,394.5 1098.8,395.0 1103.9,394.4 1109.1,394.6 1114.2,395.5 1119.4,393.1 1124.5,394.4 1129.7,394.7 1134.8,394.3 1140.0,394.9" />
<polyline fill="none" stroke="#1f77b4" stroke-width="2" points="60.0,220.3 65.2,364.0 70.3,378.1 75.5,386.7 80.6,394.2 85.8,400.9 90.9,406.9 96.1,412.0 101.2,416.9 106.4,421.4 111.5,424.9 116.7,428.5 121.8,431.3 127.0,433.7 132.1,436.5 137.3,438.2 142.4,440.4 147.6,441.9 152.7,443.1 157.9,444.8 163.0,445.9 168.2,446.8 173.3,448.0 178.5,448.9 183.6,449.8 188.8,450.4 193.9,451.3 199.1,451.7 204.2,452.4 209.4,453.1 214.5,453.6 219.7,453.9 224.8,454.3 230.0,454.7 235.2,455.1 240.3,455.5 245.5,455.5 250.6,455.9 255.8,456.4 260.9,456.5 266.1,456.6 271.2,456.8 276.4,457.1 281.5,457.2 286.7,457.3 291.8,457.6 297.0,457.7 302.1,457.9 307.3,458.0 312.4,458.1 317.6,458.1 322.7,458.3 327.9,458.4 333.0,458.5 338.2,458.5 343.3,458.6 348.5,458.7 353.6,458.7 358.8,458.9 363.9,458.8 369.1,458.9 374.2,459.0 379.4,459.0 384.5,459.0 389.7,459.1 394.8,459.2 400.0,459.2 405.2,459.2 410.3,459.2 415.5,459.3 420.6,459.3 425.8,459.3 430.9,459.3 436.1,459.3 441.2,459.4 446.4,459.4 451.5,459.4 456.7,459.4 461.8,459.5 467.0,459.5 472.1,459.5 477.3,459.5 482.4,459.5 487.6,459.5 492.7,459.5 497.9,459.5 503.0,459.5 508.2,459.5 513.3,459.5 518.5,459.6 523.6,459.6 528.8,459.6 533.9,459.6 539.1,459.6 544.2,459.6 549.4,459.6 554.5,459.6 559.7,459.6 564.8,459.6 570.0,459.6" />
<polyline fill="none" stroke="#1f77b4" stroke-width="2" points="630.0,159.2 635.2,454.5 640.3,455.7 645.5,455.8 650.6,454.2 655.8,452.5 660.9,453.4 666.1,449.8 671.2,456.0 676.4,455.7 681.5,456.1 686.7,455.4 691.8,456.2 697.0,453.1 702.1,456.1 707.3,455.5 712.4,456.1 717.6,455.9 722.7,456.0 727.9,456.1 733.0,455.4 738.2,456.0 743.3,453.2 748.5,455.4 753.6,455.8 758.8,455.5 763.9,456.1 769.1,455.9 774.2,455.5 779.4,455.9 784.5,455.4 789.7,453.9 794.8,456.0 800.0,455.7 805.2,456.0 810.3,455.8 815.5,453.8 820.6,456.8 825.8,457.5 830.9,456.9 836.1,456.7 841.2,456.8 846.4,457.1 851.5,456.6 856.7,456.8 861.8,457.4 867.0,456.8 872.1,457.1 877.3,457.1 882.4,456.9 887.6,456.7 892.7,456.5 897.9,456.8 903.0,456.8 908.2,457.2 913.3,456.8 918.5,456.6 923.6,457.0 928.8,457.2 933.9,456.7 939.1,456.8 944.2,456.3 949.4,456.4 954.5,457.2 959.7,457.0 964.8,456.6 970.0,457.2 975.2,456.9 980.3,457.2 985.5,456.7 990.6,455.3 995.8,457.2 1000.9,457.0 1006.1,456.6 1011.2,457.1 1016.4,456.7 1021.5,456.7 1026.7,456.8 1031.8,456.9 1037.0,456.8 1042.1,457.1 1047.3,456.8 1052.4,457.3 1057.6,457.0 1062.7,456.9 1067.9,456.7 1073.0,457.3 1078.2,457.0 1083.3,456.9 1088.5,457.0 1093.6,457.0 1098.8,457.0 1103.9,457.1 1109.1,456.7 1114.2,456.8 1119.4,457.3 1124.5,456.8 1129.7,457.2 1134.8,457.1 1140.0,454.9" />
<polyline fill="none" stroke="#2ca02c" stroke-width="2" points="60.0,303.5 65.2,371.8 70.3,388.3 75.5,395.5 80.6,401.0 85.8,404.6 90.9,408.3 96.1,410.9 101.2,413.3 106.4,415.9 111.5,417.6 116.7,419.6 121.8,421.1 127.0,422.7 132.1,424.0 137.3,425.2 142.4,427.3 147.6,428.3 152.7,429.6 157.9,430.9 163.0,431.6 168.2,432.8 173.3,433.7 178.5,434.9 183.6,435.8 188.8,437.0 193.9,437.7 199.1,438.9 204.2,439.7 209.4,440.7 214.5,441.8 219.7,442.7 224.8,443.6 230.0,444.5 235.2,445.2 240.3,446.2 245.5,447.0 250.6,447.9 255.8,448.5 260.9,449.4 266.1,450.3 271.2,451.0 276.4,451.7 281.5,452.4 286.7,453.0 291.8,453.9 297.0,454.5 302.1,455.1 307.3,455.8 312.4,456.4 317.6,457.0 322.7,457.5 327.9,457.9 333.0,458.2 338.2,458.6 343.3,458.8 348.5,459.0 353.6,459.2 358.8,459.3 363.9,459.4 369.1,459.5 374.2,459.6 379.4,459.6 384.5,459.6 389.7,459.7 394.8,459.7 400.0,459.7 405.2,459.7 410.3,459.8 415.5,459.8 420.6,459.8 425.8,459.8 430.9,459.8 436.1,459.8 441.2,459.8 446.4,459.8 451.5,459.8 456.7,459.8 461.8,459.8 467.0,459.8 472.1,459.8 477.3,459.9 482.4,459.9 487.6,459.8 492.7,459.9 497.9,459.9 503.0,459.9 508.2,459.9 513.3,459.9 518.5,459.9 523.6,459.9 528.8,459.9 533.9,459.9 539.1,459.9 544.2,459.9 549.4,459.9 554.5,459.9 559.7,459.9 564.8,459.9 570.0,459.9" />
<polyline fill="none" stroke="#2ca02c" stroke-width="2" points="630.0,60.0 635.2,455.0 640.3,455.0 645.5,454.8 650.6,454.7 655.8,453.3 660.9,454.8 666.1,454.6 671.2,455.0 676.4,454.8 681.5,455.2 686.7,454.3 691.8,455.4 697.0,453.9 702.1,454.5 707.3,454.7 712.4,455.1 717.6,455.1 722.7,455.6 727.9,454.3 733.0,451.2 738.2,452.1 743.3,455.9 748.5,456.3 753.6,456.3 758.8,455.8 763.9,455.9 769.1,456.2 774.2,456.3 779.4,454.7 784.5,455.7 789.7,455.9 794.8,455.7 800.0,455.4 805.2,456.2 810.3,456.7 815.5,456.1 820.6,455.6 825.8,455.9 830.9,453.4 836.1,455.7 841.2,456.5 846.4,455.6 851.5,455.6 856.7,456.3 861.8,456.5 867.0,455.8 872.1,455.7 877.3,456.3 882.4,455.6 887.6,455.4 892.7,455.9 897.9,455.8 903.0,456.0 908.2,455.7 913.3,455.8 918.5,456.2 923.6,456.0 928.8,453.8 933.9,456.4 939.1,456.0 944.2,455.5 949.4,455.7 954.5,452.9 959.7,456.6 964.8,455.2 970.0,455.4 975.2,455.8 980.3,454.9 985.5,456.3 990.6,456.3 995.8,455.9 1000.9,456.0 1006.1,455.7 1011.2,456.1 1016.4,455.6 1021.5,455.6 1026.7,456.3 1031.8,456.3 1037.0,456.0 1042.1,455.9 1047.3,455.8 1052.4,455.6 1057.6,456.7 1062.7,456.2 1067.9,455.8 1073.0,456.1 1078.2,455.9 1083.3,456.3 1088.5,455.5 1093.6,456.1 1098.8,456.6 1103.9,456.5 1109.1,456.6 1114.2,456.6 1119.4,455.5 1124.5,455.6 1129.7,455.8 1134.8,456.0 1140.0,456.3" />
<polyline fill="none" stroke="#8c564b" stroke-width="2" points="60.0,236.1 65.2,357.1 70.3,368.3 75.5,374.9 80.6,379.8 85.8,384.8 90.9,388.5 96.1,392.2 101.2,396.2 106.4,398.9 111.5,401.8 116.7,404.4 121.8,407.0 127.0,409.0 132.1,411.4 137.3,413.3 142.4,415.6 147.6,417.5 152.7,419.4 157.9,421.2 163.0,422.9 168.2,424.4 173.3,426.2 178.5,427.8 183.6,429.2 188.8,430.6 193.9,432.2 199.1,433.3 204.2,434.9 209.4,436.1 214.5,437.4 219.7,438.6 224.8,439.7 230.0,440.9 235.2,442.0 240.3,443.0 245.5,444.0 250.6,445.1 255.8,446.2 260.9,447.1 266.1,448.2 271.2,449.2 276.4,450.1 281.5,451.0 286.7,451.9 291.8,452.8 297.0,453.6 302.1,454.4 307.3,455.1 312.4,455.9 317.6,456.6 322.7,457.2 327.9,457.8 333.0,458.3 338.2,458.7 343.3,459.0 348.5,459.3 353.6,459.5 358.8,459.6 363.9,459.7 369.1,459.7 374.2,459.7 379.4,459.7 384.5,459.7 389.7,459.8 394.8,459.8 400.0,459.7 405.2,459.7 410.3,459.8 415.5,459.8 420.6,459.8 425.8,459.8 430.9,459.8 436.1,459.8 441.2,459.8 446.4,459.8 451.5,459.8 456.7,459.8 461.8,459.8 467.0,459.8 472.1,459.8 477.3,459.8 482.4,459.8 487.6,459.8 492.7,459.8 497.9,459.8 503.0,459.9 508.2,459.8 513.3,459.9 518.5,459.9 523.6,459.9 528.8,459.9 533.9,459.9 539.1,459.9 544.2,459.9 549.4,459.9 554.5,459.9 559.7,459.9 564.8,459.9 570.0,459.9" />
<polyline fill="none" stroke="#8c564b" stroke-width="2" points="630.0,88.4 635.2,455.9 640.3,456.2 645.5,456.2 650.6,456.2 655.8,456.0 660.9,456.2 666.1,455.8 671.2,456.4 676.4,456.3 681.5,456.2 686.7,456.0 691.8,455.9 697.0,456.3 702.1,454.2 707.3,456.2 712.4,456.7 717.6,456.0 722.7,456.2 727.9,456.2 733.0,456.3 738.2,456.6 743.3,455.7 748.5,455.9 753.6,456.1 758.8,456.2 763.9,456.1 769.1,456.1 774.2,456.2 779.4,456.1 784.5,453.8 789.7,456.1 794.8,456.4 800.0,456.0 805.2,456.3 810.3,456.2 815.5,456.4 820.6,456.4 825.8,456.1 830.9,456.5 836.1,456.1 841.2,456.2 846.4,456.0 851.5,456.2 856.7,456.6 861.8,456.3 867.0,455.9 872.1,456.6 877.3,456.3 882.4,456.5 887.6,456.0 892.7,456.0 897.9,456.3 903.0,456.7 908.2,456.1 913.3,455.8 918.5,456.7 923.6,456.3 928.8,455.6 933.9,456.1 939.1,456.3 944.2,456.2 949.4,456.0 954.5,456.2 959.7,456.5 964.8,454.6 970.0,457.0 975.2,457.3 980.3,457.1 985.5,457.0 990.6,457.1 995.8,457.3 1000.9,457.1 1006.1,456.8 1011.2,454.9 1016.4,456.6 1021.5,457.1 1026.7,457.2 1031.8,457.2 1037.0,457.2 1042.1,457.0 1047.3,457.0 1052.4,457.4 1057.6,457.0 1062.7,456.9 1067.9,457.0 1073.0,457.1 1078.2,457.3 1083.3,457.3 1088.5,456.9 1093.6,457.2 1098.8,457.3 1103.9,457.3 1109.1,457.2 1114.2,456.9 1119.4,456.7 1124.5,456.9 1129.7,457.0 1134.8,457.2 1140.0,457.0" />
<polyline fill="none" stroke="#17becf" stroke-width="2" points="60.0,330.3 65.2,413.9 70.3,426.2 75.5,430.3 80.6,433.2 85.8,435.4 90.9,432.7 96.1,437.9 101.2,440.4 106.4,442.3 111.5,443.9 116.7,445.5 121.8,447.5 127.0,449.9 132.1,452.3 137.3,454.5 142.4,456.5 147.6,457.7 152.7,458.4 157.9,458.9 163.0,459.2 168.2,459.3 173.3,459.5 178.5,459.6 183.6,459.6 188.8,459.7 193.9,459.7 199.1,459.7 204.2,459.7 209.4,459.7 214.5,459.7 219.7,459.8 224.8,459.8 230.0,459.8 235.2,459.8 240.3,459.8 245.5,459.8 250.6,459.8 255.8,459.8 260.9,459.8 266.1,459.8 271.2,459.8 276.4,459.8 281.5,459.8 286.7,459.9 291.8,459.8 297.0,459.9 302.1,459.9 307.3,459.9 312.4,459.9 317.6,459.9 322.7,459.9 327.9,459.9 333.0,459.9 338.2,459.9 343.3,459.9 348.5,459.9 353.6,459.9 358.8,459.9 363.9,459.9 369.1,459.9 374.2,459.9 379.4,459.9 384.5,459.9 389.7,459.9 394.8,459.9 400.0,459.9 405.2,459.9 410.3,459.9 415.5,459.9 420.6,459.9 425.8,459.9 430.9,459.9 436.1,459.9 441.2,459.9 446.4,459.9 451.5,459.9 456.7,460.0 461.8,459.9 467.0,459.9 472.1,459.9 477.3,459.9 482.4,459.9 487.6,459.9 492.7,460.0 497.9,460.0 503.0,460.0 508.2,460.0 513.3,460.0 518.5,460.0 523.6,460.0 528.8,460.0 533.9,460.0 539.1,460.0 544.2,460.0 549.4,460.0 554.5,460.0 559.7,460.0 564.8,460.0 570.0,460.0" />
<polyline fill="none" stroke="#17becf" stroke-width="2" points="630.0,123.1 635.2,440.5 640.3,440.0 645.5,441.0 650.6,440.8 655.8,440.5 660.9,441.4 666.1,440.1 671.2,440.4 676.4,441.0 681.5,441.3 686.7,441.8 691.8,441.3 697.0,441.3 702.1,440.9 707.3,441.6 712.4,441.9 717.6,441.9 722.7,440.8 727.9,438.9 733.0,441.5 738.2,442.0 743.3,441.5 748.5,441.0 753.6,440.9 758.8,441.1 763.9,441.2 769.1,440.0 774.2,441.2 779.4,441.3 784.5,439.3 789.7,441.7 794.8,441.5 800.0,441.7 805.2,441.7 810.3,442.3 815.5,440.7 820.6,441.8 825.8,441.9 830.9,441.0 836.1,441.2 841.2,442.3 846.4,441.2 851.5,441.4 856.7,441.6 861.8,441.6 867.0,441.4 872.1,441.0 877.3,442.3 882.4,441.5 887.6,441.1 892.7,441.4 897.9,440.9 903.0,441.4 908.2,441.3 913.3,441.7 918.5,440.8 923.6,441.6 928.8,441.3 933.9,442.0 939.1,440.5 944.2,441.5 949.4,442.2 954.5,441.3 959.7,441.4 964.8,441.6 970.0,441.6 975.2,441.6 980.3,441.2 985.5,441.3 990.6,441.6 995.8,441.4 1000.9,439.0 1006.1,441.3 1011.2,441.2 1016.4,441.8 1021.5,441.0 1026.7,441.3 1031.8,441.6 1037.0,441.1 1042.1,440.9 1047.3,441.7 1052.4,440.6 1057.6,441.4 1062.7,441.9 1067.9,441.3 1073.0,441.1 1078.2,440.8 1083.3,441.5 1088.5,441.3 1093.6,442.0 1098.8,441.8 1103.9,441.3 1109.1,441.8 1114.2,441.8 1119.4,441.8 1124.5,441.3 1129.7,437.5 1134.8,439.1 1140.0,441.0" />
<polyline fill="none" stroke="#d62728" stroke-width="2" points="60.0,60.0 65.2,94.6 70.3,205.7 75.5,358.0 80.6,384.6 85.8,396.1 90.9,406.0 96.1,414.6 101.2,422.8 106.4,430.7 111.5,437.7 116.7,444.2 121.8,449.8 127.0,454.0 132.1,456.8 137.3,458.1 142.4,458.7 147.6,458.9 152.7,459.0 157.9,459.1 163.0,459.1 168.2,459.2 173.3,459.2 178.5,459.2 183.6,459.3 188.8,459.3 193.9,459.3 199.1,459.4 204.2,459.4 209.4,459.4 214.5,459.4 219.7,459.4 224.8,459.4 230.0,459.4 235.2,459.4 240.3,459.4 245.5,459.5 250.6,459.5 255.8,459.5 260.9,459.5 266.1,459.5 271.2,459.5 276.4,459.5 281.5,459.5 286.7,459.5 291.8,459.5 297.0,459.5 302.1,459.5 307.3,459.5 312.4,459.6 317.6,459.6 322.7,459.6 327.9,459.6 333.0,459.6 338.2,459.6 343.3,459.6 348.5,459.6 353.6,459.6 358.8,459.6 363.9,459.6 369.1,459.6 374.2,459.6 379.4,459.6 384.5,459.6 389.7,459.6 394.8,459.6 400.0,459.6 405.2,459.6 410.3,459.6 415.5,459.6 420.6,459.6 425.8,459.7 430.9,459.6 436.1,459.6 441.2,459.6 446.4,459.7 451.5,459.6 456.7,459.7 461.8,459.7 467.0,459.7 472.1,459.7 477.3,459.7 482.4,459.7 487.6,459.7 492.7,459.7 497.9,459.7 503.0,459.7 508.2,459.7 513.3,459.7 518.5,459.7 523.6,459.7 528.8,459.7 533.9,459.7 539.1,459.7 544.2,459.7 549.4,459.7 554.5,459.7 559.7,459.7 564.8,459.7 570.0,459.7" />
<polyline fill="none" stroke="#d62728" stroke-width="2" points="630.0,258.1 635.2,460.0 640.3,457.8 645.5,457.4 650.6,457.8 655.8,457.7 660.9,455.3 666.1,457.8 671.2,457.6 676.4,457.8 681.5,458.0 686.7,457.2 691.8,456.1 697.0,457.8 702.1,457.8 707.3,458.0 712.4,457.2 717.6,457.7 722.7,456.2 727.9,457.9 733.0,457.2 738.2,457.9 743.3,458.1 748.5,457.4 753.6,457.8 758.8,457.8 763.9,454.9 769.1,455.1 774.2,456.1 779.4,458.0 784.5,457.5 789.7,457.7 794.8,457.9 800.0,458.0 805.2,456.1 810.3,457.8 815.5,458.0 820.6,457.3 825.8,458.0 830.9,457.9 836.1,457.9 841.2,457.2 846.4,457.9 851.5,457.9 856.7,457.5 861.8,458.0 867.0,458.0 872.1,457.6 877.3,457.7 882.4,458.0 887.6,457.5 892.7,457.5 897.9,457.9 903.0,458.0 908.2,457.9 913.3,457.6 918.5,457.9 923.6,458.0 928.8,457.4 933.9,457.9 939.1,458.0 944.2,457.4 949.4,458.0 954.5,457.8 959.7,457.5 964.8,457.9 970.0,458.2 975.2,458.0 980.3,457.5 985.5,454.9 990.6,458.0 995.8,457.9 1000.9,457.6 1006.1,458.0 1011.2,458.0 1016.4,457.4 1021.5,457.7 1026.7,458.1 1031.8,457.4 1037.0,456.0 1042.1,457.0 1047.3,457.9 1052.4,458.0 1057.6,457.5 1062.7,457.7 1067.9,457.8 1073.0,457.9 1078.2,457.3 1083.3,457.8 1088.5,457.9 1093.6,458.0 1098.8,457.4 1103.9,457.7 1109.1,458.1 1114.2,458.1 1119.4,457.5 1124.5,457.9 1129.7,457.9 1134.8,456.3 1140.0,455.8" />
<line x1="990" y1="45" x2="1015" y2="45" stroke="#ff7f0e" stroke-width="3"/>
<text x="1022" y="49" font-size="13" font-family="sans-serif">adafactor</text>
<line x1="990" y1="67" x2="1015" y2="67" stroke="#1f77b4" stroke-width="3"/>
<text x="1022" y="71" font-size="13" font-family="sans-serif">adamw</text>
<line x1="990" y1="89" x2="1015" y2="89" stroke="#2ca02c" stroke-width="3"/>
<text x="1022" y="93" font-size="13" font-family="sans-serif">rmsprop</text>
<line x1="990" y1="111" x2="1015" y2="111" stroke="#8c564b" stroke-width="3"/>
<text x="1022" y="115" font-size="13" font-family="sans-serif">rmsprop_no_memory</text>
<line x1="990" y1="133" x2="1015" y2="133" stroke="#17becf" stroke-width="3"/>
<text x="1022" y="137" font-size="13" font-family="sans-serif">rmsprop_pnorm</text>
<line x1="990" y1="155" x2="1015" y2="155" stroke="#d62728" stroke-width="3"/>
<text x="1022" y="159" font-size="13" font-family="sans-serif">sgd</text>
<line x1="990" y1="177" x2="1015" y2="177" stroke="#666666" stroke-width="2" stroke-dasharray="8,6"/>
<text x="1022" y="181" font-size="13" font-family="sans-serif">ln(V)</text>
<text x="315.0" y="505" text-anchor="middle" font-size="12" font-family="sans-serif">step</text>
<text x="885.0" y="505" text-anchor="middle" font-size="12" font-family="sans-serif">step</text>
<text x="25" y="260.0" text-anchor="middle" font-size="12" font-family="sans-serif" transform="rotate(-90 25,260.0)">loss</text>
<text x="595.0" y="260.0" text-anchor="middle" font-size="12" font-family="sans-serif" transform="rotate(-90 595.0,260.0)">step_time (s)</text>
</svg>
