<svg xmlns="http://www.w3.org/2000/svg" width="1200" height="520" viewBox="0 0 1200 520">
<rect x="0" y="0" width="100%" height="100%" fill="#ffffff" />
<text x="600.0" y="30" text-anchor="middle" font-size="20" font-family="sans-serif">Optimizer Comparison</text>
<rect x="60" y="60" width="510.0" height="400" fill="#fafafa" stroke="#dddddd"/>
<text x="315.0" y="48" text-anchor="middle" font-size="14" font-family="sans-serif">Loss vs Step</text>
<rect x="630.0" y="60" width="510.0" height="400" fill="#fafafa" stroke="#dddddd"/>
<text x="885.0" y="48" text-anchor="middle" font-size="14" font-family="sans-serif">Step Time vs Step</text>
<line x1="60.0" y1="460.0" x2="60.0" y2="465.0" stroke="#666" stroke-width="1"/>
<text x="60.0" y="480.0" text-anchor="middle" font-size="11" font-family="sans-serif" fill="#555">10</text>
<line x1="162.0" y1="460.0" x2="162.0" y2="465.0" stroke="#666" stroke-width="1"/>
<text x="162.0" y="480.0" text-anchor="middle" font-size="11" font-family="sans-serif" fill="#555">208</text>
<line x1="264.0" y1="460.0" x2="264.0" y2="465.0" stroke="#666" stroke-width="1"/>
<text x="264.0" y="480.0" text-anchor="middle" font-size="11" font-family="sans-serif" fill="#555">406</text>
<line x1="366.0" y1="460.0" x2="366.0" y2="465.0" stroke="#666" stroke-width="1"/>
<text x="366.0" y="480.0" text-anchor="middle" font-size="11" font-family="sans-serif" fill="#555">604</text>
<line x1="468.0" y1="460.0" x2="468.0" y2="465.0" stroke="#666" stroke-width="1"/>
<text x="468.0" y="480.0" text-anchor="middle" font-size="11" font-family="sans-serif" fill="#555">802</text>
<line x1="570.0" y1="460.0" x2="570.0" y2="465.0" stroke="#666" stroke-width="1"/>
<text x="570.0" y="480.0" text-anchor="middle" font-size="11" font-family="sans-serif" fill="#555">1000</text>
<line x1="55.0" y1="460.0" x2="60.0" y2="460.0" stroke="#666" stroke-width="1"/>
<text x="50.0" y="464.0" text-anchor="end" font-size="11" font-family="sans-serif" fill="#555">10.4</text>
<line x1="55.0" y1="380.0" x2="60.0" y2="380.0" stroke="#666" stroke-width="1"/>
<text x="50.0" y="384.0" text-anchor="end" font-size="11" font-family="sans-serif" fill="#555">43.4</text>
<line x1="55.0" y1="300.0" x2="60.0" y2="300.0" stroke="#666" stroke-width="1"/>
<text x="50.0" y="304.0" text-anchor="end" font-size="11" font-family="sans-serif" fill="#555">76.5</text>
<line x1="55.0" y1="220.0" x2="60.0" y2="220.0" stroke="#666" stroke-width="1"/>
<text x="50.0" y="224.0" text-anchor="end" font-size="11" font-family="sans-serif" fill="#555">109.6</text>
<line x1="55.0" y1="140.0" x2="60.0" y2="140.0" stroke="#666" stroke-width="1"/>
<text x="50.0" y="144.0" text-anchor="end" font-size="11" font-family="sans-serif" fill="#555">142.7</text>
<line x1="55.0" y1="60.0" x2="60.0" y2="60.0" stroke="#666" stroke-width="1"/>
<text x="50.0" y="64.0" text-anchor="end" font-size="11" font-family="sans-serif" fill="#555">175.7</text>
<line x1="630.0" y1="460.0" x2="630.0" y2="465.0" stroke="#666" stroke-width="1"/>
<text x="630.0" y="480.0" text-anchor="middle" font-size="11" font-family="sans-serif" fill="#555">10</text>
<line x1="732.0" y1="460.0" x2="732.0" y2="465.0" stroke="#666" stroke-width="1"/>
<text x="732.0" y="480.0" text-anchor="middle" font-size="11" font-family="sans-serif" fill="#555">208</text>
<line x1="834.0" y1="460.0" x2="834.0" y2="465.0" stroke="#666" stroke-width="1"/>
<text x="834.0" y="480.0" text-anchor="middle" font-size="11" font-family="sans-serif" fill="#555">406</text>
<line x1="936.0" y1="460.0" x2="936.0" y2="465.0" stroke="#666" stroke-width="1"/>
<text x="936.0" y="480.0" text-anchor="middle" font-size="11" font-family="sans-serif" fill="#555">604</text>
<line x1="1038.0" y1="460.0" x2="1038.0" y2="465.0" stroke="#666" stroke-width="1"/>
<text x="1038.0" y="480.0" text-anchor="middle" font-size="11" font-family="sans-serif" fill="#555">802</text>
<line x1="1140.0" y1="460.0" x2="1140.0" y2="465.0" stroke="#666" stroke-width="1"/>
<text x="1140.0" y="480.0" text-anchor="middle" font-size="11" font-family="sans-serif" fill="#555">1000</text>
<line x1="625.0" y1="460.0" x2="630.0" y2="460.0" stroke="#666" stroke-width="1"/>
<text x="620.0" y="464.0" text-anchor="end" font-size="11" font-family="sans-serif" fill="#555">0.006</text>
<line x1="625.0" y1="380.0" x2="630.0" y2="380.0" stroke="#666" stroke-width="1"/>
<text x="620.0" y="384.0" text-anchor="end" font-size="11" font-family="sans-serif" fill="#555">0.026</text>
<line x1="625.0" y1="300.0" x2="630.0" y2="300.0" stroke="#666" stroke-width="1"/>
<text x="620.0" y="304.0" text-anchor="end" font-size="11" font-family="sans-serif" fill="#555">0.045</text>
<line x1="625.0" y1="220.0" x2="630.0" y2="220.0" stroke="#666" stroke-width="1"/>
<text x="620.0" y="224.0" text-anchor="end" font-size="11" font-family="sans-serif" fill="#555">0.064</text>
<line x1="625.0" y1="140.0" x2="630.0" y2="140.0" stroke="#666" stroke-width="1"/>
<text x="620.0" y="144.0" text-anchor="end" font-size="11" font-family="sans-serif" fill="#555">0.083</text>
<line x1="625.0" y1="60.0" x2="630.0" y2="60.0" stroke="#666" stroke-width="1"/>
<text x="620.0" y="64.0" text-anchor="end" font-size="11" font-family="sans-serif" fill="#555">0.102</text>
<line x1="60.0" y1="460.0" x2="570.0" y2="460.0" stroke="#666666" stroke-width="2" stroke-dasharray="8,6" />
<text x="70.0" y="454.0" font-size="12" font-family="sans-serif" fill="#444444">theoretical floor: ln(V)=10.3735</text>
<polyline fill="none" stroke="#ff7f0e" stroke-width="2" points="60.0,104.1 65.2,313.2 70.3,370.3 75.5,381.1 80.6,387.8 85.8,392.5 90.9,396.2 96.1,399.5 101.2,402.6 106.4,405.5 111.5,407.5 116.7,409.9 121.8,412.0 127.0,413.9 132.1,416.2 137.3,417.6 142.4,419.5 147.6,421.0 152.7,422.4 157.9,423.9 163.0,425.4 168.2,426.6 173.3,428.0 178.5,429.6 183.6,430.6 188.8,431.6 193.9,432.8 199.1,433.7 204.2,434.8 209.4,435.6 214.5,436.7 219.7,437.4 224.8,438.1 230.0,439.0 235.2,439.9 240.3,440.3 245.5,441.0 250.6,441.7 255.8,442.7 260.9,443.0 266.1,443.7 271.2,444.3 276.4,444.8 281.5,445.6 286.7,445.7 291.8,446.6 297.0,446.8 302.1,447.3 307.3,447.8 312.4,448.0 317.6,448.5 322.7,448.8 327.9,449.2 333.0,449.8 338.2,450.0 343.3,450.3 348.5,450.7 353.6,450.8 358.8,451.3 363.9,451.6 369.1,451.9 374.2,452.3 379.4,452.3 384.5,452.8 389.7,452.9 394.8,453.2 400.0,453.5 405.2,453.8 410.3,453.9 415.5,454.3 420.6,454.3 425.8,454.6 430.9,454.8 436.1,454.9 441.2,455.3 446.4,455.5 451.5,455.7 456.7,456.0 461.8,456.3 467.0,456.6 472.1,456.8 477.3,457.2 482.4,457.6 487.6,458.0 492.7,458.2 497.9,458.7 503.0,459.2 508.2,459.5 513.3,459.6 518.5,459.6 523.6,459.6 528.8,459.7 533.9,459.7 539.1,459.7 544.2,459.7 549.4,459.8 554.5,459.8 559.7,459.8 564.8,459.8 570.0,459.8" />
<polyline fill="none" stroke="#ff7f0e" stroke-width="2" points="630.0,60.0 635.2,405.0 640.3,404.2 645.5,404.2 650.6,404.8 655.8,404.4 660.9,404.0 666.1,404.6 671.2,405.1 676.4,403.8 681.5,402.8 686.7,404.8 691.8,404.9 697.0,403.8 702.1,404.2 707.3,404.7 712.4,405.7 717.6,404.9 722.7,404.7 727.9,403.0 733.0,404.7 738.2,404.6 743.3,404.7 748.5,403.8 753.6,404.8 758.8,405.0 763.9,404.8 769.1,405.0 774.2,404.1 779.4,404.9 784.5,404.4 789.7,404.7 794.8,404.6 800.0,404.8 805.2,403.6 810.3,405.1 815.5,404.3 820.6,404.3 825.8,404.9 830.9,403.8 836.1,404.7 841.2,404.4 846.4,404.7 851.5,405.1 856.7,404.2 861.8,402.7 867.0,403.9 872.1,404.6 877.3,404.0 882.4,404.6 887.6,404.6 892.7,404.9 897.9,404.1 903.0,405.0 908.2,404.5 913.3,404.6 918.5,404.3 923.6,404.3 928.8,405.1 933.9,405.0 939.1,402.9 944.2,404.9 949.4,404.5 954.5,404.1 959.7,404.3 964.8,405.1 970.0,403.3 975.2,404.8 980.3,404.5 985.5,404.6 990.6,403.7 995.8,404.4 1000.9,404.7 1006.1,403.4 1011.2,404.9 1016.4,404.7 1021.5,404.5 1026.7,404.7 1031.8,404.3 1037.0,404.7 1042.1,404.2 1047.3,403.3 1052.4,404.5 1057.6,404.4 1062.7,405.0 1067.9,404.3 1073.0,404.4 1078.2,401.5 1083.3,404.3 1088.5,403.7 1093.6,404.4 1098.8,404.4 1103.9,404.6 1109.1,405.1 1114.2,404.3 1119.4,404.7 1124.5,403.8 1129.7,403.6 1134.8,403.0 1140.0,405.2" />
<polyline fill="none" stroke="#1f77b4" stroke-width="2" points="60.0,90.4 65.2,270.8 70.3,350.7 75.5,363.6 80.6,371.2 85.8,376.5 90.9,380.9 96.1,384.4 101.2,388.0 106.4,391.3 111.5,393.9 116.7,396.6 121.8,398.9 127.0,401.1 132.1,403.8 137.3,405.4 142.4,408.0 147.6,409.7 152.7,411.2 157.9,413.3 163.0,415.0 168.2,416.3 173.3,418.3 178.5,419.7 183.6,421.2 188.8,422.2 193.9,423.8 199.1,424.6 204.2,426.2 209.4,427.4 214.5,428.4 219.7,429.4 224.8,430.2 230.0,431.4 235.2,432.1 240.3,433.0 245.5,433.6 250.6,434.4 255.8,435.6 260.9,436.1 266.1,436.7 271.2,437.5 276.4,438.3 281.5,438.9 286.7,439.1 291.8,440.1 297.0,440.6 302.1,441.1 307.3,441.5 312.4,441.8 317.6,442.4 322.7,443.0 327.9,443.4 333.0,444.0 338.2,444.4 343.3,444.8 348.5,445.0 353.6,445.3 358.8,446.1 363.9,446.0 369.1,446.6 374.2,447.1 379.4,447.2 384.5,447.7 389.7,447.8 394.8,448.3 400.0,448.5 405.2,448.9 410.3,448.9 415.5,449.4 420.6,449.5 425.8,450.0 430.9,450.1 436.1,450.3 441.2,450.5 446.4,450.9 451.5,451.0 456.7,451.2 461.8,451.7 467.0,451.8 472.1,451.6 477.3,452.1 482.4,452.2 487.6,452.6 492.7,452.4 497.9,452.7 503.0,452.9 508.2,453.0 513.3,453.2 518.5,453.4 523.6,453.5 528.8,453.6 533.9,453.9 539.1,454.0 544.2,454.2 549.4,454.5 554.5,454.3 559.7,454.5 564.8,454.6 570.0,454.7" />
<polyline fill="none" stroke="#1f77b4" stroke-width="2" points="630.0,133.6 635.2,457.2 640.3,457.0 645.5,456.8 650.6,457.6 655.8,456.6 660.9,457.2 666.1,456.9 671.2,456.6 676.4,457.3 681.5,457.1 686.7,457.3 691.8,457.7 697.0,455.0 702.1,456.9 707.3,457.6 712.4,457.1 717.6,457.3 722.7,457.2 727.9,457.2 733.0,457.4 738.2,456.5 743.3,457.3 748.5,457.2 753.6,457.0 758.8,457.5 763.9,457.1 769.1,457.2 774.2,456.2 779.4,457.4 784.5,457.2 789.7,457.3 794.8,456.9 800.0,457.5 805.2,457.0 810.3,457.3 815.5,455.4 820.6,457.5 825.8,457.0 830.9,457.2 836.1,456.5 841.2,457.2 846.4,457.0 851.5,457.4 856.7,456.8 861.8,457.3 867.0,456.9 872.1,457.2 877.3,456.9 882.4,457.0 887.6,456.6 892.7,454.3 897.9,458.3 903.0,458.1 908.2,457.0 913.3,458.1 918.5,457.8 923.6,456.4 928.8,457.3 933.9,457.7 939.1,457.8 944.2,458.1 949.4,458.1 954.5,457.6 959.7,457.6 964.8,458.1 970.0,457.2 975.2,458.0 980.3,458.1 985.5,457.9 990.6,458.2 995.8,458.1 1000.9,457.7 1006.1,457.8 1011.2,458.2 1016.4,457.9 1021.5,457.8 1026.7,458.0 1031.8,458.2 1037.0,457.8 1042.1,457.8 1047.3,458.1 1052.4,457.6 1057.6,458.0 1062.7,458.2 1067.9,457.6 1073.0,458.2 1078.2,458.2 1083.3,457.6 1088.5,457.7 1093.6,457.9 1098.8,457.7 1103.9,457.9 1109.1,458.2 1114.2,457.9 1119.4,458.2 1124.5,457.8 1129.7,458.0 1134.8,457.9 1140.0,457.6" />
<polyline fill="none" stroke="#2ca02c" stroke-width="2" points="60.0,289.7 65.2,369.4 70.3,379.0 75.5,383.7 80.6,387.1 85.8,389.3 90.9,391.4 96.1,393.0 101.2,394.8 106.4,396.7 111.5,397.7 116.7,398.7 121.8,399.5 127.0,400.7 132.1,401.9 137.3,402.2 142.4,403.9 147.6,404.4 152.7,405.1 157.9,406.1 163.0,406.6 168.2,407.2 173.3,408.1 178.5,408.7 183.6,409.3 188.8,409.8 193.9,410.6 199.1,411.2 204.2,412.0 209.4,412.5 214.5,413.0 219.7,413.8 224.8,414.1 230.0,414.9 235.2,415.4 240.3,415.9 245.5,416.4 250.6,417.2 255.8,417.4 260.9,418.2 266.1,418.7 271.2,419.2 276.4,419.8 281.5,420.3 286.7,420.8 291.8,420.9 297.0,421.7 302.1,422.0 307.3,422.4 312.4,422.9 317.6,423.2 322.7,423.9 327.9,424.1 333.0,424.9 338.2,425.1 343.3,425.4 348.5,425.9 353.6,426.2 358.8,427.1 363.9,427.5 369.1,427.7 374.2,428.3 379.4,428.7 384.5,428.9 389.7,429.4 394.8,429.9 400.0,430.2 405.2,430.6 410.3,430.9 415.5,431.3 420.6,431.7 425.8,432.2 430.9,432.6 436.1,433.0 441.2,433.1 446.4,433.5 451.5,434.0 456.7,434.3 461.8,434.7 467.0,434.9 472.1,435.2 477.3,435.6 482.4,436.0 487.6,436.3 492.7,436.6 497.9,437.1 503.0,437.4 508.2,437.6 513.3,437.9 518.5,438.6 523.6,438.6 528.8,439.1 533.9,439.3 539.1,439.5 544.2,440.1 549.4,440.4 554.5,440.6 559.7,441.0 564.8,441.3 570.0,441.6" />
<polyline fill="none" stroke="#2ca02c" stroke-width="2" points="630.0,168.5 635.2,453.5 640.3,454.6 645.5,450.4 650.6,456.3 655.8,456.3 660.9,456.4 666.1,454.4 671.2,456.3 676.4,456.9 681.5,456.2 686.7,456.4 691.8,455.1 697.0,456.7 702.1,455.1 707.3,456.6 712.4,456.6 717.6,456.3 722.7,456.9 727.9,455.8 733.0,456.7 738.2,455.0 743.3,456.3 748.5,456.4 753.6,456.7 758.8,456.1 763.9,456.4 769.1,456.1 774.2,456.8 779.4,454.8 784.5,456.5 789.7,457.0 794.8,456.6 800.0,456.9 805.2,456.4 810.3,456.4 815.5,456.1 820.6,456.5 825.8,456.2 830.9,456.5 836.1,457.0 841.2,457.1 846.4,456.2 851.5,456.4 856.7,456.5 861.8,457.0 867.0,456.3 872.1,456.7 877.3,456.7 882.4,456.8 887.6,456.4 892.7,454.7 897.9,456.6 903.0,456.9 908.2,456.8 913.3,456.4 918.5,456.2 923.6,457.1 928.8,456.7 933.9,454.1 939.1,457.0 944.2,457.1 949.4,456.9 954.5,456.9 959.7,456.4 964.8,457.0 970.0,456.2 975.2,456.9 980.3,457.0 985.5,457.1 990.6,457.0 995.8,456.8 1000.9,456.7 1006.1,456.5 1011.2,456.6 1016.4,456.6 1021.5,456.5 1026.7,456.7 1031.8,456.8 1037.0,456.9 1042.1,456.5 1047.3,456.6 1052.4,456.9 1057.6,457.0 1062.7,457.0 1067.9,456.5 1073.0,456.9 1078.2,456.6 1083.3,456.6 1088.5,457.0 1093.6,457.0 1098.8,456.6 1103.9,456.6 1109.1,457.0 1114.2,457.0 1119.4,455.9 1124.5,456.8 1129.7,457.0 1134.8,456.9 1140.0,456.8" />
<polyline fill="none" stroke="#d62728" stroke-width="2" points="60.0,60.0 65.2,69.0 70.3,82.3 75.5,100.4 80.6,128.5 85.8,190.3 90.9,298.8 96.1,352.1 101.2,367.3 106.4,374.9 111.5,380.1 116.7,384.3 121.8,388.3 127.0,391.7 132.1,395.3 137.3,398.0 142.4,401.8 147.6,404.5 152.7,407.7 157.9,410.7 163.0,413.8 168.2,416.7 173.3,419.9 178.5,422.8 183.6,425.6 188.8,428.5 193.9,431.4 199.1,434.1 204.2,436.8 209.4,439.3 214.5,441.8 219.7,444.0 224.8,445.9 230.0,447.8 235.2,449.5 240.3,450.9 245.5,452.2 250.6,453.3 255.8,454.2 260.9,455.0 266.1,455.7 271.2,456.3 276.4,456.8 281.5,457.1 286.7,457.5 291.8,457.7 297.0,457.9 302.1,458.1 307.3,458.2 312.4,458.4 317.6,458.4 322.7,458.6 327.9,458.6 333.0,458.7 338.2,458.8 343.3,458.8 348.5,458.8 353.6,458.9 358.8,458.9 363.9,458.9 369.1,458.9 374.2,459.0 379.4,459.0 384.5,459.0 389.7,459.1 394.8,459.1 400.0,459.1 405.2,459.1 410.3,459.1 415.5,459.1 420.6,459.1 425.8,459.2 430.9,459.2 436.1,459.2 441.2,459.2 446.4,459.2 451.5,459.2 456.7,459.2 461.8,459.2 467.0,459.2 472.1,459.2 477.3,459.3 482.4,459.3 487.6,459.3 492.7,459.3 497.9,459.3 503.0,459.3 508.2,459.3 513.3,459.3 518.5,459.3 523.6,459.3 528.8,459.3 533.9,459.3 539.1,459.4 544.2,459.3 549.4,459.3 554.5,459.3 559.7,459.4 564.8,459.4 570.0,459.4" />
<polyline fill="none" stroke="#d62728" stroke-width="2" points="630.0,156.7 635.2,458.5 640.3,459.0 645.5,459.0 650.6,458.6 655.8,458.9 660.9,457.8 666.1,459.2 671.2,458.8 676.4,459.2 681.5,458.7 686.7,459.2 691.8,458.5 697.0,459.0 702.1,458.1 707.3,459.1 712.4,458.7 717.6,459.2 722.7,458.5 727.9,459.2 733.0,458.7 738.2,459.1 743.3,458.9 748.5,458.5 753.6,459.1 758.8,458.6 763.9,459.1 769.1,458.7 774.2,459.1 779.4,458.7 784.5,458.2 789.7,459.0 794.8,458.6 800.0,459.1 805.2,458.6 810.3,459.0 815.5,458.9 820.6,458.9 825.8,459.0 830.9,458.8 836.1,456.2 841.2,458.5 846.4,459.0 851.5,458.5 856.7,458.9 861.8,458.6 867.0,458.4 872.1,458.7 877.3,459.0 882.4,458.8 887.6,458.6 892.7,459.0 897.9,458.6 903.0,459.2 908.2,458.6 913.3,459.0 918.5,458.7 923.6,459.0 928.8,459.1 933.9,458.2 939.1,458.8 944.2,458.7 949.4,458.9 954.5,459.0 959.7,458.6 964.8,459.2 970.0,458.7 975.2,459.2 980.3,459.0 985.5,458.8 990.6,459.2 995.8,457.2 1000.9,458.8 1006.1,459.0 1011.2,459.2 1016.4,458.4 1021.5,459.0 1026.7,458.9 1031.8,458.7 1037.0,458.9 1042.1,459.0 1047.3,458.9 1052.4,458.8 1057.6,459.2 1062.7,458.6 1067.9,459.2 1073.0,458.5 1078.2,456.6 1083.3,459.6 1088.5,457.4 1093.6,458.8 1098.8,459.3 1103.9,459.6 1109.1,459.6 1114.2,459.9 1119.4,458.3 1124.5,459.5 1129.7,460.0 1134.8,459.3 1140.0,459.6" />
<line x1="990" y1="45" x2="1015" y2="45" stroke="#ff7f0e" stroke-width="3"/>
<text x="1022" y="49" font-size="13" font-family="sans-serif">adafactor</text>
<line x1="990" y1="67" x2="1015" y2="67" stroke="#1f77b4" stroke-width="3"/>
<text x="1022" y="71" font-size="13" font-family="sans-serif">adamw</text>
<line x1="990" y1="89" x2="1015" y2="89" stroke="#2ca02c" stroke-width="3"/>
<text x="1022" y="93" font-size="13" font-family="sans-serif">rmsprop</text>
<line x1="990" y1="111" x2="1015" y2="111" stroke="#d62728" stroke-width="3"/>
<text x="1022" y="115" font-size="13" font-family="sans-serif">sgd</text>
<line x1="990" y1="133" x2="1015" y2="133" stroke="#666666" stroke-width="2" stroke-dasharray="8,6"/>
<text x="1022" y="137" font-size="13" font-family="sans-serif">ln(V)</text>
<text x="315.0" y="505" text-anchor="middle" font-size="12" font-family="sans-serif">step</text>
<text x="885.0" y="505" text-anchor="middle" font-size="12" font-family="sans-serif">step</text>
<text x="25" y="260.0" text-anchor="middle" font-size="12" font-family="sans-serif" transform="rotate(-90 25,260.0)">loss</text>
<text x="595.0" y="260.0" text-anchor="middle" font-size="12" font-family="sans-serif" transform="rotate(-90 595.0,260.0)">step_time (s)</text>
</svg>
