<svg xmlns="http://www.w3.org/2000/svg" width="1200" height="520" viewBox="0 0 1200 520">
<rect x="0" y="0" width="100%" height="100%" fill="#ffffff" />
<text x="600.0" y="30" text-anchor="middle" font-size="20" font-family="sans-serif">Optimizer Comparison</text>
<rect x="60" y="60" width="510.0" height="400" fill="#fafafa" stroke="#dddddd"/>
<text x="315.0" y="48" text-anchor="middle" font-size="14" font-family="sans-serif">Loss vs Step</text>
<rect x="630.0" y="60" width="510.0" height="400" fill="#fafafa" stroke="#dddddd"/>
<text x="885.0" y="48" text-anchor="middle" font-size="14" font-family="sans-serif">Step Time vs Step</text>
<line x1="60.0" y1="460.0" x2="60.0" y2="465.0" stroke="#666" stroke-width="1"/>
<text x="60.0" y="480.0" text-anchor="middle" font-size="11" font-family="sans-serif" fill="#555">10</text>
<line x1="162.0" y1="460.0" x2="162.0" y2="465.0" stroke="#666" stroke-width="1"/>
<text x="162.0" y="480.0" text-anchor="middle" font-size="11" font-family="sans-serif" fill="#555">208</text>
<line x1="264.0" y1="460.0" x2="264.0" y2="465.0" stroke="#666" stroke-width="1"/>
<text x="264.0" y="480.0" text-anchor="middle" font-size="11" font-family="sans-serif" fill="#555">406</text>
<line x1="366.0" y1="460.0" x2="366.0" y2="465.0" stroke="#666" stroke-width="1"/>
<text x="366.0" y="480.0" text-anchor="middle" font-size="11" font-family="sans-serif" fill="#555">604</text>
<line x1="468.0" y1="460.0" x2="468.0" y2="465.0" stroke="#666" stroke-width="1"/>
<text x="468.0" y="480.0" text-anchor="middle" font-size="11" font-family="sans-serif" fill="#555">802</text>
<line x1="570.0" y1="460.0" x2="570.0" y2="465.0" stroke="#666" stroke-width="1"/>
<text x="570.0" y="480.0" text-anchor="middle" font-size="11" font-family="sans-serif" fill="#555">1000</text>
<line x1="55.0" y1="460.0" x2="60.0" y2="460.0" stroke="#666" stroke-width="1"/>
<text x="50.0" y="464.0" text-anchor="end" font-size="11" font-family="sans-serif" fill="#555">10.4</text>
<line x1="55.0" y1="380.0" x2="60.0" y2="380.0" stroke="#666" stroke-width="1"/>
<text x="50.0" y="384.0" text-anchor="end" font-size="11" font-family="sans-serif" fill="#555">40.2</text>
<line x1="55.0" y1="300.0" x2="60.0" y2="300.0" stroke="#666" stroke-width="1"/>
<text x="50.0" y="304.0" text-anchor="end" font-size="11" font-family="sans-serif" fill="#555">70.1</text>
<line x1="55.0" y1="220.0" x2="60.0" y2="220.0" stroke="#666" stroke-width="1"/>
<text x="50.0" y="224.0" text-anchor="end" font-size="11" font-family="sans-serif" fill="#555">100.0</text>
<line x1="55.0" y1="140.0" x2="60.0" y2="140.0" stroke="#666" stroke-width="1"/>
<text x="50.0" y="144.0" text-anchor="end" font-size="11" font-family="sans-serif" fill="#555">129.9</text>
<line x1="55.0" y1="60.0" x2="60.0" y2="60.0" stroke="#666" stroke-width="1"/>
<text x="50.0" y="64.0" text-anchor="end" font-size="11" font-family="sans-serif" fill="#555">159.7</text>
<line x1="630.0" y1="460.0" x2="630.0" y2="465.0" stroke="#666" stroke-width="1"/>
<text x="630.0" y="480.0" text-anchor="middle" font-size="11" font-family="sans-serif" fill="#555">10</text>
<line x1="732.0" y1="460.0" x2="732.0" y2="465.0" stroke="#666" stroke-width="1"/>
<text x="732.0" y="480.0" text-anchor="middle" font-size="11" font-family="sans-serif" fill="#555">208</text>
<line x1="834.0" y1="460.0" x2="834.0" y2="465.0" stroke="#666" stroke-width="1"/>
<text x="834.0" y="480.0" text-anchor="middle" font-size="11" font-family="sans-serif" fill="#555">406</text>
<line x1="936.0" y1="460.0" x2="936.0" y2="465.0" stroke="#666" stroke-width="1"/>
<text x="936.0" y="480.0" text-anchor="middle" font-size="11" font-family="sans-serif" fill="#555">604</text>
<line x1="1038.0" y1="460.0" x2="1038.0" y2="465.0" stroke="#666" stroke-width="1"/>
<text x="1038.0" y="480.0" text-anchor="middle" font-size="11" font-family="sans-serif" fill="#555">802</text>
<line x1="1140.0" y1="460.0" x2="1140.0" y2="465.0" stroke="#666" stroke-width="1"/>
<text x="1140.0" y="480.0" text-anchor="middle" font-size="11" font-family="sans-serif" fill="#555">1000</text>
<line x1="625.0" y1="460.0" x2="630.0" y2="460.0" stroke="#666" stroke-width="1"/>
<text x="620.0" y="464.0" text-anchor="end" font-size="11" font-family="sans-serif" fill="#555">0.007</text>
<line x1="625.0" y1="380.0" x2="630.0" y2="380.0" stroke="#666" stroke-width="1"/>
<text x="620.0" y="384.0" text-anchor="end" font-size="11" font-family="sans-serif" fill="#555">0.022</text>
<line x1="625.0" y1="300.0" x2="630.0" y2="300.0" stroke="#666" stroke-width="1"/>
<text x="620.0" y="304.0" text-anchor="end" font-size="11" font-family="sans-serif" fill="#555">0.037</text>
<line x1="625.0" y1="220.0" x2="630.0" y2="220.0" stroke="#666" stroke-width="1"/>
<text x="620.0" y="224.0" text-anchor="end" font-size="11" font-family="sans-serif" fill="#555">0.053</text>
<line x1="625.0" y1="140.0" x2="630.0" y2="140.0" stroke="#666" stroke-width="1"/>
<text x="620.0" y="144.0" text-anchor="end" font-size="11" font-family="sans-serif" fill="#555">0.068</text>
<line x1="625.0" y1="60.0" x2="630.0" y2="60.0" stroke="#666" stroke-width="1"/>
<text x="620.0" y="64.0" text-anchor="end" font-size="11" font-family="sans-serif" fill="#555">0.083</text>
<line x1="60.0" y1="460.0" x2="570.0" y2="460.0" stroke="#666666" stroke-width="2" stroke-dasharray="8,6" />
<text x="70.0" y="454.0" font-size="12" font-family="sans-serif" fill="#444444">theoretical floor: ln(V)=10.3735</text>
<polyline fill="none" stroke="#2ca02c" stroke-width="2" points="60.0,271.5 65.2,359.7 70.3,370.3 75.5,375.6 80.6,379.3 85.8,381.7 90.9,384.1 96.1,385.8 101.2,387.8 106.4,389.9 111.5,391.0 116.7,392.1 121.8,393.1 127.0,394.3 132.1,395.6 137.3,396.0 142.4,397.9 147.6,398.4 152.7,399.2 157.9,400.3 163.0,400.9 168.2,401.6 173.3,402.5 178.5,403.2 183.6,403.9 188.8,404.4 193.9,405.3 199.1,405.9 204.2,406.9 209.4,407.4 214.5,407.9 219.7,408.9 224.8,409.2 230.0,410.0 235.2,410.6 240.3,411.2 245.5,411.8 250.6,412.6 255.8,412.8 260.9,413.7 266.1,414.3 271.2,414.8 276.4,415.5 281.5,416.0 286.7,416.6 291.8,416.7 297.0,417.6 302.1,418.0 307.3,418.3 312.4,419.0 317.6,419.3 322.7,420.0 327.9,420.2 333.0,421.1 338.2,421.4 343.3,421.7 348.5,422.2 353.6,422.6 358.8,423.5 363.9,424.1 369.1,424.2 374.2,424.9 379.4,425.3 384.5,425.5 389.7,426.2 394.8,426.7 400.0,427.0 405.2,427.5 410.3,427.8 415.5,428.2 420.6,428.7 425.8,429.3 430.9,429.7 436.1,430.1 441.2,430.2 446.4,430.7 451.5,431.2 456.7,431.6 461.8,431.9 467.0,432.2 472.1,432.6 477.3,433.0 482.4,433.4 487.6,433.7 492.7,434.1 497.9,434.6 503.0,434.9 508.2,435.2 513.3,435.5 518.5,436.3 523.6,436.3 528.8,436.9 533.9,437.0 539.1,437.3 544.2,437.9 549.4,438.3 554.5,438.6 559.7,439.0 564.8,439.3 570.0,439.6" />
<polyline fill="none" stroke="#2ca02c" stroke-width="2" points="630.0,98.0 635.2,454.5 640.3,455.8 645.5,450.6 650.6,457.9 655.8,457.9 660.9,458.0 666.1,455.5 671.2,457.9 676.4,458.6 681.5,457.7 686.7,458.0 691.8,456.4 697.0,458.4 702.1,456.4 707.3,458.3 712.4,458.2 717.6,457.9 722.7,458.7 727.9,457.2 733.0,458.3 738.2,456.2 743.3,457.9 748.5,458.0 753.6,458.4 758.8,457.6 763.9,458.1 769.1,457.7 774.2,458.5 779.4,456.0 784.5,458.2 789.7,458.7 794.8,458.3 800.0,458.7 805.2,458.0 810.3,458.0 815.5,457.6 820.6,458.2 825.8,457.7 830.9,458.1 836.1,458.7 841.2,459.0 846.4,457.8 851.5,458.0 856.7,458.2 861.8,458.8 867.0,457.8 872.1,458.4 877.3,458.4 882.4,458.5 887.6,458.0 892.7,455.9 897.9,458.3 903.0,458.6 908.2,458.5 913.3,458.0 918.5,457.8 923.6,458.9 928.8,458.5 933.9,455.2 939.1,458.7 944.2,458.9 949.4,458.6 954.5,458.7 959.7,458.0 964.8,458.8 970.0,457.7 975.2,458.7 980.3,458.8 985.5,459.0 990.6,458.7 995.8,458.5 1000.9,458.4 1006.1,458.1 1011.2,458.3 1016.4,458.3 1021.5,458.1 1026.7,458.4 1031.8,458.5 1037.0,458.6 1042.1,458.1 1047.3,458.2 1052.4,458.6 1057.6,458.8 1062.7,458.8 1067.9,458.2 1073.0,458.7 1078.2,458.2 1083.3,458.3 1088.5,458.8 1093.6,458.8 1098.8,458.3 1103.9,458.3 1109.1,458.8 1114.2,458.7 1119.4,457.4 1124.5,458.6 1129.7,458.7 1134.8,458.6 1140.0,458.5" />
<polyline fill="none" stroke="#8c564b" stroke-width="2" points="60.0,60.0 65.2,287.5 70.3,354.2 75.5,365.2 80.6,371.2 85.8,374.7 90.9,377.0 96.1,379.1 101.2,380.8 106.4,382.4 111.5,383.8 116.7,385.0 121.8,386.3 127.0,387.0 132.1,388.5 137.3,389.0 142.4,390.6 147.6,391.3 152.7,392.1 157.9,393.2 163.0,394.3 168.2,394.5 173.3,396.1 178.5,396.9 183.6,397.7 188.8,398.5 193.9,399.5 199.1,399.9 204.2,401.1 209.4,401.7 214.5,402.5 219.7,403.4 224.8,403.7 230.0,404.9 235.2,405.7 240.3,405.9 245.5,406.9 250.6,407.6 255.8,408.3 260.9,408.7 266.1,409.7 271.2,410.4 276.4,411.1 281.5,411.8 286.7,411.9 291.8,413.1 297.0,413.7 302.1,414.2 307.3,414.7 312.4,415.2 317.6,416.0 322.7,416.5 327.9,417.3 333.0,418.0 338.2,418.3 343.3,419.0 348.5,419.4 353.6,420.1 358.8,420.6 363.9,421.0 369.1,421.8 374.2,422.4 379.4,422.7 384.5,423.3 389.7,423.7 394.8,424.1 400.0,425.0 405.2,425.2 410.3,425.9 415.5,426.3 420.6,426.7 425.8,427.6 430.9,427.9 436.1,428.1 441.2,428.4 446.4,429.3 451.5,429.7 456.7,430.1 461.8,430.7 467.0,431.1 472.1,431.3 477.3,432.1 482.4,432.6 487.6,433.0 492.7,433.4 497.9,433.7 503.0,434.2 508.2,434.6 513.3,435.0 518.5,435.5 523.6,435.8 528.8,436.5 533.9,436.7 539.1,437.2 544.2,437.8 549.4,438.3 554.5,438.4 559.7,438.8 564.8,439.2 570.0,439.6" />
<polyline fill="none" stroke="#8c564b" stroke-width="2" points="630.0,73.5 635.2,458.9 640.3,459.2 645.5,459.4 650.6,459.6 655.8,458.3 660.9,459.8 666.1,459.6 671.2,459.7 676.4,459.4 681.5,459.2 686.7,459.4 691.8,459.5 697.0,457.0 702.1,459.7 707.3,459.5 712.4,459.7 717.6,459.5 722.7,459.4 727.9,459.5 733.0,459.5 738.2,459.1 743.3,459.6 748.5,459.3 753.6,459.2 758.8,459.4 763.9,459.3 769.1,459.3 774.2,459.6 779.4,458.6 784.5,459.6 789.7,459.5 794.8,459.3 800.0,459.5 805.2,459.6 810.3,458.8 815.5,459.3 820.6,457.5 825.8,459.6 830.9,459.7 836.1,459.4 841.2,459.5 846.4,459.5 851.5,459.4 856.7,459.7 861.8,459.5 867.0,459.6 872.1,459.4 877.3,459.7 882.4,459.7 887.6,459.5 892.7,459.5 897.9,459.6 903.0,459.5 908.2,459.6 913.3,459.6 918.5,459.5 923.6,459.0 928.8,459.7 933.9,459.7 939.1,459.7 944.2,459.6 949.4,459.6 954.5,459.4 959.7,459.5 964.8,459.7 970.0,459.9 975.2,459.1 980.3,458.9 985.5,459.1 990.6,459.6 995.8,459.4 1000.9,459.5 1006.1,459.5 1011.2,459.5 1016.4,459.6 1021.5,459.5 1026.7,459.4 1031.8,459.7 1037.0,459.7 1042.1,459.5 1047.3,459.5 1052.4,459.8 1057.6,459.6 1062.7,459.7 1067.9,459.8 1073.0,460.0 1078.2,459.6 1083.3,459.8 1088.5,459.7 1093.6,459.8 1098.8,459.4 1103.9,459.4 1109.1,459.6 1114.2,459.4 1119.4,459.6 1124.5,459.2 1129.7,459.7 1134.8,459.4 1140.0,459.6" />
<polyline fill="none" stroke="#17becf" stroke-width="2" points="60.0,284.2 65.2,362.1 70.3,373.8 75.5,379.4 80.6,383.1 85.8,385.6 90.9,388.4 96.1,390.6 101.2,392.2 106.4,394.4 111.5,395.4 116.7,396.6 121.8,397.8 127.0,398.7 132.1,400.0 137.3,400.6 142.4,402.1 147.6,403.1 152.7,403.7 157.9,404.3 163.0,405.3 168.2,406.0 173.3,406.6 178.5,407.4 183.6,408.0 188.8,408.9 193.9,409.6 199.1,410.1 204.2,411.0 209.4,411.5 214.5,411.8 219.7,412.7 224.8,413.0 230.0,413.9 235.2,414.6 240.3,415.3 245.5,415.4 250.6,416.2 255.8,416.4 260.9,417.1 266.1,417.8 271.2,418.2 276.4,418.6 281.5,419.3 286.7,419.6 291.8,420.1 297.0,420.7 302.1,420.8 307.3,421.3 312.4,421.8 317.6,422.4 322.7,422.9 327.9,423.2 333.0,424.1 338.2,424.4 343.3,424.7 348.5,424.9 353.6,425.4 358.8,426.1 363.9,426.5 369.1,426.9 374.2,427.4 379.4,427.9 384.5,428.2 389.7,428.9 394.8,429.1 400.0,429.4 405.2,430.0 410.3,430.1 415.5,430.5 420.6,431.1 425.8,431.6 430.9,432.0 436.1,432.5 441.2,432.4 446.4,432.9 451.5,433.1 456.7,433.8 461.8,434.0 467.0,434.5 472.1,434.8 477.3,435.4 482.4,435.5 487.6,436.1 492.7,436.0 497.9,436.6 503.0,437.0 508.2,437.4 513.3,437.7 518.5,438.0 523.6,438.6 528.8,439.0 533.9,439.1 539.1,439.4 544.2,439.9 549.4,440.4 554.5,440.5 559.7,440.9 564.8,441.4 570.0,441.7" />
<polyline fill="none" stroke="#17becf" stroke-width="2" points="630.0,60.0 635.2,443.2 640.3,444.4 645.5,444.7 650.6,444.6 655.8,444.5 660.9,443.9 666.1,444.5 671.2,444.7 676.4,445.3 681.5,444.2 686.7,445.1 691.8,445.2 697.0,444.6 702.1,445.0 707.3,444.0 712.4,444.7 717.6,444.8 722.7,445.4 727.9,445.6 733.0,444.3 738.2,442.9 743.3,444.1 748.5,442.7 753.6,444.7 758.8,445.0 763.9,445.0 769.1,445.7 774.2,443.8 779.4,444.5 784.5,445.5 789.7,445.2 794.8,445.2 800.0,444.9 805.2,444.8 810.3,440.8 815.5,444.8 820.6,445.7 825.8,446.0 830.9,445.1 836.1,445.6 841.2,445.2 846.4,445.6 851.5,445.1 856.7,445.1 861.8,445.0 867.0,444.9 872.1,445.6 877.3,445.5 882.4,445.5 887.6,445.2 892.7,445.1 897.9,445.3 903.0,445.5 908.2,445.3 913.3,443.5 918.5,444.9 923.6,445.2 928.8,445.0 933.9,445.2 939.1,444.9 944.2,446.0 949.4,445.1 954.5,442.9 959.7,444.7 964.8,444.8 970.0,445.8 975.2,444.8 980.3,445.4 985.5,444.8 990.6,444.6 995.8,445.2 1000.9,444.2 1006.1,444.2 1011.2,446.2 1016.4,445.1 1021.5,445.3 1026.7,445.6 1031.8,445.5 1037.0,445.8 1042.1,445.3 1047.3,445.3 1052.4,443.7 1057.6,444.5 1062.7,444.2 1067.9,444.6 1073.0,445.5 1078.2,445.4 1083.3,444.7 1088.5,444.3 1093.6,445.5 1098.8,444.6 1103.9,445.1 1109.1,442.9 1114.2,445.2 1119.4,445.2 1124.5,445.5 1129.7,445.5 1134.8,445.0 1140.0,445.6" />
<line x1="990" y1="45" x2="1015" y2="45" stroke="#2ca02c" stroke-width="3"/>
<text x="1022" y="49" font-size="13" font-family="sans-serif">rmsprop</text>
<line x1="990" y1="67" x2="1015" y2="67" stroke="#8c564b" stroke-width="3"/>
<text x="1022" y="71" font-size="13" font-family="sans-serif">rmsprop_no_memory</text>
<line x1="990" y1="89" x2="1015" y2="89" stroke="#17becf" stroke-width="3"/>
<text x="1022" y="93" font-size="13" font-family="sans-serif">rmsprop_pnorm</text>
<line x1="990" y1="111" x2="1015" y2="111" stroke="#666666" stroke-width="2" stroke-dasharray="8,6"/>
<text x="1022" y="115" font-size="13" font-family="sans-serif">ln(V)</text>
<text x="315.0" y="505" text-anchor="middle" font-size="12" font-family="sans-serif">step</text>
<text x="885.0" y="505" text-anchor="middle" font-size="12" font-family="sans-serif">step</text>
<text x="25" y="260.0" text-anchor="middle" font-size="12" font-family="sans-serif" transform="rotate(-90 25,260.0)">loss</text>
<text x="595.0" y="260.0" text-anchor="middle" font-size="12" font-family="sans-serif" transform="rotate(-90 595.0,260.0)">step_time (s)</text>
</svg>
