<svg xmlns="http://www.w3.org/2000/svg" width="1000" height="520" viewBox="0 0 1000 520">
<rect x="0" y="0" width="100%" height="100%" fill="#ffffff"/>
<text x="500.0" y="33" text-anchor="middle" font-size="21" font-family="sans-serif">Near-Converged Equal-Train-Loss Anchor (train_loss ~= 2.5263)</text>
<rect x="70" y="70" width="860" height="360" fill="#fafafa" stroke="#dddddd"/>
<line x1="70" y1="430.0" x2="930" y2="430.0" stroke="#eeeeee" stroke-width="1"/>
<text x="62.0" y="433.0" text-anchor="end" font-size="10" font-family="sans-serif" fill="#666">0.00</text>
<line x1="70" y1="358.0" x2="930" y2="358.0" stroke="#eeeeee" stroke-width="1"/>
<text x="62.0" y="361.0" text-anchor="end" font-size="10" font-family="sans-serif" fill="#666">0.59</text>
<line x1="70" y1="286.0" x2="930" y2="286.0" stroke="#eeeeee" stroke-width="1"/>
<text x="62.0" y="289.0" text-anchor="end" font-size="10" font-family="sans-serif" fill="#666">1.17</text>
<line x1="70" y1="214.0" x2="930" y2="214.0" stroke="#eeeeee" stroke-width="1"/>
<text x="62.0" y="217.0" text-anchor="end" font-size="10" font-family="sans-serif" fill="#666">1.76</text>
<line x1="70" y1="142.0" x2="930" y2="142.0" stroke="#eeeeee" stroke-width="1"/>
<text x="62.0" y="145.0" text-anchor="end" font-size="10" font-family="sans-serif" fill="#666">2.35</text>
<line x1="70" y1="70.0" x2="930" y2="70.0" stroke="#eeeeee" stroke-width="1"/>
<text x="62.0" y="73.0" text-anchor="end" font-size="10" font-family="sans-serif" fill="#666">2.93</text>
<rect x="110.8" y="124.9" width="133.3" height="305.1" fill="#ff7f0e" opacity="0.88"/>
<text x="177.5" y="448.0" text-anchor="middle" font-size="11" font-family="sans-serif">adafactor</text>
<text x="177.5" y="118.9" text-anchor="middle" font-size="10" font-family="sans-serif">2.485</text>
<text x="177.5" y="463.0" text-anchor="middle" font-size="9" font-family="sans-serif" fill="#666">ECE 0.039</text>
<text x="177.5" y="476.0" text-anchor="middle" font-size="9" font-family="sans-serif" fill="#666">||w|| 754.8</text>
<rect x="325.9" y="119.8" width="133.3" height="310.2" fill="#1f77b4" opacity="0.88"/>
<text x="392.5" y="448.0" text-anchor="middle" font-size="11" font-family="sans-serif">adamw</text>
<text x="392.5" y="113.8" text-anchor="middle" font-size="10" font-family="sans-serif">2.526</text>
<text x="392.5" y="463.0" text-anchor="middle" font-size="9" font-family="sans-serif" fill="#666">ECE 0.018</text>
<text x="392.5" y="476.0" text-anchor="middle" font-size="9" font-family="sans-serif" fill="#666">||w|| 319.8</text>
<rect x="540.9" y="117.0" width="133.3" height="313.0" fill="#2ca02c" opacity="0.88"/>
<text x="607.5" y="448.0" text-anchor="middle" font-size="11" font-family="sans-serif">rmsprop</text>
<text x="607.5" y="111.0" text-anchor="middle" font-size="10" font-family="sans-serif">2.549</text>
<text x="607.5" y="463.0" text-anchor="middle" font-size="9" font-family="sans-serif" fill="#666">ECE 0.138</text>
<text x="607.5" y="476.0" text-anchor="middle" font-size="9" font-family="sans-serif" fill="#666">||w|| 292.4</text>
<rect x="755.9" y="119.4" width="133.3" height="310.6" fill="#d62728" opacity="0.88"/>
<text x="822.5" y="448.0" text-anchor="middle" font-size="11" font-family="sans-serif">sgd</text>
<text x="822.5" y="113.4" text-anchor="middle" font-size="10" font-family="sans-serif">2.530</text>
<text x="822.5" y="463.0" text-anchor="middle" font-size="9" font-family="sans-serif" fill="#666">ECE 0.023</text>
<text x="822.5" y="476.0" text-anchor="middle" font-size="9" font-family="sans-serif" fill="#666">||w|| 171.0</text>
<text x="500.0" y="504.0" text-anchor="middle" font-size="11" font-family="sans-serif">Bar height: test_loss at near-converged equal-train-loss anchor</text>
</svg>
