<svg xmlns="http://www.w3.org/2000/svg" width="1400" height="880" viewBox="0 0 1400 880">
<rect x="0" y="0" width="100%" height="100%" fill="#ffffff"/>
<text x="700.0" y="33" text-anchor="middle" font-size="22" font-family="sans-serif">Equal-Train-Loss Comparison: Generalization and Implicit Regularization</text>
<rect x="65.0" y="65.0" width="600.0" height="332.5" fill="#fafafa" stroke="#dddddd"/>
<text x="365.0" y="55.0" text-anchor="middle" font-size="13" font-family="sans-serif">Test Loss @ Matched Train-Loss Anchor</text>
<line x1="65.0" y1="397.5" x2="65.0" y2="401.5" stroke="#666" stroke-width="1"/>
<text x="65.0" y="414.5" text-anchor="middle" font-size="10" font-family="sans-serif" fill="#555">2.5</text>
<line x1="215.0" y1="397.5" x2="215.0" y2="401.5" stroke="#666" stroke-width="1"/>
<text x="215.0" y="414.5" text-anchor="middle" font-size="10" font-family="sans-serif" fill="#555">20.3</text>
<line x1="365.0" y1="397.5" x2="365.0" y2="401.5" stroke="#666" stroke-width="1"/>
<text x="365.0" y="414.5" text-anchor="middle" font-size="10" font-family="sans-serif" fill="#555">38.1</text>
<line x1="515.0" y1="397.5" x2="515.0" y2="401.5" stroke="#666" stroke-width="1"/>
<text x="515.0" y="414.5" text-anchor="middle" font-size="10" font-family="sans-serif" fill="#555">55.8</text>
<line x1="665.0" y1="397.5" x2="665.0" y2="401.5" stroke="#666" stroke-width="1"/>
<text x="665.0" y="414.5" text-anchor="middle" font-size="10" font-family="sans-serif" fill="#555">73.6</text>
<line x1="61.0" y1="397.5" x2="65.0" y2="397.5" stroke="#666" stroke-width="1"/>
<text x="58.0" y="400.5" text-anchor="end" font-size="10" font-family="sans-serif" fill="#555">-3.4</text>
<line x1="61.0" y1="314.4" x2="65.0" y2="314.4" stroke="#666" stroke-width="1"/>
<text x="58.0" y="317.4" text-anchor="end" font-size="10" font-family="sans-serif" fill="#555">14.4</text>
<line x1="61.0" y1="231.2" x2="65.0" y2="231.2" stroke="#666" stroke-width="1"/>
<text x="58.0" y="234.2" text-anchor="end" font-size="10" font-family="sans-serif" fill="#555">32.2</text>
<line x1="61.0" y1="148.1" x2="65.0" y2="148.1" stroke="#666" stroke-width="1"/>
<text x="58.0" y="151.1" text-anchor="end" font-size="10" font-family="sans-serif" fill="#555">50.0</text>
<line x1="61.0" y1="65.0" x2="65.0" y2="65.0" stroke="#666" stroke-width="1"/>
<text x="58.0" y="68.0" text-anchor="end" font-size="10" font-family="sans-serif" fill="#555">67.8</text>
<polyline fill="none" stroke="#ff7f0e" stroke-width="2" points="65.0,369.8 165.0,315.0 265.0,282.6 365.0,265.9 465.0,181.9 565.0,92.7 665.0,136.8" />
<circle cx="65.0" cy="369.8" r="2.6" fill="#ff7f0e" stroke="#ffffff" stroke-width="0.8"/>
<circle cx="165.0" cy="315.0" r="2.6" fill="#ff7f0e" stroke="#ffffff" stroke-width="0.8"/>
<circle cx="265.0" cy="282.6" r="2.6" fill="#ff7f0e" stroke="#ffffff" stroke-width="0.8"/>
<circle cx="365.0" cy="265.9" r="2.6" fill="#ff7f0e" stroke="#ffffff" stroke-width="0.8"/>
<circle cx="465.0" cy="181.9" r="2.6" fill="#ff7f0e" stroke="#ffffff" stroke-width="0.8"/>
<circle cx="565.0" cy="92.7" r="2.6" fill="#ff7f0e" stroke="#ffffff" stroke-width="0.8"/>
<circle cx="665.0" cy="136.8" r="2.6" fill="#ff7f0e" stroke="#ffffff" stroke-width="0.8"/>
<polyline fill="none" stroke="#1f77b4" stroke-width="2" points="65.0,369.6 165.0,347.6 265.0,347.6 365.0,347.6 465.0,301.4 565.0,301.4 665.0,301.4" />
<circle cx="65.0" cy="369.6" r="2.6" fill="#1f77b4" stroke="#ffffff" stroke-width="0.8"/>
<circle cx="165.0" cy="347.6" r="2.6" fill="#1f77b4" stroke="#ffffff" stroke-width="0.8"/>
<circle cx="265.0" cy="347.6" r="2.6" fill="#1f77b4" stroke="#ffffff" stroke-width="0.8"/>
<circle cx="365.0" cy="347.6" r="2.6" fill="#1f77b4" stroke="#ffffff" stroke-width="0.8"/>
<circle cx="465.0" cy="301.4" r="2.6" fill="#1f77b4" stroke="#ffffff" stroke-width="0.8"/>
<circle cx="565.0" cy="301.4" r="2.6" fill="#1f77b4" stroke="#ffffff" stroke-width="0.8"/>
<circle cx="665.0" cy="301.4" r="2.6" fill="#1f77b4" stroke="#ffffff" stroke-width="0.8"/>
<polyline fill="none" stroke="#2ca02c" stroke-width="2" points="65.0,369.5 165.0,331.7 265.0,300.7 365.0,300.7 465.0,300.7 565.0,252.0 665.0,252.0" />
<circle cx="65.0" cy="369.5" r="2.6" fill="#2ca02c" stroke="#ffffff" stroke-width="0.8"/>
<circle cx="165.0" cy="331.7" r="2.6" fill="#2ca02c" stroke="#ffffff" stroke-width="0.8"/>
<circle cx="265.0" cy="300.7" r="2.6" fill="#2ca02c" stroke="#ffffff" stroke-width="0.8"/>
<circle cx="365.0" cy="300.7" r="2.6" fill="#2ca02c" stroke="#ffffff" stroke-width="0.8"/>
<circle cx="465.0" cy="300.7" r="2.6" fill="#2ca02c" stroke="#ffffff" stroke-width="0.8"/>
<circle cx="565.0" cy="252.0" r="2.6" fill="#2ca02c" stroke="#ffffff" stroke-width="0.8"/>
<circle cx="665.0" cy="252.0" r="2.6" fill="#2ca02c" stroke="#ffffff" stroke-width="0.8"/>
<polyline fill="none" stroke="#d62728" stroke-width="2" points="65.0,369.6 165.0,348.9 265.0,348.9 365.0,348.9 465.0,310.5 565.0,310.5 665.0,310.5" />
<circle cx="65.0" cy="369.6" r="2.6" fill="#d62728" stroke="#ffffff" stroke-width="0.8"/>
<circle cx="165.0" cy="348.9" r="2.6" fill="#d62728" stroke="#ffffff" stroke-width="0.8"/>
<circle cx="265.0" cy="348.9" r="2.6" fill="#d62728" stroke="#ffffff" stroke-width="0.8"/>
<circle cx="365.0" cy="348.9" r="2.6" fill="#d62728" stroke="#ffffff" stroke-width="0.8"/>
<circle cx="465.0" cy="310.5" r="2.6" fill="#d62728" stroke="#ffffff" stroke-width="0.8"/>
<circle cx="565.0" cy="310.5" r="2.6" fill="#d62728" stroke="#ffffff" stroke-width="0.8"/>
<circle cx="665.0" cy="310.5" r="2.6" fill="#d62728" stroke="#ffffff" stroke-width="0.8"/>
<text x="365.0" y="432.5" text-anchor="middle" font-size="11" font-family="sans-serif">Anchor Train Loss (higher -> earlier training)</text>
<rect x="735.0" y="65.0" width="600.0" height="332.5" fill="#fafafa" stroke="#dddddd"/>
<text x="1035.0" y="55.0" text-anchor="middle" font-size="13" font-family="sans-serif">ECE @ Matched Train-Loss Anchor</text>
<line x1="735.0" y1="397.5" x2="735.0" y2="401.5" stroke="#666" stroke-width="1"/>
<text x="735.0" y="414.5" text-anchor="middle" font-size="10" font-family="sans-serif" fill="#555">2.5</text>
<line x1="885.0" y1="397.5" x2="885.0" y2="401.5" stroke="#666" stroke-width="1"/>
<text x="885.0" y="414.5" text-anchor="middle" font-size="10" font-family="sans-serif" fill="#555">20.3</text>
<line x1="1035.0" y1="397.5" x2="1035.0" y2="401.5" stroke="#666" stroke-width="1"/>
<text x="1035.0" y="414.5" text-anchor="middle" font-size="10" font-family="sans-serif" fill="#555">38.1</text>
<line x1="1185.0" y1="397.5" x2="1185.0" y2="401.5" stroke="#666" stroke-width="1"/>
<text x="1185.0" y="414.5" text-anchor="middle" font-size="10" font-family="sans-serif" fill="#555">55.8</text>
<line x1="1335.0" y1="397.5" x2="1335.0" y2="401.5" stroke="#666" stroke-width="1"/>
<text x="1335.0" y="414.5" text-anchor="middle" font-size="10" font-family="sans-serif" fill="#555">73.6</text>
<line x1="731.0" y1="397.5" x2="735.0" y2="397.5" stroke="#666" stroke-width="1"/>
<text x="728.0" y="400.5" text-anchor="end" font-size="10" font-family="sans-serif" fill="#555">-0.08</text>
<line x1="731.0" y1="314.4" x2="735.0" y2="314.4" stroke="#666" stroke-width="1"/>
<text x="728.0" y="317.4" text-anchor="end" font-size="10" font-family="sans-serif" fill="#555">0.21</text>
<line x1="731.0" y1="231.2" x2="735.0" y2="231.2" stroke="#666" stroke-width="1"/>
<text x="728.0" y="234.2" text-anchor="end" font-size="10" font-family="sans-serif" fill="#555">0.50</text>
<line x1="731.0" y1="148.1" x2="735.0" y2="148.1" stroke="#666" stroke-width="1"/>
<text x="728.0" y="151.1" text-anchor="end" font-size="10" font-family="sans-serif" fill="#555">0.79</text>
<line x1="731.0" y1="65.0" x2="735.0" y2="65.0" stroke="#666" stroke-width="1"/>
<text x="728.0" y="68.0" text-anchor="end" font-size="10" font-family="sans-serif" fill="#555">1.08</text>
<polyline fill="none" stroke="#ff7f0e" stroke-width="2" points="735.0,363.6 835.0,236.5 935.0,204.1 1035.0,146.2 1135.0,142.4 1235.0,92.7 1335.0,104.6" />
<circle cx="735.0" cy="363.6" r="2.6" fill="#ff7f0e" stroke="#ffffff" stroke-width="0.8"/>
<circle cx="835.0" cy="236.5" r="2.6" fill="#ff7f0e" stroke="#ffffff" stroke-width="0.8"/>
<circle cx="935.0" cy="204.1" r="2.6" fill="#ff7f0e" stroke="#ffffff" stroke-width="0.8"/>
<circle cx="1035.0" cy="146.2" r="2.6" fill="#ff7f0e" stroke="#ffffff" stroke-width="0.8"/>
<circle cx="1135.0" cy="142.4" r="2.6" fill="#ff7f0e" stroke="#ffffff" stroke-width="0.8"/>
<circle cx="1235.0" cy="92.7" r="2.6" fill="#ff7f0e" stroke="#ffffff" stroke-width="0.8"/>
<circle cx="1335.0" cy="104.6" r="2.6" fill="#ff7f0e" stroke="#ffffff" stroke-width="0.8"/>
<polyline fill="none" stroke="#1f77b4" stroke-width="2" points="735.0,369.8 835.0,269.2 935.0,269.2 1035.0,269.2 1135.0,168.3 1235.0,168.3 1335.0,168.3" />
<circle cx="735.0" cy="369.8" r="2.6" fill="#1f77b4" stroke="#ffffff" stroke-width="0.8"/>
<circle cx="835.0" cy="269.2" r="2.6" fill="#1f77b4" stroke="#ffffff" stroke-width="0.8"/>
<circle cx="935.0" cy="269.2" r="2.6" fill="#1f77b4" stroke="#ffffff" stroke-width="0.8"/>
<circle cx="1035.0" cy="269.2" r="2.6" fill="#1f77b4" stroke="#ffffff" stroke-width="0.8"/>
<circle cx="1135.0" cy="168.3" r="2.6" fill="#1f77b4" stroke="#ffffff" stroke-width="0.8"/>
<circle cx="1235.0" cy="168.3" r="2.6" fill="#1f77b4" stroke="#ffffff" stroke-width="0.8"/>
<circle cx="1335.0" cy="168.3" r="2.6" fill="#1f77b4" stroke="#ffffff" stroke-width="0.8"/>
<polyline fill="none" stroke="#2ca02c" stroke-width="2" points="735.0,335.2 835.0,181.7 935.0,127.5 1035.0,127.5 1135.0,127.5 1235.0,112.0 1335.0,112.0" />
<circle cx="735.0" cy="335.2" r="2.6" fill="#2ca02c" stroke="#ffffff" stroke-width="0.8"/>
<circle cx="835.0" cy="181.7" r="2.6" fill="#2ca02c" stroke="#ffffff" stroke-width="0.8"/>
<circle cx="935.0" cy="127.5" r="2.6" fill="#2ca02c" stroke="#ffffff" stroke-width="0.8"/>
<circle cx="1035.0" cy="127.5" r="2.6" fill="#2ca02c" stroke="#ffffff" stroke-width="0.8"/>
<circle cx="1135.0" cy="127.5" r="2.6" fill="#2ca02c" stroke="#ffffff" stroke-width="0.8"/>
<circle cx="1235.0" cy="112.0" r="2.6" fill="#2ca02c" stroke="#ffffff" stroke-width="0.8"/>
<circle cx="1335.0" cy="112.0" r="2.6" fill="#2ca02c" stroke="#ffffff" stroke-width="0.8"/>
<polyline fill="none" stroke="#d62728" stroke-width="2" points="735.0,368.2 835.0,302.0 935.0,302.0 1035.0,302.0 1135.0,213.2 1235.0,213.2 1335.0,213.2" />
<circle cx="735.0" cy="368.2" r="2.6" fill="#d62728" stroke="#ffffff" stroke-width="0.8"/>
<circle cx="835.0" cy="302.0" r="2.6" fill="#d62728" stroke="#ffffff" stroke-width="0.8"/>
<circle cx="935.0" cy="302.0" r="2.6" fill="#d62728" stroke="#ffffff" stroke-width="0.8"/>
<circle cx="1035.0" cy="302.0" r="2.6" fill="#d62728" stroke="#ffffff" stroke-width="0.8"/>
<circle cx="1135.0" cy="213.2" r="2.6" fill="#d62728" stroke="#ffffff" stroke-width="0.8"/>
<circle cx="1235.0" cy="213.2" r="2.6" fill="#d62728" stroke="#ffffff" stroke-width="0.8"/>
<circle cx="1335.0" cy="213.2" r="2.6" fill="#d62728" stroke="#ffffff" stroke-width="0.8"/>
<text x="1035.0" y="432.5" text-anchor="middle" font-size="11" font-family="sans-serif">Anchor Train Loss (higher -> earlier training)</text>
<rect x="65.0" y="482.5" width="600.0" height="332.5" fill="#fafafa" stroke="#dddddd"/>
<text x="365.0" y="472.5" text-anchor="middle" font-size="13" font-family="sans-serif">Param Norm (L2) @ Anchor</text>
<line x1="65.0" y1="815.0" x2="65.0" y2="819.0" stroke="#666" stroke-width="1"/>
<text x="65.0" y="832.0" text-anchor="middle" font-size="10" font-family="sans-serif" fill="#555">2.5</text>
<line x1="215.0" y1="815.0" x2="215.0" y2="819.0" stroke="#666" stroke-width="1"/>
<text x="215.0" y="832.0" text-anchor="middle" font-size="10" font-family="sans-serif" fill="#555">20.3</text>
<line x1="365.0" y1="815.0" x2="365.0" y2="819.0" stroke="#666" stroke-width="1"/>
<text x="365.0" y="832.0" text-anchor="middle" font-size="10" font-family="sans-serif" fill="#555">38.1</text>
<line x1="515.0" y1="815.0" x2="515.0" y2="819.0" stroke="#666" stroke-width="1"/>
<text x="515.0" y="832.0" text-anchor="middle" font-size="10" font-family="sans-serif" fill="#555">55.8</text>
<line x1="665.0" y1="815.0" x2="665.0" y2="819.0" stroke="#666" stroke-width="1"/>
<text x="665.0" y="832.0" text-anchor="middle" font-size="10" font-family="sans-serif" fill="#555">73.6</text>
<line x1="61.0" y1="815.0" x2="65.0" y2="815.0" stroke="#666" stroke-width="1"/>
<text x="58.0" y="818.0" text-anchor="end" font-size="10" font-family="sans-serif" fill="#555">113</text>
<line x1="61.0" y1="731.9" x2="65.0" y2="731.9" stroke="#666" stroke-width="1"/>
<text x="58.0" y="734.9" text-anchor="end" font-size="10" font-family="sans-serif" fill="#555">288</text>
<line x1="61.0" y1="648.8" x2="65.0" y2="648.8" stroke="#666" stroke-width="1"/>
<text x="58.0" y="651.8" text-anchor="end" font-size="10" font-family="sans-serif" fill="#555">463</text>
<line x1="61.0" y1="565.6" x2="65.0" y2="565.6" stroke="#666" stroke-width="1"/>
<text x="58.0" y="568.6" text-anchor="end" font-size="10" font-family="sans-serif" fill="#555">638</text>
<line x1="61.0" y1="482.5" x2="65.0" y2="482.5" stroke="#666" stroke-width="1"/>
<text x="58.0" y="485.5" text-anchor="end" font-size="10" font-family="sans-serif" fill="#555">813</text>
<polyline fill="none" stroke="#ff7f0e" stroke-width="2" points="65.0,510.2 165.0,708.7 265.0,711.5 365.0,712.4 465.0,713.5 565.0,714.6 665.0,715.6" />
<circle cx="65.0" cy="510.2" r="2.6" fill="#ff7f0e" stroke="#ffffff" stroke-width="0.8"/>
<circle cx="165.0" cy="708.7" r="2.6" fill="#ff7f0e" stroke="#ffffff" stroke-width="0.8"/>
<circle cx="265.0" cy="711.5" r="2.6" fill="#ff7f0e" stroke="#ffffff" stroke-width="0.8"/>
<circle cx="365.0" cy="712.4" r="2.6" fill="#ff7f0e" stroke="#ffffff" stroke-width="0.8"/>
<circle cx="465.0" cy="713.5" r="2.6" fill="#ff7f0e" stroke="#ffffff" stroke-width="0.8"/>
<circle cx="565.0" cy="714.6" r="2.6" fill="#ff7f0e" stroke="#ffffff" stroke-width="0.8"/>
<circle cx="665.0" cy="715.6" r="2.6" fill="#ff7f0e" stroke="#ffffff" stroke-width="0.8"/>
<polyline fill="none" stroke="#1f77b4" stroke-width="2" points="65.0,716.7 165.0,716.5 265.0,716.5 365.0,716.5 465.0,716.6 565.0,716.6 665.0,716.6" />
<circle cx="65.0" cy="716.7" r="2.6" fill="#1f77b4" stroke="#ffffff" stroke-width="0.8"/>
<circle cx="165.0" cy="716.5" r="2.6" fill="#1f77b4" stroke="#ffffff" stroke-width="0.8"/>
<circle cx="265.0" cy="716.5" r="2.6" fill="#1f77b4" stroke="#ffffff" stroke-width="0.8"/>
<circle cx="365.0" cy="716.5" r="2.6" fill="#1f77b4" stroke="#ffffff" stroke-width="0.8"/>
<circle cx="465.0" cy="716.6" r="2.6" fill="#1f77b4" stroke="#ffffff" stroke-width="0.8"/>
<circle cx="565.0" cy="716.6" r="2.6" fill="#1f77b4" stroke="#ffffff" stroke-width="0.8"/>
<circle cx="665.0" cy="716.6" r="2.6" fill="#1f77b4" stroke="#ffffff" stroke-width="0.8"/>
<polyline fill="none" stroke="#2ca02c" stroke-width="2" points="65.0,729.7 165.0,717.8 265.0,717.5 365.0,717.5 465.0,717.5 565.0,717.2 665.0,717.2" />
<circle cx="65.0" cy="729.7" r="2.6" fill="#2ca02c" stroke="#ffffff" stroke-width="0.8"/>
<circle cx="165.0" cy="717.8" r="2.6" fill="#2ca02c" stroke="#ffffff" stroke-width="0.8"/>
<circle cx="265.0" cy="717.5" r="2.6" fill="#2ca02c" stroke="#ffffff" stroke-width="0.8"/>
<circle cx="365.0" cy="717.5" r="2.6" fill="#2ca02c" stroke="#ffffff" stroke-width="0.8"/>
<circle cx="465.0" cy="717.5" r="2.6" fill="#2ca02c" stroke="#ffffff" stroke-width="0.8"/>
<circle cx="565.0" cy="717.2" r="2.6" fill="#2ca02c" stroke="#ffffff" stroke-width="0.8"/>
<circle cx="665.0" cy="717.2" r="2.6" fill="#2ca02c" stroke="#ffffff" stroke-width="0.8"/>
<polyline fill="none" stroke="#d62728" stroke-width="2" points="65.0,787.3 165.0,718.5 265.0,718.5 365.0,718.5 465.0,717.3 565.0,717.3 665.0,717.3" />
<circle cx="65.0" cy="787.3" r="2.6" fill="#d62728" stroke="#ffffff" stroke-width="0.8"/>
<circle cx="165.0" cy="718.5" r="2.6" fill="#d62728" stroke="#ffffff" stroke-width="0.8"/>
<circle cx="265.0" cy="718.5" r="2.6" fill="#d62728" stroke="#ffffff" stroke-width="0.8"/>
<circle cx="365.0" cy="718.5" r="2.6" fill="#d62728" stroke="#ffffff" stroke-width="0.8"/>
<circle cx="465.0" cy="717.3" r="2.6" fill="#d62728" stroke="#ffffff" stroke-width="0.8"/>
<circle cx="565.0" cy="717.3" r="2.6" fill="#d62728" stroke="#ffffff" stroke-width="0.8"/>
<circle cx="665.0" cy="717.3" r="2.6" fill="#d62728" stroke="#ffffff" stroke-width="0.8"/>
<text x="365.0" y="850.0" text-anchor="middle" font-size="11" font-family="sans-serif">Anchor Train Loss (higher -> earlier training)</text>
<rect x="735.0" y="482.5" width="600.0" height="332.5" fill="#fafafa" stroke="#dddddd"/>
<text x="1035.0" y="472.5" text-anchor="middle" font-size="13" font-family="sans-serif">Train-Loss Matching Error (Abs)</text>
<line x1="735.0" y1="815.0" x2="735.0" y2="819.0" stroke="#666" stroke-width="1"/>
<text x="735.0" y="832.0" text-anchor="middle" font-size="10" font-family="sans-serif" fill="#555">2.5</text>
<line x1="885.0" y1="815.0" x2="885.0" y2="819.0" stroke="#666" stroke-width="1"/>
<text x="885.0" y="832.0" text-anchor="middle" font-size="10" font-family="sans-serif" fill="#555">20.3</text>
<line x1="1035.0" y1="815.0" x2="1035.0" y2="819.0" stroke="#666" stroke-width="1"/>
<text x="1035.0" y="832.0" text-anchor="middle" font-size="10" font-family="sans-serif" fill="#555">38.1</text>
<line x1="1185.0" y1="815.0" x2="1185.0" y2="819.0" stroke="#666" stroke-width="1"/>
<text x="1185.0" y="832.0" text-anchor="middle" font-size="10" font-family="sans-serif" fill="#555">55.8</text>
<line x1="1335.0" y1="815.0" x2="1335.0" y2="819.0" stroke="#666" stroke-width="1"/>
<text x="1335.0" y="832.0" text-anchor="middle" font-size="10" font-family="sans-serif" fill="#555">73.6</text>
<line x1="731.0" y1="815.0" x2="735.0" y2="815.0" stroke="#666" stroke-width="1"/>
<text x="728.0" y="818.0" text-anchor="end" font-size="10" font-family="sans-serif" fill="#555">-3.5</text>
<line x1="731.0" y1="731.9" x2="735.0" y2="731.9" stroke="#666" stroke-width="1"/>
<text x="728.0" y="734.9" text-anchor="end" font-size="10" font-family="sans-serif" fill="#555">6.9</text>
<line x1="731.0" y1="648.8" x2="735.0" y2="648.8" stroke="#666" stroke-width="1"/>
<text x="728.0" y="651.8" text-anchor="end" font-size="10" font-family="sans-serif" fill="#555">17.4</text>
<line x1="731.0" y1="565.6" x2="735.0" y2="565.6" stroke="#666" stroke-width="1"/>
<text x="728.0" y="568.6" text-anchor="end" font-size="10" font-family="sans-serif" fill="#555">27.8</text>
<line x1="731.0" y1="482.5" x2="735.0" y2="482.5" stroke="#666" stroke-width="1"/>
<text x="728.0" y="485.5" text-anchor="end" font-size="10" font-family="sans-serif" fill="#555">38.2</text>
<polyline fill="none" stroke="#ff7f0e" stroke-width="2" points="735.0,787.3 835.0,784.9 935.0,770.2 1035.0,724.3 1135.0,778.6 1235.0,755.0 1335.0,787.3" />
<circle cx="735.0" cy="787.3" r="2.6" fill="#ff7f0e" stroke="#ffffff" stroke-width="0.8"/>
<circle cx="835.0" cy="784.9" r="2.6" fill="#ff7f0e" stroke="#ffffff" stroke-width="0.8"/>
<circle cx="935.0" cy="770.2" r="2.6" fill="#ff7f0e" stroke="#ffffff" stroke-width="0.8"/>
<circle cx="1035.0" cy="724.3" r="2.6" fill="#ff7f0e" stroke="#ffffff" stroke-width="0.8"/>
<circle cx="1135.0" cy="778.6" r="2.6" fill="#ff7f0e" stroke="#ffffff" stroke-width="0.8"/>
<circle cx="1235.0" cy="755.0" r="2.6" fill="#ff7f0e" stroke="#ffffff" stroke-width="0.8"/>
<circle cx="1335.0" cy="787.3" r="2.6" fill="#ff7f0e" stroke="#ffffff" stroke-width="0.8"/>
<polyline fill="none" stroke="#1f77b4" stroke-width="2" points="735.0,787.2 835.0,771.7 935.0,677.1 1035.0,582.6 1135.0,562.0 1235.0,656.6 1335.0,751.1" />
<circle cx="735.0" cy="787.2" r="2.6" fill="#1f77b4" stroke="#ffffff" stroke-width="0.8"/>
<circle cx="835.0" cy="771.7" r="2.6" fill="#1f77b4" stroke="#ffffff" stroke-width="0.8"/>
<circle cx="935.0" cy="677.1" r="2.6" fill="#1f77b4" stroke="#ffffff" stroke-width="0.8"/>
<circle cx="1035.0" cy="582.6" r="2.6" fill="#1f77b4" stroke="#ffffff" stroke-width="0.8"/>
<circle cx="1135.0" cy="562.0" r="2.6" fill="#1f77b4" stroke="#ffffff" stroke-width="0.8"/>
<circle cx="1235.0" cy="656.6" r="2.6" fill="#1f77b4" stroke="#ffffff" stroke-width="0.8"/>
<circle cx="1335.0" cy="751.1" r="2.6" fill="#1f77b4" stroke="#ffffff" stroke-width="0.8"/>
<polyline fill="none" stroke="#2ca02c" stroke-width="2" points="735.0,787.3 835.0,781.8 935.0,754.1 1035.0,659.6 1135.0,565.1 1235.0,607.4 1335.0,701.9" />
<circle cx="735.0" cy="787.3" r="2.6" fill="#2ca02c" stroke="#ffffff" stroke-width="0.8"/>
<circle cx="835.0" cy="781.8" r="2.6" fill="#2ca02c" stroke="#ffffff" stroke-width="0.8"/>
<circle cx="935.0" cy="754.1" r="2.6" fill="#2ca02c" stroke="#ffffff" stroke-width="0.8"/>
<circle cx="1035.0" cy="659.6" r="2.6" fill="#2ca02c" stroke="#ffffff" stroke-width="0.8"/>
<circle cx="1135.0" cy="565.1" r="2.6" fill="#2ca02c" stroke="#ffffff" stroke-width="0.8"/>
<circle cx="1235.0" cy="607.4" r="2.6" fill="#2ca02c" stroke="#ffffff" stroke-width="0.8"/>
<circle cx="1335.0" cy="701.9" r="2.6" fill="#2ca02c" stroke="#ffffff" stroke-width="0.8"/>
<polyline fill="none" stroke="#d62728" stroke-width="2" points="735.0,787.3 835.0,767.7 935.0,673.1 1035.0,578.6 1135.0,510.2 1235.0,604.7 1335.0,699.3" />
<circle cx="735.0" cy="787.3" r="2.6" fill="#d62728" stroke="#ffffff" stroke-width="0.8"/>
<circle cx="835.0" cy="767.7" r="2.6" fill="#d62728" stroke="#ffffff" stroke-width="0.8"/>
<circle cx="935.0" cy="673.1" r="2.6" fill="#d62728" stroke="#ffffff" stroke-width="0.8"/>
<circle cx="1035.0" cy="578.6" r="2.6" fill="#d62728" stroke="#ffffff" stroke-width="0.8"/>
<circle cx="1135.0" cy="510.2" r="2.6" fill="#d62728" stroke="#ffffff" stroke-width="0.8"/>
<circle cx="1235.0" cy="604.7" r="2.6" fill="#d62728" stroke="#ffffff" stroke-width="0.8"/>
<circle cx="1335.0" cy="699.3" r="2.6" fill="#d62728" stroke="#ffffff" stroke-width="0.8"/>
<text x="1035.0" y="850.0" text-anchor="middle" font-size="11" font-family="sans-serif">Anchor Train Loss (higher -> earlier training)</text>
<line x1="1150" y1="42" x2="1174" y2="42" stroke="#ff7f0e" stroke-width="3"/>
<text x="1180" y="46" font-size="12" font-family="sans-serif">adafactor</text>
<line x1="1150" y1="63" x2="1174" y2="63" stroke="#1f77b4" stroke-width="3"/>
<text x="1180" y="67" font-size="12" font-family="sans-serif">adamw</text>
<line x1="1150" y1="84" x2="1174" y2="84" stroke="#2ca02c" stroke-width="3"/>
<text x="1180" y="88" font-size="12" font-family="sans-serif">rmsprop</text>
<line x1="1150" y1="105" x2="1174" y2="105" stroke="#d62728" stroke-width="3"/>
<text x="1180" y="109" font-size="12" font-family="sans-serif">sgd</text>
</svg>
