<svg xmlns="http://www.w3.org/2000/svg" width="1200" height="520" viewBox="0 0 1200 520">
<rect x="0" y="0" width="100%" height="100%" fill="#ffffff" />
<text x="600.0" y="30" text-anchor="middle" font-size="20" font-family="sans-serif">Optimizer Comparison</text>
<rect x="60" y="60" width="510.0" height="400" fill="#fafafa" stroke="#dddddd"/>
<text x="315.0" y="48" text-anchor="middle" font-size="14" font-family="sans-serif">Loss vs Step</text>
<rect x="630.0" y="60" width="510.0" height="400" fill="#fafafa" stroke="#dddddd"/>
<text x="885.0" y="48" text-anchor="middle" font-size="14" font-family="sans-serif">Step Time vs Step</text>
<line x1="60.0" y1="460.0" x2="60.0" y2="465.0" stroke="#666" stroke-width="1"/>
<text x="60.0" y="480.0" text-anchor="middle" font-size="11" font-family="sans-serif" fill="#555">10</text>
<line x1="162.0" y1="460.0" x2="162.0" y2="465.0" stroke="#666" stroke-width="1"/>
<text x="162.0" y="480.0" text-anchor="middle" font-size="11" font-family="sans-serif" fill="#555">208</text>
<line x1="264.0" y1="460.0" x2="264.0" y2="465.0" stroke="#666" stroke-width="1"/>
<text x="264.0" y="480.0" text-anchor="middle" font-size="11" font-family="sans-serif" fill="#555">406</text>
<line x1="366.0" y1="460.0" x2="366.0" y2="465.0" stroke="#666" stroke-width="1"/>
<text x="366.0" y="480.0" text-anchor="middle" font-size="11" font-family="sans-serif" fill="#555">604</text>
<line x1="468.0" y1="460.0" x2="468.0" y2="465.0" stroke="#666" stroke-width="1"/>
<text x="468.0" y="480.0" text-anchor="middle" font-size="11" font-family="sans-serif" fill="#555">802</text>
<line x1="570.0" y1="460.0" x2="570.0" y2="465.0" stroke="#666" stroke-width="1"/>
<text x="570.0" y="480.0" text-anchor="middle" font-size="11" font-family="sans-serif" fill="#555">1000</text>
<line x1="55.0" y1="460.0" x2="60.0" y2="460.0" stroke="#666" stroke-width="1"/>
<text x="50.0" y="464.0" text-anchor="end" font-size="11" font-family="sans-serif" fill="#555">2.0</text>
<line x1="55.0" y1="380.0" x2="60.0" y2="380.0" stroke="#666" stroke-width="1"/>
<text x="50.0" y="384.0" text-anchor="end" font-size="11" font-family="sans-serif" fill="#555">18.5</text>
<line x1="55.0" y1="300.0" x2="60.0" y2="300.0" stroke="#666" stroke-width="1"/>
<text x="50.0" y="304.0" text-anchor="end" font-size="11" font-family="sans-serif" fill="#555">35.0</text>
<line x1="55.0" y1="220.0" x2="60.0" y2="220.0" stroke="#666" stroke-width="1"/>
<text x="50.0" y="224.0" text-anchor="end" font-size="11" font-family="sans-serif" fill="#555">51.6</text>
<line x1="55.0" y1="140.0" x2="60.0" y2="140.0" stroke="#666" stroke-width="1"/>
<text x="50.0" y="144.0" text-anchor="end" font-size="11" font-family="sans-serif" fill="#555">68.1</text>
<line x1="55.0" y1="60.0" x2="60.0" y2="60.0" stroke="#666" stroke-width="1"/>
<text x="50.0" y="64.0" text-anchor="end" font-size="11" font-family="sans-serif" fill="#555">84.6</text>
<line x1="630.0" y1="460.0" x2="630.0" y2="465.0" stroke="#666" stroke-width="1"/>
<text x="630.0" y="480.0" text-anchor="middle" font-size="11" font-family="sans-serif" fill="#555">10</text>
<line x1="732.0" y1="460.0" x2="732.0" y2="465.0" stroke="#666" stroke-width="1"/>
<text x="732.0" y="480.0" text-anchor="middle" font-size="11" font-family="sans-serif" fill="#555">208</text>
<line x1="834.0" y1="460.0" x2="834.0" y2="465.0" stroke="#666" stroke-width="1"/>
<text x="834.0" y="480.0" text-anchor="middle" font-size="11" font-family="sans-serif" fill="#555">406</text>
<line x1="936.0" y1="460.0" x2="936.0" y2="465.0" stroke="#666" stroke-width="1"/>
<text x="936.0" y="480.0" text-anchor="middle" font-size="11" font-family="sans-serif" fill="#555">604</text>
<line x1="1038.0" y1="460.0" x2="1038.0" y2="465.0" stroke="#666" stroke-width="1"/>
<text x="1038.0" y="480.0" text-anchor="middle" font-size="11" font-family="sans-serif" fill="#555">802</text>
<line x1="1140.0" y1="460.0" x2="1140.0" y2="465.0" stroke="#666" stroke-width="1"/>
<text x="1140.0" y="480.0" text-anchor="middle" font-size="11" font-family="sans-serif" fill="#555">1000</text>
<line x1="625.0" y1="460.0" x2="630.0" y2="460.0" stroke="#666" stroke-width="1"/>
<text x="620.0" y="464.0" text-anchor="end" font-size="11" font-family="sans-serif" fill="#555">0.007</text>
<line x1="625.0" y1="380.0" x2="630.0" y2="380.0" stroke="#666" stroke-width="1"/>
<text x="620.0" y="384.0" text-anchor="end" font-size="11" font-family="sans-serif" fill="#555">0.024</text>
<line x1="625.0" y1="300.0" x2="630.0" y2="300.0" stroke="#666" stroke-width="1"/>
<text x="620.0" y="304.0" text-anchor="end" font-size="11" font-family="sans-serif" fill="#555">0.041</text>
<line x1="625.0" y1="220.0" x2="630.0" y2="220.0" stroke="#666" stroke-width="1"/>
<text x="620.0" y="224.0" text-anchor="end" font-size="11" font-family="sans-serif" fill="#555">0.058</text>
<line x1="625.0" y1="140.0" x2="630.0" y2="140.0" stroke="#666" stroke-width="1"/>
<text x="620.0" y="144.0" text-anchor="end" font-size="11" font-family="sans-serif" fill="#555">0.075</text>
<line x1="625.0" y1="60.0" x2="630.0" y2="60.0" stroke="#666" stroke-width="1"/>
<text x="620.0" y="64.0" text-anchor="end" font-size="11" font-family="sans-serif" fill="#555">0.092</text>
<polyline fill="none" stroke="#ff7f0e" stroke-width="2" points="60.0,113.4 65.2,151.1 70.3,233.3 75.5,323.5 80.6,353.0 85.8,380.2 90.9,392.5 96.1,401.4 101.2,422.6 106.4,414.8 111.5,426.6 116.7,427.7 121.8,436.5 127.0,432.5 132.1,443.1 137.3,443.7 142.4,446.7 147.6,448.2 152.7,449.6 157.9,451.1 163.0,452.4 168.2,452.4 173.3,453.3 178.5,454.2 183.6,454.4 188.8,454.8 193.9,454.6 199.1,455.2 204.2,455.2 209.4,455.6 214.5,455.6 219.7,455.5 224.8,455.9 230.0,455.8 235.2,456.0 240.3,456.3 245.5,456.4 250.6,456.4 255.8,456.4 260.9,456.6 266.1,456.7 271.2,456.8 276.4,456.8 281.5,456.9 286.7,456.9 291.8,456.7 297.0,457.0 302.1,457.2 307.3,457.1 312.4,457.1 317.6,457.0 322.7,457.3 327.9,457.2 333.0,457.3 338.2,457.5 343.3,457.3 348.5,457.3 353.6,457.4 358.8,457.4 363.9,457.5 369.1,457.6 374.2,457.5 379.4,457.5 384.5,457.6 389.7,457.8 394.8,457.7 400.0,457.8 405.2,457.8 410.3,457.8 415.5,457.7 420.6,457.6 425.8,457.7 430.9,457.7 436.1,457.7 441.2,457.9 446.4,457.8 451.5,457.9 456.7,457.8 461.8,457.8 467.0,458.1 472.1,457.9 477.3,458.0 482.4,457.9 487.6,458.1 492.7,457.9 497.9,458.0 503.0,458.0 508.2,458.0 513.3,458.0 518.5,458.0 523.6,458.0 528.8,458.0 533.9,457.9 539.1,457.9 544.2,458.1 549.4,458.1 554.5,458.0 559.7,458.1 564.8,457.9 570.0,457.9" />
<polyline fill="none" stroke="#ff7f0e" stroke-width="2" points="630.0,111.5 635.2,417.2 640.3,419.2 645.5,417.1 650.6,417.8 655.8,419.5 660.9,417.2 666.1,421.9 671.2,416.3 676.4,418.8 681.5,417.8 686.7,417.1 691.8,418.5 697.0,416.9 702.1,417.2 707.3,420.7 712.4,418.7 717.6,418.2 722.7,418.5 727.9,418.5 733.0,420.8 738.2,416.9 743.3,418.0 748.5,420.5 753.6,418.8 758.8,420.9 763.9,418.6 769.1,419.3 774.2,417.6 779.4,417.7 784.5,420.8 789.7,418.6 794.8,418.2 800.0,418.9 805.2,418.2 810.3,420.4 815.5,418.1 820.6,417.3 825.8,418.6 830.9,418.0 836.1,417.8 841.2,417.4 846.4,417.4 851.5,418.9 856.7,417.5 861.8,420.4 867.0,417.8 872.1,418.5 877.3,419.0 882.4,419.0 887.6,420.5 892.7,419.6 897.9,418.1 903.0,418.9 908.2,418.8 913.3,417.3 918.5,420.7 923.6,420.2 928.8,421.6 933.9,416.4 939.1,423.7 944.2,420.5 949.4,420.5 954.5,419.0 959.7,418.9 964.8,419.9 970.0,420.1 975.2,420.8 980.3,419.3 985.5,418.2 990.6,422.6 995.8,421.0 1000.9,420.8 1006.1,419.0 1011.2,418.7 1016.4,421.5 1021.5,420.5 1026.7,420.0 1031.8,421.7 1037.0,422.1 1042.1,417.6 1047.3,417.9 1052.4,418.5 1057.6,421.0 1062.7,421.0 1067.9,421.7 1073.0,418.6 1078.2,419.6 1083.3,418.2 1088.5,419.0 1093.6,421.0 1098.8,419.8 1103.9,421.2 1109.1,420.2 1114.2,419.8 1119.4,420.7 1124.5,419.5 1129.7,420.5 1134.8,418.8 1140.0,418.2" />
<polyline fill="none" stroke="#1f77b4" stroke-width="2" points="60.0,91.4 65.2,409.4 70.3,439.2 75.5,448.2 80.6,452.3 85.8,453.8 90.9,455.2 96.1,456.0 101.2,456.3 106.4,456.8 111.5,457.0 116.7,457.2 121.8,457.5 127.0,457.5 132.1,457.8 137.3,457.8 142.4,457.9 147.6,457.9 152.7,458.0 157.9,458.0 163.0,458.0 168.2,458.1 173.3,458.2 178.5,458.2 183.6,458.3 188.8,458.2 193.9,458.2 199.1,458.3 204.2,458.3 209.4,458.3 214.5,458.3 219.7,458.1 224.8,458.2 230.0,458.3 235.2,458.4 240.3,458.4 245.5,458.4 250.6,458.3 255.8,458.3 260.9,458.5 266.1,458.4 271.2,458.5 276.4,458.4 281.5,458.6 286.7,458.5 291.8,458.3 297.0,458.5 302.1,458.6 307.3,458.5 312.4,458.5 317.6,458.5 322.7,458.6 327.9,458.6 333.0,458.7 338.2,458.7 343.3,458.4 348.5,458.5 353.6,458.6 358.8,458.5 363.9,458.6 369.1,458.8 374.2,458.6 379.4,458.6 384.5,458.7 389.7,458.8 394.8,458.7 400.0,458.8 405.2,458.9 410.3,458.8 415.5,458.9 420.6,458.7 425.8,458.9 430.9,459.0 436.1,458.9 441.2,459.0 446.4,459.0 451.5,459.2 456.7,459.2 461.8,459.2 467.0,459.4 472.1,459.3 477.3,459.4 482.4,459.3 487.6,459.5 492.7,459.4 497.9,459.5 503.0,459.5 508.2,459.5 513.3,459.5 518.5,459.7 523.6,459.8 528.8,459.7 533.9,459.7 539.1,459.6 544.2,459.8 549.4,459.9 554.5,459.9 559.7,460.0 564.8,459.9 570.0,459.9" />
<polyline fill="none" stroke="#1f77b4" stroke-width="2" points="630.0,111.9 635.2,456.9 640.3,456.5 645.5,457.0 650.6,456.6 655.8,457.9 660.9,455.9 666.1,457.7 671.2,457.1 676.4,456.9 681.5,454.7 686.7,455.3 691.8,457.5 697.0,458.1 702.1,457.6 707.3,458.9 712.4,458.4 717.6,458.0 722.7,457.7 727.9,457.9 733.0,459.3 738.2,457.4 743.3,458.0 748.5,457.9 753.6,457.5 758.8,459.4 763.9,457.6 769.1,457.6 774.2,457.4 779.4,457.8 784.5,459.1 789.7,458.1 794.8,455.7 800.0,458.5 805.2,458.0 810.3,458.4 815.5,458.1 820.6,458.6 825.8,458.2 830.9,457.9 836.1,458.5 841.2,457.3 846.4,457.4 851.5,458.2 856.7,458.0 861.8,458.9 867.0,458.6 872.1,457.8 877.3,457.6 882.4,458.4 887.6,459.4 892.7,458.4 897.9,458.4 903.0,457.0 908.2,457.9 913.3,458.6 918.5,458.3 923.6,458.9 928.8,455.6 933.9,457.7 939.1,459.2 944.2,458.3 949.4,458.1 954.5,458.4 959.7,459.0 964.8,459.1 970.0,456.6 975.2,458.7 980.3,458.3 985.5,457.9 990.6,457.3 995.8,457.5 1000.9,457.5 1006.1,458.1 1011.2,458.3 1016.4,459.6 1021.5,457.5 1026.7,457.8 1031.8,458.1 1037.0,458.4 1042.1,459.0 1047.3,458.2 1052.4,459.1 1057.6,458.3 1062.7,456.3 1067.9,457.3 1073.0,457.7 1078.2,456.5 1083.3,457.9 1088.5,457.0 1093.6,459.2 1098.8,458.3 1103.9,456.6 1109.1,458.4 1114.2,457.7 1119.4,459.4 1124.5,457.6 1129.7,457.2 1134.8,458.5 1140.0,457.6" />
<polyline fill="none" stroke="#2ca02c" stroke-width="2" points="60.0,61.6 65.2,362.7 70.3,403.3 75.5,421.8 80.6,432.6 85.8,438.0 90.9,441.8 96.1,444.8 101.2,445.6 106.4,447.7 111.5,448.8 116.7,448.9 121.8,449.8 127.0,450.1 132.1,451.3 137.3,451.4 142.4,451.7 147.6,452.2 152.7,452.7 157.9,452.8 163.0,453.0 168.2,453.2 173.3,453.7 178.5,454.1 183.6,454.0 188.8,453.7 193.9,454.2 199.1,454.5 204.2,454.6 209.4,454.2 214.5,454.6 219.7,454.8 224.8,454.9 230.0,454.9 235.2,454.7 240.3,455.0 245.5,455.1 250.6,455.3 255.8,455.2 260.9,455.5 266.1,455.4 271.2,455.7 276.4,455.2 281.5,455.9 286.7,456.0 291.8,455.6 297.0,455.6 302.1,455.7 307.3,455.8 312.4,455.8 317.6,455.6 322.7,456.2 327.9,456.2 333.0,455.8 338.2,456.2 343.3,456.1 348.5,456.1 353.6,456.1 358.8,456.0 363.9,456.3 369.1,456.5 374.2,456.1 379.4,456.1 384.5,456.4 389.7,456.4 394.8,456.6 400.0,456.8 405.2,456.4 410.3,456.4 415.5,456.3 420.6,456.3 425.8,456.4 430.9,456.5 436.1,456.5 441.2,456.6 446.4,456.7 451.5,456.7 456.7,456.6 461.8,456.5 467.0,456.7 472.1,456.7 477.3,456.8 482.4,456.9 487.6,456.7 492.7,456.7 497.9,457.0 503.0,456.9 508.2,456.8 513.3,456.8 518.5,456.8 523.6,456.8 528.8,456.9 533.9,457.1 539.1,456.8 544.2,457.0 549.4,456.8 554.5,456.7 559.7,457.3 564.8,456.9 570.0,457.1" />
<polyline fill="none" stroke="#2ca02c" stroke-width="2" points="630.0,85.7 635.2,454.9 640.3,458.6 645.5,458.1 650.6,457.1 655.8,458.3 660.9,458.2 666.1,456.5 671.2,456.1 676.4,457.5 681.5,458.8 686.7,457.7 691.8,457.6 697.0,457.8 702.1,458.1 707.3,459.1 712.4,454.5 717.6,456.4 722.7,458.6 727.9,457.6 733.0,458.6 738.2,458.4 743.3,457.6 748.5,455.8 753.6,456.8 758.8,457.8 763.9,456.7 769.1,457.9 774.2,456.6 779.4,455.9 784.5,458.5 789.7,457.3 794.8,458.4 800.0,454.9 805.2,457.8 810.3,458.4 815.5,458.6 820.6,458.3 825.8,456.3 830.9,457.9 836.1,458.4 841.2,456.7 846.4,458.2 851.5,457.5 856.7,457.9 861.8,458.5 867.0,457.2 872.1,456.7 877.3,458.2 882.4,457.5 887.6,458.7 892.7,456.3 897.9,457.9 903.0,458.0 908.2,457.7 913.3,458.2 918.5,457.3 923.6,457.3 928.8,456.9 933.9,457.1 939.1,458.9 944.2,454.8 949.4,457.6 954.5,457.5 959.7,457.2 964.8,458.7 970.0,458.3 975.2,457.6 980.3,456.9 985.5,456.7 990.6,459.0 995.8,458.3 1000.9,456.1 1006.1,457.9 1011.2,457.2 1016.4,456.4 1021.5,458.0 1026.7,458.5 1031.8,457.8 1037.0,458.5 1042.1,458.5 1047.3,458.8 1052.4,458.1 1057.6,459.1 1062.7,458.4 1067.9,459.4 1073.0,458.9 1078.2,456.9 1083.3,458.0 1088.5,457.8 1093.6,459.7 1098.8,458.2 1103.9,458.4 1109.1,457.8 1114.2,459.5 1119.4,460.0 1124.5,458.5 1129.7,458.3 1134.8,458.1 1140.0,459.1" />
<polyline fill="none" stroke="#d62728" stroke-width="2" points="60.0,60.0 65.2,411.8 70.3,438.8 75.5,448.2 80.6,452.1 85.8,453.5 90.9,454.2 96.1,454.7 101.2,454.9 106.4,455.1 111.5,455.1 116.7,455.3 121.8,455.5 127.0,455.5 132.1,455.7 137.3,455.8 142.4,455.8 147.6,455.9 152.7,456.0 157.9,456.1 163.0,456.2 168.2,456.3 173.3,456.3 178.5,456.4 183.6,456.5 188.8,456.4 193.9,456.5 199.1,456.6 204.2,456.5 209.4,456.6 214.5,456.6 219.7,456.6 224.8,456.6 230.0,456.7 235.2,456.8 240.3,456.9 245.5,456.9 250.6,456.9 255.8,456.8 260.9,457.1 266.1,457.0 271.2,457.1 276.4,457.0 281.5,457.1 286.7,457.0 291.8,457.0 297.0,457.1 302.1,457.2 307.3,457.2 312.4,457.2 317.6,457.1 322.7,457.2 327.9,457.2 333.0,457.2 338.2,457.3 343.3,457.2 348.5,457.2 353.6,457.2 358.8,457.2 363.9,457.3 369.1,457.5 374.2,457.2 379.4,457.3 384.5,457.3 389.7,457.5 394.8,457.4 400.0,457.4 405.2,457.5 410.3,457.4 415.5,457.4 420.6,457.3 425.8,457.4 430.9,457.4 436.1,457.4 441.2,457.5 446.4,457.5 451.5,457.5 456.7,457.5 461.8,457.5 467.0,457.7 472.1,457.6 477.3,457.7 482.4,457.4 487.6,457.6 492.7,457.5 497.9,457.6 503.0,457.6 508.2,457.6 513.3,457.6 518.5,457.6 523.6,457.7 528.8,457.6 533.9,457.7 539.1,457.5 544.2,457.7 549.4,457.6 554.5,457.6 559.7,457.7 564.8,457.6 570.0,457.6" />
<polyline fill="none" stroke="#d62728" stroke-width="2" points="630.0,60.0 635.2,456.9 640.3,457.3 645.5,457.6 650.6,458.4 655.8,458.4 660.9,457.6 666.1,455.4 671.2,454.4 676.4,457.5 681.5,458.9 686.7,457.6 691.8,458.2 697.0,458.6 702.1,456.5 707.3,456.9 712.4,457.4 717.6,458.5 722.7,456.8 727.9,457.7 733.0,458.6 738.2,457.5 743.3,457.1 748.5,458.6 753.6,455.9 758.8,458.4 763.9,458.4 769.1,457.0 774.2,456.5 779.4,456.8 784.5,458.6 789.7,457.1 794.8,452.8 800.0,456.2 805.2,458.3 810.3,458.6 815.5,458.7 820.6,457.0 825.8,457.3 830.9,458.6 836.1,458.3 841.2,455.2 846.4,455.9 851.5,458.8 856.7,457.4 861.8,457.6 867.0,457.7 872.1,457.2 877.3,458.3 882.4,458.0 887.6,458.8 892.7,458.1 897.9,456.0 903.0,458.4 908.2,458.6 913.3,458.6 918.5,458.3 923.6,457.5 928.8,457.0 933.9,457.7 939.1,459.0 944.2,457.1 949.4,457.2 954.5,458.7 959.7,457.2 964.8,459.1 970.0,458.3 975.2,458.6 980.3,457.4 985.5,459.0 990.6,457.4 995.8,458.4 1000.9,458.2 1006.1,457.1 1011.2,457.7 1016.4,459.1 1021.5,457.8 1026.7,457.7 1031.8,457.9 1037.0,457.4 1042.1,458.8 1047.3,458.4 1052.4,457.8 1057.6,457.1 1062.7,457.8 1067.9,459.0 1073.0,457.9 1078.2,457.7 1083.3,457.7 1088.5,455.9 1093.6,458.8 1098.8,457.1 1103.9,457.4 1109.1,457.8 1114.2,457.9 1119.4,459.0 1124.5,457.8 1129.7,456.6 1134.8,458.3 1140.0,457.7" />
<line x1="990" y1="45" x2="1015" y2="45" stroke="#ff7f0e" stroke-width="3"/>
<text x="1022" y="49" font-size="13" font-family="sans-serif">adafactor</text>
<line x1="990" y1="67" x2="1015" y2="67" stroke="#1f77b4" stroke-width="3"/>
<text x="1022" y="71" font-size="13" font-family="sans-serif">adamw</text>
<line x1="990" y1="89" x2="1015" y2="89" stroke="#2ca02c" stroke-width="3"/>
<text x="1022" y="93" font-size="13" font-family="sans-serif">rmsprop</text>
<line x1="990" y1="111" x2="1015" y2="111" stroke="#d62728" stroke-width="3"/>
<text x="1022" y="115" font-size="13" font-family="sans-serif">sgd</text>
<text x="315.0" y="505" text-anchor="middle" font-size="12" font-family="sans-serif">step</text>
<text x="885.0" y="505" text-anchor="middle" font-size="12" font-family="sans-serif">step</text>
<text x="25" y="260.0" text-anchor="middle" font-size="12" font-family="sans-serif" transform="rotate(-90 25,260.0)">loss</text>
<text x="595.0" y="260.0" text-anchor="middle" font-size="12" font-family="sans-serif" transform="rotate(-90 595.0,260.0)">step_time (s)</text>
</svg>
