<svg xmlns="http://www.w3.org/2000/svg" width="1200" height="520" viewBox="0 0 1200 520">
<rect x="0" y="0" width="100%" height="100%" fill="#ffffff" />
<text x="600.0" y="30" text-anchor="middle" font-size="20" font-family="sans-serif">Optimizer Comparison</text>
<rect x="60" y="60" width="510.0" height="400" fill="#fafafa" stroke="#dddddd"/>
<text x="315.0" y="48" text-anchor="middle" font-size="14" font-family="sans-serif">Loss vs Step</text>
<rect x="630.0" y="60" width="510.0" height="400" fill="#fafafa" stroke="#dddddd"/>
<text x="885.0" y="48" text-anchor="middle" font-size="14" font-family="sans-serif">Step Time vs Step</text>
<line x1="60.0" y1="460.0" x2="60.0" y2="465.0" stroke="#666" stroke-width="1"/>
<text x="60.0" y="480.0" text-anchor="middle" font-size="11" font-family="sans-serif" fill="#555">10</text>
<line x1="162.0" y1="460.0" x2="162.0" y2="465.0" stroke="#666" stroke-width="1"/>
<text x="162.0" y="480.0" text-anchor="middle" font-size="11" font-family="sans-serif" fill="#555">208</text>
<line x1="264.0" y1="460.0" x2="264.0" y2="465.0" stroke="#666" stroke-width="1"/>
<text x="264.0" y="480.0" text-anchor="middle" font-size="11" font-family="sans-serif" fill="#555">406</text>
<line x1="366.0" y1="460.0" x2="366.0" y2="465.0" stroke="#666" stroke-width="1"/>
<text x="366.0" y="480.0" text-anchor="middle" font-size="11" font-family="sans-serif" fill="#555">604</text>
<line x1="468.0" y1="460.0" x2="468.0" y2="465.0" stroke="#666" stroke-width="1"/>
<text x="468.0" y="480.0" text-anchor="middle" font-size="11" font-family="sans-serif" fill="#555">802</text>
<line x1="570.0" y1="460.0" x2="570.0" y2="465.0" stroke="#666" stroke-width="1"/>
<text x="570.0" y="480.0" text-anchor="middle" font-size="11" font-family="sans-serif" fill="#555">1000</text>
<line x1="55.0" y1="460.0" x2="60.0" y2="460.0" stroke="#666" stroke-width="1"/>
<text x="50.0" y="464.0" text-anchor="end" font-size="11" font-family="sans-serif" fill="#555">1.9</text>
<line x1="55.0" y1="380.0" x2="60.0" y2="380.0" stroke="#666" stroke-width="1"/>
<text x="50.0" y="384.0" text-anchor="end" font-size="11" font-family="sans-serif" fill="#555">18.5</text>
<line x1="55.0" y1="300.0" x2="60.0" y2="300.0" stroke="#666" stroke-width="1"/>
<text x="50.0" y="304.0" text-anchor="end" font-size="11" font-family="sans-serif" fill="#555">35.1</text>
<line x1="55.0" y1="220.0" x2="60.0" y2="220.0" stroke="#666" stroke-width="1"/>
<text x="50.0" y="224.0" text-anchor="end" font-size="11" font-family="sans-serif" fill="#555">51.7</text>
<line x1="55.0" y1="140.0" x2="60.0" y2="140.0" stroke="#666" stroke-width="1"/>
<text x="50.0" y="144.0" text-anchor="end" font-size="11" font-family="sans-serif" fill="#555">68.3</text>
<line x1="55.0" y1="60.0" x2="60.0" y2="60.0" stroke="#666" stroke-width="1"/>
<text x="50.0" y="64.0" text-anchor="end" font-size="11" font-family="sans-serif" fill="#555">84.9</text>
<line x1="630.0" y1="460.0" x2="630.0" y2="465.0" stroke="#666" stroke-width="1"/>
<text x="630.0" y="480.0" text-anchor="middle" font-size="11" font-family="sans-serif" fill="#555">10</text>
<line x1="732.0" y1="460.0" x2="732.0" y2="465.0" stroke="#666" stroke-width="1"/>
<text x="732.0" y="480.0" text-anchor="middle" font-size="11" font-family="sans-serif" fill="#555">208</text>
<line x1="834.0" y1="460.0" x2="834.0" y2="465.0" stroke="#666" stroke-width="1"/>
<text x="834.0" y="480.0" text-anchor="middle" font-size="11" font-family="sans-serif" fill="#555">406</text>
<line x1="936.0" y1="460.0" x2="936.0" y2="465.0" stroke="#666" stroke-width="1"/>
<text x="936.0" y="480.0" text-anchor="middle" font-size="11" font-family="sans-serif" fill="#555">604</text>
<line x1="1038.0" y1="460.0" x2="1038.0" y2="465.0" stroke="#666" stroke-width="1"/>
<text x="1038.0" y="480.0" text-anchor="middle" font-size="11" font-family="sans-serif" fill="#555">802</text>
<line x1="1140.0" y1="460.0" x2="1140.0" y2="465.0" stroke="#666" stroke-width="1"/>
<text x="1140.0" y="480.0" text-anchor="middle" font-size="11" font-family="sans-serif" fill="#555">1000</text>
<line x1="625.0" y1="460.0" x2="630.0" y2="460.0" stroke="#666" stroke-width="1"/>
<text x="620.0" y="464.0" text-anchor="end" font-size="11" font-family="sans-serif" fill="#555">0.007</text>
<line x1="625.0" y1="380.0" x2="630.0" y2="380.0" stroke="#666" stroke-width="1"/>
<text x="620.0" y="384.0" text-anchor="end" font-size="11" font-family="sans-serif" fill="#555">0.025</text>
<line x1="625.0" y1="300.0" x2="630.0" y2="300.0" stroke="#666" stroke-width="1"/>
<text x="620.0" y="304.0" text-anchor="end" font-size="11" font-family="sans-serif" fill="#555">0.043</text>
<line x1="625.0" y1="220.0" x2="630.0" y2="220.0" stroke="#666" stroke-width="1"/>
<text x="620.0" y="224.0" text-anchor="end" font-size="11" font-family="sans-serif" fill="#555">0.060</text>
<line x1="625.0" y1="140.0" x2="630.0" y2="140.0" stroke="#666" stroke-width="1"/>
<text x="620.0" y="144.0" text-anchor="end" font-size="11" font-family="sans-serif" fill="#555">0.078</text>
<line x1="625.0" y1="60.0" x2="630.0" y2="60.0" stroke="#666" stroke-width="1"/>
<text x="620.0" y="64.0" text-anchor="end" font-size="11" font-family="sans-serif" fill="#555">0.096</text>
<polyline fill="none" stroke="#ff7f0e" stroke-width="2" points="60.0,98.6 65.2,151.7 70.3,293.9 75.5,314.4 80.6,369.4 85.8,390.1 90.9,415.8 96.1,421.1 101.2,428.2 106.4,428.2 111.5,434.5 116.7,439.4 121.8,442.8 127.0,444.8 132.1,446.0 137.3,448.1 142.4,449.6 147.6,450.7 152.7,451.7 157.9,452.8 163.0,453.0 168.2,453.5 173.3,453.8 178.5,454.3 183.6,454.7 188.8,454.8 193.9,455.2 199.1,455.3 204.2,455.8 209.4,456.0 214.5,455.9 219.7,456.0 224.8,456.2 230.0,456.5 235.2,456.6 240.3,456.5 245.5,456.6 250.6,456.9 255.8,456.8 260.9,457.0 266.1,456.8 271.2,456.9 276.4,457.1 281.5,457.0 286.7,457.0 291.8,457.0 297.0,457.1 302.1,457.4 307.3,457.2 312.4,457.4 317.6,457.3 322.7,457.3 327.9,457.4 333.0,457.5 338.2,457.6 343.3,457.5 348.5,457.6 353.6,457.8 358.8,457.6 363.9,457.6 369.1,457.8 374.2,457.6 379.4,457.7 384.5,457.6 389.7,457.6 394.8,457.8 400.0,457.8 405.2,457.7 410.3,457.7 415.5,457.8 420.6,457.7 425.8,457.9 430.9,457.8 436.1,458.0 441.2,458.0 446.4,457.9 451.5,457.9 456.7,457.8 461.8,457.8 467.0,457.9 472.1,457.9 477.3,458.0 482.4,457.9 487.6,458.0 492.7,457.9 497.9,457.9 503.0,458.0 508.2,457.9 513.3,458.0 518.5,458.0 523.6,457.8 528.8,457.9 533.9,457.7 539.1,458.0 544.2,457.8 549.4,458.0 554.5,458.0 559.7,457.9 564.8,458.1 570.0,457.8" />
<polyline fill="none" stroke="#ff7f0e" stroke-width="2" points="630.0,91.3 635.2,423.0 640.3,423.6 645.5,423.8 650.6,424.8 655.8,422.0 660.9,422.9 666.1,423.3 671.2,424.6 676.4,425.2 681.5,422.5 686.7,423.7 691.8,424.7 697.0,424.7 702.1,423.1 707.3,421.7 712.4,423.7 717.6,425.0 722.7,424.0 727.9,423.6 733.0,422.2 738.2,423.2 743.3,422.5 748.5,423.2 753.6,423.8 758.8,424.1 763.9,423.8 769.1,422.6 774.2,423.7 779.4,422.3 784.5,423.2 789.7,424.0 794.8,423.0 800.0,421.8 805.2,422.2 810.3,422.9 815.5,424.1 820.6,419.6 825.8,423.8 830.9,424.9 836.1,423.5 841.2,424.6 846.4,425.1 851.5,423.6 856.7,424.2 861.8,425.8 867.0,424.4 872.1,423.2 877.3,424.4 882.4,425.0 887.6,423.8 892.7,423.5 897.9,423.3 903.0,423.7 908.2,425.9 913.3,424.6 918.5,423.5 923.6,423.7 928.8,425.4 933.9,424.3 939.1,424.7 944.2,426.0 949.4,425.4 954.5,422.9 959.7,425.2 964.8,424.1 970.0,424.7 975.2,423.8 980.3,424.7 985.5,425.9 990.6,424.9 995.8,423.5 1000.9,424.7 1006.1,424.0 1011.2,426.9 1016.4,423.4 1021.5,425.5 1026.7,424.4 1031.8,423.0 1037.0,425.3 1042.1,423.0 1047.3,425.1 1052.4,422.8 1057.6,426.4 1062.7,424.7 1067.9,425.6 1073.0,421.8 1078.2,425.3 1083.3,425.0 1088.5,421.0 1093.6,424.1 1098.8,424.0 1103.9,423.8 1109.1,423.8 1114.2,422.9 1119.4,422.0 1124.5,424.7 1129.7,425.2 1134.8,424.4 1140.0,424.9" />
<polyline fill="none" stroke="#1f77b4" stroke-width="2" points="60.0,96.0 65.2,414.7 70.3,438.7 75.5,448.4 80.6,452.4 85.8,453.8 90.9,454.9 96.1,455.7 101.2,456.1 106.4,456.7 111.5,456.9 116.7,457.0 121.8,457.1 127.0,457.3 132.1,457.5 137.3,457.7 142.4,457.6 147.6,457.8 152.7,457.9 157.9,457.9 163.0,457.9 168.2,458.1 173.3,457.9 178.5,457.9 183.6,458.0 188.8,457.9 193.9,458.0 199.1,458.1 204.2,458.1 209.4,458.1 214.5,458.2 219.7,458.1 224.8,458.2 230.0,458.2 235.2,458.3 240.3,458.2 245.5,458.2 250.6,458.4 255.8,458.4 260.9,458.3 266.1,458.2 271.2,458.3 276.4,458.3 281.5,458.2 286.7,458.2 291.8,458.3 297.0,458.2 302.1,458.4 307.3,458.3 312.4,458.4 317.6,458.3 322.7,458.4 327.9,458.3 333.0,458.4 338.2,458.4 343.3,458.4 348.5,458.5 353.6,458.6 358.8,458.4 363.9,458.5 369.1,458.7 374.2,458.4 379.4,458.5 384.5,458.5 389.7,458.5 394.8,458.7 400.0,458.7 405.2,458.6 410.3,458.6 415.5,458.8 420.6,458.7 425.8,458.8 430.9,458.7 436.1,458.9 441.2,459.0 446.4,458.9 451.5,459.0 456.7,459.0 461.8,459.0 467.0,459.2 472.1,459.1 477.3,459.2 482.4,459.2 487.6,459.4 492.7,459.2 497.9,459.3 503.0,459.5 508.2,459.4 513.3,459.4 518.5,459.4 523.6,459.5 528.8,459.6 533.9,459.6 539.1,459.8 544.2,459.8 549.4,459.9 554.5,459.9 559.7,459.9 564.8,460.0 570.0,459.8" />
<polyline fill="none" stroke="#1f77b4" stroke-width="2" points="630.0,237.7 635.2,460.0 640.3,457.3 645.5,456.9 650.6,454.6 655.8,453.8 660.9,454.2 666.1,454.7 671.2,454.0 676.4,453.6 681.5,453.3 686.7,454.6 691.8,454.5 697.0,454.2 702.1,454.3 707.3,452.5 712.4,454.7 717.6,454.3 722.7,454.5 727.9,454.0 733.0,454.7 738.2,455.0 743.3,454.5 748.5,454.9 753.6,453.3 758.8,453.1 763.9,454.3 769.1,454.1 774.2,454.6 779.4,454.5 784.5,453.8 789.7,454.8 794.8,454.4 800.0,454.9 805.2,454.4 810.3,453.2 815.5,455.2 820.6,455.1 825.8,454.7 830.9,454.4 836.1,453.8 841.2,453.4 846.4,454.8 851.5,454.4 856.7,454.4 861.8,454.3 867.0,455.1 872.1,454.5 877.3,454.2 882.4,455.0 887.6,454.6 892.7,454.0 897.9,453.4 903.0,454.3 908.2,451.0 913.3,454.2 918.5,454.1 923.6,454.8 928.8,454.6 933.9,454.6 939.1,454.6 944.2,453.8 949.4,454.5 954.5,454.4 959.7,454.1 964.8,453.5 970.0,453.3 975.2,453.6 980.3,454.3 985.5,454.3 990.6,453.7 995.8,454.4 1000.9,452.3 1006.1,454.1 1011.2,455.0 1016.4,452.7 1021.5,454.6 1026.7,454.0 1031.8,454.0 1037.0,454.7 1042.1,453.8 1047.3,454.2 1052.4,454.3 1057.6,452.5 1062.7,453.7 1067.9,454.7 1073.0,454.5 1078.2,454.0 1083.3,454.1 1088.5,454.2 1093.6,454.0 1098.8,453.9 1103.9,454.0 1109.1,455.4 1114.2,453.4 1119.4,453.3 1124.5,454.7 1129.7,454.1 1134.8,454.4 1140.0,454.8" />
<polyline fill="none" stroke="#2ca02c" stroke-width="2" points="60.0,61.7 65.2,364.1 70.3,403.4 75.5,421.1 80.6,432.7 85.8,438.1 90.9,441.4 96.1,444.2 101.2,445.7 106.4,447.3 111.5,448.2 116.7,449.2 121.8,449.6 127.0,450.3 132.1,450.8 137.3,451.8 142.4,451.8 147.6,452.0 152.7,452.6 157.9,452.6 163.0,453.1 168.2,453.2 173.3,453.3 178.5,453.5 183.6,453.9 188.8,453.7 193.9,453.9 199.1,454.2 204.2,454.3 209.4,454.4 214.5,454.6 219.7,454.5 224.8,454.3 230.0,455.0 235.2,455.0 240.3,454.9 245.5,454.9 250.6,455.2 255.8,455.4 260.9,455.2 266.1,455.1 271.2,455.1 276.4,455.6 281.5,455.4 286.7,455.5 291.8,455.4 297.0,455.5 302.1,455.8 307.3,455.5 312.4,455.8 317.6,455.3 322.7,455.9 327.9,455.6 333.0,456.1 338.2,455.9 343.3,455.6 348.5,455.8 353.6,456.2 358.8,455.9 363.9,456.1 369.1,456.2 374.2,456.1 379.4,456.2 384.5,455.9 389.7,456.0 394.8,456.4 400.0,456.1 405.2,456.0 410.3,456.1 415.5,456.5 420.6,456.2 425.8,456.3 430.9,456.5 436.1,456.4 441.2,456.4 446.4,456.3 451.5,456.4 456.7,456.3 461.8,456.3 467.0,456.6 472.1,456.4 477.3,456.5 482.4,456.4 487.6,456.8 492.7,456.6 497.9,456.6 503.0,456.8 508.2,456.5 513.3,456.4 518.5,456.7 523.6,456.7 528.8,456.8 533.9,456.5 539.1,456.7 544.2,456.7 549.4,456.9 554.5,456.8 559.7,456.4 564.8,457.2 570.0,456.6" />
<polyline fill="none" stroke="#2ca02c" stroke-width="2" points="630.0,60.0 635.2,456.0 640.3,455.5 645.5,456.2 650.6,455.1 655.8,454.8 660.9,454.8 666.1,454.3 671.2,455.0 676.4,454.9 681.5,455.7 686.7,455.5 691.8,453.7 697.0,455.0 702.1,455.5 707.3,455.6 712.4,455.0 717.6,455.6 722.7,454.5 727.9,452.9 733.0,454.8 738.2,456.4 743.3,455.5 748.5,454.4 753.6,457.0 758.8,456.3 763.9,456.1 769.1,455.6 774.2,456.3 779.4,455.8 784.5,456.2 789.7,456.2 794.8,455.5 800.0,457.0 805.2,456.2 810.3,454.9 815.5,456.4 820.6,455.8 825.8,455.8 830.9,456.5 836.1,456.3 841.2,454.9 846.4,455.8 851.5,457.0 856.7,456.4 861.8,456.6 867.0,456.4 872.1,456.0 877.3,456.7 882.4,456.5 887.6,456.2 892.7,456.5 897.9,456.9 903.0,455.4 908.2,456.3 913.3,456.1 918.5,456.5 923.6,456.0 928.8,454.1 933.9,455.4 939.1,455.9 944.2,456.8 949.4,456.4 954.5,456.4 959.7,456.0 964.8,455.6 970.0,453.1 975.2,455.8 980.3,456.0 985.5,456.4 990.6,455.7 995.8,457.6 1000.9,456.0 1006.1,456.4 1011.2,456.6 1016.4,455.7 1021.5,456.8 1026.7,456.5 1031.8,456.3 1037.0,456.3 1042.1,454.8 1047.3,454.6 1052.4,455.8 1057.6,455.8 1062.7,456.9 1067.9,456.2 1073.0,456.1 1078.2,456.2 1083.3,456.0 1088.5,456.3 1093.6,456.4 1098.8,456.1 1103.9,456.9 1109.1,455.9 1114.2,455.8 1119.4,456.0 1124.5,457.2 1129.7,455.7 1134.8,456.7 1140.0,455.6" />
<polyline fill="none" stroke="#d62728" stroke-width="2" points="60.0,60.0 65.2,417.6 70.3,440.8 75.5,449.8 80.6,452.4 85.8,453.7 90.9,454.2 96.1,454.4 101.2,454.6 106.4,454.9 111.5,455.0 116.7,455.1 121.8,455.2 127.0,455.4 132.1,455.5 137.3,455.7 142.4,455.6 147.6,455.8 152.7,455.9 157.9,455.9 163.0,456.1 168.2,456.1 173.3,456.1 178.5,456.3 183.6,456.3 188.8,456.2 193.9,456.3 199.1,456.4 204.2,456.4 209.4,456.5 214.5,456.6 219.7,456.5 224.8,456.6 230.0,456.6 235.2,456.7 240.3,456.6 245.5,456.7 250.6,456.9 255.8,456.9 260.9,456.9 266.1,456.8 271.2,456.8 276.4,456.9 281.5,456.8 286.7,456.8 291.8,456.9 297.0,456.9 302.1,457.1 307.3,457.0 312.4,457.1 317.6,457.0 322.7,457.0 327.9,457.1 333.0,457.1 338.2,457.2 343.3,457.1 348.5,457.1 353.6,457.3 358.8,457.1 363.9,457.1 369.1,457.2 374.2,457.2 379.4,457.2 384.5,457.1 389.7,457.1 394.8,457.3 400.0,457.3 405.2,457.2 410.3,457.2 415.5,457.3 420.6,457.3 425.8,457.3 430.9,457.3 436.1,457.4 441.2,457.4 446.4,457.3 451.5,457.3 456.7,457.2 461.8,457.3 467.0,457.4 472.1,457.3 477.3,457.4 482.4,457.3 487.6,457.5 492.7,457.4 497.9,457.4 503.0,457.5 508.2,457.4 513.3,457.4 518.5,457.4 523.6,457.5 528.8,457.5 533.9,457.4 539.1,457.5 544.2,457.5 549.4,457.5 554.5,457.5 559.7,457.4 564.8,457.6 570.0,457.4" />
<polyline fill="none" stroke="#d62728" stroke-width="2" points="630.0,150.1 635.2,458.6 640.3,456.3 645.5,455.0 650.6,456.8 655.8,456.5 660.9,456.6 666.1,457.8 671.2,457.2 676.4,457.4 681.5,456.5 686.7,455.7 691.8,456.9 697.0,456.9 702.1,456.7 707.3,456.1 712.4,457.7 717.6,456.9 722.7,455.7 727.9,455.7 733.0,457.2 738.2,457.1 743.3,457.0 748.5,456.2 753.6,456.8 758.8,457.5 763.9,457.3 769.1,457.4 774.2,456.7 779.4,456.1 784.5,456.1 789.7,457.3 794.8,457.3 800.0,456.9 805.2,455.3 810.3,457.8 815.5,457.0 820.6,457.0 825.8,457.6 830.9,457.1 836.1,456.6 841.2,457.5 846.4,456.5 851.5,457.6 856.7,456.9 861.8,455.5 867.0,456.9 872.1,457.2 877.3,457.7 882.4,456.2 887.6,456.7 892.7,457.3 897.9,456.9 903.0,457.0 908.2,457.0 913.3,453.6 918.5,457.0 923.6,454.6 928.8,457.9 933.9,457.4 939.1,454.9 944.2,458.1 949.4,457.9 954.5,457.2 959.7,457.5 964.8,457.1 970.0,457.8 975.2,457.8 980.3,457.1 985.5,458.2 990.6,457.9 995.8,457.9 1000.9,458.1 1006.1,456.5 1011.2,456.2 1016.4,457.4 1021.5,458.4 1026.7,456.5 1031.8,458.4 1037.0,457.6 1042.1,457.8 1047.3,458.2 1052.4,457.3 1057.6,458.4 1062.7,457.6 1067.9,457.2 1073.0,457.4 1078.2,458.1 1083.3,457.2 1088.5,455.8 1093.6,457.6 1098.8,457.2 1103.9,457.9 1109.1,456.8 1114.2,458.0 1119.4,457.4 1124.5,458.1 1129.7,456.6 1134.8,457.6 1140.0,456.8" />
<line x1="990" y1="45" x2="1015" y2="45" stroke="#ff7f0e" stroke-width="3"/>
<text x="1022" y="49" font-size="13" font-family="sans-serif">adafactor</text>
<line x1="990" y1="67" x2="1015" y2="67" stroke="#1f77b4" stroke-width="3"/>
<text x="1022" y="71" font-size="13" font-family="sans-serif">adamw</text>
<line x1="990" y1="89" x2="1015" y2="89" stroke="#2ca02c" stroke-width="3"/>
<text x="1022" y="93" font-size="13" font-family="sans-serif">rmsprop</text>
<line x1="990" y1="111" x2="1015" y2="111" stroke="#d62728" stroke-width="3"/>
<text x="1022" y="115" font-size="13" font-family="sans-serif">sgd</text>
<text x="315.0" y="505" text-anchor="middle" font-size="12" font-family="sans-serif">step</text>
<text x="885.0" y="505" text-anchor="middle" font-size="12" font-family="sans-serif">step</text>
<text x="25" y="260.0" text-anchor="middle" font-size="12" font-family="sans-serif" transform="rotate(-90 25,260.0)">loss</text>
<text x="595.0" y="260.0" text-anchor="middle" font-size="12" font-family="sans-serif" transform="rotate(-90 595.0,260.0)">step_time (s)</text>
</svg>
