<svg xmlns="http://www.w3.org/2000/svg" width="1200" height="520" viewBox="0 0 1200 520">
<rect x="0" y="0" width="100%" height="100%" fill="#ffffff" />
<text x="600.0" y="30" text-anchor="middle" font-size="20" font-family="sans-serif">Optimizer Comparison</text>
<rect x="60" y="60" width="510.0" height="400" fill="#fafafa" stroke="#dddddd"/>
<text x="315.0" y="48" text-anchor="middle" font-size="14" font-family="sans-serif">Loss vs Step</text>
<rect x="630.0" y="60" width="510.0" height="400" fill="#fafafa" stroke="#dddddd"/>
<text x="885.0" y="48" text-anchor="middle" font-size="14" font-family="sans-serif">Step Time vs Step</text>
<line x1="60.0" y1="460.0" x2="60.0" y2="465.0" stroke="#666" stroke-width="1"/>
<text x="60.0" y="480.0" text-anchor="middle" font-size="11" font-family="sans-serif" fill="#555">10</text>
<line x1="162.0" y1="460.0" x2="162.0" y2="465.0" stroke="#666" stroke-width="1"/>
<text x="162.0" y="480.0" text-anchor="middle" font-size="11" font-family="sans-serif" fill="#555">208</text>
<line x1="264.0" y1="460.0" x2="264.0" y2="465.0" stroke="#666" stroke-width="1"/>
<text x="264.0" y="480.0" text-anchor="middle" font-size="11" font-family="sans-serif" fill="#555">406</text>
<line x1="366.0" y1="460.0" x2="366.0" y2="465.0" stroke="#666" stroke-width="1"/>
<text x="366.0" y="480.0" text-anchor="middle" font-size="11" font-family="sans-serif" fill="#555">604</text>
<line x1="468.0" y1="460.0" x2="468.0" y2="465.0" stroke="#666" stroke-width="1"/>
<text x="468.0" y="480.0" text-anchor="middle" font-size="11" font-family="sans-serif" fill="#555">802</text>
<line x1="570.0" y1="460.0" x2="570.0" y2="465.0" stroke="#666" stroke-width="1"/>
<text x="570.0" y="480.0" text-anchor="middle" font-size="11" font-family="sans-serif" fill="#555">1000</text>
<line x1="55.0" y1="460.0" x2="60.0" y2="460.0" stroke="#666" stroke-width="1"/>
<text x="50.0" y="464.0" text-anchor="end" font-size="11" font-family="sans-serif" fill="#555">1.9</text>
<line x1="55.0" y1="380.0" x2="60.0" y2="380.0" stroke="#666" stroke-width="1"/>
<text x="50.0" y="384.0" text-anchor="end" font-size="11" font-family="sans-serif" fill="#555">18.5</text>
<line x1="55.0" y1="300.0" x2="60.0" y2="300.0" stroke="#666" stroke-width="1"/>
<text x="50.0" y="304.0" text-anchor="end" font-size="11" font-family="sans-serif" fill="#555">35.1</text>
<line x1="55.0" y1="220.0" x2="60.0" y2="220.0" stroke="#666" stroke-width="1"/>
<text x="50.0" y="224.0" text-anchor="end" font-size="11" font-family="sans-serif" fill="#555">51.7</text>
<line x1="55.0" y1="140.0" x2="60.0" y2="140.0" stroke="#666" stroke-width="1"/>
<text x="50.0" y="144.0" text-anchor="end" font-size="11" font-family="sans-serif" fill="#555">68.3</text>
<line x1="55.0" y1="60.0" x2="60.0" y2="60.0" stroke="#666" stroke-width="1"/>
<text x="50.0" y="64.0" text-anchor="end" font-size="11" font-family="sans-serif" fill="#555">84.9</text>
<line x1="630.0" y1="460.0" x2="630.0" y2="465.0" stroke="#666" stroke-width="1"/>
<text x="630.0" y="480.0" text-anchor="middle" font-size="11" font-family="sans-serif" fill="#555">10</text>
<line x1="732.0" y1="460.0" x2="732.0" y2="465.0" stroke="#666" stroke-width="1"/>
<text x="732.0" y="480.0" text-anchor="middle" font-size="11" font-family="sans-serif" fill="#555">208</text>
<line x1="834.0" y1="460.0" x2="834.0" y2="465.0" stroke="#666" stroke-width="1"/>
<text x="834.0" y="480.0" text-anchor="middle" font-size="11" font-family="sans-serif" fill="#555">406</text>
<line x1="936.0" y1="460.0" x2="936.0" y2="465.0" stroke="#666" stroke-width="1"/>
<text x="936.0" y="480.0" text-anchor="middle" font-size="11" font-family="sans-serif" fill="#555">604</text>
<line x1="1038.0" y1="460.0" x2="1038.0" y2="465.0" stroke="#666" stroke-width="1"/>
<text x="1038.0" y="480.0" text-anchor="middle" font-size="11" font-family="sans-serif" fill="#555">802</text>
<line x1="1140.0" y1="460.0" x2="1140.0" y2="465.0" stroke="#666" stroke-width="1"/>
<text x="1140.0" y="480.0" text-anchor="middle" font-size="11" font-family="sans-serif" fill="#555">1000</text>
<line x1="625.0" y1="460.0" x2="630.0" y2="460.0" stroke="#666" stroke-width="1"/>
<text x="620.0" y="464.0" text-anchor="end" font-size="11" font-family="sans-serif" fill="#555">0.024</text>
<line x1="625.0" y1="380.0" x2="630.0" y2="380.0" stroke="#666" stroke-width="1"/>
<text x="620.0" y="384.0" text-anchor="end" font-size="11" font-family="sans-serif" fill="#555">0.031</text>
<line x1="625.0" y1="300.0" x2="630.0" y2="300.0" stroke="#666" stroke-width="1"/>
<text x="620.0" y="304.0" text-anchor="end" font-size="11" font-family="sans-serif" fill="#555">0.037</text>
<line x1="625.0" y1="220.0" x2="630.0" y2="220.0" stroke="#666" stroke-width="1"/>
<text x="620.0" y="224.0" text-anchor="end" font-size="11" font-family="sans-serif" fill="#555">0.044</text>
<line x1="625.0" y1="140.0" x2="630.0" y2="140.0" stroke="#666" stroke-width="1"/>
<text x="620.0" y="144.0" text-anchor="end" font-size="11" font-family="sans-serif" fill="#555">0.051</text>
<line x1="625.0" y1="60.0" x2="630.0" y2="60.0" stroke="#666" stroke-width="1"/>
<text x="620.0" y="64.0" text-anchor="end" font-size="11" font-family="sans-serif" fill="#555">0.058</text>
<polyline fill="none" stroke="#ff7f0e" stroke-width="2" points="60.0,98.9 65.2,133.6 70.3,246.4 75.5,348.4 80.6,381.8 85.8,395.3 90.9,409.1 96.1,414.6 101.2,410.4 106.4,425.6 111.5,422.8 116.7,431.9 121.8,430.5 127.0,439.3 132.1,436.2 137.3,443.4 142.4,444.7 147.6,447.1 152.7,449.0 157.9,450.2 163.0,451.1 168.2,452.9 173.3,453.2 178.5,454.2 183.6,454.3 188.8,454.4 193.9,454.7 199.1,454.9 204.2,455.4 209.4,455.5 214.5,455.8 219.7,455.7 224.8,455.9 230.0,456.1 235.2,456.3 240.3,456.1 245.5,456.4 250.6,456.5 255.8,456.6 260.9,456.8 266.1,456.4 271.2,456.7 276.4,456.8 281.5,456.8 286.7,456.9 291.8,456.8 297.0,457.0 302.1,457.1 307.3,457.1 312.4,457.2 317.6,457.0 322.7,457.1 327.9,457.2 333.0,457.3 338.2,457.4 343.3,457.2 348.5,457.4 353.6,457.5 358.8,457.3 363.9,457.4 369.1,457.6 374.2,457.5 379.4,457.5 384.5,457.4 389.7,457.5 394.8,457.7 400.0,457.6 405.2,457.6 410.3,457.6 415.5,457.7 420.6,457.6 425.8,457.8 430.9,457.7 436.1,457.8 441.2,457.8 446.4,457.7 451.5,457.7 456.7,457.7 461.8,457.7 467.0,457.7 472.1,457.7 477.3,457.8 482.4,457.7 487.6,457.9 492.7,457.7 497.9,457.8 503.0,457.9 508.2,457.8 513.3,457.8 518.5,457.8 523.6,457.8 528.8,457.8 533.9,457.7 539.1,457.9 544.2,457.9 549.4,457.9 554.5,457.9 559.7,457.8 564.8,458.1 570.0,457.8" />
<polyline fill="none" stroke="#ff7f0e" stroke-width="2" points="630.0,190.9 635.2,161.2 640.3,139.6 645.5,187.6 650.6,168.1 655.8,167.9 660.9,153.7 666.1,142.1 671.2,145.7 676.4,154.8 681.5,180.7 686.7,157.1 691.8,150.4 697.0,155.4 702.1,167.3 707.3,150.4 712.4,143.7 717.6,162.5 722.7,145.3 727.9,167.3 733.0,166.5 738.2,172.9 743.3,176.2 748.5,160.9 753.6,175.5 758.8,137.5 763.9,162.0 769.1,187.3 774.2,157.5 779.4,187.5 784.5,160.7 789.7,175.1 794.8,184.4 800.0,170.0 805.2,162.3 810.3,187.3 815.5,160.4 820.6,179.8 825.8,190.0 830.9,160.6 836.1,180.1 841.2,173.9 846.4,198.8 851.5,201.9 856.7,210.2 861.8,199.3 867.0,198.5 872.1,203.6 877.3,200.9 882.4,214.6 887.6,211.4 892.7,183.1 897.9,194.9 903.0,218.1 908.2,212.9 913.3,205.0 918.5,192.4 923.6,210.1 928.8,205.2 933.9,209.7 939.1,219.4 944.2,226.0 949.4,212.7 954.5,214.4 959.7,219.2 964.8,203.2 970.0,210.9 975.2,215.8 980.3,212.6 985.5,214.6 990.6,196.7 995.8,208.4 1000.9,211.4 1006.1,208.5 1011.2,204.2 1016.4,171.4 1021.5,195.1 1026.7,205.8 1031.8,198.8 1037.0,219.6 1042.1,162.1 1047.3,221.8 1052.4,219.5 1057.6,193.8 1062.7,208.1 1067.9,189.3 1073.0,179.9 1078.2,208.6 1083.3,216.2 1088.5,162.5 1093.6,206.5 1098.8,222.1 1103.9,213.2 1109.1,219.7 1114.2,209.4 1119.4,223.0 1124.5,226.1 1129.7,207.0 1134.8,227.5 1140.0,220.0" />
<polyline fill="none" stroke="#1f77b4" stroke-width="2" points="60.0,96.0 65.2,414.7 70.3,438.7 75.5,448.4 80.6,452.4 85.8,453.8 90.9,454.9 96.1,455.7 101.2,456.1 106.4,456.7 111.5,456.9 116.7,457.0 121.8,457.1 127.0,457.3 132.1,457.5 137.3,457.7 142.4,457.6 147.6,457.8 152.7,457.9 157.9,457.9 163.0,457.9 168.2,458.1 173.3,457.9 178.5,457.9 183.6,458.0 188.8,457.9 193.9,458.0 199.1,458.1 204.2,458.1 209.4,458.1 214.5,458.2 219.7,458.1 224.8,458.2 230.0,458.2 235.2,458.3 240.3,458.2 245.5,458.2 250.6,458.4 255.8,458.4 260.9,458.3 266.1,458.2 271.2,458.3 276.4,458.3 281.5,458.2 286.7,458.2 291.8,458.3 297.0,458.2 302.1,458.4 307.3,458.3 312.4,458.4 317.6,458.3 322.7,458.4 327.9,458.3 333.0,458.4 338.2,458.4 343.3,458.4 348.5,458.5 353.6,458.6 358.8,458.4 363.9,458.5 369.1,458.7 374.2,458.4 379.4,458.5 384.5,458.5 389.7,458.5 394.8,458.7 400.0,458.7 405.2,458.6 410.3,458.6 415.5,458.8 420.6,458.7 425.8,458.8 430.9,458.7 436.1,458.9 441.2,459.0 446.4,458.9 451.5,459.0 456.7,459.0 461.8,459.0 467.0,459.2 472.1,459.1 477.3,459.2 482.4,459.2 487.6,459.4 492.7,459.2 497.9,459.3 503.0,459.5 508.2,459.4 513.3,459.4 518.5,459.4 523.6,459.5 528.8,459.6 533.9,459.6 539.1,459.8 544.2,459.8 549.4,459.9 554.5,459.9 559.7,459.9 564.8,460.0 570.0,459.8" />
<polyline fill="none" stroke="#1f77b4" stroke-width="2" points="630.0,60.0 635.2,137.7 640.3,290.5 645.5,364.8 650.6,355.1 655.8,374.3 660.9,398.6 666.1,412.3 671.2,417.0 676.4,424.7 681.5,403.3 686.7,431.4 691.8,373.5 697.0,399.4 702.1,422.1 707.3,422.5 712.4,414.9 717.6,434.0 722.7,390.6 727.9,427.8 733.0,374.2 738.2,435.9 743.3,441.8 748.5,438.2 753.6,434.9 758.8,415.6 763.9,431.3 769.1,397.5 774.2,439.9 779.4,379.1 784.5,436.3 789.7,421.4 794.8,436.5 800.0,432.6 805.2,426.1 810.3,437.8 815.5,438.4 820.6,425.8 825.8,436.9 830.9,434.4 836.1,437.9 841.2,417.4 846.4,402.8 851.5,395.6 856.7,439.6 861.8,435.5 867.0,428.6 872.1,407.1 877.3,394.8 882.4,429.8 887.6,439.0 892.7,427.6 897.9,398.3 903.0,424.7 908.2,427.9 913.3,435.6 918.5,436.2 923.6,435.8 928.8,445.5 933.9,427.3 939.1,395.7 944.2,425.2 949.4,433.6 954.5,426.1 959.7,427.4 964.8,441.4 970.0,412.0 975.2,404.3 980.3,429.9 985.5,433.7 990.6,434.8 995.8,434.4 1000.9,422.7 1006.1,436.0 1011.2,421.4 1016.4,441.0 1021.5,430.7 1026.7,419.8 1031.8,438.5 1037.0,419.5 1042.1,433.5 1047.3,414.3 1052.4,431.9 1057.6,435.6 1062.7,432.2 1067.9,434.8 1073.0,443.5 1078.2,408.7 1083.3,441.3 1088.5,438.6 1093.6,438.1 1098.8,437.9 1103.9,433.0 1109.1,431.7 1114.2,436.4 1119.4,436.0 1124.5,423.4 1129.7,430.8 1134.8,432.3 1140.0,438.5" />
<polyline fill="none" stroke="#2ca02c" stroke-width="2" points="60.0,61.7 65.2,364.1 70.3,403.4 75.5,421.1 80.6,432.5 85.8,437.8 90.9,441.9 96.1,444.1 101.2,446.1 106.4,446.8 111.5,448.4 116.7,449.1 121.8,449.6 127.0,450.4 132.1,450.9 137.3,451.7 142.4,452.0 147.6,452.0 152.7,452.5 157.9,452.2 163.0,453.4 168.2,453.0 173.3,453.3 178.5,453.6 183.6,453.8 188.8,453.7 193.9,454.0 199.1,454.2 204.2,454.3 209.4,454.2 214.5,454.4 219.7,454.5 224.8,454.4 230.0,454.8 235.2,454.9 240.3,454.7 245.5,454.7 250.6,455.3 255.8,455.4 260.9,455.4 266.1,455.1 271.2,455.2 276.4,455.6 281.5,455.2 286.7,455.5 291.8,455.4 297.0,455.5 302.1,455.6 307.3,455.7 312.4,455.7 317.6,455.8 322.7,455.4 327.9,455.5 333.0,456.0 338.2,456.1 343.3,455.8 348.5,455.8 353.6,456.2 358.8,455.8 363.9,456.1 369.1,456.2 374.2,456.1 379.4,456.2 384.5,455.9 389.7,455.9 394.8,456.3 400.0,456.0 405.2,456.1 410.3,456.2 415.5,456.6 420.6,456.1 425.8,456.5 430.9,456.3 436.1,456.4 441.2,456.4 446.4,456.3 451.5,456.4 456.7,456.3 461.8,456.3 467.0,456.6 472.1,456.5 477.3,456.5 482.4,456.4 487.6,456.8 492.7,456.6 497.9,456.6 503.0,456.8 508.2,456.5 513.3,456.4 518.5,456.7 523.6,456.7 528.8,456.8 533.9,456.5 539.1,456.7 544.2,456.7 549.4,456.9 554.5,456.8 559.7,456.4 564.8,457.2 570.0,456.6" />
<polyline fill="none" stroke="#2ca02c" stroke-width="2" points="630.0,271.1 635.2,367.9 640.3,360.9 645.5,384.8 650.6,427.2 655.8,431.3 660.9,383.7 666.1,428.8 671.2,431.3 676.4,444.3 681.5,435.7 686.7,434.8 691.8,434.5 697.0,438.8 702.1,427.6 707.3,430.6 712.4,438.0 717.6,428.0 722.7,416.5 727.9,444.7 733.0,439.9 738.2,436.5 743.3,424.6 748.5,436.5 753.6,387.7 758.8,444.2 763.9,410.9 769.1,450.8 774.2,435.7 779.4,452.8 784.5,448.7 789.7,447.2 794.8,399.4 800.0,446.6 805.2,449.7 810.3,453.4 815.5,428.5 820.6,439.7 825.8,442.7 830.9,448.3 836.1,450.6 841.2,451.4 846.4,447.2 851.5,445.7 856.7,438.6 861.8,445.8 867.0,450.8 872.1,439.1 877.3,440.6 882.4,438.6 887.6,441.2 892.7,440.3 897.9,430.3 903.0,413.1 908.2,411.5 913.3,442.9 918.5,445.7 923.6,440.6 928.8,447.5 933.9,424.8 939.1,441.1 944.2,448.9 949.4,419.4 954.5,448.7 959.7,454.4 964.8,438.8 970.0,451.9 975.2,454.2 980.3,451.7 985.5,450.6 990.6,452.2 995.8,448.0 1000.9,451.5 1006.1,448.4 1011.2,446.2 1016.4,445.7 1021.5,452.7 1026.7,453.0 1031.8,454.0 1037.0,446.5 1042.1,448.7 1047.3,446.9 1052.4,442.5 1057.6,444.2 1062.7,457.7 1067.9,456.8 1073.0,455.3 1078.2,451.7 1083.3,451.1 1088.5,456.2 1093.6,453.2 1098.8,453.1 1103.9,449.0 1109.1,449.2 1114.2,453.7 1119.4,455.1 1124.5,445.2 1129.7,438.1 1134.8,454.0 1140.0,451.2" />
<polyline fill="none" stroke="#d62728" stroke-width="2" points="60.0,60.0 65.2,417.6 70.3,440.8 75.5,449.8 80.6,452.4 85.8,453.7 90.9,454.2 96.1,454.4 101.2,454.6 106.4,454.9 111.5,455.0 116.7,455.1 121.8,455.2 127.0,455.4 132.1,455.5 137.3,455.7 142.4,455.6 147.6,455.8 152.7,455.9 157.9,455.9 163.0,456.1 168.2,456.1 173.3,456.1 178.5,456.3 183.6,456.3 188.8,456.2 193.9,456.3 199.1,456.4 204.2,456.4 209.4,456.5 214.5,456.6 219.7,456.5 224.8,456.6 230.0,456.6 235.2,456.7 240.3,456.6 245.5,456.7 250.6,456.9 255.8,456.9 260.9,456.9 266.1,456.8 271.2,456.8 276.4,456.9 281.5,456.8 286.7,456.8 291.8,456.9 297.0,456.9 302.1,457.1 307.3,457.0 312.4,457.1 317.6,457.0 322.7,457.0 327.9,457.1 333.0,457.1 338.2,457.2 343.3,457.1 348.5,457.1 353.6,457.3 358.8,457.1 363.9,457.1 369.1,457.2 374.2,457.2 379.4,457.2 384.5,457.1 389.7,457.1 394.8,457.3 400.0,457.3 405.2,457.2 410.3,457.2 415.5,457.3 420.6,457.3 425.8,457.3 430.9,457.3 436.1,457.4 441.2,457.4 446.4,457.3 451.5,457.3 456.7,457.2 461.8,457.3 467.0,457.4 472.1,457.3 477.3,457.4 482.4,457.3 487.6,457.5 492.7,457.4 497.9,457.4 503.0,457.5 508.2,457.4 513.3,457.4 518.5,457.4 523.6,457.5 528.8,457.5 533.9,457.4 539.1,457.5 544.2,457.5 549.4,457.5 554.5,457.5 559.7,457.4 564.8,457.6 570.0,457.4" />
<polyline fill="none" stroke="#d62728" stroke-width="2" points="630.0,335.7 635.2,411.4 640.3,415.1 645.5,371.9 650.6,431.6 655.8,433.8 660.9,449.3 666.1,397.8 671.2,440.1 676.4,442.5 681.5,443.6 686.7,443.2 691.8,441.3 697.0,447.8 702.1,438.7 707.3,454.3 712.4,431.4 717.6,393.1 722.7,454.8 727.9,432.3 733.0,454.3 738.2,452.7 743.3,450.5 748.5,446.5 753.6,428.5 758.8,455.7 763.9,414.3 769.1,455.4 774.2,449.1 779.4,438.2 784.5,436.3 789.7,454.4 794.8,448.5 800.0,455.6 805.2,429.9 810.3,400.1 815.5,452.0 820.6,453.4 825.8,455.6 830.9,459.9 836.1,455.0 841.2,454.9 846.4,455.8 851.5,453.4 856.7,460.0 861.8,454.7 867.0,402.6 872.1,370.9 877.3,382.7 882.4,396.9 887.6,402.0 892.7,450.0 897.9,453.4 903.0,450.5 908.2,447.6 913.3,443.2 918.5,446.5 923.6,448.9 928.8,431.0 933.9,439.7 939.1,445.1 944.2,447.2 949.4,452.6 954.5,455.9 959.7,449.1 964.8,450.5 970.0,428.5 975.2,446.3 980.3,443.0 985.5,438.9 990.6,406.7 995.8,451.4 1000.9,430.0 1006.1,453.0 1011.2,449.5 1016.4,448.0 1021.5,452.0 1026.7,457.2 1031.8,453.3 1037.0,450.4 1042.1,450.0 1047.3,447.2 1052.4,449.0 1057.6,450.8 1062.7,454.0 1067.9,459.0 1073.0,449.8 1078.2,455.3 1083.3,452.3 1088.5,448.1 1093.6,413.1 1098.8,452.0 1103.9,454.0 1109.1,432.5 1114.2,449.8 1119.4,451.0 1124.5,449.2 1129.7,456.5 1134.8,455.3 1140.0,450.7" />
<line x1="990" y1="45" x2="1015" y2="45" stroke="#ff7f0e" stroke-width="3"/>
<text x="1022" y="49" font-size="13" font-family="sans-serif">adafactor</text>
<line x1="990" y1="67" x2="1015" y2="67" stroke="#1f77b4" stroke-width="3"/>
<text x="1022" y="71" font-size="13" font-family="sans-serif">adamw</text>
<line x1="990" y1="89" x2="1015" y2="89" stroke="#2ca02c" stroke-width="3"/>
<text x="1022" y="93" font-size="13" font-family="sans-serif">rmsprop</text>
<line x1="990" y1="111" x2="1015" y2="111" stroke="#d62728" stroke-width="3"/>
<text x="1022" y="115" font-size="13" font-family="sans-serif">sgd</text>
<text x="315.0" y="505" text-anchor="middle" font-size="12" font-family="sans-serif">step</text>
<text x="885.0" y="505" text-anchor="middle" font-size="12" font-family="sans-serif">step</text>
<text x="25" y="260.0" text-anchor="middle" font-size="12" font-family="sans-serif" transform="rotate(-90 25,260.0)">loss</text>
<text x="595.0" y="260.0" text-anchor="middle" font-size="12" font-family="sans-serif" transform="rotate(-90 595.0,260.0)">step_time (s)</text>
</svg>
